<svg width="109" height="97" viewBox="0 0 109 97" fill="none" xmlns="http://www.w3.org/2000/svg">
<path fill-rule="evenodd" clip-rule="evenodd" d="M53.0503 0C79.7282 0 101.386 21.5602 101.386 48.1177C101.386 52.0919 100.902 55.9552 99.9893 59.6486C99.0835 63.3107 97.7527 66.8099 96.0596 70.0871C94.4746 73.1493 92.5726 76.0207 90.3919 78.6598C81.5259 89.3896 68.0858 96.2354 53.0503 96.2354C26.3724 96.2354 4.71443 74.6752 4.71443 48.1177C4.71443 21.5602 26.3724 0 53.0503 0Z" fill="#FDCD18"/>
<path fill-rule="evenodd" clip-rule="evenodd" d="M78.5961 81.2267C78.5885 81.2493 78.5844 81.2718 78.5769 81.2906C78.5731 81.3018 78.5733 81.313 78.5695 81.3243L78.5659 81.3318C78.3207 82.1729 77.6303 83.1267 76.1178 83.6824C74.9447 84.118 72.9229 84.3996 70.1807 84.3808C64.5002 84.3357 55.3156 83.0966 44.3281 80.1678C33.3066 77.2277 24.7484 73.7282 19.8148 70.9346C17.4309 69.5828 15.8277 68.325 15.028 67.3638C14.0059 66.1247 13.8853 64.9568 14.0965 64.112C14.1003 64.097 14.1038 64.0819 14.1075 64.0669L18.9698 45.9984L2.09785 34.6362C1.29443 34.0955 0.698603 33.3408 0.347816 32.4846C0.000800656 31.6285 -0.0974162 30.671 0.102495 29.7248C0.302406 28.7823 0.777872 27.945 1.4455 27.2991C2.10935 26.6533 2.96173 26.2028 3.91602 26.03L59.5026 15.9331C60.2042 15.8054 60.9172 15.8392 61.5886 16.0195C62.2638 16.1959 62.8971 16.5226 63.4403 16.9807L106.693 53.4142C107.432 54.0376 107.949 54.8524 108.201 55.7423C108.454 56.6322 108.447 57.5972 108.145 58.5134C107.843 59.4333 107.277 60.2145 106.546 60.7852C105.814 61.3522 104.916 61.7088 103.947 61.7764L93.1138 62.5387L83.4881 63.2145L78.5961 81.2267ZM74.1302 79.2479L79.2749 60.312C79.5427 59.3245 80.4101 58.6149 81.436 58.5398L103.468 56.9927L60.3436 20.668L4.91941 30.7348L23.1001 42.9758C23.9525 43.5503 24.3446 44.5978 24.0806 45.5891C24.0806 45.5891 19.9505 60.9316 18.9849 64.5175C19.1961 64.7203 19.49 64.9943 19.7654 65.2009C21.8098 66.7328 25.5518 68.6553 30.6137 70.6566C34.7854 72.3088 39.8322 73.9911 45.5768 75.5231C51.3101 77.0551 56.5304 78.1101 60.9775 78.7597C66.36 79.5482 70.5693 79.7472 73.1154 79.4468C73.4548 79.4055 73.8473 79.3193 74.1302 79.2479Z" fill="white"/>
<path fill-rule="evenodd" clip-rule="evenodd" d="M78.5279 81.4557V81.4519L78.532 81.437L78.5393 81.422L78.5581 81.3544L78.5659 81.3318V81.3281L78.5769 81.2906L83.4881 63.2145L89.7342 62.7752L98.1459 62.1858L103.947 61.7764C104.916 61.7088 105.814 61.3522 106.546 60.7852C107.277 60.2145 107.843 59.4333 108.145 58.5134C108.447 57.5972 108.454 56.6322 108.201 55.7423C107.949 54.8524 107.432 54.0376 106.693 53.4142L63.4403 16.9807C62.8971 16.5226 62.2638 16.1959 61.5886 16.0195C60.9172 15.8392 60.2042 15.8054 59.5026 15.9331L3.91602 26.03C2.96173 26.2028 2.10935 26.6533 1.4455 27.2991C0.777872 27.945 0.302406 28.7823 0.102495 29.7248C-0.0974162 30.671 0.000800656 31.6285 0.347816 32.4846C0.698603 33.3408 1.29443 34.0955 2.09785 34.6362L18.9698 45.9984L14.1075 64.0669C14.1038 64.0819 14.1003 64.097 14.0965 64.112C13.8853 64.9568 14.0059 66.1247 15.028 67.3638C15.8277 68.325 17.4309 69.5828 19.8148 70.9346C24.7484 73.7282 33.3066 77.2277 44.3281 80.1678C55.3156 83.0966 64.5002 84.3357 70.1807 84.3808C72.9229 84.3996 74.9447 84.118 76.1178 83.6824C77.5587 83.153 78.2526 82.263 78.5279 81.4557ZM76.1064 83.0628H76.1104H76.1027H76.1064ZM76.7514 83.014L76.7175 83.0215L76.7403 83.0178L76.7514 83.014ZM75.6916 83.0028H75.703L75.6537 82.9914L75.6916 83.0028ZM76.8571 82.9878L76.8118 82.9989L76.8346 82.9953L76.8571 82.9878ZM76.9702 82.9577L76.9098 82.9727L76.9289 82.9689L76.9702 82.9577ZM75.5557 82.9652L75.5745 82.9727L75.5255 82.9538L75.5557 82.9652ZM77.091 82.9126L77.0081 82.9427L77.0232 82.939L77.091 82.9126ZM75.4238 82.924L75.4463 82.9315L75.401 82.9126L75.4238 82.924ZM77.2118 82.8675L77.1098 82.9089C77.1437 82.8939 77.1779 82.8825 77.2118 82.8675ZM75.2956 82.8713L75.3144 82.8789L75.2842 82.8675L75.2956 82.8713ZM77.3098 82.8226L77.2269 82.86L77.291 82.8301L77.3098 82.8226ZM75.1711 82.8151L75.1785 82.8187L75.1675 82.8112L75.1711 82.8151ZM77.4041 82.7736L77.3363 82.8075L77.3776 82.7887L77.4041 82.7736ZM77.4984 82.7173L77.4343 82.7549L77.4604 82.7399L77.4984 82.7173ZM77.5927 82.6574L77.5286 82.6986L77.5437 82.6911L77.5927 82.6574ZM77.7021 82.5822L77.6192 82.6385C77.6494 82.6197 77.6757 82.601 77.7021 82.5822ZM77.785 82.5184L77.7433 82.5485L77.7776 82.5221L77.785 82.5184ZM74.707 82.5146L74.7107 82.5184L74.7033 82.5109L74.707 82.5146ZM77.8605 82.4508L77.8303 82.4771L77.849 82.4621L77.8605 82.4508ZM74.6017 82.4207L74.609 82.4282L74.5976 82.417L74.6017 82.4207ZM77.936 82.3833L77.9095 82.4056L77.9209 82.3981L77.936 82.3833ZM77.9964 82.3193L77.985 82.3307H77.9887L77.9964 82.3193ZM78.1772 82.1053L78.1658 82.1204L78.1736 82.109L78.1772 82.1053ZM74.3188 82.109L74.3261 82.1204L74.3074 82.0903L74.3188 82.109ZM78.2377 82.0226L78.2226 82.0452L78.2299 82.0302L78.2377 82.0226ZM74.2392 81.9964L74.2506 82.0151L74.2282 81.9777L74.2392 81.9964ZM78.2981 81.9326L78.2793 81.9588L78.2866 81.9513L78.2981 81.9326ZM74.1641 81.8763L74.1792 81.9025L74.1563 81.865L74.1641 81.8763ZM74.0959 81.7561L74.1037 81.7711L74.0959 81.7524V81.7561ZM78.4299 81.6886L78.4075 81.7335L78.4263 81.6961L78.4299 81.6886ZM78.4752 81.5872L78.4528 81.6435L78.4679 81.6059L78.4752 81.5872ZM74.0359 81.6285L74.0396 81.636L74.0282 81.6059L74.0359 81.6285ZM78.5169 81.4744L78.494 81.5421L78.5054 81.5159L78.5169 81.4744ZM73.9828 81.5008L73.9906 81.5159L73.9792 81.482L73.9828 81.5008ZM78.5659 81.3318L78.532 81.4446V81.437L78.5581 81.3544L78.5659 81.3318ZM73.9416 81.3694L73.9453 81.3844L73.9375 81.358L73.9416 81.3694ZM73.9036 81.2379V81.2418V81.2343V81.2379ZM73.8322 80.6897V80.6973V80.6861V80.6897ZM73.8359 80.5546V80.5621V80.5471V80.5546ZM73.8473 80.4156V80.4231V80.412V80.4156ZM73.8922 80.1377L73.8885 80.1452L73.9 80.1078L73.8922 80.1377ZM103.468 56.9927L96.0901 57.5109C95.4602 57.5559 94.8867 57.8412 94.4793 58.2881C94.0078 57.8976 93.397 57.7024 92.7746 57.7437L81.436 58.5398C80.4101 58.6149 79.5427 59.3245 79.2749 60.312L74.1302 79.2479C73.8473 79.3193 73.4548 79.4055 73.1154 79.4468C70.5693 79.7472 66.36 79.5482 60.9775 78.7597C56.5304 78.1101 51.3101 77.0551 45.5768 75.5231C39.8322 73.9911 34.7854 72.3088 30.6137 70.6566C25.5518 68.6553 21.8098 66.7328 19.7654 65.2009C19.49 64.9943 19.1923 64.7203 18.9849 64.5175L24.0806 45.5891C24.3446 44.5978 23.9525 43.5503 23.1001 42.9758L4.91941 30.7348L60.3436 20.668L103.468 56.9927Z" fill="white"/>
<path fill-rule="evenodd" clip-rule="evenodd" d="M76.246 80.6639C75.6199 82.8417 62.705 82.5825 44.9506 77.8439C27.1397 73.094 15.8957 66.8909 16.4388 64.6868L21.7497 44.9662L3.4519 32.6464C2.6598 32.1132 2.26785 31.1519 2.46399 30.2207C2.6639 29.2858 3.40696 28.565 4.34994 28.3923L59.9362 18.299C60.6302 18.1713 61.3432 18.363 61.8825 18.8173L105.135 55.2471C105.867 55.8629 106.15 56.8617 105.852 57.7667C105.554 58.6753 104.732 59.3136 103.777 59.3812L96.2599 59.9068L93.9099 68.6408C95.0112 69.5494 95.5431 71.0438 95.1508 72.5082C94.8151 73.7511 93.8912 74.6823 92.7558 75.0803L91.3185 85.7929C91.2544 86.2698 90.9868 86.6979 90.587 86.9645C90.1834 87.2311 89.6854 87.3136 89.2215 87.186C88.1163 86.8931 86.7208 86.5214 85.6194 86.2286C85.1554 86.1046 84.7629 85.7854 84.5479 85.3536C84.3366 84.9218 84.3181 84.4225 84.5029 83.9756L88.6406 73.9801C87.856 73.0714 87.524 71.806 87.8597 70.5631C88.252 69.0987 89.4666 68.07 90.8735 67.8297L92.9444 60.1433L81.6059 60.9394L76.246 80.6639Z" fill="#242521"/>
<path fill-rule="evenodd" clip-rule="evenodd" d="M81.1446 62.613C78.5501 60.7799 74.5486 58.5564 69.5667 56.3757C66.9719 55.2401 64.1128 54.1355 61.051 53.082C58.2939 52.1371 55.3788 51.228 52.3229 50.4684L52.2353 50.4451C48.5671 49.4055 44.9683 48.6571 41.5627 48.0616C37.6334 47.3734 33.9619 46.9136 30.6872 46.6842C26.9279 46.4232 23.7182 46.4215 21.3087 46.6292L21.7516 44.9857C24.225 43.7428 27.4399 43.0988 30.8067 43.0761C34.8496 43.0502 39.5068 43.3128 44.4882 44.0553C47.3928 44.49 50.3968 45.1266 53.4602 45.8999L53.5478 45.9232C57.3848 47.0156 61.0238 48.2657 64.3563 49.6679C68.1883 51.2772 71.7054 52.904 74.5751 54.7598C79.5841 57.9999 80.2536 59.0903 81.6012 60.9341" fill="#FDCD18"/>
<path d="M45.9704 75.2525C60.913 79.2329 73.5886 80.3737 74.2821 77.801C74.9755 75.2283 63.4237 69.9179 48.4811 65.9375C33.5385 61.9572 20.8635 60.8142 20.1701 63.3869C19.4766 65.9596 31.0278 71.2722 45.9704 75.2525Z" fill="#FDCD18"/>
</svg>
