<?xml version="1.0" encoding="UTF-8" standalone="no"?>
<!DOCTYPE svg PUBLIC "-//W3C//DTD SVG 1.1//EN" "http://www.w3.org/Graphics/SVG/1.1/DTD/svg11.dtd">
<svg width="100%" height="100%" viewBox="0 0 1156 1031" version="1.1" xmlns="http://www.w3.org/2000/svg" xmlns:xlink="http://www.w3.org/1999/xlink" xml:space="preserve" xmlns:serif="http://www.serif.com/" style="fill-rule:evenodd;clip-rule:evenodd;stroke-linejoin:round;stroke-miterlimit:2;">
    <g transform="matrix(1,0,0,1,-195.142843,-197.5875)">
        <g transform="matrix(4.166667,0,0,4.166667,0,0.62625)">
            <path d="M74.393,110.966C95.508,72.99 136.045,47.271 182.542,47.271C250.788,47.271 306.196,102.679 306.196,170.925C306.196,171.629 306.19,172.331 306.178,173.032L319.774,184.535C321.669,186.139 322.984,188.237 323.633,190.523C324.282,192.81 324.263,195.286 323.492,197.645C322.721,200.005 321.274,202.014 319.4,203.476C317.526,204.939 315.226,205.855 312.75,206.03L300.882,206.868C299.175,212.488 297.079,217.939 294.624,223.189C295.19,224.167 295.651,225.206 295.997,226.287C296.893,229.083 297.025,232.159 296.21,235.203C295.519,237.782 294.226,240.04 292.526,241.87C291.711,242.749 290.801,243.528 289.818,244.195L286.565,268.566C286.366,270.058 285.85,271.472 285.071,272.722C284.292,273.971 283.249,275.056 281.996,275.892C280.743,276.727 279.341,277.273 277.888,277.512C276.435,277.751 274.931,277.684 273.477,277.294L264.269,274.827C262.814,274.437 261.479,273.744 260.34,272.81C259.201,271.876 258.259,270.703 257.592,269.353C257.571,269.31 257.551,269.268 257.53,269.225C236.725,285.128 210.728,294.579 182.542,294.579C114.295,294.579 58.888,239.172 58.888,170.925C58.888,161.309 59.988,151.948 62.069,142.959L52.202,136.285C50.148,134.895 48.616,132.953 47.726,130.752C46.835,128.551 46.586,126.091 47.096,123.664C47.606,121.237 48.825,119.085 50.526,117.429C52.227,115.772 54.411,114.611 56.85,114.166L74.393,110.966ZM102.156,164.001L102.469,162.832L55.662,131.17C53.632,129.797 52.635,127.332 53.139,124.934C53.643,122.536 55.548,120.681 57.959,120.241L200.159,94.3C201.934,93.976 203.76,94.463 205.137,95.628L315.785,189.25C317.658,190.834 318.384,193.395 317.622,195.727C316.86,198.059 314.762,199.697 312.315,199.87L293.087,201.228L287.074,223.666C289.89,226.001 291.252,229.843 290.245,233.605C289.388,236.8 287.022,239.19 284.119,240.214L280.444,267.749C280.281,268.973 279.598,270.068 278.57,270.754C277.542,271.439 276.268,271.649 275.075,271.329C272.255,270.574 268.687,269.617 265.867,268.862C264.674,268.542 263.676,267.724 263.128,266.616C262.581,265.509 262.537,264.219 263.008,263.077L273.592,237.394C271.59,235.055 270.736,231.802 271.592,228.607C272.6,224.845 275.701,222.199 279.307,221.585L284.601,201.827L255.598,203.876C252.147,199.143 250.431,196.345 237.61,188.027C230.266,183.262 221.266,179.076 211.461,174.939C202.931,171.341 193.62,168.126 183.803,165.314L183.579,165.256C175.741,163.263 168.055,161.626 160.624,160.507C147.88,158.588 135.968,157.899 125.626,157.961C117.013,158.014 108.793,159.651 102.469,162.832L102.156,164.001ZM101.341,167.041C107.503,166.516 115.713,166.53 125.329,167.212C133.706,167.806 143.099,168.997 153.152,170.768C161.865,172.302 171.071,174.233 180.458,176.902L180.682,176.964C188.499,178.926 195.959,181.26 203.012,183.693C210.848,186.395 218.163,189.241 224.803,192.16C237.551,197.762 247.794,203.47 254.434,208.179L241.888,254.565C240.287,260.163 207.247,259.491 161.829,247.322C116.261,235.112 87.492,219.168 88.89,213.509L101.341,167.041ZM170.784,216.777C208.991,227.015 238.576,240.679 236.809,247.271C235.043,253.864 202.589,250.905 164.382,240.668C126.175,230.43 96.59,216.766 98.357,210.173C100.123,203.581 132.577,206.54 170.784,216.777Z" style="fill:white;"/>
        </g>
    </g>
</svg>
