<svg width="100%" height="100%" viewBox="0 0 1000 1000" version="1.1" xmlns="http://www.w3.org/2000/svg" xmlns:xlink="http://www.w3.org/1999/xlink">
<style>
    circle, path {
      stroke: #E43636;
    }
    @media (prefers-color-scheme: dark) {
    circle, path {
        stroke: #F5F5F5;
      }
    }
  </style>
    <g>
        <g transform="matrix(0,-6.306733,-6.306733,0,642.71538,253.930192)">
            <circle cx="-39.017" cy="0" r="39.017" style="fill:none;stroke-width:2.64px;"/>
        </g>
        <g transform="matrix(2.890431,-5.605381,-5.605381,-2.890431,572.94047,419.104031)">
            <path d="M-44.957,-10.174C-51.921,-6.575 -57.882,-0.862 -61.75,6.639C-71.622,25.784 -64.11,49.313 -44.957,59.19C-25.803,69.066 -2.269,61.546 7.603,42.401C11.471,34.9 12.668,26.73 11.553,18.965" style="fill:none;fill-rule:nonzero;stroke-width:2.64px;"/>
        </g>
        <g transform="matrix(3.094301,-5.495469,-5.495469,-3.094301,514.671572,456.586339)">
            <path d="M-32.207,-6.426C-36.605,-3.956 -40.389,-0.292 -43.039,4.414C-50.747,18.103 -45.896,35.455 -32.207,43.163C-18.509,50.876 -1.157,46.025 6.551,32.336C9.205,27.622 10.367,22.481 10.199,17.439" style="fill:none;fill-rule:nonzero;stroke-width:2.64px;"/>
        </g>
        <g transform="matrix(3.081676,-5.502559,-5.502559,-3.081676,456.240811,472.082266)">
            <path d="M-20.272,-4.078C-23.058,-2.521 -25.459,-0.198 -27.135,2.795C-31.958,11.406 -28.892,22.304 -20.272,27.132C-11.652,31.959 -0.749,28.884 4.073,20.273C5.75,17.28 6.476,14.019 6.348,10.83" style="fill:none;fill-rule:nonzero;stroke-width:2.64px;"/>
        </g>
    </g>
    
</svg>
