<svg width="166" height="125" viewBox="0 0 166 125" fill="none" xmlns="http://www.w3.org/2000/svg">
<path d="M0.767334 102.661C0.767334 102.528 0.887365 102.421 1.02026 102.421H1.22174C1.31605 102.421 1.38036 102.447 1.44895 102.515L6.86756 108.297H6.89328V102.807C6.89328 102.674 7.00046 102.554 7.14621 102.554H8.36797C8.50086 102.554 8.6209 102.674 8.6209 102.807V111.757C8.6209 111.89 8.50086 111.997 8.36797 111.997H8.18363C8.08932 111.997 8.02502 111.971 7.95643 111.903L2.51209 105.893H2.48637V111.611C2.48637 111.744 2.3792 111.864 2.23345 111.864H1.02455C0.891653 111.864 0.771619 111.744 0.771619 111.611V102.666L0.767334 102.661Z" fill="black"/>
<path d="M16.1787 111.568C16.1787 111.727 16.0458 111.86 15.8872 111.86H15.2913C15.1455 111.86 15.0512 111.74 14.9998 111.568L14.8412 111.087C14.8412 111.087 14.1896 112.006 12.8906 112.006C11.2188 112.006 9.98413 110.542 9.98413 108.787C9.98413 107.031 11.2188 105.584 12.9035 105.584C13.9109 105.584 14.5882 106.104 14.8283 106.396L15.0426 105.902C15.0812 105.769 15.2013 105.718 15.2956 105.718H15.8914C16.0501 105.718 16.183 105.838 16.183 106.009V111.568H16.1787ZM14.4939 107.941C14.361 107.623 13.9624 107.104 13.165 107.104C12.1704 107.104 11.6517 107.877 11.6517 108.808C11.6517 109.739 12.1704 110.495 13.1264 110.495C13.9752 110.495 14.361 110.001 14.4939 109.645V107.945V107.941Z" fill="black"/>
<path d="M17.8762 106.014C17.8762 105.842 18.022 105.722 18.1677 105.722H18.6607C18.8065 105.722 18.8751 105.791 18.9265 105.919L19.1537 106.516C19.3681 106.211 19.9382 105.584 20.8813 105.584C21.6101 105.584 22.2103 105.782 22.0388 106.181L21.6401 107.087C21.5715 107.233 21.4258 107.284 21.28 107.22C21.1343 107.155 20.9885 107.1 20.7098 107.1C20.0454 107.1 19.6467 107.525 19.5395 107.739V111.568C19.5395 111.795 19.3938 111.86 19.1966 111.86H18.172C18.0263 111.86 17.8805 111.727 17.8805 111.568V106.009L17.8762 106.014Z" fill="black"/>
<path d="M25.6183 105.589C27.3588 105.589 28.7649 107.053 28.7649 108.778C28.7649 110.504 27.3588 112.01 25.6183 112.01C23.8779 112.01 22.4846 110.534 22.4846 108.778C22.4846 107.023 23.8907 105.589 25.6183 105.589ZM25.6183 110.491C26.51 110.491 27.2259 109.718 27.2259 108.774C27.2259 107.829 26.51 107.1 25.6183 107.1C24.7267 107.1 24.0236 107.847 24.0236 108.774C24.0236 109.701 24.7267 110.491 25.6183 110.491Z" fill="black"/>
<path d="M32.7474 105.588C33.3561 105.588 33.9434 105.734 34.2221 105.842V102.85C34.2221 102.704 34.3678 102.558 34.5136 102.558H35.5896C35.7482 102.558 35.8811 102.704 35.8811 102.85V111.572C35.8811 111.731 35.7482 111.864 35.5896 111.864H35.1009C34.9551 111.864 34.8608 111.744 34.8094 111.572L34.6508 111.091C34.6508 111.091 33.9477 112.01 32.6445 112.01C30.9726 112.01 29.708 110.653 29.708 108.791C29.708 106.928 30.9169 105.588 32.7474 105.588ZM34.2221 107.447C34.2221 107.447 33.7162 107.099 32.9489 107.099C31.9415 107.099 31.4228 107.924 31.4228 108.786C31.4228 109.649 31.9158 110.486 32.8717 110.486C33.6691 110.486 34.0935 109.98 34.2264 109.636V107.443L34.2221 107.447Z" fill="black"/>
<path d="M40.3438 105.589C42.0843 105.589 43.4904 107.053 43.4904 108.778C43.4904 110.504 42.0843 112.01 40.3438 112.01C38.6033 112.01 37.2101 110.534 37.2101 108.778C37.2101 107.023 38.6162 105.589 40.3438 105.589ZM40.3438 110.491C41.2355 110.491 41.9514 109.718 41.9514 108.774C41.9514 107.829 41.2355 107.1 40.3438 107.1C39.4521 107.1 38.7491 107.847 38.7491 108.774C38.7491 109.701 39.4521 110.491 40.3438 110.491Z" fill="black"/>
<path d="M44.1677 106.065C44.0733 105.881 44.2062 105.717 44.4206 105.717H45.458C45.5395 105.717 45.6981 105.786 45.7238 105.902L46.654 108.825H46.6669L48.2745 105.713C48.3002 105.649 48.3688 105.58 48.5146 105.58H48.6346C48.7803 105.58 48.8489 105.632 48.8875 105.713L50.4822 108.825H50.4951L51.4125 105.902C51.4639 105.73 51.5968 105.717 51.7597 105.717H52.69C52.9043 105.717 53.0372 105.876 52.9686 106.065L51.0824 111.834C51.0567 111.928 50.9495 112.006 50.8037 112.006H50.7523C50.6194 112.006 50.5551 111.937 50.4994 111.86L48.5746 108.164H48.5617L46.6369 111.86C46.5983 111.941 46.504 112.006 46.3968 112.006H46.3154C46.1696 112.006 46.0753 111.924 46.0496 111.834L44.1762 106.065H44.1677Z" fill="black"/>
<path d="M53.5646 106.116C53.4831 105.902 53.5903 105.717 53.8304 105.717H55.1036C55.2364 105.717 55.3308 105.786 55.3565 105.889L56.4582 109.559H56.4839L57.8772 105.889C57.9715 105.73 58.0744 105.717 58.263 105.717H59.3904C59.6305 105.717 59.7505 105.915 59.6562 106.116L56.0467 114.839C56.0081 114.933 55.9009 115.023 55.7809 115.023H54.5077C54.2676 115.023 54.1476 114.826 54.2419 114.611L55.4765 111.499L53.5646 106.116Z" fill="black"/>
<path d="M65.2462 102.807C65.2462 102.674 65.3662 102.554 65.4991 102.554H66.7338C66.8667 102.554 66.9867 102.674 66.9867 102.807V111.607C66.9867 111.74 66.8667 111.86 66.7338 111.86H65.4991C65.3662 111.86 65.2462 111.74 65.2462 111.607V102.807Z" fill="black"/>
<path d="M68.8344 106.014C68.8344 105.842 68.9801 105.722 69.1259 105.722H69.6317C69.7775 105.722 69.8461 105.791 69.8846 105.906L70.1118 106.477C70.339 106.224 70.9092 105.584 72.0924 105.584C74.0429 105.584 74.5488 106.902 74.5488 108.392V111.568C74.5488 111.727 74.403 111.86 74.2573 111.86H73.1812C73.0226 111.86 72.8897 111.727 72.8897 111.568V108.392C72.8897 107.593 72.5725 107.104 71.8266 107.104C71.0292 107.104 70.6434 107.636 70.4977 108.061V111.572C70.4977 111.8 70.4033 111.864 70.1118 111.864H69.1301C68.9844 111.864 68.8386 111.731 68.8386 111.572V106.014H68.8344Z" fill="black"/>
<path d="M75.9892 111.452C75.9077 111.401 75.8434 111.255 75.9077 111.117L76.3064 110.319C76.3707 110.173 76.5208 110.117 76.6665 110.212C76.9452 110.383 77.3824 110.611 78.0212 110.611C78.4841 110.611 78.6985 110.439 78.6985 110.173C78.6985 109.894 78.3555 109.641 77.5453 109.323C76.3621 108.873 75.8306 108.315 75.8306 107.383C75.8306 106.452 76.5336 105.589 78.034 105.589C78.9343 105.589 79.5216 105.829 79.8517 106.04C79.9846 106.147 80.066 106.306 79.9846 106.465L79.6416 107.168C79.5473 107.314 79.3887 107.34 79.2558 107.289C78.9643 107.156 78.5399 106.984 78.034 106.984C77.6225 106.984 77.451 107.181 77.451 107.383C77.451 107.662 77.7554 107.808 78.3255 108.048C79.5087 108.525 80.3575 108.95 80.3575 110.173C80.3575 111.143 79.5344 112.006 77.9954 112.006C76.9752 112.006 76.3364 111.688 75.9892 111.448V111.452Z" fill="black"/>
<path d="M82.068 107.207H81.4721C81.3135 107.207 81.1935 107.061 81.1935 106.915V106.01C81.1935 105.838 81.3135 105.718 81.4721 105.718H82.068V104.018C82.068 103.859 82.2138 103.726 82.3595 103.726H83.4484C83.607 103.726 83.727 103.859 83.727 104.018V105.718H85.1588C85.3175 105.718 85.4504 105.838 85.4504 106.01V106.915C85.4504 107.061 85.3175 107.207 85.1588 107.207H83.727V109.971C83.727 110.383 83.9242 110.478 84.2329 110.478C84.4987 110.478 85.0045 110.332 85.1631 110.276C85.3346 110.208 85.4804 110.289 85.5061 110.435L85.6776 111.246C85.7161 111.405 85.6518 111.525 85.5061 111.607C85.2917 111.727 84.4172 112.006 83.7785 112.006C82.411 112.006 82.0637 111.087 82.0637 110.023V107.203L82.068 107.207Z" fill="black"/>
<path d="M86.2649 106.116C86.1834 105.902 86.2906 105.717 86.5307 105.717H87.8039C87.9368 105.717 88.0311 105.786 88.0568 105.889L89.1585 109.559H89.1842L90.5775 105.889C90.6718 105.73 90.7747 105.717 90.9633 105.717H92.0908C92.3308 105.717 92.4508 105.915 92.3565 106.116L88.747 114.839C88.7084 114.933 88.6012 115.023 88.4812 115.023H87.208C86.9679 115.023 86.8479 114.826 86.9422 114.611L88.1768 111.499L86.2649 106.116Z" fill="black"/>
<path d="M93.8698 107.207H93.2739C93.1153 107.207 92.9952 107.061 92.9952 106.915V106.01C92.9952 105.838 93.1153 105.718 93.2739 105.718H93.8698V104.018C93.8698 103.859 94.0155 103.726 94.1613 103.726H95.2501C95.4088 103.726 95.5288 103.859 95.5288 104.018V105.718H96.9606C97.1192 105.718 97.2521 105.838 97.2521 106.01V106.915C97.2521 107.061 97.1192 107.207 96.9606 107.207H95.5288V109.971C95.5288 110.383 95.726 110.478 96.0346 110.478C96.3004 110.478 96.8063 110.332 96.9649 110.276C97.1364 110.208 97.2821 110.289 97.3079 110.435L97.4793 111.246C97.5179 111.405 97.4536 111.525 97.3079 111.607C97.0935 111.727 96.219 112.006 95.5802 112.006C94.2127 112.006 93.8655 111.087 93.8655 110.023V107.203L93.8698 107.207Z" fill="black"/>
<path d="M98.5681 106.014C98.5681 105.842 98.701 105.722 98.8596 105.722H99.9356C100.094 105.722 100.227 105.842 100.227 106.014V109.271C100.227 110.083 100.506 110.495 101.26 110.495C101.938 110.495 102.259 109.881 102.349 109.353V106.014C102.349 105.773 102.431 105.722 102.679 105.722H103.712C103.871 105.722 104.004 105.842 104.004 106.014V111.572C104.004 111.731 103.871 111.864 103.712 111.864H103.237C103.091 111.864 102.984 111.757 102.945 111.637L102.774 111.117C102.456 111.452 101.818 112.01 100.874 112.01C98.9754 112.01 98.5638 110.825 98.5638 109.271V106.014H98.5681Z" fill="black"/>
<path d="M106.126 107.207H105.53C105.371 107.207 105.251 107.061 105.251 106.915V106.01C105.251 105.838 105.371 105.718 105.53 105.718H106.126V104.018C106.126 103.859 106.272 103.726 106.417 103.726H107.506C107.665 103.726 107.785 103.859 107.785 104.018V105.718H109.217C109.375 105.718 109.508 105.838 109.508 106.01V106.915C109.508 107.061 109.375 107.207 109.217 107.207H107.785V109.971C107.785 110.383 107.982 110.478 108.291 110.478C108.557 110.478 109.062 110.332 109.221 110.276C109.393 110.208 109.538 110.289 109.564 110.435L109.736 111.246C109.774 111.405 109.71 111.525 109.564 111.607C109.35 111.727 108.475 112.006 107.836 112.006C106.469 112.006 106.122 111.087 106.122 110.023V107.203L106.126 107.207Z" fill="black"/>
<path d="M114.314 102.876C114.262 102.691 114.365 102.558 114.554 102.558H115.776C115.883 102.558 115.99 102.653 116.016 102.743L117.396 108.048H117.448L119.561 102.571C119.587 102.49 119.655 102.425 119.788 102.425H120.028C120.161 102.425 120.225 102.494 120.255 102.571L122.382 108.048H122.433L123.788 102.743C123.814 102.648 123.921 102.558 124.028 102.558H125.25C125.434 102.558 125.541 102.691 125.49 102.876L122.982 111.808C122.956 111.916 122.849 111.993 122.742 111.993H122.528C122.407 111.993 122.33 111.924 122.3 111.847L119.925 105.825H119.857L117.508 111.847C117.469 111.929 117.413 111.993 117.28 111.993H117.066C116.959 111.993 116.852 111.911 116.826 111.808L114.314 102.876Z" fill="black"/>
<path d="M128.786 105.589C130.527 105.589 131.933 107.053 131.933 108.778C131.933 110.504 130.527 112.01 128.786 112.01C127.046 112.01 125.653 110.534 125.653 108.778C125.653 107.023 127.059 105.589 128.786 105.589ZM128.786 110.491C129.678 110.491 130.394 109.718 130.394 108.774C130.394 107.829 129.678 107.1 128.786 107.1C127.895 107.1 127.196 107.847 127.196 108.774C127.196 109.701 127.899 110.491 128.786 110.491Z" fill="black"/>
<path d="M133.262 102.846C133.262 102.7 133.408 102.554 133.553 102.554H134.629C134.775 102.554 134.921 102.7 134.921 102.846V111.568C134.921 111.727 134.775 111.86 134.629 111.86H133.553C133.408 111.86 133.262 111.727 133.262 111.568V102.846Z" fill="black"/>
<path d="M136.631 106.014C136.631 105.842 136.777 105.722 136.923 105.722H137.429C137.574 105.722 137.643 105.791 137.682 105.906L137.909 106.477C138.136 106.224 138.706 105.584 139.889 105.584C141.84 105.584 142.346 106.902 142.346 108.392V111.568C142.346 111.727 142.2 111.86 142.054 111.86H140.978C140.82 111.86 140.687 111.727 140.687 111.568V108.392C140.687 107.593 140.37 107.104 139.624 107.104C138.826 107.104 138.44 107.636 138.295 108.061V111.572C138.295 111.8 138.2 111.864 137.909 111.864H136.927C136.781 111.864 136.636 111.731 136.636 111.572V106.014H136.631Z" fill="black"/>
<path d="M146.736 105.589C148.476 105.589 149.882 107.053 149.882 108.778C149.882 110.504 148.476 112.01 146.736 112.01C144.995 112.01 143.602 110.534 143.602 108.778C143.602 107.023 145.008 105.589 146.736 105.589ZM146.736 110.491C147.627 110.491 148.343 109.718 148.343 108.774C148.343 107.829 147.627 107.1 146.736 107.1C145.844 107.1 145.141 107.847 145.141 108.774C145.141 109.701 145.844 110.491 146.736 110.491Z" fill="black"/>
<path d="M151.014 111.452C150.932 111.4 150.868 111.254 150.932 111.117L151.331 110.319C151.395 110.173 151.545 110.117 151.691 110.211C151.97 110.383 152.407 110.611 153.046 110.611C153.509 110.611 153.723 110.439 153.723 110.173C153.723 109.894 153.38 109.64 152.57 109.323C151.387 108.872 150.855 108.314 150.855 107.383C150.855 106.451 151.558 105.589 153.059 105.589C153.963 105.589 154.546 105.829 154.876 106.039C155.009 106.147 155.091 106.305 155.009 106.464L154.666 107.168C154.572 107.314 154.413 107.34 154.28 107.288C153.989 107.155 153.565 106.984 153.059 106.984C152.647 106.984 152.476 107.181 152.476 107.383C152.476 107.662 152.78 107.808 153.35 108.048C154.533 108.524 155.382 108.949 155.382 110.173C155.382 111.143 154.559 112.006 153.02 112.006C152 112.006 151.361 111.688 151.014 111.448V111.452ZM151.953 104.764L151.725 104.288C151.674 104.181 151.725 104.086 151.807 104.035L153.972 102.747C154.092 102.665 154.25 102.665 154.315 102.786L154.701 103.464C154.778 103.635 154.726 103.769 154.619 103.824L152.296 104.85C152.094 104.932 152.017 104.889 151.948 104.769L151.953 104.764Z" fill="black"/>
<path d="M159.562 105.589C160.518 105.589 161.26 106.001 161.847 106.628C161.98 106.761 161.915 106.932 161.783 107.065L161.225 107.679C161.092 107.825 160.947 107.761 160.827 107.641C160.535 107.362 160.175 107.108 159.605 107.108C158.649 107.108 157.984 107.855 157.984 108.795C157.984 109.735 158.636 110.495 159.592 110.495C160.269 110.495 160.629 110.122 160.895 109.817C160.989 109.71 161.174 109.684 161.281 109.778L161.877 110.285C162.023 110.418 162.091 110.564 161.984 110.723C161.465 111.534 160.642 112.01 159.553 112.01C157.761 112.01 156.312 110.641 156.312 108.791C156.312 106.941 157.749 105.589 159.566 105.589H159.562Z" fill="black"/>
<path d="M162.974 103.606C162.974 103.022 163.424 102.554 164.025 102.554C164.625 102.554 165.088 103.018 165.088 103.606C165.088 104.194 164.625 104.67 164.025 104.67C163.424 104.67 162.974 104.19 162.974 103.606ZM163.214 106.014C163.214 105.842 163.36 105.722 163.506 105.722H164.582C164.728 105.722 164.873 105.842 164.873 106.014V111.572C164.873 111.731 164.728 111.864 164.582 111.864H163.506C163.36 111.864 163.214 111.731 163.214 111.572V106.014Z" fill="black"/>
<path d="M2.72646 117.225C3.48952 117.225 4.03824 117.483 4.55266 117.929C4.62125 117.99 4.62126 118.08 4.56124 118.14L4.23115 118.479C4.17971 118.548 4.11112 118.548 4.04253 118.479C3.68672 118.17 3.2023 117.972 2.73503 117.972C1.65473 117.972 0.840228 118.878 0.840228 119.938C0.840228 120.998 1.66331 121.896 2.7436 121.896C3.29661 121.896 3.68243 121.677 4.04253 121.398C4.11112 121.346 4.17971 121.35 4.22258 121.389L4.56981 121.728C4.62983 121.78 4.61697 121.878 4.56124 121.934C4.04681 122.432 3.3995 122.668 2.72646 122.668C1.21747 122.668 0 121.466 0 119.951C0 118.436 1.21747 117.221 2.72646 117.221V117.225Z" fill="black"/>
<path d="M6.88472 119.024C7.78925 119.024 8.47944 119.698 8.47944 120.625C8.47944 120.685 8.47086 120.805 8.46658 120.865C8.458 120.955 8.38512 121.015 8.30796 121.015H5.89874C5.90731 121.483 6.33171 121.968 6.94044 121.968C7.33912 121.968 7.58348 121.827 7.79354 121.672C7.8707 121.621 7.935 121.595 7.9993 121.685L8.20508 122.003C8.26509 122.08 8.2951 122.144 8.19222 122.239C7.94358 122.458 7.48059 122.668 6.90186 122.668C5.84301 122.668 5.1571 121.835 5.1571 120.839C5.1571 119.844 5.84301 119.015 6.89329 119.015L6.88472 119.024ZM7.72923 120.462C7.71208 120.037 7.38199 119.668 6.86757 119.668C6.31456 119.668 5.98447 120.024 5.93303 120.462H7.72923Z" fill="black"/>
<path d="M9.26822 119.269C9.26822 119.187 9.34538 119.101 9.43541 119.101H9.61546C9.69262 119.101 9.74406 119.14 9.75692 119.209L9.8641 119.509C9.94126 119.419 10.3399 119.024 11.0344 119.024C12.0976 119.024 12.3848 119.767 12.3848 120.672V122.428C12.3848 122.518 12.3033 122.595 12.2176 122.595H11.7932C11.7032 122.595 11.626 122.518 11.626 122.428V120.642C11.626 120.076 11.3902 119.741 10.9401 119.741C10.3871 119.741 10.0699 120.127 10.0184 120.247V122.423C10.0184 122.535 9.95841 122.591 9.81265 122.591H9.42683C9.33681 122.591 9.25964 122.514 9.25964 122.423V119.264L9.26822 119.269Z" fill="black"/>
<path d="M13.5937 119.745H13.195C13.0964 119.745 13.0278 119.664 13.0278 119.578V119.269C13.0278 119.17 13.0964 119.101 13.195 119.101H13.5937V118.127C13.5937 118.037 13.6709 117.959 13.7609 117.959H14.1896C14.2796 117.959 14.3482 118.037 14.3482 118.127V119.101H15.2699C15.3599 119.101 15.4371 119.17 15.4371 119.269V119.578C15.4371 119.659 15.3599 119.745 15.2699 119.745H14.3482V121.604C14.3482 121.9 14.4596 121.96 14.6268 121.96C14.8455 121.96 15.0555 121.87 15.1841 121.793C15.2913 121.732 15.3599 121.793 15.3899 121.87L15.5271 122.226C15.5657 122.316 15.5271 122.376 15.4456 122.432C15.3042 122.522 14.8926 122.681 14.4768 122.681C13.7823 122.681 13.5937 122.256 13.5937 121.638V119.745Z" fill="black"/>
<path d="M16.2301 119.269C16.2301 119.187 16.303 119.101 16.3973 119.101H16.5773C16.6459 119.101 16.7145 119.153 16.7274 119.221L16.826 119.539C16.886 119.449 17.2504 119.024 17.8848 119.024C18.2149 119.024 18.6308 119.114 18.5193 119.35L18.3392 119.728C18.2921 119.827 18.2021 119.848 18.1292 119.809C18.0777 119.779 17.9191 119.741 17.812 119.741C17.2975 119.741 17.0189 120.149 16.9889 120.209V122.423C16.9889 122.574 16.8903 122.591 16.7488 122.591H16.4016C16.3116 122.591 16.2344 122.514 16.2344 122.423V119.264L16.2301 119.269Z" fill="black"/>
<path d="M19.1066 119.268C19.1066 119.187 19.188 119.101 19.2738 119.101H19.6982C19.7882 119.101 19.8653 119.183 19.8653 119.268V121.127C19.8653 121.702 20.1011 121.96 20.547 121.96C21.0528 121.96 21.3315 121.543 21.3615 121.385V119.268C21.3615 119.123 21.4301 119.101 21.5587 119.101H21.9445C22.0345 119.101 22.1202 119.183 22.1202 119.268V122.428C22.1202 122.518 22.0388 122.595 21.9445 122.595H21.7644C21.6744 122.595 21.6358 122.535 21.6058 122.453L21.5158 122.204C21.4386 122.282 21.1214 122.681 20.4141 122.681C19.3724 122.681 19.1151 121.994 19.1151 121.08V119.273L19.1066 119.268Z" fill="black"/>
<path d="M23.1663 119.269C23.1663 119.187 23.2434 119.101 23.3334 119.101H23.5092C23.5907 119.101 23.6378 119.14 23.6592 119.209L23.7578 119.509C23.835 119.427 24.2037 119.024 24.8682 119.024C25.374 119.024 25.6784 119.221 25.9356 119.578C26.0342 119.479 26.45 119.024 27.1145 119.024C28.1776 119.024 28.4434 119.767 28.4434 120.672V122.428C28.4434 122.518 28.3748 122.595 28.2762 122.595H27.8518C27.7446 122.595 27.6846 122.518 27.6846 122.428V120.642C27.6846 120.084 27.4746 119.741 26.9987 119.741C26.4714 119.741 26.2228 120.097 26.1585 120.149C26.1756 120.226 26.1885 120.436 26.1885 120.616V122.423C26.1885 122.514 26.1113 122.591 26.0299 122.591H25.6012C25.5026 122.591 25.434 122.514 25.434 122.423V120.638C25.434 120.071 25.2282 119.736 24.7481 119.736C24.2251 119.736 23.9636 120.123 23.925 120.243V122.419C23.925 122.509 23.8436 122.587 23.7578 122.587H23.3334C23.2434 122.587 23.1663 122.509 23.1663 122.419V119.26V119.269Z" fill="black"/>
<path d="M32.4816 117.444C32.4816 117.367 32.5416 117.303 32.6231 117.303H34.6765C35.581 117.303 36.3226 118.02 36.3226 118.921C36.3226 119.616 35.8639 120.191 35.2038 120.458L36.2369 122.376C36.2883 122.475 36.2369 122.595 36.1083 122.595H35.5424C35.461 122.595 35.4138 122.557 35.3838 122.496L34.3935 120.522H33.2532V122.449C33.2532 122.527 33.1846 122.591 33.1075 122.591H32.6145C32.533 122.591 32.473 122.522 32.473 122.449V117.444H32.4816ZM34.6208 119.874C35.1137 119.874 35.5424 119.457 35.5424 118.938C35.5424 118.449 35.1137 118.037 34.6208 118.037H33.2747V119.874H34.6208Z" fill="black"/>
<path d="M38.6118 119.024C39.585 119.024 40.3866 119.857 40.3866 120.84C40.3866 121.823 39.585 122.677 38.6118 122.677C37.6387 122.677 36.8285 121.835 36.8285 120.84C36.8285 119.844 37.6301 119.024 38.6118 119.024ZM38.6118 121.96C39.1949 121.96 39.645 121.483 39.645 120.84C39.645 120.196 39.1906 119.745 38.6118 119.745C38.0331 119.745 37.5701 120.213 37.5701 120.84C37.5701 121.466 38.0245 121.96 38.6118 121.96Z" fill="black"/>
<path d="M40.8925 122.428C40.8925 122.359 40.8925 122.337 40.9525 122.23L42.4272 119.818V119.801H41.1368C41.0554 119.801 40.9782 119.719 40.9782 119.633V119.264C40.9782 119.165 41.0554 119.097 41.1368 119.097H43.3874C43.486 119.097 43.5632 119.165 43.5632 119.247C43.5632 119.277 43.5546 119.307 43.5418 119.337L42.0156 121.878V121.9H43.216C43.3145 121.9 43.3831 121.968 43.3831 122.067V122.423C43.3831 122.513 43.3145 122.591 43.216 122.591H41.0639C40.9739 122.591 40.8967 122.513 40.8967 122.423L40.8925 122.428Z" fill="black"/>
<path d="M44.0005 119.298C43.949 119.191 44.0005 119.101 44.1205 119.101H44.5749C44.6349 119.101 44.7121 119.139 44.7249 119.208L45.2994 121.213H45.3165L46.2596 119.109C46.2811 119.062 46.3368 119.028 46.4011 119.028H46.4525C46.534 119.028 46.5897 119.066 46.6026 119.109L47.5371 121.221H47.5543L48.1116 119.208C48.1587 119.101 48.2873 119.101 48.3774 119.101H48.6946C48.8146 119.101 48.8832 119.191 48.8318 119.298L47.8329 122.586C47.8201 122.638 47.7515 122.676 47.6743 122.676H47.6443C47.5671 122.676 47.5157 122.638 47.4943 122.595L46.4311 120.221H46.4183L45.3465 122.595C45.3294 122.642 45.2865 122.676 45.2094 122.676H45.1622C45.0893 122.676 45.0336 122.638 45.0207 122.586L44.0005 119.298Z" fill="black"/>
<path d="M51.121 119.024C52.0941 119.024 52.8958 119.857 52.8958 120.84C52.8958 121.823 52.0941 122.677 51.121 122.677C50.1479 122.677 49.3376 121.835 49.3376 120.84C49.3376 119.844 50.1393 119.024 51.121 119.024ZM51.121 121.96C51.704 121.96 52.1541 121.483 52.1541 120.84C52.1541 120.196 51.6997 119.745 51.121 119.745C50.5423 119.745 50.0793 120.213 50.0793 120.84C50.0793 121.466 50.5337 121.96 51.121 121.96Z" fill="black"/>
<path d="M54.4862 122.913C54.4862 123.775 54.0875 124.273 53.6116 124.454C53.5045 124.492 53.4016 124.462 53.3458 124.363L53.1872 124.067C53.1272 123.96 53.1744 123.84 53.2773 123.788C53.5045 123.677 53.7317 123.471 53.7317 123.003V119.268C53.7317 119.17 53.8088 119.101 53.8989 119.101H54.3233C54.4047 119.101 54.4904 119.17 54.4904 119.268V122.913H54.4862ZM53.6116 117.848C53.6116 117.56 53.8303 117.333 54.1089 117.333C54.3876 117.333 54.6233 117.56 54.6233 117.848C54.6233 118.135 54.3961 118.354 54.1089 118.354C53.8217 118.354 53.6116 118.127 53.6116 117.848Z" fill="black"/>
<path d="M55.5065 119.268C55.5065 119.187 55.5879 119.101 55.6737 119.101H56.0981C56.1881 119.101 56.2652 119.183 56.2652 119.268V121.127C56.2652 121.702 56.501 121.96 56.9469 121.96C57.4527 121.96 57.7314 121.543 57.7614 121.385V119.268C57.7614 119.123 57.83 119.101 57.9586 119.101H58.3444C58.4344 119.101 58.5159 119.183 58.5159 119.268V122.428C58.5159 122.518 58.4344 122.595 58.3444 122.595H58.1643C58.0743 122.595 58.0357 122.535 58.0057 122.453L57.9157 122.204C57.8385 122.282 57.5213 122.681 56.814 122.681C55.7723 122.681 55.515 121.994 55.515 121.08V119.273L55.5065 119.268Z" fill="black"/>
<path d="M62.0826 121.831L62.2798 121.522C62.3398 121.423 62.4555 121.393 62.537 121.462C62.8928 121.758 63.1629 121.981 63.7459 121.981C64.2646 121.981 64.599 121.664 64.599 121.277C64.599 120.822 64.2046 120.535 63.4587 120.226C62.687 119.9 62.0826 119.5 62.0826 118.62C62.0826 118.032 62.537 117.221 63.7373 117.221C64.4918 117.221 65.0577 117.616 65.1348 117.668C65.1949 117.706 65.2549 117.809 65.182 117.925L64.9934 118.213C64.9334 118.311 64.8348 118.359 64.7276 118.29C64.4318 118.101 64.1446 117.912 63.7073 117.912C63.0728 117.912 62.8542 118.311 62.8542 118.595C62.8542 119.024 63.1886 119.29 63.8145 119.548C64.689 119.904 65.4392 120.32 65.4392 121.243C65.4392 122.029 64.7362 122.672 63.7545 122.672C62.8328 122.672 62.2498 122.187 62.1297 122.076C62.0611 122.016 62.0011 121.964 62.0826 121.835V121.831Z" fill="black"/>
<path d="M66.9824 124.226C66.9824 124.325 66.9139 124.394 66.8024 124.394H66.378C66.288 124.394 66.2108 124.321 66.2108 124.226V119.264C66.2108 119.183 66.2837 119.097 66.378 119.097H66.5666C66.6438 119.097 66.6867 119.127 66.7167 119.208L66.8067 119.436C66.8667 119.376 67.2611 119.02 67.8998 119.02C68.8601 119.02 69.546 119.844 69.546 120.844C69.546 121.844 68.8215 122.672 67.8698 122.672C67.4154 122.672 67.0382 122.471 66.9782 122.432V124.226H66.9824ZM67.7755 121.96C68.3414 121.96 68.7958 121.475 68.7958 120.848C68.7958 120.221 68.4057 119.745 67.8055 119.745C67.2997 119.745 66.9953 120.131 66.9653 120.239V121.707C66.9653 121.707 67.304 121.964 67.7755 121.964V121.96Z" fill="black"/>
<path d="M71.9552 119.024C72.9283 119.024 73.73 119.857 73.73 120.84C73.73 121.823 72.9283 122.677 71.9552 122.677C70.9821 122.677 70.1719 121.835 70.1719 120.84C70.1719 119.844 70.9735 119.024 71.9552 119.024ZM71.9552 121.96C72.5382 121.96 72.9884 121.483 72.9884 120.84C72.9884 120.196 72.5339 119.745 71.9552 119.745C71.3765 119.745 70.9135 120.213 70.9135 120.84C70.9135 121.466 71.3679 121.96 71.9552 121.96Z" fill="black"/>
<path d="M74.6731 120.213L74.6602 120.222L74.373 120.389C74.313 120.428 74.2229 120.406 74.1843 120.337L74.1458 120.269C74.1072 120.209 74.1243 120.119 74.1886 120.071L74.6559 119.801L74.6688 119.792V117.47C74.6688 117.389 74.7459 117.303 74.836 117.303H75.2604C75.3418 117.303 75.4275 117.384 75.4275 117.47V119.354L75.449 119.337L75.9848 119.028C76.062 118.99 76.1435 119.02 76.182 119.08L76.2206 119.157C76.2592 119.217 76.2335 119.303 76.1692 119.346L75.4533 119.762L75.4318 119.779V122.432C75.4318 122.522 75.3504 122.599 75.2646 122.599H74.8402C74.7502 122.599 74.6731 122.522 74.6731 122.432V120.217V120.213Z" fill="black"/>
<path d="M78.2269 119.024C79.1314 119.024 79.8216 119.698 79.8216 120.625C79.8216 120.685 79.813 120.805 79.8088 120.865C79.8002 120.955 79.7273 121.015 79.6501 121.015H77.2409C77.2495 121.483 77.6739 121.968 78.2826 121.968C78.6813 121.968 78.9257 121.827 79.1357 121.672C79.2129 121.621 79.2772 121.595 79.3372 121.685L79.543 122.003C79.603 122.08 79.633 122.144 79.5301 122.239C79.2815 122.458 78.8185 122.668 78.2398 122.668C77.1809 122.668 76.495 121.835 76.495 120.839C76.495 119.844 77.1809 119.015 78.2312 119.015L78.2269 119.024ZM79.0757 120.462C79.0586 120.037 78.7285 119.668 78.214 119.668C77.661 119.668 77.3309 120.024 77.2795 120.462H79.0757Z" fill="black"/>
<path d="M82.1837 119.024C82.7282 119.024 83.1269 119.23 83.4527 119.629C83.5213 119.711 83.4998 119.809 83.4227 119.878L83.1526 120.127C83.054 120.217 82.9854 120.148 82.9254 120.088C82.7668 119.912 82.4881 119.741 82.2095 119.741C81.6136 119.741 81.1506 120.226 81.1506 120.844C81.1506 121.462 81.605 121.955 82.188 121.955C82.6424 121.955 82.8225 121.698 83.0111 121.526C83.084 121.449 83.1697 121.449 83.2426 121.509L83.4784 121.698C83.5598 121.771 83.5984 121.857 83.5384 121.947C83.2512 122.38 82.7839 122.672 82.1795 122.672C81.2063 122.672 80.3961 121.9 80.3961 120.848C80.3961 119.796 81.2192 119.02 82.188 119.02L82.1837 119.024Z" fill="black"/>
<path d="M84.0527 122.428C84.0527 122.359 84.0527 122.337 84.1127 122.23L85.5874 119.818V119.801H84.2971C84.2156 119.801 84.1385 119.719 84.1385 119.633V119.264C84.1385 119.165 84.2156 119.097 84.2971 119.097H86.5477C86.6463 119.097 86.7235 119.165 86.7235 119.247C86.7235 119.277 86.7149 119.307 86.702 119.337L85.1759 121.878V121.9H86.3762C86.4748 121.9 86.5434 121.968 86.5434 122.067V122.423C86.5434 122.513 86.4748 122.591 86.3762 122.591H84.2242C84.1342 122.591 84.057 122.513 84.057 122.423L84.0527 122.428Z" fill="black"/>
<path d="M88.9142 119.024C89.823 119.024 90.5089 119.698 90.5089 120.625C90.5089 120.685 90.5003 120.805 90.496 120.865C90.4874 120.955 90.4146 121.015 90.3374 121.015H87.9282C87.9368 121.483 88.3611 121.968 88.9699 121.968C89.3686 121.968 89.6129 121.827 89.823 121.672C89.9001 121.621 89.9644 121.595 90.0287 121.685L90.2302 122.003C90.2902 122.08 90.3203 122.144 90.2174 122.239C89.9687 122.458 89.5057 122.668 88.927 122.668C87.8682 122.668 87.1823 121.835 87.1823 120.839C87.1823 119.844 87.8682 119.015 88.9184 119.015L88.9142 119.024ZM89.763 120.462C89.7458 120.037 89.4157 119.668 88.9013 119.668C88.3483 119.668 88.0182 120.024 87.9668 120.462H89.763Z" fill="black"/>
<path d="M91.3019 119.269C91.3019 119.187 91.3791 119.101 91.4691 119.101H91.6492C91.722 119.101 91.7778 119.14 91.7906 119.208L91.8978 119.509C91.975 119.419 92.3736 119.024 93.0681 119.024C94.1313 119.024 94.4185 119.767 94.4185 120.672V122.428C94.4185 122.518 94.337 122.595 94.2513 122.595H93.8269C93.7369 122.595 93.6597 122.518 93.6597 122.428V120.642C93.6597 120.076 93.4239 119.741 92.9738 119.741C92.4208 119.741 92.1036 120.127 92.0521 120.247V122.423C92.0521 122.535 91.9921 122.591 91.8463 122.591H91.4605C91.3705 122.591 91.2933 122.514 91.2933 122.423V119.264L91.3019 119.269ZM92.245 118.457L92.1379 118.238C92.1078 118.178 92.1379 118.118 92.185 118.092L93.3725 117.406C93.4196 117.376 93.5311 117.358 93.5697 117.427L93.7454 117.758C93.784 117.835 93.7626 117.908 93.6983 117.938L92.4294 118.483C92.3222 118.535 92.2793 118.513 92.2493 118.453L92.245 118.457Z" fill="black"/>
<path d="M95.293 122.324C95.2416 122.286 95.1944 122.217 95.233 122.144L95.3916 121.818C95.4302 121.741 95.5288 121.719 95.6188 121.771C95.8246 121.882 96.0733 122.028 96.4891 122.028C96.7849 122.028 96.9478 121.887 96.9478 121.689C96.9478 121.453 96.682 121.303 96.1976 121.084C95.6617 120.839 95.2545 120.556 95.2545 119.981C95.2545 119.543 95.5631 119.028 96.4119 119.028C96.8963 119.028 97.2564 119.169 97.4322 119.285C97.5136 119.345 97.5522 119.453 97.5051 119.543L97.385 119.783C97.3336 119.891 97.2264 119.882 97.1578 119.852C96.9178 119.745 96.682 119.676 96.4119 119.676C96.1075 119.676 95.9661 119.826 95.9661 119.985C95.9661 120.213 96.2147 120.35 96.5619 120.5C97.205 120.771 97.6894 121.007 97.6894 121.659C97.6894 122.204 97.2221 122.681 96.4419 122.681C95.8889 122.681 95.4902 122.462 95.293 122.324Z" fill="black"/>
<path d="M98.7225 119.745H98.3238C98.2252 119.745 98.1566 119.664 98.1566 119.578V119.269C98.1566 119.17 98.2252 119.101 98.3238 119.101H98.7225V118.127C98.7225 118.037 98.7954 117.959 98.8897 117.959H99.3184C99.4084 117.959 99.477 118.037 99.477 118.127V119.101H100.399C100.489 119.101 100.566 119.17 100.566 119.269V119.578C100.566 119.659 100.489 119.745 100.399 119.745H99.477V121.604C99.477 121.9 99.5884 121.96 99.7556 121.96C99.9743 121.96 100.184 121.87 100.313 121.793C100.42 121.732 100.489 121.793 100.519 121.87L100.656 122.226C100.694 122.316 100.656 122.376 100.574 122.432C100.433 122.522 100.021 122.681 99.6056 122.681C98.9111 122.681 98.7225 122.256 98.7225 121.638V119.745Z" fill="black"/>
<path d="M101.067 119.298C101.016 119.191 101.067 119.101 101.188 119.101H101.642C101.702 119.101 101.779 119.139 101.792 119.208L102.366 121.213H102.384L103.327 119.109C103.348 119.062 103.404 119.028 103.468 119.028H103.52C103.601 119.028 103.657 119.066 103.67 119.109L104.608 121.221H104.626L105.183 119.208C105.23 119.101 105.359 119.101 105.449 119.101H105.766C105.886 119.101 105.955 119.191 105.903 119.298L104.904 122.586C104.891 122.638 104.823 122.676 104.746 122.676H104.716C104.638 122.676 104.587 122.638 104.566 122.595L103.502 120.221H103.49L102.418 122.595C102.401 122.642 102.358 122.676 102.281 122.676H102.234C102.161 122.676 102.105 122.638 102.092 122.586L101.072 119.298H101.067Z" fill="black"/>
<path d="M109.766 122.428C109.766 122.518 109.688 122.595 109.598 122.595H109.38C109.298 122.595 109.243 122.535 109.221 122.445L109.144 122.187C109.144 122.187 108.728 122.677 108.034 122.677C107.112 122.677 106.409 121.844 106.409 120.848C106.409 119.852 107.112 119.024 108.072 119.024C108.72 119.024 109.075 119.38 109.135 119.44L109.225 119.221C109.247 119.153 109.307 119.101 109.393 119.101H109.594C109.684 119.101 109.761 119.183 109.761 119.269V122.428H109.766ZM109.011 120.26C108.981 120.153 108.681 119.745 108.171 119.745C107.575 119.745 107.168 120.269 107.168 120.857C107.168 121.445 107.584 121.96 108.141 121.96C108.698 121.96 108.972 121.565 109.011 121.466V120.256V120.26Z" fill="black"/>
<path d="M116.084 117.225C117.593 117.225 118.802 118.444 118.802 119.955C118.802 121.466 117.593 122.672 116.084 122.672C114.575 122.672 113.371 121.47 113.371 119.955C113.371 118.44 114.571 117.225 116.084 117.225ZM116.084 121.938C117.165 121.938 118.048 121.037 118.048 119.955C118.048 118.873 117.165 117.959 116.084 117.959C115.004 117.959 114.13 118.882 114.13 119.955C114.13 121.028 115.013 121.938 116.084 121.938Z" fill="black"/>
<path d="M119.617 117.466C119.617 117.384 119.694 117.298 119.784 117.298H120.213C120.294 117.298 120.38 117.38 120.38 117.466V119.204C120.457 119.183 120.808 119.024 121.254 119.024C122.219 119.024 122.969 119.827 122.969 120.848C122.969 121.87 122.257 122.677 121.344 122.677C120.65 122.677 120.195 122.187 120.195 122.187L120.118 122.445C120.097 122.535 120.045 122.595 119.96 122.595H119.78C119.69 122.595 119.612 122.518 119.612 122.428V117.466H119.617ZM121.233 121.96C121.799 121.96 122.215 121.436 122.215 120.848C122.215 120.26 121.747 119.745 121.173 119.745C120.718 119.745 120.371 119.934 120.371 119.934V121.453C120.418 121.552 120.706 121.96 121.233 121.96Z" fill="black"/>
<path d="M123.376 119.329C123.333 119.208 123.393 119.101 123.526 119.101H124.024C124.075 119.101 124.152 119.14 124.174 119.2L124.984 121.595H124.997L125.978 119.2C126.008 119.118 126.077 119.101 126.159 119.101H126.626C126.767 119.101 126.832 119.208 126.776 119.329L124.645 124.291C124.615 124.342 124.568 124.398 124.504 124.398H124.019C123.891 124.398 123.809 124.286 123.869 124.162L124.572 122.475L123.372 119.329H123.376Z" fill="black"/>
<path d="M127.196 119.298C127.144 119.191 127.196 119.101 127.316 119.101H127.77C127.83 119.101 127.908 119.139 127.92 119.208L128.495 121.213H128.512L129.455 119.109C129.477 119.062 129.532 119.028 129.597 119.028H129.648C129.734 119.028 129.785 119.066 129.798 119.109L130.737 121.221H130.754L131.311 119.208C131.358 119.101 131.487 119.101 131.577 119.101H131.894C132.014 119.101 132.083 119.191 132.031 119.298L131.033 122.586C131.02 122.638 130.951 122.676 130.874 122.676H130.844C130.767 122.676 130.715 122.638 130.694 122.595L129.631 120.221H129.618L128.546 122.595C128.529 122.642 128.486 122.676 128.409 122.676H128.362C128.285 122.676 128.233 122.638 128.22 122.586L127.2 119.298H127.196Z" fill="black"/>
<path d="M135.894 122.428C135.894 122.518 135.817 122.595 135.727 122.595H135.508C135.427 122.595 135.371 122.535 135.35 122.445L135.272 122.187C135.272 122.187 134.857 122.677 134.162 122.677C133.24 122.677 132.537 121.844 132.537 120.848C132.537 119.852 133.24 119.024 134.201 119.024C134.848 119.024 135.204 119.38 135.264 119.44L135.354 119.221C135.375 119.153 135.435 119.101 135.521 119.101H135.727C135.817 119.101 135.894 119.183 135.894 119.269V122.428ZM135.135 120.26C135.105 120.153 134.801 119.745 134.295 119.745C133.699 119.745 133.292 120.269 133.292 120.857C133.292 121.445 133.708 121.96 134.265 121.96C134.822 121.96 135.097 121.565 135.135 121.466V120.256V120.26Z" fill="black"/>
<path d="M137.18 119.745H136.781C136.683 119.745 136.614 119.664 136.614 119.578V119.269C136.614 119.17 136.683 119.101 136.781 119.101H137.18V118.127C137.18 118.037 137.257 117.959 137.347 117.959H137.776C137.866 117.959 137.935 118.037 137.935 118.127V119.101H138.856C138.946 119.101 139.023 119.17 139.023 119.269V119.578C139.023 119.659 138.946 119.745 138.856 119.745H137.935V121.604C137.935 121.9 138.046 121.96 138.213 121.96C138.432 121.96 138.642 121.87 138.771 121.793C138.878 121.732 138.942 121.793 138.976 121.87L139.114 122.226C139.152 122.316 139.114 122.376 139.032 122.432C138.891 122.522 138.479 122.681 138.063 122.681C137.369 122.681 137.18 122.256 137.18 121.638V119.745Z" fill="black"/>
<path d="M141.343 119.024C142.251 119.024 142.937 119.698 142.937 120.625C142.937 120.685 142.929 120.805 142.92 120.865C142.912 120.955 142.839 121.015 142.762 121.015H140.352C140.361 121.483 140.781 121.968 141.394 121.968C141.793 121.968 142.037 121.827 142.247 121.672C142.324 121.621 142.389 121.595 142.449 121.685L142.654 122.003C142.714 122.08 142.744 122.144 142.637 122.239C142.389 122.458 141.926 122.668 141.347 122.668C140.288 122.668 139.602 121.835 139.602 120.839C139.602 119.844 140.288 119.015 141.338 119.015L141.343 119.024ZM142.187 120.462C142.17 120.037 141.84 119.668 141.326 119.668C140.772 119.668 140.442 120.024 140.391 120.462H142.187Z" fill="black"/>
<path d="M143.748 117.466C143.748 117.384 143.825 117.298 143.915 117.298H144.339C144.421 117.298 144.506 117.38 144.506 117.466V122.428C144.506 122.518 144.425 122.595 144.339 122.595H143.915C143.825 122.595 143.748 122.518 143.748 122.428V117.466Z" fill="black"/>
<path d="M145.441 122.324C145.389 122.286 145.342 122.217 145.381 122.144L145.539 121.818C145.578 121.741 145.677 121.719 145.767 121.771C145.968 121.882 146.221 122.028 146.637 122.028C146.933 122.028 147.096 121.887 147.096 121.689C147.096 121.453 146.83 121.303 146.35 121.084C145.814 120.839 145.407 120.556 145.407 119.981C145.407 119.543 145.715 119.028 146.564 119.028C147.048 119.028 147.409 119.169 147.584 119.285C147.666 119.345 147.704 119.453 147.661 119.543L147.541 119.783C147.49 119.891 147.383 119.882 147.314 119.852C147.074 119.745 146.838 119.676 146.568 119.676C146.264 119.676 146.122 119.826 146.122 119.985C146.122 120.213 146.371 120.35 146.718 120.5C147.361 120.771 147.846 121.007 147.846 121.659C147.846 122.204 147.379 122.681 146.598 122.681C146.045 122.681 145.647 122.462 145.449 122.324H145.441Z" fill="black"/>
<path d="M148.635 117.466C148.635 117.384 148.712 117.298 148.802 117.298H149.226C149.308 117.298 149.393 117.38 149.393 117.466V120.423L150.74 119.204C150.8 119.153 150.868 119.097 150.958 119.097H151.511C151.661 119.097 151.687 119.264 151.601 119.337L150.186 120.668L151.665 122.363C151.734 122.445 151.717 122.591 151.567 122.591H150.95C150.881 122.591 150.821 122.561 150.791 122.522L149.393 120.895V122.423C149.393 122.514 149.312 122.591 149.226 122.591H148.802C148.712 122.591 148.635 122.514 148.635 122.423V117.461V117.466Z" fill="black"/>
<path d="M152.261 117.848C152.261 117.56 152.48 117.333 152.759 117.333C153.037 117.333 153.273 117.56 153.273 117.848C153.273 118.135 153.046 118.354 152.759 118.354C152.471 118.354 152.261 118.127 152.261 117.848ZM152.386 119.268C152.386 119.187 152.463 119.101 152.553 119.101H152.977C153.059 119.101 153.144 119.183 153.144 119.268V122.428C153.144 122.518 153.063 122.595 152.977 122.595H152.553C152.463 122.595 152.386 122.518 152.386 122.428V119.268Z" fill="black"/>
<path d="M155.721 119.024C156.63 119.024 157.316 119.698 157.316 120.625C157.316 120.685 157.307 120.805 157.303 120.865C157.294 120.955 157.221 121.015 157.144 121.015H154.735C154.743 121.483 155.168 121.968 155.777 121.968C156.175 121.968 156.42 121.827 156.63 121.672C156.707 121.621 156.771 121.595 156.831 121.685L157.037 122.003C157.097 122.08 157.127 122.144 157.024 122.239C156.775 122.458 156.312 122.668 155.734 122.668C154.675 122.668 153.989 121.835 153.989 120.839C153.989 119.844 154.675 119.015 155.725 119.015L155.721 119.024ZM156.57 120.462C156.552 120.037 156.222 119.668 155.708 119.668C155.155 119.668 154.825 120.024 154.769 120.462H156.565H156.57Z" fill="black"/>
<path d="M161.234 122.617C161.234 123.707 160.531 124.248 159.618 124.248C159.035 124.248 158.559 123.96 158.409 123.81C158.349 123.771 158.34 123.664 158.37 123.612L158.55 123.278C158.597 123.188 158.696 123.157 158.786 123.226C158.906 123.325 159.202 123.552 159.6 123.552C160.063 123.552 160.471 123.325 160.471 122.617V122.428C160.411 122.466 160.033 122.677 159.579 122.677C158.627 122.677 157.894 121.87 157.894 120.848C157.894 119.827 158.58 119.024 159.54 119.024C160.192 119.024 160.582 119.38 160.642 119.44L160.732 119.221C160.754 119.153 160.779 119.101 160.861 119.101H161.062C161.152 119.101 161.229 119.183 161.229 119.269V122.621L161.234 122.617ZM159.669 121.96C160.128 121.96 160.475 121.681 160.475 121.681V120.234C160.406 120.106 160.106 119.741 159.639 119.741C159.043 119.741 158.649 120.256 158.649 120.844C158.649 121.432 159.103 121.956 159.669 121.956V121.96Z" fill="black"/>
<path d="M163.853 119.024C164.826 119.024 165.628 119.857 165.628 120.84C165.628 121.823 164.826 122.677 163.853 122.677C162.88 122.677 162.07 121.835 162.07 120.84C162.07 119.844 162.871 119.024 163.853 119.024ZM163.853 121.96C164.436 121.96 164.886 121.483 164.886 120.84C164.886 120.196 164.432 119.745 163.853 119.745C163.274 119.745 162.811 120.213 162.811 120.84C162.811 121.466 163.266 121.96 163.853 121.96Z" fill="black"/>
<path fill-rule="evenodd" clip-rule="evenodd" d="M132.066 24.2832C132.7 23.8711 132.803 23.4333 132.88 22.4246C132.88 22.4246 132.915 21.9696 132.61 21.6691C131.821 20.3771 114.918 21.8923 110.816 22.2743C90.8003 24.1458 69.2416 27.4509 50.0578 33.7607C49.6634 33.8894 48.5831 34.5547 48.2445 35.1642C46.7141 37.9371 43.306 45.4015 47.3056 44.7834L47.5243 44.7448C46.8941 46.0453 46.654 47.0025 46.6583 47.7065C48.8789 47.1742 51.2453 46.642 51.7854 46.5304C56.1623 45.6032 60.7193 44.7491 65.2634 43.955C69.6874 43.1823 81.7164 41.2293 83.3454 40.9417C86.4191 40.4009 95.3787 39.1561 96.9091 38.9501C101.878 38.2762 113.774 36.9327 113.774 36.9327C116.569 36.6623 122.626 36.1429 123.119 36.1214C125.443 36.0098 129.421 35.8124 129.948 34.632C129.948 34.632 130.926 32.6575 132.267 29.8932C132.134 27.9617 132.002 25.9658 131.929 24.5622C131.924 24.4548 131.98 24.3561 132.07 24.296L132.066 24.2832Z" fill="#DC0032"/>
<path d="M70.1805 57.7461C70.1591 57.3898 70.0991 57.0593 69.9833 56.7502C69.8718 56.4455 69.6961 56.1965 69.4603 55.9991C69.2288 55.8016 68.903 55.7244 68.4872 55.6814C68.3672 55.6686 67.8484 55.6557 67.4583 55.7587C67.304 55.7973 66.7038 56.0077 66.3695 56.4068C66.1423 56.6816 65.8465 57.2138 65.7736 57.4198C65.705 57.6259 65.5378 58.1925 65.5378 58.6689C65.5378 59.39 65.4735 60.0468 65.4135 60.6563C65.3492 61.2615 65.2677 61.8753 65.1606 62.502C65.0534 63.1244 64.4489 66.0646 64.2603 67.0089C64.2046 67.2536 63.4973 70.7991 63.3558 71.4815C63.2186 72.1554 62.1469 76.8298 62.0054 77.3706C61.9797 77.4651 61.8554 77.4908 61.7954 77.4136C61.2038 76.6281 60.6165 75.7868 60.0206 74.9025C59.3819 73.9411 58.7603 72.971 58.1644 71.9923C57.5599 71.0051 56.9941 70.0264 56.4539 69.0607C55.9223 68.0906 55.4422 67.1806 55.0135 66.3136C54.5934 65.4508 54.2333 64.6653 53.9418 63.9528C53.646 63.2403 53.4445 62.6479 53.3245 62.1672C53.2002 61.6521 52.9172 60.3773 52.5228 59.6905C52.3471 59.3814 51.8755 58.6947 50.8081 58.7075C50.2722 58.7161 49.2177 58.8191 48.7332 59.6218C48.5618 59.9051 48.416 60.1712 48.3431 60.4631C48.2788 60.7206 44.7893 73.9625 44.7893 73.9625C44.6693 74.2973 43.739 77.4737 43.6147 77.8643C43.4818 78.2592 43.3618 78.6412 43.2546 79.0146C43.1517 79.3923 43.0617 79.7357 42.9974 80.0534C42.9245 80.3624 42.8774 80.6242 42.8602 80.8174C42.8174 81.2896 42.8045 81.7145 42.8302 82.0836C42.8559 82.4571 42.9331 82.7661 43.0746 83.028C43.2117 83.2855 43.4132 83.4915 43.679 83.6461C43.9448 83.7963 44.3006 83.895 44.755 83.9379C44.9994 83.9594 45.2309 83.895 45.4752 83.8006C45.7196 83.7061 46.2168 83.3799 46.6541 82.8176C46.9971 82.3755 47.2929 81.4054 47.3786 81.0921C47.4558 80.7745 47.5329 80.444 47.6101 80.092C47.6873 79.7357 48.1417 77.4265 48.356 76.4306C48.5746 75.4348 48.8104 74.3918 49.0762 73.3058C49.3334 72.2241 49.6121 71.1253 49.8993 70.0093C50.1608 69.0092 50.5552 67.6141 50.8595 66.6054L51.0653 66.9531C52.3728 69.4813 53.6717 71.7648 54.9492 73.808C56.231 75.8512 57.4999 77.7741 58.7431 79.5812C59.2018 80.2208 59.5662 80.8131 59.8363 81.3582C60.1063 81.9034 60.3678 82.3669 60.6208 82.7661C60.8694 83.161 61.1395 83.4744 61.4396 83.6933C61.7354 83.9165 62.134 84.0367 62.6313 84.0495C62.8757 84.0581 63.7716 84.1053 64.3932 83.7791C64.6762 83.6289 64.9248 83.3971 65.1263 83.0666C65.3278 82.7447 65.4349 82.2768 65.4521 81.6716C65.4607 81.3625 65.5035 80.5041 65.5121 80.3367C65.5164 80.2208 65.6021 79.6499 65.6193 79.4954C65.7736 78.4867 65.9579 77.3664 66.1723 76.1302C66.3909 74.8983 66.6481 73.5633 66.9525 72.1211C67.2569 70.6832 67.6041 69.1422 68.0071 67.5068C68.4057 65.8629 69.5803 61.7122 69.6661 61.3559C69.7604 60.9954 70.1719 59.1582 70.1977 58.7848C70.2191 58.4457 70.1977 58.1023 70.1805 57.7461Z" fill="black"/>
<path d="M85.4589 57.1498C84.7516 56.0338 82.8611 56.0896 82.2438 56.4545C82.0337 56.5789 81.8408 56.7463 81.6693 56.9481C81.4979 57.1498 81.335 57.3644 81.2192 57.6091C81.0735 57.9096 80.9877 58.2229 80.9877 58.2229C80.8763 58.6393 80.4647 60.2446 80.4133 60.4678C80.3704 60.6438 79.2601 65.1293 79.1015 65.756C78.9472 66.3784 78.8014 66.975 78.66 67.5373C78.5228 68.0996 78.1069 69.7822 78.0598 69.9796C77.764 71.2416 77.4939 72.4434 77.2367 73.5766C76.9838 74.7012 76.7694 75.6927 76.6108 76.534C76.5165 77.0577 76.1993 79.2554 76.165 79.8649C76.1135 80.7921 76.1264 81.8952 76.225 82.3287C76.3193 82.7537 76.4994 83.1357 76.7566 83.4705C77.0138 83.801 77.3953 83.9898 77.9097 84.0414C78.69 84.0414 79.3373 83.6636 79.6374 83.4533C79.9975 83.2086 80.2675 82.9511 80.439 82.6764C80.6148 82.4017 80.7262 82.1184 80.7348 81.8265C80.7477 81.5003 80.6362 81.1741 80.5933 81.011C80.3576 80.1224 80.5076 79.7791 80.5676 79.4013C80.6276 79.015 82.1023 71.1729 82.4195 69.5375C82.7325 67.9107 83.0497 66.3827 83.3627 64.9705C83.4012 64.7773 83.4913 64.5026 83.6284 64.1378C83.7699 63.7686 84.4558 62.189 84.4772 62.1247C84.6787 61.5795 86.2134 58.3302 85.4589 57.1455V57.1498Z" fill="black"/>
<path d="M50.8681 66.6099C50.8681 66.6099 50.7909 66.6099 50.8809 66.6356L50.8681 66.6099Z" fill="black"/>
<path d="M126.973 55.8319C126.964 56.1367 127.033 56.5402 126.883 56.9565L118.232 80.7404C118.073 81.1739 117.915 81.4529 117.851 81.5946C117.799 81.7148 117.701 81.8392 117.542 81.9723C117.392 82.1011 117.216 82.217 117.01 82.32C116.813 82.4273 116.607 82.5088 116.393 82.5689C116.17 82.629 115.986 82.6548 115.819 82.6505C115.471 82.6419 115.141 82.5475 114.824 82.3715C114.507 82.1998 114.211 81.9594 113.932 81.6675C113.662 81.3671 113.405 81.0108 113.169 80.603C112.938 80.191 112.732 79.7403 112.561 79.251L108.865 68.9279C108.835 68.842 108.715 68.8334 108.677 68.9193C108.441 69.4387 108.171 70.0224 107.866 70.662C107.515 71.4003 107.146 72.1557 106.756 72.9326C106.37 73.7052 105.984 74.4693 105.599 75.2247C105.209 75.9802 104.853 76.667 104.518 77.2765C103.592 79.0192 102.722 80.5301 101.921 81.8092V81.792C101.063 83.2128 100.36 83.9167 99.8285 83.8996C99.1383 83.8781 98.401 83.6377 97.968 83.1699C97.535 82.6934 97.1707 82.0753 96.8749 81.2984C96.5791 80.5215 96.3304 79.6373 96.1204 78.6457C95.9103 77.6542 95.6745 76.624 95.4302 75.5552C94.6243 72.1471 93.8055 67.9664 92.9781 63.0216C92.9567 62.91 92.9009 62.6568 92.8066 62.2704C92.7123 61.8756 92.6008 61.3733 92.4594 60.7638V60.781C92.305 60.1286 92.1893 59.5749 92.125 59.1242C92.0521 58.6735 92.0221 58.3043 92.0264 58.021C92.0307 57.815 92.1121 57.4931 92.2193 57.2699C92.3265 57.051 92.5408 56.832 92.7123 56.6518C92.8881 56.4758 93.111 56.3728 93.3425 56.2612C93.5697 56.1453 93.8655 56.1624 94.1227 56.171C94.3928 56.1796 94.65 56.2912 94.9115 56.5058C95.173 56.7204 95.4259 57.0424 95.6702 57.4845C96.0989 58.2528 96.4419 59.0984 96.6862 60.0341C96.7677 60.3432 97.1664 62.455 97.3078 63.2148C97.4407 63.9745 98.2038 68.0265 98.461 69.3099C98.6968 70.5246 98.894 71.5934 99.0526 72.5077C99.2112 73.4262 99.7042 76.1819 99.7985 76.6498C99.8671 77.0104 99.94 77.3323 100.013 77.6027C100.034 77.6885 100.154 77.7014 100.201 77.6242C100.763 76.6841 102.731 73.1945 103.138 72.4218C103.537 71.6535 105.612 67.4384 105.959 66.6143C106.302 65.7859 106.76 64.2836 107.292 63.1504C107.523 62.6611 107.879 62.4507 108.064 62.3434C108.239 62.2318 108.527 62.0301 109.238 61.9872C109.577 61.9657 109.988 62.1717 110.336 62.5838C110.683 62.9873 111.099 63.5624 111.33 64.3694C111.467 64.8544 111.566 65.2965 111.626 65.5627C111.72 65.9833 111.742 66.1722 111.879 66.7087C111.999 67.1723 112.723 69.224 112.886 69.7134C113.054 70.2113 113.577 71.7522 113.654 71.9497C114.258 73.5636 115.501 76.9588 115.626 77.3022C115.66 77.3967 115.793 77.3924 115.819 77.2979C116.997 73.1 122.086 60.3947 123.081 54.9091C123.102 54.7889 123.158 54.6344 123.265 54.4541C123.372 54.2738 123.518 54.1064 123.702 53.939C123.878 53.7759 124.079 53.6385 124.298 53.5184C124.512 53.3982 124.731 53.351 124.958 53.3552C125.79 53.381 126.334 53.7158 126.622 54.3554C126.849 54.8533 126.977 55.3383 126.964 55.8233" fill="black"/>
<path fill-rule="evenodd" clip-rule="evenodd" d="M123.115 36.1086C125.438 35.997 129.417 35.7996 129.944 34.6192C129.944 34.6192 137.806 18.7117 139.572 13.9987C140.914 10.4146 142.217 6.78331 142.826 4.85605C142.865 4.73157 142.775 4.6028 142.646 4.59851C133.253 4.29375 122.845 4.83888 112.423 5.85187C101.449 6.91637 90.436 8.50454 80.5633 10.1614C74.7975 11.1315 69.4517 12.3118 63.8874 13.5437C61.8425 13.9944 60.355 14.3035 59.8148 14.4108C56.1281 15.1534 53.646 16.9733 52.2056 19.0465C43.3703 31.769 29.2965 73.2417 28.0576 77.4482C27.809 78.2895 26.8873 82.4359 26.8873 82.4359C26.5701 85.4019 23.7707 86.9815 21.4815 84.7022C20.2341 83.4574 22.1717 80.5902 23.1277 77.6885C37.9946 32.37 47.4815 17.57 48.9004 15.6813C50.5766 13.4493 52.197 11.3461 58.1001 10.2086C58.8546 10.0627 69.2459 7.89932 69.2459 7.89932C76.0578 6.47426 86.3935 4.92043 96.7334 3.63702C107.596 2.28923 118.502 1.23331 125.361 0.932845C127.222 0.85129 138.561 0.464978 140.104 0.331916C141.891 0.181684 143.67 0.0314531 145.501 0.00140669C148.339 -0.0458091 149.265 1.10024 149.295 2.73563C149.316 3.9847 145.578 12.6509 144.562 15.398C143.61 17.9777 137.124 31.3098 136.438 33.5804C136.293 34.0654 135.594 36.7482 135.135 37.7225C134.578 38.9115 130.926 39.1304 128.971 39.3407L112.548 41.1049C103.965 41.9204 92.9653 43.4871 81.8494 45.3243C70.7249 47.1657 51.3611 51.3164 47.7215 52.2306C45.2694 52.8444 42.2943 53.587 41.4713 53.3767C41.0126 53.2522 40.4596 52.9646 40.2495 52.4324C39.5464 50.6725 40.8154 49.5436 42.4787 48.8096C43.4304 48.389 50.7781 46.7279 51.7855 46.5132C56.1624 45.5861 60.7193 44.7319 65.2634 43.9378C69.6875 43.1652 81.7165 41.2122 83.3455 40.9246C86.4192 40.3838 95.3788 39.139 96.9092 38.933C101.878 38.2591 113.774 36.9156 113.774 36.9156C116.569 36.6451 122.626 36.1258 123.119 36.1043" fill="black"/>
</svg>
