<svg xmlns="http://www.w3.org/2000/svg" fill="none" viewBox="20.03 25.82 126.93 48.35">
<path d="M43.4389 56.8806L43.4563 56.8358L48.9263 40.3646H39.5972L40.1413 43.1045H44.8178L44.8005 43.1514L39.1354 59.7974H49.2298L48.5685 56.8806H43.4389Z" fill="#FFFBFB"/>
<path d="M36.2019 45.2921H31.3954L31.7379 47.5245V54.7356H34.4328V52.4712H34.4697C34.4697 52.4712 36.0437 52.4712 36.2019 52.4712C38.1727 52.4712 39.8269 50.7932 39.8269 48.8571C39.8269 46.9211 38.1727 45.29 36.2019 45.29V45.2921ZM35.9613 50.3795C35.9439 50.3795 34.4697 50.3817 34.4697 50.3817H34.4328V47.5288H34.4697C34.4697 47.5288 35.9114 47.5267 35.9613 47.5267C36.7179 47.5267 37.3835 48.1812 37.3835 48.9232C37.3835 49.6652 36.7179 50.3795 35.9613 50.3795Z" fill="#FFFBFB"/>
<path d="M55.0119 50.8977C55.0119 51.7783 54.2791 52.4435 53.4445 52.4435C52.6098 52.4435 51.877 51.7804 51.877 50.8977C51.877 50.823 51.8791 45.5842 51.8813 45.0682L49.1604 45.5032V50.7719C49.1604 53.1407 51.1008 54.9957 53.4466 54.9957C55.7924 54.9957 57.7328 53.1407 57.7328 50.7719V45.0704L55.0076 45.5053C55.0076 45.9382 55.0141 50.8273 55.0141 50.8998L55.0119 50.8977Z" fill="#FFFBFB"/>
<path d="M44.6183 25.823C31.0615 25.8252 20.0327 36.6738 20.0327 50.0021C20.0327 63.3305 31.0615 74.1748 44.6183 74.1748C58.1751 74.1748 69.1974 63.3305 69.1974 50.0021C69.1974 36.6738 58.1686 25.8252 44.6183 25.823ZM44.6183 67C35.1028 66.9851 27.3455 59.3603 27.3303 50.0021C27.3477 40.6439 35.1028 33.0171 44.6183 33.0021C54.1295 33.0192 61.8824 40.6461 61.9041 50.0021C61.8846 59.3603 54.1295 66.9872 44.6183 67Z" fill="#FFFBFB"/>
<path d="M81.2951 46.8785V49.2303H85.1325V50.8955H81.2951V54.7783H79.3959V45.2132H85.8024V46.8785H81.2951Z" fill="#FFFBFB"/>
<path d="M90.8844 54.8593C88.8898 54.8593 87.3049 53.5288 87.3049 51.5011V45.2154H89.2041V51.435C89.2041 52.5373 89.8589 53.194 90.8844 53.194C91.9099 53.194 92.5776 52.5352 92.5776 51.435V45.2154H94.4638V51.5011C94.4638 53.5288 92.879 54.8593 90.8844 54.8593Z" fill="#FFFBFB"/>
<path d="M102.332 54.7783L98.479 48.9083V54.7783H96.5798V45.2132H98.2731L102.126 51.0704V45.2132H104.025V54.7783H102.332Z" fill="#FFFBFB"/>
<path d="M112.37 53.8657C111.728 54.4968 110.813 54.7783 109.803 54.7783H106.293V45.2132H109.803C110.813 45.2132 111.728 45.4947 112.37 46.1258C113.462 47.2004 113.354 48.516 113.354 49.9552C113.354 51.3945 113.462 52.7889 112.37 53.8635V53.8657ZM111.045 47.4712C110.718 47.081 110.28 46.8806 109.625 46.8806H108.19V53.113H109.625C110.28 53.113 110.718 52.9105 111.045 52.5224C111.401 52.0917 111.455 51.4073 111.455 49.9574C111.455 48.5075 111.401 47.9019 111.045 47.4712Z" fill="#FFFBFB"/>
<path d="M120.825 54.7783L120.25 53.0853H116.795L116.207 54.7783H114.228L117.766 45.2132H119.255L122.807 54.7783H120.827H120.825ZM118.557 48.0341L117.328 51.5139H119.745L118.557 48.0341Z" fill="#FFFBFB"/>
<path d="M127.258 54.8593C126.219 54.8593 125.345 54.5096 124.634 53.8124C124.212 53.3966 123.951 52.9126 123.843 52.3753C123.735 51.838 123.678 51.0448 123.678 49.9979C123.678 48.951 123.732 48.1578 123.843 47.6205C123.951 47.0704 124.212 46.5991 124.634 46.1834C125.345 45.484 126.219 45.1365 127.258 45.1365C129.129 45.1365 130.508 46.2111 130.837 48.1599H128.912C128.706 47.3411 128.188 46.8038 127.273 46.8038C126.755 46.8038 126.345 46.9659 126.057 47.3006C125.66 47.7164 125.58 48.1471 125.58 50C125.58 51.8529 125.662 52.2836 126.057 52.6994C126.343 53.0362 126.752 53.1962 127.273 53.1962C128.188 53.1962 128.708 52.6588 128.912 51.8401H130.837C130.51 53.7868 129.116 54.8635 127.258 54.8635V54.8593Z" fill="#FFFBFB"/>
<path d="M133.881 54.8593C132.829 54.8593 132.105 54.5906 131.381 53.8785L132.639 52.6567C132.953 52.9659 133.252 53.194 133.881 53.194C134.809 53.194 135.412 52.6567 135.412 51.5544V45.2132H137.311V51.6354C137.311 53.7441 135.685 54.8593 133.883 54.8593H133.881Z" fill="#FFFBFB"/>
<path d="M144.986 54.7783L144.411 53.0853H140.955L140.368 54.7783H138.388L141.927 45.2132H143.416L146.967 54.7783H144.988H144.986ZM142.718 48.0341L141.489 51.5139H143.906L142.718 48.0341Z" fill="#FFFBFB"/>
</svg>