<svg xmlns="http://www.w3.org/2000/svg" fill="none" viewBox="37.08 15.11 95.83 111.77">
<path d="M82.4383 68.9058L82.4669 68.8257L91.7597 40.2998H75.91L76.8324 45.0431H84.7801L84.7515 45.1262L75.1246 73.9583H92.2794L91.1514 68.9058H82.4383Z" fill="url(#paint0_radial_32_2156)"/>
<path d="M70.1384 48.8364H61.9708L62.5506 52.7038V65.1962H67.1313V61.2745H67.1912C67.1912 61.2745 69.8643 61.2773 70.1356 61.2773C73.4825 61.2773 76.2955 58.3718 76.2955 55.0197C76.2955 51.6675 73.4825 48.8393 70.1356 48.8393L70.1384 48.8364ZM69.73 57.6447C69.7015 57.6447 67.1941 57.6504 67.1941 57.6504H67.1341V52.7095H67.1941C67.1941 52.7095 69.6444 52.7038 69.73 52.7038C71.0151 52.7038 72.146 53.8345 72.146 55.1227C72.146 56.4109 71.0123 57.6447 69.73 57.6447Z" fill="url(#paint1_radial_32_2156)"/>
<path d="M102.103 58.5433C102.103 60.069 100.858 61.2198 99.4389 61.2198C98.0196 61.2198 96.7744 60.069 96.7744 58.5433C96.7744 58.4144 96.7801 49.34 96.7801 48.4497L92.1537 49.1997V58.3257C92.1537 62.4278 95.4522 65.6397 99.436 65.6397C103.42 65.6397 106.721 62.425 106.721 58.3257V48.4497L102.092 49.1997C102.092 49.9468 102.103 58.4202 102.103 58.5433Z" fill="url(#paint2_radial_32_2156)"/>
<path d="M84.4403 15.1147C61.4025 15.1205 42.6628 33.9078 42.6628 56.9947C42.6628 80.0816 61.4054 98.8632 84.4403 98.8632C107.475 98.8632 126.206 80.0816 126.209 56.9947C126.209 33.9078 107.469 15.1205 84.4403 15.1147ZM84.4431 86.4337C68.2707 86.408 55.0941 73.1999 55.0627 56.9918C55.0912 40.7837 68.2707 27.5728 84.4403 27.5442C100.604 27.5728 113.781 40.7837 113.815 56.9918C113.781 73.1999 100.604 86.408 84.4403 86.4337H84.4431Z" fill="url(#paint3_radial_32_2156)"/>
<path d="M39.7755 115.349V118.747H45.2187V121.154H39.7755V126.768H37.0825V112.941H46.1697V115.349H39.7755Z" fill="#003D7D"/>
<path d="M53.3749 126.885C50.5476 126.885 48.3001 124.961 48.3001 122.03V112.941H50.9931V121.933C50.9931 123.524 51.9241 124.478 53.3749 124.478C54.8256 124.478 55.7766 123.527 55.7766 121.933V112.941H58.4496V122.03C58.4496 124.961 56.2021 126.885 53.3749 126.885Z" fill="#003D7D"/>
<path d="M69.6101 126.768L64.1469 118.28V126.768H61.4539V112.941H63.8556L69.3188 121.409V112.941H72.0118V126.768H69.6101Z" fill="#003D7D"/>
<path d="M83.8491 125.448C82.9381 126.361 81.6416 126.768 80.208 126.768H75.2275V112.941H80.208C81.6416 112.941 82.9381 113.348 83.8491 114.261C85.3998 115.815 85.2428 117.719 85.2428 119.794C85.2428 121.87 85.397 123.891 83.8491 125.445V125.448ZM81.97 116.205C81.5045 115.641 80.8848 115.349 79.9538 115.349H77.9205V124.36H79.9538C80.8848 124.36 81.5045 124.068 81.97 123.504C82.4726 122.883 82.5526 121.893 82.5526 119.794C82.5526 117.696 82.4755 116.823 81.97 116.202V116.205Z" fill="#003D7D"/>
<path d="M95.8378 126.768L95.0239 124.32H90.1233L89.2894 126.768H86.4793L91.4969 112.941H93.6074L98.645 126.768H95.8349H95.8378ZM92.6221 117.021L90.8772 122.05H94.3071L92.6221 117.021Z" fill="#003D7D"/>
<path d="M104.962 126.885C103.488 126.885 102.249 126.382 101.241 125.371C100.641 124.77 100.273 124.069 100.119 123.293C99.9644 122.517 99.8873 121.369 99.8873 119.855C99.8873 118.34 99.9644 117.195 100.119 116.417C100.273 115.621 100.641 114.94 101.241 114.339C102.249 113.328 103.488 112.824 104.962 112.824C107.615 112.824 109.574 114.379 110.037 117.193H107.304C107.012 116.007 106.276 115.232 104.979 115.232C104.242 115.232 103.663 115.464 103.254 115.95C102.692 116.551 102.577 117.173 102.577 119.855C102.577 122.537 102.695 123.155 103.254 123.759C103.66 124.246 104.242 124.478 104.979 124.478C106.276 124.478 107.012 123.702 107.304 122.517H110.037C109.571 125.334 107.595 126.885 104.962 126.885Z" fill="#003D7D"/>
<path d="M114.358 126.885C112.867 126.885 111.839 126.496 110.811 125.468L112.593 123.702C113.038 124.149 113.464 124.478 114.355 124.478C115.671 124.478 116.525 123.702 116.525 122.107V112.941H119.218V122.225C119.218 125.274 116.914 126.885 114.355 126.885H114.358Z" fill="#003D7D"/>
<path d="M130.107 126.768L129.293 124.32H124.393L123.559 126.768H120.749L125.767 112.941H127.877L132.915 126.768H130.104H130.107ZM126.892 117.021L125.147 122.05H128.577L126.892 117.021Z" fill="#003D7D"/>
<defs>
<radialGradient id="paint0_radial_32_2156" cx="0" cy="0" r="1" gradientUnits="userSpaceOnUse" gradientTransform="translate(59.996 30.4727) scale(77.9969 78.1828)">
<stop stop-color="#81CFF4"/>
<stop offset="0.15" stop-color="#00A6E6"/>
<stop offset="0.33" stop-color="#0076BE"/>
<stop offset="0.5" stop-color="#004F9E"/>
<stop offset="1" stop-color="#0E2050"/>
</radialGradient>
<radialGradient id="paint1_radial_32_2156" cx="0" cy="0" r="1" gradientUnits="userSpaceOnUse" gradientTransform="translate(60.3413 30.47) scale(77.3766 77.561)">
<stop stop-color="#81CFF4"/>
<stop offset="0.15" stop-color="#00A6E6"/>
<stop offset="0.33" stop-color="#0076BE"/>
<stop offset="0.5" stop-color="#004F9E"/>
<stop offset="1" stop-color="#0E2050"/>
</radialGradient>
<radialGradient id="paint2_radial_32_2156" cx="0" cy="0" r="1" gradientUnits="userSpaceOnUse" gradientTransform="translate(60.3413 30.3074) scale(77.5049 77.6896)">
<stop stop-color="#81CFF4"/>
<stop offset="0.15" stop-color="#00A6E6"/>
<stop offset="0.33" stop-color="#0076BE"/>
<stop offset="0.5" stop-color="#004F9E"/>
<stop offset="1" stop-color="#0E2050"/>
</radialGradient>
<radialGradient id="paint3_radial_32_2156" cx="0" cy="0" r="1" gradientUnits="userSpaceOnUse" gradientTransform="translate(60.3413 30.4729) scale(77.3735 77.558)">
<stop stop-color="#81CFF4"/>
<stop offset="0.15" stop-color="#00A6E6"/>
<stop offset="0.33" stop-color="#0076BE"/>
<stop offset="0.5" stop-color="#004F9E"/>
<stop offset="1" stop-color="#0E2050"/>
</radialGradient>
</defs>
</svg>