<?xml version="1.0" encoding="UTF-8" standalone="no"?>
<!DOCTYPE svg PUBLIC "-//W3C//DTD SVG 1.1//EN" "http://www.w3.org/Graphics/SVG/1.1/DTD/svg11.dtd">
<svg width="100%" height="100%" viewBox="0 0 2012 336" version="1.1" xmlns="http://www.w3.org/2000/svg" xmlns:xlink="http://www.w3.org/1999/xlink" xml:space="preserve" xmlns:serif="http://www.serif.com/" style="fill-rule:evenodd;clip-rule:evenodd;stroke-linejoin:round;stroke-miterlimit:2;">
    <g transform="matrix(1,0,0,1,-169.992083,-170.26375)">
        <g transform="matrix(4.166667,0,0,4.166667,0,0)">
            <g transform="matrix(1,0,0,1,126.3228,118.8973)">
                <path d="M0,-75.534C-20.824,-75.534 -37.767,-58.592 -37.767,-37.767C-37.767,-16.942 -20.824,0 0,0C20.825,0 37.768,-16.942 37.768,-37.767C37.768,-58.592 20.825,-75.534 0,-75.534M0,2.5C-22.203,2.5 -40.267,-15.564 -40.267,-37.767C-40.267,-59.97 -22.203,-78.034 0,-78.034C22.204,-78.034 40.268,-59.97 40.268,-37.767C40.268,-15.564 22.204,2.5 0,2.5" style="fill:white;fill-rule:nonzero;"/>
            </g>
            <g transform="matrix(1,0,0,1,81.0581,40.8636)">
                <path d="M0,80.53C-22.199,80.53 -40.26,62.469 -40.26,40.27C-40.26,18.065 -22.199,0 0,0C8.43,0 16.509,2.58 23.364,7.462L21.915,9.498C15.485,4.92 7.907,2.5 0,2.5C-20.821,2.5 -37.76,19.444 -37.76,40.27C-37.76,61.091 -20.821,78.03 0,78.03C7.902,78.03 15.48,75.613 21.916,71.041L23.363,73.079C16.504,77.953 8.425,80.53 0,80.53" style="fill:white;fill-rule:nonzero;"/>
            </g>
            <g transform="matrix(1,0,0,1,81.0581,51.424)">
                <path d="M0,59.41C-16.377,59.41 -29.7,46.087 -29.7,29.71C-29.7,13.327 -16.377,0 0,0C5.447,0 10.779,1.491 15.419,4.312L14.12,6.448C9.872,3.865 4.989,2.5 0,2.5C-14.998,2.5 -27.2,14.706 -27.2,29.71C-27.2,44.708 -14.998,56.91 0,56.91C4.993,56.91 9.873,55.548 14.11,52.972L15.409,55.108C10.78,57.922 5.451,59.41 0,59.41" style="fill:white;fill-rule:nonzero;"/>
            </g>
            <g transform="matrix(1,0,0,1,81.0581,61.9937)">
                <path d="M0,38.27C-10.548,38.27 -19.13,29.688 -19.13,19.14C-19.13,8.586 -10.548,0 0,0C3.546,0 7.005,0.974 10.004,2.815L8.695,4.945C6.091,3.346 3.084,2.5 0,2.5C-9.17,2.5 -16.63,9.965 -16.63,19.14C-16.63,28.31 -9.17,35.77 0,35.77C3.083,35.77 6.091,34.924 8.695,33.325L10.004,35.456C7.005,37.297 3.546,38.27 0,38.27" style="fill:white;fill-rule:nonzero;"/>
            </g>
            <g transform="matrix(1,0,0,1,194.5532,58.3075)">
                <path d="M0,11.943C0.706,11.621 1.285,11.155 1.738,10.545C2.574,9.43 2.992,7.905 2.992,5.971C2.992,4.02 2.574,2.495 1.738,1.398C1.268,0.771 0.666,0.3 -0.065,-0.014C-0.797,-0.327 -1.599,-0.484 -2.47,-0.484C-3.271,-0.484 -4.029,-0.323 -4.743,0C-5.458,0.322 -6.033,0.788 -6.468,1.398C-7.322,2.461 -7.749,3.924 -7.749,5.788C-7.749,7.844 -7.322,9.43 -6.468,10.545C-6.016,11.172 -5.419,11.642 -4.678,11.956C-3.938,12.27 -3.132,12.426 -2.261,12.426C-1.459,12.426 -0.706,12.265 0,11.943M-6.259,14.974C-7.479,14.443 -8.489,13.681 -9.291,12.688C-10.022,11.799 -10.571,10.78 -10.938,9.63C-11.303,8.48 -11.486,7.261 -11.486,5.971C-11.486,4.682 -11.303,3.458 -10.938,2.299C-10.571,1.141 -10.022,0.117 -9.291,-0.771C-8.489,-1.782 -7.483,-2.544 -6.272,-3.058C-5.062,-3.572 -3.759,-3.829 -2.365,-3.829C-0.972,-3.829 0.327,-3.568 1.529,-3.045C2.731,-2.522 3.741,-1.765 4.561,-0.771C5.31,0.152 5.854,1.172 6.193,2.286C6.533,3.401 6.721,4.63 6.756,5.971C6.721,7.33 6.533,8.563 6.193,9.669C5.854,10.776 5.31,11.782 4.561,12.688C3.725,13.698 2.7,14.465 1.489,14.987C0.278,15.51 -1.006,15.772 -2.365,15.772C-3.741,15.772 -5.04,15.506 -6.259,14.974" style="fill:white;fill-rule:nonzero;"/>
            </g>
            <g transform="matrix(1,0,0,1,212.9907,69.5839)">
                <path d="M0,0.34C0.331,-0.026 0.579,-0.5 0.745,-1.084C0.91,-1.668 0.993,-2.291 0.993,-2.953C0.993,-3.615 0.91,-4.234 0.745,-4.808C0.579,-5.384 0.331,-5.863 0,-6.246C-0.558,-6.908 -1.351,-7.239 -2.378,-7.239C-3.615,-7.239 -4.513,-6.821 -5.07,-5.985C-5.576,-5.235 -5.828,-4.224 -5.828,-2.953C-5.828,-1.629 -5.593,-0.618 -5.122,0.079C-4.844,0.514 -4.474,0.832 -4.012,1.032C-3.551,1.233 -3.049,1.333 -2.509,1.333C-1.446,1.333 -0.61,1.002 0,0.34M4.103,-10.009L4.103,5.07C4.103,7.265 3.231,8.851 1.489,9.826C0.845,10.193 0.204,10.436 -0.432,10.558C-1.067,10.68 -1.76,10.741 -2.509,10.741C-2.962,10.741 -3.463,10.684 -4.012,10.571C-4.561,10.458 -5.044,10.305 -5.462,10.114C-6.002,9.853 -6.508,9.513 -6.978,9.095C-7.448,8.676 -7.832,8.215 -8.128,7.71L-4.835,6.115C-4.678,6.412 -4.426,6.691 -4.077,6.952C-3.868,7.091 -3.611,7.2 -3.306,7.278C-3.002,7.357 -2.728,7.396 -2.482,7.396C-2.082,7.396 -1.686,7.34 -1.294,7.226C-0.901,7.112 -0.575,6.961 -0.313,6.769C0,6.525 0.226,6.263 0.366,5.985C0.505,5.706 0.565,5.384 0.549,5.018L0.549,3.554C-0.462,4.182 -1.673,4.495 -3.084,4.495C-4.024,4.495 -4.927,4.299 -5.789,3.907C-6.651,3.515 -7.37,2.962 -7.945,2.248C-9.043,0.906 -9.592,-0.827 -9.592,-2.953C-9.592,-3.946 -9.452,-4.891 -9.173,-5.788C-8.895,-6.686 -8.485,-7.474 -7.945,-8.154C-7.353,-8.886 -6.616,-9.443 -5.736,-9.827C-4.857,-10.209 -3.912,-10.401 -2.901,-10.401C-2.187,-10.401 -1.494,-10.288 -0.823,-10.061C-0.153,-9.835 0.453,-9.521 0.993,-9.12L0.993,-10.009L4.103,-10.009Z" style="fill:white;fill-rule:nonzero;"/>
            </g>
            <g transform="matrix(1,0,0,1,229.6909,63.1808)">
                <path d="M0,0.497C-0.279,0.114 -0.646,-0.178 -1.098,-0.378C-1.551,-0.579 -2.048,-0.679 -2.588,-0.679C-3.128,-0.679 -3.624,-0.579 -4.077,-0.378C-4.53,-0.178 -4.896,0.114 -5.175,0.497C-5.697,1.176 -5.959,2.161 -5.959,3.45C-5.959,4.722 -5.697,5.698 -5.175,6.377C-4.896,6.761 -4.526,7.057 -4.064,7.266C-3.603,7.475 -3.11,7.579 -2.588,7.579C-2.064,7.579 -1.573,7.475 -1.111,7.266C-0.649,7.057 -0.279,6.761 0,6.377C0.539,5.681 0.81,4.705 0.81,3.45C0.81,2.179 0.539,1.194 0,0.497M1.28,-7.814L0.418,-10.401L-6.952,-7.866L-6.063,-5.305L1.28,-7.814ZM-5.606,10.297C-6.556,9.896 -7.353,9.313 -7.997,8.546C-9.147,7.153 -9.723,5.454 -9.723,3.45C-9.723,1.447 -9.147,-0.252 -7.997,-1.646C-7.353,-2.395 -6.552,-2.974 -5.593,-3.384C-4.635,-3.793 -3.633,-3.998 -2.588,-3.998C-1.525,-3.998 -0.519,-3.797 0.431,-3.397C1.38,-2.996 2.178,-2.413 2.822,-1.646C3.989,-0.252 4.573,1.447 4.573,3.45C4.573,4.461 4.434,5.375 4.155,6.194C3.876,7.013 3.432,7.797 2.822,8.546C2.16,9.313 1.362,9.896 0.431,10.297C-0.501,10.698 -1.508,10.898 -2.588,10.898C-3.65,10.898 -4.656,10.698 -5.606,10.297" style="fill:white;fill-rule:nonzero;"/>
            </g>
            <g transform="matrix(1,0,0,1,0,-34.095)">
                <rect x="237.138" y="88.574" width="3.555" height="19.208" style="fill:white;"/>
            </g>
            <g transform="matrix(1,0,0,1,257.6011,70.4588)">
                <path d="M0,-8.075C0.227,-7.421 0.366,-6.759 0.418,-6.089C0.471,-5.418 0.497,-4.586 0.497,-3.593L0.497,3.228L-3.11,3.228L-3.11,-3.436C-3.11,-5.23 -3.424,-6.468 -4.051,-7.147C-4.539,-7.687 -5.235,-7.957 -6.142,-7.957C-6.839,-7.957 -7.439,-7.774 -7.944,-7.408C-8.485,-7.007 -8.833,-6.406 -8.99,-5.605C-9.095,-5.099 -9.146,-4.202 -9.146,-2.913L-9.146,3.228L-12.728,3.228L-12.728,-10.884L-9.591,-10.884L-9.591,-9.421L-9.408,-9.63C-8.921,-10.222 -8.293,-10.649 -7.526,-10.91C-6.76,-11.172 -5.977,-11.303 -5.175,-11.303C-3.467,-11.303 -2.091,-10.788 -1.045,-9.761C-0.575,-9.29 -0.227,-8.728 0,-8.075" style="fill:white;fill-rule:nonzero;"/>
            </g>
            <g transform="matrix(1,0,0,1,270.4331,69.5838)">
                <path d="M0,-5.906C-0.279,-6.289 -0.646,-6.581 -1.098,-6.781C-1.551,-6.982 -2.048,-7.082 -2.588,-7.082C-3.128,-7.082 -3.624,-6.982 -4.077,-6.781C-4.53,-6.581 -4.896,-6.289 -5.175,-5.906C-5.697,-5.227 -5.959,-4.242 -5.959,-2.953C-5.959,-1.681 -5.697,-0.705 -5.175,-0.026C-4.896,0.358 -4.526,0.654 -4.064,0.863C-3.603,1.072 -3.11,1.176 -2.588,1.176C-2.064,1.176 -1.573,1.072 -1.111,0.863C-0.649,0.654 -0.279,0.358 0,-0.026C0.539,-0.722 0.81,-1.698 0.81,-2.953C0.81,-4.224 0.539,-5.209 0,-5.906M-5.606,3.894C-6.556,3.493 -7.353,2.91 -7.997,2.143C-9.147,0.75 -9.723,-0.949 -9.723,-2.953C-9.723,-4.956 -9.147,-6.655 -7.997,-8.049C-7.353,-8.798 -6.552,-9.377 -5.593,-9.787C-4.635,-10.196 -3.633,-10.401 -2.588,-10.401C-1.525,-10.401 -0.519,-10.2 0.431,-9.8C1.38,-9.399 2.178,-8.816 2.822,-8.049C3.989,-6.655 4.573,-4.956 4.573,-2.953C4.573,-1.942 4.434,-1.028 4.155,-0.209C3.876,0.61 3.432,1.394 2.822,2.143C2.16,2.91 1.362,3.493 0.431,3.894C-0.501,4.295 -1.508,4.495 -2.588,4.495C-3.65,4.495 -4.656,4.295 -5.606,3.894" style="fill:white;fill-rule:nonzero;"/>
            </g>
            <g transform="matrix(1,0,0,1,287.8374,72.5109)">
                <path d="M0,-5.88C0,-7.151 -0.252,-8.162 -0.758,-8.912C-1.315,-9.748 -2.213,-10.166 -3.449,-10.166C-4.478,-10.166 -5.271,-9.835 -5.827,-9.173C-6.159,-8.79 -6.407,-8.311 -6.572,-7.735C-6.738,-7.161 -6.82,-6.542 -6.82,-5.88C-6.82,-5.218 -6.738,-4.595 -6.572,-4.011C-6.407,-3.427 -6.159,-2.953 -5.827,-2.587C-5.218,-1.925 -4.382,-1.594 -3.318,-1.594C-2.779,-1.594 -2.277,-1.694 -1.816,-1.895C-1.354,-2.095 -0.984,-2.413 -0.705,-2.848C-0.235,-3.545 0,-4.556 0,-5.88M3.346,-8.715C3.624,-7.818 3.764,-6.873 3.764,-5.88C3.764,-3.754 3.215,-2.021 2.117,-0.679C1.542,0.035 0.823,0.588 -0.039,0.98C-0.901,1.372 -1.803,1.568 -2.744,1.568C-4.138,1.568 -5.349,1.255 -6.376,0.627L-6.376,7.448L-9.957,7.448L-9.957,-12.936L-6.82,-12.936L-6.82,-12.047C-6.281,-12.448 -5.675,-12.762 -5.004,-12.988C-4.334,-13.215 -3.642,-13.328 -2.927,-13.328C-1.916,-13.328 -0.971,-13.136 -0.091,-12.754C0.788,-12.37 1.524,-11.813 2.117,-11.081C2.657,-10.401 3.066,-9.613 3.346,-8.715" style="fill:white;fill-rule:nonzero;"/>
            </g>
            <g transform="matrix(1,0,0,1,303.4136,69.5838)">
                <path d="M0,-5.906C-0.279,-6.289 -0.646,-6.581 -1.098,-6.781C-1.551,-6.982 -2.048,-7.082 -2.588,-7.082C-3.128,-7.082 -3.624,-6.982 -4.077,-6.781C-4.53,-6.581 -4.896,-6.289 -5.175,-5.906C-5.697,-5.227 -5.959,-4.242 -5.959,-2.953C-5.959,-1.681 -5.697,-0.705 -5.175,-0.026C-4.896,0.358 -4.526,0.654 -4.064,0.863C-3.603,1.072 -3.11,1.176 -2.588,1.176C-2.064,1.176 -1.573,1.072 -1.111,0.863C-0.649,0.654 -0.279,0.358 0,-0.026C0.539,-0.722 0.81,-1.698 0.81,-2.953C0.81,-4.224 0.539,-5.209 0,-5.906M-5.606,3.894C-6.556,3.493 -7.353,2.91 -7.997,2.143C-9.147,0.75 -9.723,-0.949 -9.723,-2.953C-9.723,-4.956 -9.147,-6.655 -7.997,-8.049C-7.353,-8.798 -6.552,-9.377 -5.593,-9.787C-4.635,-10.196 -3.633,-10.401 -2.588,-10.401C-1.525,-10.401 -0.519,-10.2 0.431,-9.8C1.38,-9.399 2.178,-8.816 2.822,-8.049C3.989,-6.655 4.573,-4.956 4.573,-2.953C4.573,-1.942 4.434,-1.028 4.155,-0.209C3.876,0.61 3.432,1.394 2.822,2.143C2.16,2.91 1.362,3.493 0.431,3.894C-0.501,4.295 -1.508,4.495 -2.588,4.495C-3.65,4.495 -4.656,4.295 -5.606,3.894" style="fill:white;fill-rule:nonzero;"/>
            </g>
            <g transform="matrix(1,0,0,1,0,-34.095)">
                <rect x="310.862" y="88.574" width="3.555" height="19.208" style="fill:white;"/>
            </g>
            <g transform="matrix(1,0,0,1,326.1509,69.1401)">
                <path d="M0,-5.018C-0.506,-6.272 -1.525,-6.9 -3.059,-6.9C-3.599,-6.9 -4.082,-6.795 -4.509,-6.586C-4.936,-6.377 -5.148,-6.107 -5.148,-5.776C-5.148,-5.515 -5.031,-5.323 -4.796,-5.201C-4.561,-5.079 -4.165,-4.94 -3.607,-4.783L-0.993,-4.051C0.4,-3.668 1.489,-3.097 2.273,-2.339C3.058,-1.581 3.449,-0.645 3.449,0.47C3.449,1.185 3.267,1.859 2.9,2.495C2.534,3.131 2.047,3.632 1.437,3.998C0.862,4.347 0.282,4.59 -0.301,4.73C-0.885,4.869 -1.542,4.939 -2.274,4.939C-3.39,4.939 -4.369,4.795 -5.214,4.508C-6.06,4.22 -6.778,3.728 -7.37,3.031C-7.806,2.526 -8.133,2.034 -8.351,1.555C-8.568,1.076 -8.738,0.557 -8.86,-0L-5.672,-0.81C-5.585,-0.479 -5.467,-0.157 -5.318,0.156C-5.171,0.47 -5.01,0.723 -4.835,0.914C-4.208,1.559 -3.328,1.881 -2.195,1.881C-1.899,1.881 -1.556,1.838 -1.163,1.751C-0.771,1.664 -0.479,1.55 -0.288,1.411C-0.097,1.272 0.043,1.136 0.13,1.006C0.217,0.875 0.261,0.714 0.261,0.523C0.261,0.174 0.121,-0.079 -0.157,-0.236C-0.437,-0.393 -0.75,-0.518 -1.098,-0.615C-1.447,-0.71 -1.673,-0.775 -1.777,-0.81L-3.397,-1.255C-4.426,-1.551 -5.079,-1.751 -5.358,-1.856C-6.421,-2.309 -7.179,-2.823 -7.632,-3.398C-7.858,-3.694 -8.032,-4.055 -8.154,-4.482C-8.276,-4.909 -8.337,-5.297 -8.337,-5.645C-8.337,-6.499 -8.102,-7.261 -7.632,-7.932C-7.161,-8.602 -6.543,-9.103 -5.776,-9.435C-5.288,-9.644 -4.801,-9.783 -4.312,-9.853C-3.825,-9.922 -3.285,-9.957 -2.692,-9.957C-1.612,-9.957 -0.61,-9.722 0.313,-9.252C0.992,-8.921 1.594,-8.455 2.116,-7.853C2.639,-7.252 3.04,-6.586 3.318,-5.854L0,-5.018Z" style="fill:white;fill-rule:nonzero;"/>
            </g>
            <g transform="matrix(1,0,0,1,336.1069,54.8711)">
                <path d="M0,18.816L-3.633,18.816L-3.606,0L0,0L0,10.087L1.673,10.087L5.07,4.704L9.017,4.704L4.548,11.733L9.356,18.816L5.331,18.816L1.673,13.432L0,13.432L0,18.816Z" style="fill:white;fill-rule:nonzero;"/>
            </g>
            <g transform="matrix(1,0,0,1,0,-34.095)">
                <path d="M351.107,107.782L347.553,107.782L347.553,93.67L351.107,93.67L351.107,107.782ZM351.107,91.71L347.553,91.71L347.553,88.574L351.107,88.574L351.107,91.71Z" style="fill:white;fill-rule:nonzero;"/>
            </g>
            <g transform="matrix(1,0,0,1,370.9556,58.3075)">
                <path d="M0,11.943C0.706,11.621 1.285,11.155 1.738,10.545C2.574,9.43 2.992,7.905 2.992,5.971C2.992,4.02 2.574,2.495 1.738,1.398C1.268,0.771 0.666,0.3 -0.065,-0.014C-0.797,-0.327 -1.599,-0.484 -2.47,-0.484C-3.271,-0.484 -4.029,-0.323 -4.743,0C-5.458,0.322 -6.033,0.788 -6.468,1.398C-7.322,2.461 -7.749,3.924 -7.749,5.788C-7.749,7.844 -7.322,9.43 -6.468,10.545C-6.016,11.172 -5.419,11.642 -4.678,11.956C-3.938,12.27 -3.132,12.426 -2.261,12.426C-1.459,12.426 -0.706,12.265 0,11.943M-6.259,14.974C-7.479,14.443 -8.489,13.681 -9.291,12.688C-10.022,11.799 -10.571,10.78 -10.938,9.63C-11.303,8.48 -11.486,7.261 -11.486,5.971C-11.486,4.682 -11.303,3.458 -10.938,2.299C-10.571,1.141 -10.022,0.117 -9.291,-0.771C-8.489,-1.782 -7.483,-2.544 -6.272,-3.058C-5.062,-3.572 -3.759,-3.829 -2.365,-3.829C-0.972,-3.829 0.327,-3.568 1.529,-3.045C2.731,-2.522 3.741,-1.765 4.561,-0.771C5.31,0.152 5.854,1.172 6.193,2.286C6.533,3.401 6.721,4.63 6.756,5.971C6.721,7.33 6.533,8.563 6.193,9.669C5.854,10.776 5.31,11.782 4.561,12.688C3.725,13.698 2.7,14.465 1.489,14.987C0.278,15.51 -1.006,15.772 -2.365,15.772C-3.741,15.772 -5.04,15.506 -6.259,14.974" style="fill:white;fill-rule:nonzero;"/>
            </g>
            <g transform="matrix(1,0,0,1,384.2183,54.8711)">
                <path d="M0,18.816L-3.633,18.816L-3.606,0L0,0L0,10.087L1.673,10.087L5.07,4.704L9.017,4.704L4.548,11.733L9.356,18.816L5.331,18.816L1.673,13.432L0,13.432L0,18.816Z" style="fill:white;fill-rule:nonzero;"/>
            </g>
            <g transform="matrix(1,0,0,1,404.8647,73.2946)">
                <path d="M0,-13.694L0,-10.401C-0.662,-10.662 -1.395,-10.793 -2.195,-10.793C-3.415,-10.793 -4.338,-10.462 -4.966,-9.8C-5.575,-9.137 -5.88,-8.249 -5.88,-7.134L-5.88,0.392L-9.461,0.392L-9.461,-13.72L-6.324,-13.72L-6.324,-11.786C-5.924,-12.465 -5.419,-12.988 -4.809,-13.354C-4.008,-13.841 -3.075,-14.086 -2.013,-14.086C-1.351,-14.086 -0.68,-13.955 0,-13.694" style="fill:white;fill-rule:nonzero;"/>
            </g>
            <g transform="matrix(1,0,0,1,414.9263,70.6943)">
                <path d="M0,-2.247C0.053,-2.622 0.078,-3.087 0.078,-3.645C-0.74,-3.489 -1.925,-3.244 -3.476,-2.914C-4.086,-2.774 -4.578,-2.569 -4.952,-2.299C-5.327,-2.029 -5.515,-1.676 -5.515,-1.241C-5.515,-0.753 -5.322,-0.352 -4.939,-0.039C-4.557,0.275 -4.077,0.432 -3.502,0.432C-2.84,0.432 -2.239,0.284 -1.698,-0.013C-1.159,-0.309 -0.723,-0.701 -0.392,-1.189C-0.183,-1.519 -0.052,-1.872 0,-2.247M4.155,7.88C3.877,8.367 3.458,8.742 2.901,9.003C2.553,9.177 2.16,9.265 1.725,9.265C1.271,9.265 0.832,9.16 0.405,8.951C-0.021,8.742 -0.375,8.455 -0.653,8.089C-1.106,7.548 -1.333,6.878 -1.333,6.077C-1.333,5.588 -1.237,5.101 -1.045,4.613C-0.731,3.881 -0.218,3.202 0.497,2.575L0.497,1.268C-0.2,2.069 -0.91,2.623 -1.633,2.927C-2.356,3.232 -3.267,3.385 -4.364,3.385C-5.793,3.385 -6.926,2.989 -7.762,2.196C-8.598,1.403 -9.017,0.345 -9.017,-0.979C-9.017,-2.931 -8.188,-4.281 -6.533,-5.03C-5.854,-5.344 -5.03,-5.597 -4.063,-5.789C-3.097,-5.98 -1.978,-6.154 -0.705,-6.311L0.078,-6.415C-0.044,-6.955 -0.331,-7.382 -0.784,-7.696C-1.237,-8.01 -1.855,-8.166 -2.64,-8.166C-3.319,-8.166 -3.959,-8.049 -4.561,-7.814C-5.161,-7.579 -5.697,-7.252 -6.168,-6.833L-8.206,-9.186C-7.422,-9.934 -6.556,-10.51 -5.605,-10.911C-4.656,-11.311 -3.58,-11.512 -2.378,-11.512C-1.629,-11.512 -0.889,-11.368 -0.156,-11.08C0.575,-10.793 1.211,-10.423 1.751,-9.97C2.988,-8.924 3.606,-7.409 3.606,-5.422L3.606,2.653L3.815,2.993C3.224,3.393 2.771,3.785 2.457,4.169C2.004,4.622 1.673,5.084 1.464,5.554C1.394,5.763 1.359,5.911 1.359,5.998C1.359,6.172 1.411,6.312 1.516,6.416C1.603,6.556 1.76,6.626 1.986,6.626C2.317,6.626 2.631,6.503 2.927,6.259L4.155,7.88Z" style="fill:white;fill-rule:nonzero;"/>
            </g>
            <g transform="matrix(1,0,0,1,430.7368,69.5839)">
                <path d="M0,0.34C0.331,-0.026 0.579,-0.5 0.745,-1.084C0.91,-1.668 0.993,-2.291 0.993,-2.953C0.993,-3.615 0.91,-4.234 0.745,-4.808C0.579,-5.384 0.331,-5.863 0,-6.246C-0.558,-6.908 -1.351,-7.239 -2.378,-7.239C-3.615,-7.239 -4.513,-6.821 -5.07,-5.985C-5.576,-5.235 -5.828,-4.224 -5.828,-2.953C-5.828,-1.629 -5.593,-0.618 -5.122,0.079C-4.844,0.514 -4.474,0.832 -4.012,1.032C-3.551,1.233 -3.049,1.333 -2.509,1.333C-1.446,1.333 -0.61,1.002 0,0.34M4.103,-10.009L4.103,5.07C4.103,7.265 3.231,8.851 1.489,9.826C0.845,10.193 0.204,10.436 -0.432,10.558C-1.067,10.68 -1.76,10.741 -2.509,10.741C-2.962,10.741 -3.463,10.684 -4.012,10.571C-4.561,10.458 -5.044,10.305 -5.462,10.114C-6.002,9.853 -6.508,9.513 -6.978,9.095C-7.448,8.676 -7.832,8.215 -8.128,7.71L-4.835,6.115C-4.678,6.412 -4.426,6.691 -4.077,6.952C-3.868,7.091 -3.611,7.2 -3.306,7.278C-3.002,7.357 -2.728,7.396 -2.482,7.396C-2.082,7.396 -1.686,7.34 -1.294,7.226C-0.901,7.112 -0.575,6.961 -0.313,6.769C0,6.525 0.226,6.263 0.366,5.985C0.505,5.706 0.565,5.384 0.549,5.018L0.549,3.554C-0.462,4.182 -1.673,4.495 -3.084,4.495C-4.024,4.495 -4.927,4.299 -5.789,3.907C-6.651,3.515 -7.37,2.962 -7.945,2.248C-9.043,0.906 -9.592,-0.827 -9.592,-2.953C-9.592,-3.946 -9.452,-4.891 -9.173,-5.788C-8.895,-6.686 -8.485,-7.474 -7.945,-8.154C-7.353,-8.886 -6.616,-9.443 -5.736,-9.827C-4.857,-10.209 -3.912,-10.401 -2.901,-10.401C-2.187,-10.401 -1.494,-10.288 -0.823,-10.061C-0.153,-9.835 0.453,-9.521 0.993,-9.12L0.993,-10.009L4.103,-10.009Z" style="fill:white;fill-rule:nonzero;"/>
            </g>
            <g transform="matrix(1,0,0,1,446.6792,64.8541)">
                <path d="M0,-1.542L-2.928,0.13L-2.928,8.833L-6.481,8.833L-6.481,2.169L-9.408,3.841L-9.408,-0L-6.481,-1.673L-6.481,-10.375L-2.928,-10.375L-2.928,-3.711L0,-5.384L0,-1.542Z" style="fill:white;fill-rule:nonzero;"/>
            </g>
            <g transform="matrix(1,0,0,1,461.9937,79.9588)">
                <path d="M0,-20.384L-6.011,-4.364C-6.36,-3.441 -6.69,-2.687 -7.004,-2.103C-7.318,-1.52 -7.71,-1.054 -8.181,-0.705C-8.599,-0.391 -9.061,-0.196 -9.565,-0.117C-10.071,-0.039 -10.829,0 -11.839,0L-11.839,-3.371C-11.387,-3.371 -11.024,-3.393 -10.755,-3.436C-10.484,-3.48 -10.245,-3.572 -10.036,-3.711C-9.792,-3.885 -9.574,-4.129 -9.383,-4.442C-9.191,-4.756 -8.981,-5.226 -8.755,-5.854L-14.191,-20.384L-10.637,-20.384L-7.135,-10.375L-3.528,-20.384L0,-20.384Z" style="fill:white;fill-rule:nonzero;"/>
            </g>
            <g transform="matrix(1,0,0,1,480.2085,67.9372)">
                <path d="M0,-7.317C-0.262,-7.857 -0.515,-8.284 -0.758,-8.598C-1.002,-8.911 -1.333,-9.19 -1.751,-9.434C-2.483,-9.887 -3.276,-10.113 -4.13,-10.113C-4.966,-10.113 -5.671,-9.939 -6.246,-9.591C-6.56,-9.399 -6.8,-9.164 -6.965,-8.885C-7.131,-8.606 -7.213,-8.319 -7.213,-8.023C-7.213,-7.674 -7.092,-7.378 -6.848,-7.134C-6.552,-6.82 -5.837,-6.489 -4.704,-6.141L-1.437,-5.2C-0.602,-4.956 0.082,-4.699 0.614,-4.429C1.146,-4.159 1.62,-3.824 2.038,-3.423C2.613,-2.883 3.049,-2.273 3.345,-1.594C3.641,-0.914 3.789,-0.191 3.789,0.576C3.789,1.394 3.571,2.204 3.136,3.006C2.7,3.808 2.107,4.452 1.358,4.94C0.68,5.393 -0.074,5.706 -0.902,5.881C-1.729,6.055 -2.692,6.142 -3.79,6.142C-5.114,6.142 -6.295,5.946 -7.331,5.554C-8.367,5.162 -9.252,4.513 -9.983,3.607C-10.768,2.631 -11.334,1.412 -11.683,-0.052L-8.075,-1.019C-7.901,-0.025 -7.588,0.75 -7.135,1.307C-6.769,1.795 -6.269,2.169 -5.632,2.431C-4.996,2.692 -4.339,2.823 -3.659,2.823C-3.137,2.823 -2.601,2.749 -2.052,2.601C-1.503,2.453 -1.063,2.257 -0.732,2.013C-0.227,1.647 0.026,1.133 0.026,0.471C0.026,-0.069 -0.166,-0.505 -0.549,-0.836C-0.95,-1.184 -1.508,-1.463 -2.222,-1.672L-5.724,-2.692C-7.31,-3.127 -8.512,-3.711 -9.33,-4.442C-9.87,-4.895 -10.275,-5.444 -10.545,-6.089C-10.815,-6.733 -10.95,-7.404 -10.95,-8.101C-10.95,-9.111 -10.663,-10.035 -10.088,-10.871C-9.513,-11.708 -8.781,-12.326 -7.893,-12.727C-7.266,-13.005 -6.634,-13.197 -5.998,-13.302C-5.362,-13.406 -4.67,-13.459 -3.92,-13.459C-2.353,-13.423 -1.037,-13.119 0.026,-12.544C0.827,-12.108 1.532,-11.529 2.143,-10.806C2.752,-10.083 3.24,-9.242 3.606,-8.284L0,-7.317Z" style="fill:white;fill-rule:nonzero;"/>
            </g>
            <g transform="matrix(1,0,0,1,491.2632,62.0832)">
                <path d="M0,0.236L0,6.246C0,6.664 0.021,7.013 0.065,7.292C0.108,7.571 0.184,7.788 0.288,7.945C0.584,8.415 1.08,8.686 1.777,8.755C1.899,8.773 2.091,8.782 2.353,8.782C2.892,8.782 3.467,8.738 4.077,8.651L4.077,11.604C3.484,11.761 2.727,11.839 1.804,11.839C1.089,11.839 0.471,11.795 -0.052,11.708C-0.731,11.587 -1.289,11.395 -1.725,11.134C-2.16,10.872 -2.561,10.472 -2.927,9.931C-3.171,9.565 -3.336,9.152 -3.424,8.69C-3.511,8.228 -3.554,7.666 -3.554,7.004L-3.554,0.236L-5.958,0.236L-5.958,-2.508L-3.554,-2.508L-3.554,-6.429L0,-6.429L0,-2.508L4.077,-2.508L4.077,0.236L0,0.236Z" style="fill:white;fill-rule:nonzero;"/>
            </g>
            <g transform="matrix(1,0,0,1,506.6294,63.1808)">
                <path d="M0,0.497C-0.279,0.114 -0.646,-0.178 -1.098,-0.378C-1.551,-0.579 -2.048,-0.679 -2.588,-0.679C-3.128,-0.679 -3.624,-0.579 -4.077,-0.378C-4.53,-0.178 -4.896,0.114 -5.175,0.497C-5.697,1.176 -5.959,2.161 -5.959,3.45C-5.959,4.722 -5.697,5.698 -5.175,6.377C-4.896,6.761 -4.526,7.057 -4.064,7.266C-3.603,7.475 -3.11,7.579 -2.588,7.579C-2.064,7.579 -1.573,7.475 -1.111,7.266C-0.649,7.057 -0.279,6.761 0,6.377C0.539,5.681 0.81,4.705 0.81,3.45C0.81,2.179 0.539,1.194 0,0.497M1.28,-7.814L0.418,-10.401L-6.952,-7.866L-6.063,-5.305L1.28,-7.814ZM-5.606,10.297C-6.556,9.896 -7.353,9.313 -7.997,8.546C-9.147,7.153 -9.723,5.454 -9.723,3.45C-9.723,1.447 -9.147,-0.252 -7.997,-1.646C-7.353,-2.395 -6.552,-2.974 -5.593,-3.384C-4.635,-3.793 -3.633,-3.998 -2.588,-3.998C-1.525,-3.998 -0.519,-3.797 0.431,-3.397C1.38,-2.996 2.178,-2.413 2.822,-1.646C3.989,-0.252 4.573,1.447 4.573,3.45C4.573,4.461 4.434,5.375 4.155,6.194C3.876,7.013 3.432,7.797 2.822,8.546C2.16,9.313 1.362,9.896 0.431,10.297C-0.501,10.698 -1.508,10.898 -2.588,10.898C-3.65,10.898 -4.656,10.698 -5.606,10.297" style="fill:white;fill-rule:nonzero;"/>
            </g>
            <g transform="matrix(1,0,0,1,522.2583,64.8541)">
                <path d="M0,-1.542L-2.928,0.13L-2.928,8.833L-6.481,8.833L-6.481,2.169L-9.408,3.841L-9.408,-0L-6.481,-1.673L-6.481,-10.375L-2.928,-10.375L-2.928,-3.711L0,-5.384L0,-1.542Z" style="fill:white;fill-rule:nonzero;"/>
            </g>
            <g transform="matrix(1,0,0,1,193.4038,89.4506)">
                <path d="M0,8.049C0.165,7.466 0.248,6.842 0.248,6.18C0.248,5.518 0.165,4.9 0,4.325C-0.166,3.75 -0.414,3.271 -0.745,2.887C-1.303,2.225 -2.096,1.894 -3.123,1.894C-4.36,1.894 -5.258,2.313 -5.815,3.149C-6.321,3.898 -6.573,4.909 -6.573,6.18C-6.573,7.505 -6.338,8.515 -5.867,9.212C-5.589,9.648 -5.219,9.966 -4.757,10.166C-4.296,10.366 -3.794,10.466 -3.254,10.466C-2.191,10.466 -1.355,10.135 -0.745,9.473C-0.414,9.107 -0.166,8.633 0,8.049M3.384,-5.58L3.384,13.236L0.248,13.236L0.248,12.374C-0.85,13.21 -2.209,13.629 -3.829,13.629C-4.77,13.629 -5.672,13.432 -6.534,13.041C-7.396,12.649 -8.115,12.095 -8.69,11.381C-9.788,10.04 -10.337,8.306 -10.337,6.18C-10.337,5.187 -10.197,4.242 -9.918,3.345C-9.64,2.447 -9.23,1.659 -8.69,0.98C-8.098,0.248 -7.361,-0.309 -6.481,-0.693C-5.603,-1.076 -4.657,-1.268 -3.646,-1.268C-2.409,-1.268 -1.26,-0.945 -0.196,-0.301L-0.196,-5.58L3.384,-5.58Z" style="fill:white;fill-rule:nonzero;"/>
            </g>
            <g transform="matrix(1,0,0,1,208.522,98.1401)">
                <path d="M0,-5.018C-0.506,-6.272 -1.525,-6.9 -3.059,-6.9C-3.599,-6.9 -4.082,-6.795 -4.509,-6.586C-4.936,-6.377 -5.148,-6.107 -5.148,-5.776C-5.148,-5.515 -5.031,-5.323 -4.796,-5.201C-4.561,-5.079 -4.165,-4.94 -3.607,-4.783L-0.993,-4.051C0.4,-3.668 1.489,-3.097 2.273,-2.339C3.058,-1.581 3.449,-0.645 3.449,0.47C3.449,1.185 3.267,1.859 2.9,2.495C2.534,3.131 2.047,3.632 1.437,3.998C0.862,4.347 0.282,4.59 -0.301,4.73C-0.885,4.869 -1.542,4.939 -2.274,4.939C-3.39,4.939 -4.369,4.795 -5.214,4.508C-6.06,4.22 -6.778,3.728 -7.37,3.031C-7.806,2.526 -8.133,2.034 -8.351,1.555C-8.568,1.076 -8.738,0.557 -8.86,-0L-5.672,-0.81C-5.585,-0.479 -5.467,-0.157 -5.318,0.156C-5.171,0.47 -5.01,0.723 -4.835,0.914C-4.208,1.559 -3.328,1.881 -2.195,1.881C-1.899,1.881 -1.556,1.838 -1.163,1.751C-0.771,1.664 -0.479,1.55 -0.288,1.411C-0.097,1.272 0.043,1.136 0.13,1.006C0.217,0.875 0.261,0.714 0.261,0.523C0.261,0.174 0.121,-0.079 -0.157,-0.236C-0.437,-0.393 -0.75,-0.518 -1.098,-0.615C-1.447,-0.71 -1.673,-0.775 -1.777,-0.81L-3.397,-1.255C-4.426,-1.551 -5.079,-1.751 -5.358,-1.856C-6.421,-2.309 -7.179,-2.823 -7.632,-3.398C-7.858,-3.694 -8.032,-4.055 -8.154,-4.482C-8.276,-4.909 -8.337,-5.297 -8.337,-5.645C-8.337,-6.499 -8.102,-7.261 -7.632,-7.932C-7.161,-8.602 -6.543,-9.103 -5.776,-9.435C-5.288,-9.644 -4.801,-9.783 -4.312,-9.853C-3.825,-9.922 -3.285,-9.957 -2.692,-9.957C-1.612,-9.957 -0.61,-9.722 0.313,-9.252C0.992,-8.921 1.594,-8.455 2.116,-7.853C2.639,-7.252 3.04,-6.586 3.318,-5.854L0,-5.018Z" style="fill:white;fill-rule:nonzero;"/>
            </g>
            <g transform="matrix(-1,0,0,1,434.395,39.559)">
                <rect x="215.42" y="59.574" width="3.555" height="3.554" style="fill:white;"/>
            </g>
            <g transform="matrix(1,0,0,1,239.3335,96.9372)">
                <path d="M0,-7.317C-0.262,-7.857 -0.515,-8.284 -0.758,-8.598C-1.002,-8.911 -1.333,-9.19 -1.751,-9.434C-2.483,-9.887 -3.276,-10.113 -4.13,-10.113C-4.966,-10.113 -5.671,-9.939 -6.246,-9.591C-6.56,-9.399 -6.8,-9.164 -6.965,-8.885C-7.131,-8.606 -7.213,-8.319 -7.213,-8.023C-7.213,-7.674 -7.092,-7.378 -6.848,-7.134C-6.552,-6.82 -5.837,-6.489 -4.704,-6.141L-1.437,-5.2C-0.602,-4.956 0.082,-4.699 0.614,-4.429C1.146,-4.159 1.62,-3.824 2.038,-3.423C2.613,-2.883 3.049,-2.273 3.345,-1.594C3.641,-0.914 3.789,-0.191 3.789,0.576C3.789,1.394 3.571,2.204 3.136,3.006C2.7,3.808 2.107,4.452 1.358,4.94C0.68,5.393 -0.074,5.706 -0.902,5.881C-1.729,6.055 -2.692,6.142 -3.79,6.142C-5.114,6.142 -6.295,5.946 -7.331,5.554C-8.367,5.162 -9.252,4.513 -9.983,3.607C-10.768,2.631 -11.334,1.412 -11.683,-0.052L-8.075,-1.019C-7.901,-0.025 -7.588,0.75 -7.135,1.307C-6.769,1.795 -6.269,2.169 -5.632,2.431C-4.996,2.692 -4.339,2.823 -3.659,2.823C-3.137,2.823 -2.601,2.749 -2.052,2.601C-1.503,2.453 -1.063,2.257 -0.732,2.013C-0.227,1.647 0.026,1.133 0.026,0.471C0.026,-0.069 -0.166,-0.505 -0.549,-0.836C-0.95,-1.184 -1.508,-1.463 -2.222,-1.672L-5.724,-2.692C-7.31,-3.127 -8.512,-3.711 -9.33,-4.442C-9.87,-4.895 -10.275,-5.444 -10.545,-6.089C-10.815,-6.733 -10.95,-7.404 -10.95,-8.101C-10.95,-9.111 -10.663,-10.035 -10.088,-10.871C-9.513,-11.708 -8.781,-12.326 -7.893,-12.727C-7.266,-13.005 -6.634,-13.197 -5.998,-13.302C-5.362,-13.406 -4.67,-13.459 -3.92,-13.459C-2.353,-13.423 -1.037,-13.119 0.026,-12.544C0.827,-12.108 1.532,-11.529 2.143,-10.806C2.752,-10.083 3.24,-9.242 3.606,-8.284L0,-7.317Z" style="fill:white;fill-rule:nonzero;"/>
            </g>
            <g transform="matrix(1,0,0,1,250.3872,91.0832)">
                <path d="M0,0.236L0,6.246C0,6.664 0.021,7.013 0.065,7.292C0.108,7.571 0.184,7.788 0.288,7.945C0.584,8.415 1.08,8.686 1.777,8.755C1.899,8.773 2.091,8.782 2.353,8.782C2.892,8.782 3.467,8.738 4.077,8.651L4.077,11.604C3.484,11.761 2.727,11.839 1.804,11.839C1.089,11.839 0.471,11.795 -0.052,11.708C-0.731,11.587 -1.289,11.395 -1.725,11.134C-2.16,10.872 -2.561,10.472 -2.927,9.931C-3.171,9.565 -3.336,9.152 -3.424,8.69C-3.511,8.228 -3.554,7.666 -3.554,7.004L-3.554,0.236L-5.958,0.236L-5.958,-2.508L-3.554,-2.508L-3.554,-6.429L0,-6.429L0,-2.508L4.077,-2.508L4.077,0.236L0,0.236Z" style="fill:white;fill-rule:nonzero;"/>
            </g>
            <g transform="matrix(1,0,0,1,267.061,102.2946)">
                <path d="M0,-13.694L0,-10.401C-0.662,-10.662 -1.395,-10.793 -2.195,-10.793C-3.415,-10.793 -4.338,-10.462 -4.966,-9.8C-5.575,-9.137 -5.88,-8.249 -5.88,-7.134L-5.88,0.392L-9.461,0.392L-9.461,-13.72L-6.324,-13.72L-6.324,-11.786C-5.924,-12.465 -5.419,-12.988 -4.809,-13.354C-4.008,-13.841 -3.075,-14.086 -2.013,-14.086C-1.351,-14.086 -0.68,-13.955 0,-13.694" style="fill:white;fill-rule:nonzero;"/>
            </g>
            <g transform="matrix(1,0,0,1,277.1226,93.8143)">
                <path d="M0,3.633C0.053,3.258 0.078,2.793 0.078,2.235C-0.74,2.391 -1.925,2.636 -3.476,2.966C-4.086,3.106 -4.578,3.311 -4.952,3.581C-5.327,3.851 -5.515,4.204 -5.515,4.639C-5.515,5.127 -5.322,5.528 -4.939,5.841C-4.557,6.155 -4.077,6.312 -3.502,6.312C-2.84,6.312 -2.239,6.164 -1.698,5.867C-1.159,5.571 -0.723,5.179 -0.392,4.691C-0.183,4.361 -0.052,4.008 0,3.633M0.497,8.873L0.497,7.148C-0.2,7.949 -0.91,8.503 -1.633,8.807C-2.356,9.112 -3.267,9.265 -4.364,9.265C-5.793,9.265 -6.926,8.869 -7.762,8.076C-8.598,7.283 -9.017,6.225 -9.017,4.901C-9.017,2.949 -8.188,1.599 -6.533,0.85C-5.854,0.536 -5.03,0.283 -4.063,0.091C-3.097,-0.1 -1.978,-0.274 -0.705,-0.431L0.078,-0.535C-0.044,-1.075 -0.331,-1.502 -0.784,-1.816C-1.237,-2.13 -1.855,-2.286 -2.64,-2.286C-3.319,-2.286 -3.959,-2.169 -4.561,-1.934C-5.161,-1.699 -5.697,-1.372 -6.168,-0.953L-8.206,-3.306C-7.422,-4.054 -6.556,-4.63 -5.605,-5.031C-4.656,-5.431 -3.58,-5.632 -2.378,-5.632C-1.629,-5.632 -0.889,-5.488 -0.156,-5.2C0.575,-4.913 1.211,-4.543 1.751,-4.09C2.988,-3.044 3.606,-1.529 3.606,0.458L3.606,8.873L0.497,8.873Z" style="fill:white;fill-rule:nonzero;"/>
            </g>
            <g transform="matrix(1,0,0,1,288.5171,91.0832)">
                <path d="M0,0.236L0,6.246C0,6.664 0.021,7.013 0.065,7.292C0.108,7.571 0.184,7.788 0.288,7.945C0.584,8.415 1.08,8.686 1.777,8.755C1.899,8.773 2.091,8.782 2.353,8.782C2.892,8.782 3.467,8.738 4.077,8.651L4.077,11.604C3.484,11.761 2.727,11.839 1.804,11.839C1.089,11.839 0.471,11.795 -0.052,11.708C-0.731,11.587 -1.289,11.395 -1.725,11.134C-2.16,10.872 -2.561,10.472 -2.927,9.931C-3.171,9.565 -3.336,9.152 -3.424,8.69C-3.511,8.228 -3.554,7.666 -3.554,7.004L-3.554,0.236L-5.958,0.236L-5.958,-2.508L-3.554,-2.508L-3.554,-6.429L0,-6.429L0,-2.508L4.077,-2.508L4.077,0.236L0,0.236Z" style="fill:white;fill-rule:nonzero;"/>
            </g>
            <g transform="matrix(1,0,0,1,298.7358,98.8455)">
                <path d="M0,-6.429C-0.313,-6.028 -0.541,-5.541 -0.68,-4.966L5.618,-4.966C5.566,-5.593 5.374,-6.116 5.044,-6.533C4.782,-6.882 4.43,-7.143 3.985,-7.318C3.541,-7.491 3.066,-7.579 2.561,-7.579C1.463,-7.579 0.609,-7.196 0,-6.429M-0.026,-0.288C0.252,0.096 0.622,0.392 1.084,0.601C1.546,0.81 2.038,0.914 2.561,0.914C3.38,0.914 4.051,0.705 4.573,0.287C4.974,-0.043 5.278,-0.427 5.488,-0.863L9.042,0.156C8.798,0.732 8.463,1.28 8.036,1.803C7.608,2.326 7.125,2.761 6.586,3.11C6.027,3.459 5.413,3.733 4.743,3.933C4.072,4.133 3.414,4.234 2.77,4.234C1.672,4.234 0.618,4.029 -0.393,3.619C-1.403,3.21 -2.222,2.631 -2.849,1.882C-3.999,0.47 -4.574,-1.167 -4.574,-3.032C-4.574,-4.059 -4.426,-5.027 -4.13,-5.932C-3.833,-6.838 -3.406,-7.631 -2.849,-8.311C-2.204,-9.077 -1.407,-9.661 -0.458,-10.062C0.492,-10.462 1.498,-10.663 2.561,-10.663C3.623,-10.663 4.568,-10.484 5.396,-10.127C6.224,-9.77 6.96,-9.208 7.604,-8.442C8.685,-7.17 9.225,-5.479 9.225,-3.371C9.225,-3.127 9.207,-2.744 9.173,-2.221L-0.758,-2.221C-0.637,-1.42 -0.393,-0.775 -0.026,-0.288" style="fill:white;fill-rule:nonzero;"/>
            </g>
            <g transform="matrix(1,0,0,1,319.6431,98.5839)">
                <path d="M0,0.34C0.331,-0.026 0.579,-0.5 0.745,-1.084C0.91,-1.668 0.993,-2.291 0.993,-2.953C0.993,-3.615 0.91,-4.234 0.745,-4.808C0.579,-5.384 0.331,-5.863 0,-6.246C-0.558,-6.908 -1.351,-7.239 -2.378,-7.239C-3.615,-7.239 -4.513,-6.821 -5.07,-5.985C-5.576,-5.235 -5.828,-4.224 -5.828,-2.953C-5.828,-1.629 -5.593,-0.618 -5.122,0.079C-4.844,0.514 -4.474,0.832 -4.012,1.032C-3.551,1.233 -3.049,1.333 -2.509,1.333C-1.446,1.333 -0.61,1.002 0,0.34M4.103,-10.009L4.103,5.07C4.103,7.265 3.231,8.851 1.489,9.826C0.845,10.193 0.204,10.436 -0.432,10.558C-1.067,10.68 -1.76,10.741 -2.509,10.741C-2.962,10.741 -3.463,10.684 -4.012,10.571C-4.561,10.458 -5.044,10.305 -5.462,10.114C-6.002,9.853 -6.508,9.513 -6.978,9.095C-7.448,8.676 -7.832,8.215 -8.128,7.71L-4.835,6.115C-4.678,6.412 -4.426,6.691 -4.077,6.952C-3.868,7.091 -3.611,7.2 -3.306,7.278C-3.002,7.357 -2.728,7.396 -2.482,7.396C-2.082,7.396 -1.686,7.34 -1.294,7.226C-0.901,7.112 -0.575,6.961 -0.313,6.769C0,6.525 0.226,6.263 0.366,5.985C0.505,5.706 0.565,5.384 0.549,5.018L0.549,3.554C-0.462,4.182 -1.673,4.495 -3.084,4.495C-4.024,4.495 -4.927,4.299 -5.789,3.907C-6.651,3.515 -7.37,2.962 -7.945,2.248C-9.043,0.906 -9.592,-0.827 -9.592,-2.953C-9.592,-3.946 -9.452,-4.891 -9.173,-5.788C-8.895,-6.686 -8.485,-7.474 -7.945,-8.154C-7.353,-8.886 -6.616,-9.443 -5.736,-9.827C-4.857,-10.209 -3.912,-10.401 -2.901,-10.401C-2.187,-10.401 -1.494,-10.288 -0.823,-10.061C-0.153,-9.835 0.453,-9.521 0.993,-9.12L0.993,-10.009L4.103,-10.009Z" style="fill:white;fill-rule:nonzero;"/>
            </g>
            <g transform="matrix(1,0,0,1,0,23.905)">
                <path d="M331.219,78.782L327.665,78.782L327.665,64.67L331.219,64.67L331.219,78.782ZM331.219,62.71L327.665,62.71L327.665,59.574L331.219,59.574L331.219,62.71Z" style="fill:white;fill-rule:nonzero;"/>
            </g>
            <g transform="matrix(1,0,0,1,0,23.905)">
                <path d="M338.955,78.782L335.401,78.782L335.401,64.67L338.955,64.67L338.955,78.782ZM338.955,62.71L335.401,62.71L335.401,59.574L338.955,59.574L338.955,62.71Z" style="fill:white;fill-rule:nonzero;"/>
            </g>
            <g transform="matrix(1,0,0,1,366.9175,83.8711)">
                <path d="M0,18.816L-3.318,18.816L-3.318,7.578L-8.78,18.816L-10.035,18.816L-15.497,7.605L-15.497,18.816L-18.816,18.816L-18.816,0L-15.628,0L-9.408,12.492L-3.188,0L0,0L0,18.816Z" style="fill:white;fill-rule:nonzero;"/>
            </g>
            <g transform="matrix(1,0,0,1,378.7573,93.8541)">
                <path d="M0,-1.542L-2.928,0.13L-2.928,8.833L-6.481,8.833L-6.481,2.169L-9.408,3.841L-9.408,-0L-6.481,-1.673L-6.481,-10.375L-2.928,-10.375L-2.928,-3.711L0,-5.384L0,-1.542Z" style="fill:white;fill-rule:nonzero;"/>
            </g>
            <g transform="matrix(1,0,0,1,389.603,98.5838)">
                <path d="M0,-5.906C-0.279,-6.289 -0.646,-6.581 -1.098,-6.781C-1.551,-6.982 -2.048,-7.082 -2.588,-7.082C-3.128,-7.082 -3.624,-6.982 -4.077,-6.781C-4.53,-6.581 -4.896,-6.289 -5.175,-5.906C-5.697,-5.227 -5.959,-4.242 -5.959,-2.953C-5.959,-1.681 -5.697,-0.705 -5.175,-0.026C-4.896,0.358 -4.526,0.654 -4.064,0.863C-3.603,1.072 -3.11,1.176 -2.588,1.176C-2.064,1.176 -1.573,1.072 -1.111,0.863C-0.649,0.654 -0.279,0.358 0,-0.026C0.539,-0.722 0.81,-1.698 0.81,-2.953C0.81,-4.224 0.539,-5.209 0,-5.906M-5.606,3.894C-6.556,3.493 -7.353,2.91 -7.997,2.143C-9.147,0.75 -9.723,-0.949 -9.723,-2.953C-9.723,-4.956 -9.147,-6.655 -7.997,-8.049C-7.353,-8.798 -6.552,-9.377 -5.593,-9.787C-4.635,-10.196 -3.633,-10.401 -2.588,-10.401C-1.525,-10.401 -0.519,-10.2 0.431,-9.8C1.38,-9.399 2.178,-8.816 2.822,-8.049C3.989,-6.655 4.573,-4.956 4.573,-2.953C4.573,-1.942 4.434,-1.028 4.155,-0.209C3.876,0.61 3.432,1.394 2.822,2.143C2.16,2.91 1.362,3.493 0.431,3.894C-0.501,4.295 -1.508,4.495 -2.588,4.495C-3.65,4.495 -4.656,4.295 -5.606,3.894" style="fill:white;fill-rule:nonzero;"/>
            </g>
            <g transform="matrix(1,0,0,1,406.603,89.4506)">
                <path d="M0,8.049C0.165,7.466 0.248,6.842 0.248,6.18C0.248,5.518 0.165,4.9 0,4.325C-0.166,3.75 -0.414,3.271 -0.745,2.887C-1.303,2.225 -2.096,1.894 -3.123,1.894C-4.36,1.894 -5.258,2.313 -5.815,3.149C-6.321,3.898 -6.573,4.909 -6.573,6.18C-6.573,7.505 -6.338,8.515 -5.867,9.212C-5.589,9.648 -5.219,9.966 -4.757,10.166C-4.296,10.366 -3.794,10.466 -3.254,10.466C-2.191,10.466 -1.355,10.135 -0.745,9.473C-0.414,9.107 -0.166,8.633 0,8.049M3.384,-5.58L3.384,13.236L0.248,13.236L0.248,12.374C-0.85,13.21 -2.209,13.629 -3.829,13.629C-4.77,13.629 -5.672,13.432 -6.534,13.041C-7.396,12.649 -8.115,12.095 -8.69,11.381C-9.788,10.04 -10.337,8.306 -10.337,6.18C-10.337,5.187 -10.197,4.242 -9.918,3.345C-9.64,2.447 -9.23,1.659 -8.69,0.98C-8.098,0.248 -7.361,-0.309 -6.481,-0.693C-5.603,-1.076 -4.657,-1.268 -3.646,-1.268C-2.409,-1.268 -1.26,-0.945 -0.196,-0.301L-0.196,-5.58L3.384,-5.58Z" style="fill:white;fill-rule:nonzero;"/>
            </g>
            <g transform="matrix(1,0,0,1,425.0132,88.5751)">
                <path d="M0,14.112L-11.368,14.112L-11.368,11.107L-4.651,3.083L-11.368,3.083L-11.368,0L0,0L0,3.083L-6.689,11.028L0,11.028L0,14.112Z" style="fill:white;fill-rule:nonzero;"/>
            </g>
            <g transform="matrix(1,0,0,1,0,23.905)">
                <path d="M432.488,78.782L428.934,78.782L428.934,64.67L432.488,64.67L432.488,78.782ZM432.488,62.71L428.934,62.71L428.934,59.574L432.488,59.574L432.488,62.71Z" style="fill:white;fill-rule:nonzero;"/>
            </g>
            <g transform="matrix(1,0,0,1,440.1978,98.8455)">
                <path d="M0,-6.429C-0.313,-6.028 -0.541,-5.541 -0.68,-4.966L5.618,-4.966C5.566,-5.593 5.374,-6.116 5.044,-6.533C4.782,-6.882 4.43,-7.143 3.985,-7.318C3.541,-7.491 3.066,-7.579 2.561,-7.579C1.463,-7.579 0.609,-7.196 0,-6.429M-0.026,-0.288C0.252,0.096 0.622,0.392 1.084,0.601C1.546,0.81 2.038,0.914 2.561,0.914C3.38,0.914 4.051,0.705 4.573,0.287C4.974,-0.043 5.278,-0.427 5.488,-0.863L9.042,0.156C8.798,0.732 8.463,1.28 8.036,1.803C7.608,2.326 7.125,2.761 6.586,3.11C6.027,3.459 5.413,3.733 4.743,3.933C4.072,4.133 3.414,4.234 2.77,4.234C1.672,4.234 0.618,4.029 -0.393,3.619C-1.403,3.21 -2.222,2.631 -2.849,1.882C-3.999,0.47 -4.574,-1.167 -4.574,-3.032C-4.574,-4.059 -4.426,-5.027 -4.13,-5.932C-3.833,-6.838 -3.406,-7.631 -2.849,-8.311C-2.204,-9.077 -1.407,-9.661 -0.458,-10.062C0.492,-10.462 1.498,-10.663 2.561,-10.663C3.623,-10.663 4.568,-10.484 5.396,-10.127C6.224,-9.77 6.96,-9.208 7.604,-8.442C8.685,-7.17 9.225,-5.479 9.225,-3.371C9.225,-3.127 9.207,-2.744 9.173,-2.221L-0.758,-2.221C-0.637,-1.42 -0.393,-0.775 -0.026,-0.288" style="fill:white;fill-rule:nonzero;"/>
            </g>
            <g transform="matrix(1,0,0,1,0,22.728)">
                <path d="M460.268,63.128L456.714,63.128L456.714,59.574L460.268,59.574L460.268,63.128ZM463.666,79.959L452.297,79.959L452.297,76.954L459.014,68.93L452.297,68.93L452.297,65.847L463.666,65.847L463.666,68.93L456.976,76.875L463.666,76.875L463.666,79.959Z" style="fill:white;fill-rule:nonzero;"/>
            </g>
            <g transform="matrix(1,0,0,1,475.478,98.5838)">
                <path d="M0,-5.906C-0.279,-6.289 -0.646,-6.581 -1.098,-6.781C-1.551,-6.982 -2.048,-7.082 -2.588,-7.082C-3.128,-7.082 -3.624,-6.982 -4.077,-6.781C-4.53,-6.581 -4.896,-6.289 -5.175,-5.906C-5.697,-5.227 -5.959,-4.242 -5.959,-2.953C-5.959,-1.681 -5.697,-0.705 -5.175,-0.026C-4.896,0.358 -4.526,0.654 -4.064,0.863C-3.603,1.072 -3.11,1.176 -2.588,1.176C-2.064,1.176 -1.573,1.072 -1.111,0.863C-0.649,0.654 -0.279,0.358 0,-0.026C0.539,-0.722 0.81,-1.698 0.81,-2.953C0.81,-4.224 0.539,-5.209 0,-5.906M-5.606,3.894C-6.556,3.493 -7.353,2.91 -7.997,2.143C-9.147,0.75 -9.723,-0.949 -9.723,-2.953C-9.723,-4.956 -9.147,-6.655 -7.997,-8.049C-7.353,-8.798 -6.552,-9.377 -5.593,-9.787C-4.635,-10.196 -3.633,-10.401 -2.588,-10.401C-1.525,-10.401 -0.519,-10.2 0.431,-9.8C1.38,-9.399 2.178,-8.816 2.822,-8.049C3.989,-6.655 4.573,-4.956 4.573,-2.953C4.573,-1.942 4.434,-1.028 4.155,-0.209C3.876,0.61 3.432,1.394 2.822,2.143C2.16,2.91 1.362,3.493 0.431,3.894C-0.501,4.295 -1.508,4.495 -2.588,4.495C-3.65,4.495 -4.656,4.295 -5.606,3.894" style="fill:white;fill-rule:nonzero;"/>
            </g>
            <g transform="matrix(1,0,0,1,501.5854,102.6608)">
                <path d="M0,-14.086L-4.312,0.026L-7.265,0.026L-10.113,-9.173L-13.197,0.026L-15.915,0.026L-20.228,-14.112L-16.726,-14.086L-14.164,-5.671L-11.577,-14.086L-8.624,-14.086L-6.036,-5.671L-3.476,-14.086L0,-14.086Z" style="fill:white;fill-rule:nonzero;"/>
            </g>
            <g transform="matrix(1,0,0,1,507.2056,98.8455)">
                <path d="M0,-6.429C-0.313,-6.028 -0.541,-5.541 -0.68,-4.966L5.618,-4.966C5.566,-5.593 5.374,-6.116 5.044,-6.533C4.782,-6.882 4.43,-7.143 3.985,-7.318C3.541,-7.491 3.066,-7.579 2.561,-7.579C1.463,-7.579 0.609,-7.196 0,-6.429M-0.026,-0.288C0.252,0.096 0.622,0.392 1.084,0.601C1.546,0.81 2.038,0.914 2.561,0.914C3.38,0.914 4.051,0.705 4.573,0.287C4.974,-0.043 5.278,-0.427 5.488,-0.863L9.042,0.156C8.798,0.732 8.463,1.28 8.036,1.803C7.608,2.326 7.125,2.761 6.586,3.11C6.027,3.459 5.413,3.733 4.743,3.933C4.072,4.133 3.414,4.234 2.77,4.234C1.672,4.234 0.618,4.029 -0.393,3.619C-1.403,3.21 -2.222,2.631 -2.849,1.882C-3.999,0.47 -4.574,-1.167 -4.574,-3.032C-4.574,-4.059 -4.426,-5.027 -4.13,-5.932C-3.833,-6.838 -3.406,-7.631 -2.849,-8.311C-2.204,-9.077 -1.407,-9.661 -0.458,-10.062C0.492,-10.462 1.498,-10.663 2.561,-10.663C3.623,-10.663 4.568,-10.484 5.396,-10.127C6.224,-9.77 6.96,-9.208 7.604,-8.442C8.685,-7.17 9.225,-5.479 9.225,-3.371C9.225,-3.127 9.207,-2.744 9.173,-2.221L-0.758,-2.221C-0.637,-1.42 -0.393,-0.775 -0.026,-0.288" style="fill:white;fill-rule:nonzero;"/>
            </g>
            <g transform="matrix(1,0,0,1,0,30.986)">
                <path d="M519.958,56.02L523.513,56.02L523.513,52.884L519.958,52.884L519.958,56.02ZM517.476,75.046L517.763,75.072C518.025,75.072 518.294,75.033 518.574,74.955C518.852,74.876 519.087,74.75 519.28,74.576C519.558,74.314 519.741,74.027 519.829,73.713C519.916,73.4 519.958,72.99 519.958,72.485L519.958,57.589L523.513,57.589L523.513,72.903C523.513,73.704 523.421,74.397 523.239,74.981C523.056,75.564 522.764,76.118 522.363,76.641C521.91,77.215 521.327,77.651 520.612,77.947C519.898,78.243 519.079,78.391 518.156,78.391C517.859,78.391 517.633,78.382 517.476,78.365L517.476,75.046Z" style="fill:white;fill-rule:nonzero;"/>
            </g>
        </g>
    </g>
</svg>
