<svg width="317" height="54" viewBox="0 0 317 54" fill="none" xmlns="http://www.w3.org/2000/svg">
<path d="M316.347 44.7056C316.347 45.219 316.286 45.6605 316.163 46.0288C316.051 46.4081 315.868 46.7654 315.611 47.1001C315.321 47.4684 314.947 47.7473 314.489 47.937C314.031 48.1268 313.506 48.2212 312.915 48.2212C312.725 48.2212 312.581 48.2157 312.48 48.2046V46.0786L312.664 46.0952C312.831 46.0952 313.005 46.067 313.183 46.0112C313.362 45.9666 313.513 45.8884 313.635 45.7769C313.814 45.6096 313.931 45.4258 313.987 45.2251C314.043 45.0242 314.07 44.7616 314.07 44.438V34.895H316.347V44.7056ZM183.88 34.6431C184.337 34.6431 184.779 34.7157 185.203 34.8608C185.638 35.0059 186.029 35.2067 186.375 35.4634V34.894H188.367V44.5552C188.367 45.9612 187.809 46.9771 186.693 47.6021C186.28 47.8364 185.867 47.9927 185.454 48.0708C185.052 48.1489 184.611 48.188 184.132 48.188C183.841 48.188 183.517 48.1489 183.16 48.0708C182.814 48.0038 182.507 47.9084 182.239 47.7856C181.893 47.6183 181.569 47.401 181.268 47.1333C180.967 46.8654 180.722 46.5693 180.532 46.2456L182.641 45.2241C182.742 45.4139 182.903 45.5928 183.127 45.7603C183.261 45.8495 183.422 45.9168 183.612 45.9614C183.813 46.0172 183.992 46.0444 184.148 46.0444C184.405 46.0444 184.656 46.0053 184.901 45.9272C185.158 45.8603 185.37 45.7658 185.538 45.6431C185.738 45.487 185.883 45.3195 185.972 45.1411C186.062 44.9625 186.101 44.7554 186.09 44.521V43.5835C185.442 43.9852 184.666 44.186 183.762 44.186C183.16 44.186 182.579 44.0634 182.021 43.8179C181.475 43.5612 181.017 43.204 180.649 42.7466C179.946 41.8871 179.594 40.7762 179.594 39.4146C179.594 38.7785 179.683 38.176 179.862 37.6069C180.041 37.0266 180.303 36.5188 180.649 36.0835C181.029 35.6147 181.497 35.2568 182.055 35.0112C182.624 34.7658 183.233 34.6431 183.88 34.6431ZM107.033 43.936H105.023V43.3833C104.32 43.9189 103.45 44.187 102.412 44.187C101.809 44.187 101.229 44.0643 100.671 43.8188C100.124 43.5621 99.6659 43.2042 99.2975 42.7466C98.5945 41.8872 98.2429 40.777 98.2428 39.4155C98.2428 38.7793 98.3318 38.1762 98.5104 37.6069C98.689 37.0266 98.9515 36.5188 99.2975 36.0835C99.677 35.6148 100.146 35.2578 100.704 35.0122C101.273 34.7667 101.882 34.644 102.529 34.644C103.321 34.6441 104.058 34.8502 104.739 35.2632V31.8813H107.033V43.936ZM131.766 31.6304C132.771 31.6527 133.613 31.8481 134.294 32.2163C134.807 32.4953 135.259 32.8687 135.65 33.3374C136.041 33.795 136.353 34.331 136.588 34.9448L134.277 35.5649C134.11 35.2189 133.948 34.9446 133.792 34.7437C133.635 34.5429 133.423 34.3647 133.155 34.2085C132.686 33.9184 132.178 33.7729 131.632 33.7729C131.096 33.773 130.644 33.8848 130.276 34.1079C130.075 34.2307 129.919 34.3815 129.807 34.5601C129.707 34.7386 129.656 34.923 129.656 35.1128C129.656 35.3359 129.734 35.5259 129.89 35.6821C130.08 35.883 130.538 36.0947 131.263 36.3179L133.356 36.9204C133.892 37.0766 134.327 37.2448 134.662 37.4233C135.008 37.5907 135.315 37.8025 135.583 38.0591C135.951 38.4051 136.231 38.7957 136.421 39.231C136.61 39.6662 136.705 40.1295 136.705 40.6206C136.705 41.1451 136.565 41.6639 136.286 42.1772C136.007 42.6906 135.628 43.104 135.148 43.4165C134.713 43.7067 134.227 43.9074 133.691 44.019C133.167 44.1306 132.552 44.187 131.849 44.187C131.001 44.187 130.242 44.0643 129.573 43.8188C128.914 43.5621 128.35 43.1433 127.882 42.563C127.379 41.938 127.017 41.1566 126.794 40.2192L129.104 39.5991C129.216 40.2353 129.417 40.7322 129.707 41.0894C129.941 41.4018 130.259 41.6417 130.661 41.8091C131.074 41.9765 131.498 42.0601 131.933 42.0601C132.268 42.0601 132.609 42.0156 132.955 41.9263C133.312 41.8258 133.596 41.6977 133.808 41.5415C134.132 41.3071 134.294 40.9774 134.294 40.5532C134.294 40.2074 134.171 39.9283 133.925 39.7163C133.669 39.4932 133.312 39.3151 132.854 39.1812L130.611 38.5278C129.595 38.2488 128.825 37.8745 128.3 37.4058C127.954 37.1156 127.692 36.764 127.513 36.3511C127.346 35.9382 127.262 35.5084 127.262 35.062C127.262 34.4147 127.447 33.8233 127.815 33.2876C128.183 32.7519 128.652 32.3558 129.221 32.0991C129.623 31.9206 130.025 31.7979 130.426 31.731C130.839 31.664 131.286 31.6304 131.766 31.6304ZM243.617 43.936H241.608V43.3833C240.905 43.9189 240.035 44.1869 238.997 44.187C238.394 44.187 237.813 44.0643 237.256 43.8188C236.709 43.5621 236.251 43.2042 235.882 42.7466C235.179 41.8872 234.828 40.777 234.828 39.4155C234.828 38.7793 234.917 38.1762 235.095 37.6069C235.274 37.0266 235.537 36.5188 235.882 36.0835C236.262 35.6148 236.731 35.2577 237.289 35.0122C237.858 34.7667 238.467 34.644 239.114 34.644C239.906 34.6441 240.643 34.8503 241.324 35.2632V31.8813H243.617V43.936ZM112.82 34.6431C113.512 34.6431 114.154 34.7939 114.746 35.0952C115.181 35.3073 115.566 35.6089 115.901 35.9995C116.236 36.3789 116.492 36.8033 116.671 37.272L114.545 37.8081C114.221 37.0045 113.568 36.6021 112.586 36.6021C112.24 36.6021 111.927 36.6693 111.648 36.8032C111.38 36.9371 111.246 37.1099 111.246 37.3218C111.246 37.4892 111.318 37.6128 111.464 37.6909C111.62 37.769 111.877 37.858 112.234 37.9585L113.908 38.4272C114.801 38.6727 115.498 39.0408 116.001 39.5317C116.503 40.0117 116.755 40.6094 116.755 41.3237C116.755 41.7812 116.637 42.2165 116.403 42.6294C116.169 43.0311 115.856 43.3491 115.465 43.5835C115.097 43.8067 114.723 43.963 114.343 44.0522C113.975 44.1415 113.556 44.186 113.088 44.186C112.373 44.186 111.743 44.097 111.196 43.9185C110.66 43.7287 110.202 43.4108 109.823 42.9644C109.544 42.6408 109.332 42.3281 109.187 42.0269C109.053 41.7143 108.947 41.3791 108.869 41.022L110.912 40.5034C110.968 40.7153 111.039 40.9218 111.129 41.1226C111.229 41.3233 111.335 41.4852 111.447 41.6079C111.849 42.0209 112.413 42.228 113.138 42.228C113.328 42.228 113.545 42.1998 113.791 42.144C114.047 42.0883 114.237 42.0155 114.36 41.9263C114.483 41.837 114.573 41.7534 114.629 41.6753C114.684 41.586 114.712 41.4797 114.712 41.3569C114.712 41.1338 114.623 40.972 114.444 40.8716C114.265 40.7712 114.065 40.693 113.841 40.6372C113.618 40.5702 113.473 40.5257 113.406 40.5034L112.368 40.2183C111.709 40.0285 111.291 39.9005 111.112 39.8335C110.431 39.5433 109.946 39.2135 109.656 38.8452C109.511 38.6556 109.399 38.4273 109.321 38.1597C109.243 37.8806 109.204 37.629 109.204 37.4058C109.204 36.859 109.355 36.3738 109.656 35.9497C109.957 35.5144 110.353 35.1901 110.844 34.978C111.157 34.8441 111.469 34.7551 111.782 34.7104C112.094 34.6658 112.441 34.6431 112.82 34.6431ZM156.96 34.6431C157.44 34.6431 157.914 34.7385 158.382 34.9282C158.851 35.1068 159.259 35.3412 159.605 35.6313C160.397 36.301 160.794 37.2721 160.794 38.5444V43.9351H158.801V42.8306C158.355 43.3439 157.897 43.701 157.428 43.9019C156.971 44.0916 156.39 44.186 155.687 44.186C154.772 44.186 154.046 43.9353 153.51 43.4331C152.975 42.9197 152.707 42.2383 152.707 41.3901C152.707 40.1403 153.237 39.2753 154.298 38.7954C154.733 38.5945 155.258 38.4328 155.872 38.3101C156.497 38.1873 157.216 38.0755 158.031 37.9751L158.534 37.9077C158.456 37.5618 158.271 37.2883 157.981 37.0874C157.691 36.8866 157.295 36.7867 156.793 36.7866C156.357 36.7866 155.944 36.8647 155.553 37.021C155.174 37.1661 154.833 37.3723 154.532 37.6401L153.226 36.1333C153.728 35.6535 154.281 35.2855 154.883 35.0288C155.497 34.7721 156.19 34.6431 156.96 34.6431ZM173.978 34.6431C174.659 34.6431 175.261 34.7604 175.786 34.9946C176.322 35.2179 176.797 35.5758 177.21 36.0669C177.901 36.8815 178.248 37.9639 178.248 39.314C178.248 39.4702 178.236 39.7164 178.214 40.0513H171.852C171.93 40.5645 172.087 40.9771 172.321 41.2896C172.5 41.5351 172.734 41.7249 173.024 41.8589C173.325 41.9928 173.643 42.0601 173.978 42.0601C174.503 42.06 174.932 41.9265 175.267 41.6587C175.524 41.4466 175.719 41.2004 175.853 40.9214L178.131 41.5747C177.974 41.943 177.756 42.2946 177.477 42.6294C177.209 42.9642 176.902 43.2431 176.556 43.4663C176.199 43.6895 175.803 43.8631 175.368 43.9858C174.944 44.1198 174.525 44.186 174.112 44.186C173.409 44.186 172.734 44.0579 172.087 43.8013C171.439 43.5334 170.914 43.1591 170.512 42.6792C169.776 41.7752 169.408 40.7259 169.408 39.5317C169.408 38.8733 169.502 38.2536 169.692 37.6733C169.882 37.0931 170.155 36.5851 170.512 36.1499C170.925 35.6589 171.433 35.2855 172.036 35.0288C172.65 34.7721 173.297 34.6431 173.978 34.6431ZM228.898 34.6431C229.579 34.6431 230.22 34.7722 230.823 35.0288C231.437 35.2855 231.95 35.659 232.363 36.1499C233.111 37.0427 233.485 38.1311 233.485 39.4146C233.485 40.0617 233.396 40.6479 233.217 41.1724C233.039 41.6969 232.754 42.1993 232.363 42.6792C231.939 43.1703 231.426 43.5446 230.823 43.8013C230.232 44.0579 229.59 44.186 228.898 44.186C228.217 44.186 227.57 44.0579 226.956 43.8013C226.353 43.5446 225.845 43.1703 225.432 42.6792C224.696 41.7863 224.327 40.6981 224.327 39.4146C224.327 38.1311 224.696 37.0427 225.432 36.1499C225.845 35.6701 226.359 35.3021 226.972 35.0454C227.586 34.7775 228.228 34.6431 228.898 34.6431ZM264.605 34.6431C265.286 34.6431 265.889 34.7603 266.414 34.9946C266.949 35.2179 267.424 35.5758 267.837 36.0669C268.528 36.8816 268.875 37.9637 268.875 39.314C268.875 39.4702 268.864 39.7164 268.841 40.0513H262.479C262.557 40.5644 262.714 40.9771 262.948 41.2896C263.126 41.535 263.361 41.725 263.651 41.8589C263.952 41.9928 264.27 42.06 264.605 42.0601C265.129 42.0601 265.559 41.9263 265.894 41.6587C266.151 41.4466 266.347 41.2004 266.481 40.9214L268.757 41.5747C268.601 41.9429 268.384 42.2947 268.105 42.6294C267.837 42.9641 267.53 43.2431 267.184 43.4663C266.827 43.6895 266.43 43.8631 265.995 43.9858C265.571 44.1196 265.153 44.186 264.74 44.186C264.037 44.186 263.361 44.058 262.714 43.8013C262.066 43.5334 261.542 43.1591 261.14 42.6792C260.404 41.7751 260.035 40.726 260.035 39.5317C260.035 38.8733 260.13 38.2536 260.32 37.6733C260.51 37.0931 260.783 36.5851 261.14 36.1499C261.553 35.659 262.061 35.2855 262.664 35.0288C263.277 34.7722 263.924 34.6431 264.605 34.6431ZM283.912 34.6431C284.592 34.6431 285.234 34.7721 285.837 35.0288C286.45 35.2855 286.964 35.659 287.377 36.1499C288.124 37.0427 288.499 38.1311 288.499 39.4146C288.499 40.0617 288.41 40.6479 288.231 41.1724C288.053 41.6969 287.767 42.1993 287.377 42.6792C286.952 43.1703 286.439 43.5446 285.837 43.8013C285.245 44.0579 284.604 44.186 283.912 44.186C283.231 44.186 282.583 44.058 281.969 43.8013C281.367 43.5446 280.859 43.1703 280.446 42.6792C279.709 41.7863 279.34 40.6981 279.34 39.4146C279.341 38.1311 279.709 37.0427 280.446 36.1499C280.859 35.6701 281.372 35.3021 281.986 35.0454C282.6 34.7775 283.242 34.6431 283.912 34.6431ZM307.534 34.6431C308.214 34.6431 308.817 34.7604 309.341 34.9946C309.877 35.2179 310.351 35.5758 310.764 36.0669C311.456 36.8816 311.802 37.9637 311.802 39.314C311.802 39.4702 311.792 39.7164 311.769 40.0513H305.407C305.485 40.5644 305.641 40.9771 305.876 41.2896C306.054 41.535 306.289 41.725 306.579 41.8589C306.88 41.9928 307.199 42.0601 307.534 42.0601C308.058 42.06 308.488 41.9265 308.823 41.6587C309.08 41.4466 309.275 41.2004 309.409 40.9214L311.685 41.5747C311.529 41.9429 311.312 42.2946 311.033 42.6294C310.765 42.9642 310.458 43.2431 310.112 43.4663C309.755 43.6895 309.359 43.8631 308.924 43.9858C308.499 44.1198 308.081 44.186 307.668 44.186C306.964 44.186 306.289 44.058 305.641 43.8013C304.994 43.5334 304.47 43.1591 304.068 42.6792C303.331 41.7752 302.963 40.7259 302.963 39.5317C302.963 38.8733 303.058 38.2536 303.248 37.6733C303.437 37.0931 303.711 36.5851 304.068 36.1499C304.481 35.6589 304.989 35.2855 305.591 35.0288C306.205 34.7721 306.853 34.6431 307.534 34.6431ZM141.362 34.894H143.974V36.6528H141.362V40.5034C141.362 40.771 141.374 40.9939 141.396 41.1724C141.43 41.3509 141.48 41.4909 141.547 41.5913C141.736 41.8926 142.054 42.0652 142.501 42.1099C142.579 42.121 142.702 42.1274 142.869 42.1274C143.215 42.1274 143.584 42.0993 143.974 42.0435V43.9351C143.595 44.0355 143.109 44.0854 142.517 44.0854C142.06 44.0854 141.664 44.0582 141.329 44.0024C140.894 43.9243 140.536 43.8016 140.257 43.6343C139.978 43.4669 139.721 43.2098 139.487 42.8638C139.331 42.6294 139.224 42.3668 139.169 42.0767C139.113 41.7754 139.086 41.4127 139.086 40.9888V36.6528H137.545V34.894H139.086V32.3833H141.362V34.894ZM165.785 34.894H168.397V36.6528H165.785V40.5034C165.785 40.7709 165.796 40.9939 165.818 41.1724C165.852 41.3509 165.902 41.4909 165.969 41.5913C166.159 41.8926 166.477 42.0652 166.924 42.1099C167.002 42.121 167.124 42.1274 167.292 42.1274C167.638 42.1274 168.006 42.0993 168.397 42.0435V43.9351C168.018 44.0355 167.532 44.0854 166.94 44.0854C166.483 44.0854 166.086 44.0582 165.752 44.0024C165.317 43.9244 164.959 43.8015 164.68 43.6343C164.401 43.4669 164.144 43.2097 163.91 42.8638C163.754 42.6294 163.647 42.3669 163.591 42.0767C163.536 41.7754 163.507 41.4127 163.507 40.9888V36.6528H161.967V34.894H163.507V32.3833H165.785V34.894ZM121.246 43.936H118.968V41.6587H121.246V43.936ZM150.76 34.6606C151.185 34.6606 151.615 34.7442 152.05 34.9116V37.021C151.626 36.8536 151.157 36.77 150.643 36.77C149.862 36.7701 149.271 36.9827 148.869 37.4067C148.478 37.8308 148.283 38.3997 148.283 39.1138V43.936H145.989V34.895H147.999V36.1343C148.255 35.699 148.579 35.3638 148.969 35.1294C149.483 34.8169 150.08 34.6607 150.76 34.6606ZM193.151 43.936H190.874V34.895H193.151V43.936ZM198.111 43.936H195.834V34.895H198.111V43.936ZM209.997 39.8843L213.981 31.8813H216.024V43.936H213.898V36.7368L210.399 43.936H209.595L206.096 36.7534V43.936H203.969V31.8813H206.012L209.997 39.8843ZM221.728 35.8989L223.603 34.8276V37.2886L221.728 38.3608V43.936H219.451V39.6665L217.576 40.7378V38.2769L219.451 37.2056V31.6304H221.728V35.8989ZM258.022 43.936H255.745V34.895H258.022V43.936ZM278.007 36.8706L273.72 41.9604H278.007V43.936H270.723V42.0103L275.026 36.8706H270.723V34.895H278.007V36.8706ZM253.239 36.8706L248.953 41.9595H253.239V43.9351H245.956V42.0103L250.258 36.8706H245.956V34.895H253.239V36.8706ZM291.577 34.895L293.217 40.2856L294.876 34.895H296.767L298.424 40.2856L300.065 34.895H302.292L299.53 43.9351H297.637L295.813 38.0425L293.838 43.9351H292.096L289.334 34.8784L291.577 34.895ZM158.534 39.6831C158.009 39.7836 157.25 39.9398 156.257 40.1519C155.866 40.2411 155.548 40.3747 155.302 40.5532C155.068 40.7206 154.951 40.9441 154.951 41.2231C154.951 41.5356 155.073 41.7928 155.319 41.9937C155.565 42.1944 155.872 42.2944 156.24 42.2944C156.664 42.2944 157.049 42.2 157.395 42.0103C157.741 41.8205 158.02 41.5689 158.232 41.2563C158.366 41.0443 158.45 40.8208 158.483 40.5864C158.517 40.341 158.534 40.0399 158.534 39.6831ZM102.864 36.6694C102.072 36.6694 101.496 36.9374 101.139 37.4731C100.816 37.9531 100.654 38.6007 100.654 39.4155C100.654 40.2636 100.805 40.9105 101.106 41.3569C101.285 41.636 101.519 41.8431 101.809 41.9771C102.11 42.0997 102.434 42.1606 102.78 42.1606C103.461 42.1606 103.997 41.949 104.387 41.5249C104.599 41.2905 104.756 40.9889 104.856 40.6206C104.968 40.2412 105.023 39.8395 105.023 39.4155C105.023 38.9914 104.968 38.5944 104.856 38.2261C104.756 37.8581 104.599 37.5516 104.387 37.3062C104.03 36.8821 103.522 36.6695 102.864 36.6694ZM184.215 36.6694C183.422 36.6695 182.848 36.9375 182.491 37.4731C182.167 37.953 182.005 38.5999 182.005 39.4146C182.005 40.2627 182.155 40.9105 182.457 41.3569C182.635 41.6359 182.87 41.8421 183.16 41.9761C183.461 42.0989 183.786 42.1606 184.132 42.1606C184.812 42.1606 185.347 41.948 185.738 41.5239C185.95 41.2896 186.106 40.9887 186.207 40.6206C186.318 40.2411 186.375 39.8387 186.375 39.4146C186.375 38.9905 186.318 38.5943 186.207 38.2261C186.106 37.8578 185.95 37.5507 185.738 37.3052C185.381 36.8813 184.873 36.6694 184.215 36.6694ZM239.448 36.6694C238.656 36.6695 238.081 36.9376 237.724 37.4731C237.401 37.9531 237.238 38.6007 237.238 39.4155C237.238 40.2634 237.389 40.9105 237.69 41.3569C237.869 41.6359 238.103 41.8431 238.393 41.9771C238.695 42.0998 239.019 42.1606 239.365 42.1606C240.046 42.1606 240.582 41.949 240.972 41.5249C241.184 41.2905 241.341 40.9889 241.441 40.6206C241.553 40.2413 241.608 39.8395 241.608 39.4155C241.608 38.9914 241.553 38.5944 241.441 38.2261C241.341 37.8581 241.184 37.5516 240.972 37.3062C240.615 36.882 240.106 36.6694 239.448 36.6694ZM228.898 36.77C228.552 36.77 228.233 36.8363 227.943 36.9702C227.653 37.093 227.418 37.2774 227.24 37.5229C226.905 37.9582 226.738 38.5888 226.738 39.4146C226.738 40.2291 226.905 40.8543 227.24 41.2896C227.418 41.535 227.653 41.725 227.943 41.8589C228.244 41.9928 228.563 42.0601 228.898 42.0601C229.233 42.06 229.546 41.9928 229.836 41.8589C230.137 41.725 230.377 41.535 230.555 41.2896C230.901 40.8431 231.074 40.2179 231.074 39.4146C231.074 38.6 230.901 37.9693 230.555 37.5229C230.377 37.2774 230.142 37.093 229.852 36.9702C229.562 36.8363 229.244 36.7701 228.898 36.77ZM283.912 36.77C283.566 36.77 283.247 36.8363 282.957 36.9702C282.667 37.093 282.432 37.2774 282.254 37.5229C281.919 37.9582 281.752 38.5888 281.752 39.4146C281.752 40.2291 281.919 40.8543 282.254 41.2896C282.432 41.535 282.667 41.725 282.957 41.8589C283.258 41.9928 283.577 42.0601 283.912 42.0601C284.246 42.06 284.559 41.9928 284.849 41.8589C285.15 41.725 285.391 41.535 285.569 41.2896C285.915 40.8431 286.088 40.218 286.088 39.4146C286.088 38.6 285.915 37.9693 285.569 37.5229C285.39 37.2774 285.156 37.093 284.866 36.9702C284.576 36.8363 284.258 36.7701 283.912 36.77ZM173.978 36.6187C173.275 36.6187 172.728 36.8649 172.338 37.356C172.137 37.6126 171.991 37.9252 171.902 38.2935H175.937C175.904 37.8917 175.781 37.5564 175.569 37.2886C175.402 37.0654 175.173 36.8982 174.882 36.7866C174.603 36.675 174.302 36.6187 173.978 36.6187ZM264.605 36.6187C263.902 36.6187 263.355 36.8649 262.965 37.356C262.764 37.6126 262.619 37.9253 262.53 38.2935H266.564C266.531 37.8916 266.408 37.5564 266.196 37.2886C266.029 37.0654 265.8 36.8982 265.509 36.7866C265.23 36.675 264.929 36.6187 264.605 36.6187ZM307.534 36.6187C306.831 36.6187 306.284 36.8649 305.893 37.356C305.692 37.6127 305.547 37.9251 305.458 38.2935H309.493C309.459 37.8916 309.336 37.5564 309.124 37.2886C308.956 37.0654 308.727 36.8982 308.437 36.7866C308.158 36.6751 307.857 36.6187 307.534 36.6187ZM316.347 33.8901H314.07V31.8813H316.347V33.8901ZM193.151 33.6392H190.874V31.6304H193.151V33.6392ZM198.111 33.6392H195.834V31.6304H198.111V33.6392ZM258.022 33.6392H255.745V31.6304H258.022V33.6392ZM275.83 33.1538H273.553V30.8774H275.83V33.1538ZM115.556 12.5435C116.014 12.5435 116.455 12.6162 116.879 12.7612C117.314 12.9063 117.705 13.1072 118.05 13.3638V12.7954H120.044V22.4556C120.044 23.8617 119.485 24.8774 118.369 25.5024C117.956 25.7368 117.542 25.8931 117.13 25.9712C116.728 26.0493 116.287 26.0884 115.807 26.0884C115.517 26.0884 115.194 26.0493 114.837 25.9712C114.491 25.9042 114.184 25.8088 113.916 25.686C113.57 25.5186 113.245 25.3016 112.944 25.0337C112.643 24.7659 112.397 24.4696 112.208 24.146L114.317 23.1245C114.417 23.3142 114.579 23.4933 114.802 23.6606C114.936 23.7499 115.099 23.8172 115.289 23.8618C115.489 23.9175 115.668 23.9448 115.824 23.9448C116.081 23.9448 116.332 23.9058 116.578 23.8276C116.834 23.7607 117.046 23.6661 117.214 23.5435C117.414 23.3873 117.56 23.22 117.649 23.0415C117.738 22.8629 117.777 22.6558 117.766 22.4214V21.4839C117.119 21.8857 116.343 22.0874 115.439 22.0874C114.836 22.0874 114.256 21.9638 113.698 21.7183C113.151 21.4616 112.693 21.1046 112.325 20.647C111.622 19.7876 111.27 18.6766 111.27 17.3149C111.27 16.679 111.359 16.0764 111.538 15.5073C111.716 14.927 111.979 14.4191 112.325 13.9839C112.704 13.5152 113.173 13.1581 113.731 12.9126C114.3 12.667 114.909 12.5435 115.556 12.5435ZM255.029 12.5435C255.486 12.5435 255.927 12.6162 256.351 12.7612C256.787 12.9063 257.178 13.1071 257.524 13.3638V12.7954H259.516V22.4556C259.516 23.8617 258.958 24.8774 257.841 25.5024C257.429 25.7367 257.016 25.8931 256.603 25.9712C256.201 26.0493 255.76 26.0884 255.28 26.0884C254.99 26.0884 254.666 26.0493 254.309 25.9712C253.963 25.9042 253.656 25.8088 253.388 25.686C253.043 25.5187 252.719 25.3014 252.418 25.0337C252.116 24.7658 251.87 24.4697 251.68 24.146L253.79 23.1245C253.89 23.3143 254.053 23.4932 254.276 23.6606C254.41 23.7498 254.572 23.8172 254.761 23.8618C254.962 23.9175 255.14 23.9448 255.297 23.9448C255.553 23.9448 255.805 23.9058 256.05 23.8276C256.307 23.7607 256.519 23.6661 256.686 23.5435C256.887 23.3873 257.032 23.22 257.122 23.0415C257.211 22.8629 257.25 22.6558 257.239 22.4214V21.4839C256.592 21.8857 255.816 22.0874 254.912 22.0874C254.309 22.0874 253.729 21.9638 253.171 21.7183C252.624 21.4616 252.166 21.1045 251.798 20.647C251.094 19.7876 250.743 18.6765 250.743 17.3149C250.743 16.6789 250.833 16.0764 251.011 15.5073C251.19 14.9271 251.452 14.4191 251.798 13.9839C252.177 13.5152 252.646 13.1581 253.204 12.9126C253.773 12.6671 254.382 12.5435 255.029 12.5435ZM163.473 12.5435C164.121 12.5435 164.724 12.667 165.282 12.9126C165.851 13.1581 166.325 13.5152 166.705 13.9839C167.051 14.4192 167.313 14.927 167.492 15.5073C167.67 16.0764 167.759 16.679 167.759 17.3149C167.759 18.6766 167.408 19.7876 166.705 20.647C166.336 21.1046 165.873 21.4616 165.315 21.7183C164.768 21.9638 164.193 22.0874 163.59 22.0874C162.698 22.0874 161.922 21.8857 161.263 21.4839V25.854H158.969V12.7954H160.979V13.3638C161.325 13.1072 161.71 12.9063 162.134 12.7612C162.57 12.6162 163.016 12.5435 163.473 12.5435ZM245.233 12.5435C245.713 12.5435 246.187 12.6389 246.656 12.8286C247.125 13.0072 247.532 13.2416 247.878 13.5317C248.67 14.2014 249.067 15.1724 249.067 16.4448V21.6177L249.201 21.8354C248.821 22.0922 248.531 22.3438 248.33 22.5894C248.04 22.8793 247.828 23.1749 247.694 23.4761C247.649 23.61 247.627 23.7054 247.627 23.7612C247.627 23.8727 247.66 23.9619 247.727 24.0288C247.783 24.1181 247.884 24.1626 248.029 24.1626C248.241 24.1625 248.442 24.0844 248.632 23.9282L249.419 24.9663C249.24 25.2787 248.972 25.5186 248.615 25.686C248.392 25.7976 248.14 25.854 247.861 25.854C247.571 25.854 247.286 25.7867 247.007 25.6528C246.74 25.5189 246.516 25.3345 246.338 25.1001C246.048 24.7542 245.902 24.3243 245.902 23.811C245.902 23.4986 245.964 23.1859 246.087 22.8735C246.288 22.4048 246.617 21.9696 247.075 21.5679V20.731C246.628 21.2443 246.171 21.6013 245.702 21.8022C245.244 21.992 244.664 22.0874 243.961 22.0874C243.045 22.0874 242.32 21.8358 241.784 21.3335C241.248 20.8201 240.98 20.1388 240.98 19.2905C240.98 18.0407 241.511 17.1757 242.571 16.6958C243.006 16.495 243.531 16.3332 244.144 16.2104C244.769 16.0877 245.49 15.9759 246.304 15.8755L246.806 15.8091C246.728 15.4631 246.545 15.1887 246.255 14.9878C245.964 14.7869 245.567 14.687 245.065 14.687C244.63 14.687 244.217 14.7652 243.827 14.9214C243.447 15.0665 243.107 15.2727 242.805 15.5405L241.5 14.0337C242.002 13.5539 242.554 13.1859 243.157 12.9292C243.771 12.6725 244.463 12.5435 245.233 12.5435ZM272.336 19.2075L274.645 12.7954H276.906L273.055 23.0581C272.832 23.6496 272.62 24.1292 272.419 24.4976C272.218 24.877 271.967 25.1786 271.666 25.4019C271.398 25.6028 271.102 25.7254 270.778 25.77C270.454 25.8258 269.969 25.854 269.322 25.854V23.6938C269.612 23.6938 269.841 23.6775 270.008 23.644C270.187 23.6217 270.343 23.5663 270.477 23.4771C270.633 23.3654 270.772 23.2082 270.895 23.0073C271.018 22.8064 271.153 22.5056 271.298 22.104L267.815 12.7954H270.091L272.336 19.2075ZM104.086 9.53076C104.979 9.53076 105.811 9.69787 106.581 10.0327C107.351 10.3676 107.998 10.8536 108.522 11.4897C109.002 12.0813 109.348 12.7344 109.56 13.4487C109.783 14.163 109.906 14.9498 109.928 15.8091C109.906 16.6795 109.783 17.4718 109.56 18.186C109.348 18.8892 109.002 19.5314 108.522 20.1118C107.986 20.759 107.328 21.2497 106.547 21.5845C105.776 21.9193 104.956 22.0874 104.086 22.0874C103.204 22.0874 102.373 21.9193 101.591 21.5845C100.81 21.2385 100.163 20.748 99.6491 20.1118C99.1803 19.5426 98.8288 18.8895 98.5944 18.1528C98.36 17.4162 98.2429 16.635 98.2428 15.8091C98.2428 14.9832 98.3601 14.2019 98.5944 13.4653C98.8288 12.7176 99.1804 12.0589 99.6491 11.4897C100.163 10.8424 100.805 10.3564 101.575 10.0327C102.356 9.698 103.193 9.53079 104.086 9.53076ZM126.451 12.5435C127.132 12.5435 127.774 12.6725 128.377 12.9292C128.99 13.1859 129.504 13.5594 129.917 14.0503C130.664 14.9431 131.039 16.0316 131.039 17.3149C131.039 17.9623 130.95 18.5491 130.771 19.0737C130.593 19.5982 130.307 20.1007 129.917 20.5806C129.493 21.0715 128.979 21.445 128.377 21.7017C127.785 21.9584 127.143 22.0874 126.451 22.0874C125.77 22.0874 125.123 21.9583 124.509 21.7017C123.907 21.445 123.399 21.0715 122.986 20.5806C122.249 19.6877 121.881 18.5985 121.881 17.3149C121.881 16.0316 122.249 14.9431 122.986 14.0503C123.399 13.5706 123.912 13.2024 124.526 12.9458C125.14 12.678 125.781 12.5435 126.451 12.5435ZM152.538 12.5435C153.218 12.5435 153.86 12.6726 154.463 12.9292C155.076 13.1859 155.591 13.5592 156.004 14.0503C156.751 14.9431 157.125 16.0316 157.125 17.3149C157.125 17.9623 157.036 18.5491 156.857 19.0737C156.679 19.5982 156.394 20.1007 156.004 20.5806C155.579 21.0716 155.065 21.445 154.463 21.7017C153.871 21.9583 153.23 22.0874 152.538 22.0874C151.857 22.0874 151.209 21.9584 150.595 21.7017C149.993 21.445 149.485 21.0715 149.072 20.5806C148.335 19.6877 147.967 18.5985 147.967 17.3149C147.968 16.0316 148.335 14.9431 149.072 14.0503C149.485 13.5705 149.998 13.2025 150.612 12.9458C151.226 12.6779 151.868 12.5435 152.538 12.5435ZM173.664 12.5435C174.345 12.5435 174.987 12.6725 175.59 12.9292C176.203 13.1859 176.717 13.5594 177.13 14.0503C177.877 14.9431 178.252 16.0316 178.252 17.3149C178.252 17.9623 178.163 18.5491 177.984 19.0737C177.805 19.5982 177.52 20.1007 177.13 20.5806C176.706 21.0715 176.192 21.445 175.59 21.7017C174.998 21.9584 174.356 22.0874 173.664 22.0874C172.983 22.0873 172.336 21.9583 171.722 21.7017C171.12 21.445 170.612 21.0715 170.199 20.5806C169.462 19.6877 169.093 18.5985 169.093 17.3149C169.094 16.0316 169.462 14.9431 170.199 14.0503C170.612 13.5705 171.125 13.2024 171.739 12.9458C172.353 12.678 172.994 12.5435 173.664 12.5435ZM188.16 12.5435C188.852 12.5435 189.493 12.6944 190.085 12.9956C190.52 13.2076 190.905 13.5094 191.24 13.8999C191.575 14.2794 191.832 14.7036 192.01 15.1724L189.884 15.7085C189.561 14.9049 188.908 14.5025 187.925 14.5024C187.58 14.5024 187.267 14.5697 186.988 14.7036C186.72 14.8375 186.586 15.0103 186.586 15.2222C186.586 15.3896 186.658 15.5132 186.803 15.5913C186.96 15.6694 187.217 15.7584 187.574 15.8589L189.248 16.3276C190.14 16.5731 190.838 16.9412 191.34 17.4321C191.843 17.9121 192.094 18.5098 192.094 19.2241C192.094 19.6816 191.977 20.1169 191.743 20.5298C191.509 20.9315 191.196 21.2495 190.805 21.4839C190.437 21.7071 190.063 21.8633 189.683 21.9526C189.315 22.0419 188.896 22.0874 188.427 22.0874C187.713 22.0874 187.083 21.9974 186.536 21.8188C186 21.6291 185.542 21.3112 185.163 20.8647C184.884 20.5412 184.672 20.2285 184.527 19.9272C184.393 19.6147 184.287 19.2795 184.209 18.9224L186.252 18.4038C186.307 18.6157 186.379 18.8222 186.468 19.0229C186.569 19.2237 186.675 19.3856 186.787 19.5083C187.189 19.9213 187.753 20.1284 188.478 20.1284C188.668 20.1284 188.885 20.1002 189.131 20.0444C189.387 19.9886 189.577 19.9159 189.7 19.8267C189.823 19.7375 189.912 19.6537 189.967 19.5757C190.023 19.4864 190.051 19.3801 190.051 19.2573C190.051 19.0342 189.962 18.8724 189.784 18.772C189.605 18.6716 189.404 18.5934 189.181 18.5376C188.958 18.4707 188.813 18.4261 188.746 18.4038L187.708 18.1187C187.049 17.9289 186.63 17.8009 186.452 17.7339C185.771 17.4438 185.286 17.1147 184.996 16.7466C184.851 16.5569 184.739 16.3278 184.661 16.0601C184.583 15.781 184.544 15.5294 184.544 15.3062C184.544 14.7594 184.694 14.2742 184.996 13.8501C185.297 13.4148 185.693 13.0905 186.184 12.8784C186.497 12.7445 186.809 12.6555 187.122 12.6108C187.434 12.5662 187.78 12.5435 188.16 12.5435ZM217.08 9.53076C217.972 9.53076 218.804 9.698 219.574 10.0327C220.344 10.3676 220.992 10.8535 221.516 11.4897C221.996 12.0813 222.342 12.7344 222.554 13.4487C222.778 14.163 222.9 14.9498 222.923 15.8091C222.9 16.6795 222.778 17.4718 222.554 18.186C222.342 18.8892 221.996 19.5314 221.516 20.1118C220.981 20.7591 220.322 21.2497 219.541 21.5845C218.771 21.9193 217.95 22.0874 217.08 22.0874C216.198 22.0874 215.367 21.9193 214.586 21.5845C213.804 21.2385 213.157 20.7479 212.643 20.1118C212.174 19.5426 211.823 18.8895 211.589 18.1528C211.354 17.4162 211.237 16.635 211.237 15.8091C211.237 14.9832 211.354 14.2019 211.589 13.4653C211.823 12.7176 212.175 12.0589 212.643 11.4897C213.157 10.8425 213.798 10.3564 214.568 10.0327C215.349 9.69788 216.187 9.53077 217.08 9.53076ZM286.055 9.53076C287.06 9.55308 287.903 9.74837 288.584 10.1167C289.097 10.3957 289.549 10.7701 289.939 11.2388C290.33 11.6963 290.643 12.2314 290.878 12.8452L288.567 13.4653C288.4 13.1193 288.237 12.8459 288.081 12.645C287.924 12.4441 287.713 12.2651 287.445 12.1089C286.976 11.8187 286.468 11.6734 285.922 11.6733C285.386 11.6733 284.933 11.7851 284.565 12.0083C284.364 12.1311 284.208 12.2819 284.096 12.4604C283.996 12.639 283.946 12.8235 283.946 13.0132C283.946 13.2363 284.024 13.4263 284.18 13.5825C284.37 13.7834 284.828 13.9951 285.553 14.2183L287.646 14.8208C288.182 14.977 288.617 15.1452 288.952 15.3237C289.298 15.4911 289.605 15.7028 289.873 15.9595C290.241 16.3054 290.52 16.6961 290.71 17.1313C290.899 17.5666 290.995 18.0299 290.995 18.521C290.995 19.0456 290.855 19.5652 290.576 20.0786C290.297 20.5919 289.917 21.0044 289.437 21.3169C289.002 21.607 288.517 21.8078 287.981 21.9194C287.457 22.031 286.842 22.0874 286.139 22.0874C285.291 22.0874 284.532 21.9648 283.862 21.7192C283.204 21.4626 282.64 21.0436 282.172 20.4634C281.669 19.8384 281.306 19.0571 281.083 18.1196L283.393 17.4995C283.505 18.1356 283.706 18.6326 283.996 18.9897C284.23 19.3023 284.549 19.5421 284.951 19.7095C285.364 19.8768 285.788 19.9614 286.223 19.9614C286.558 19.9614 286.898 19.9159 287.244 19.8267C287.601 19.7262 287.886 19.5982 288.098 19.4419C288.422 19.2076 288.584 18.8784 288.584 18.4546C288.584 18.1086 288.461 17.8288 288.215 17.6167C287.959 17.3935 287.601 17.2155 287.143 17.0815L284.9 16.4282C283.885 16.1492 283.114 15.7758 282.59 15.3071C282.244 15.0169 281.981 14.6644 281.802 14.2515C281.635 13.8387 281.551 13.4087 281.551 12.9624C281.551 12.3152 281.736 11.7236 282.104 11.188C282.472 10.6523 282.941 10.2562 283.51 9.99951C283.912 9.82093 284.315 9.69832 284.716 9.63135C285.129 9.56442 285.576 9.53076 286.055 9.53076ZM303.845 12.5435C304.526 12.5435 305.168 12.6725 305.77 12.9292C306.384 13.1858 306.897 13.5594 307.31 14.0503C308.058 14.9431 308.432 16.0316 308.432 17.3149C308.432 17.9623 308.343 18.5491 308.165 19.0737C307.986 19.5982 307.701 20.1007 307.31 20.5806C306.886 21.0714 306.373 21.445 305.77 21.7017C305.179 21.9583 304.537 22.0874 303.845 22.0874C303.165 22.0874 302.517 21.9584 301.903 21.7017C301.3 21.445 300.792 21.0715 300.38 20.5806C299.643 19.6877 299.274 18.5985 299.274 17.3149C299.274 16.0316 299.643 14.9431 300.38 14.0503C300.792 13.5705 301.306 13.2025 301.92 12.9458C302.533 12.6779 303.176 12.5435 303.845 12.5435ZM295.652 12.7954H298.263V14.5532H295.652V18.4038C295.652 18.6716 295.663 18.8952 295.685 19.0737C295.719 19.252 295.769 19.3913 295.836 19.4917C296.025 19.7931 296.344 19.9666 296.791 20.0112C296.869 20.0223 296.992 20.0278 297.159 20.0278C297.505 20.0278 297.873 19.9996 298.263 19.9438V21.8354C297.884 21.9359 297.399 21.9868 296.807 21.9868C296.35 21.9868 295.953 21.9586 295.618 21.9028C295.183 21.8247 294.826 21.702 294.547 21.5347C294.268 21.3673 294.011 21.1101 293.777 20.7642C293.621 20.5298 293.514 20.2672 293.459 19.9771C293.403 19.6758 293.375 19.3131 293.375 18.8892V14.5532H291.835V12.7954H293.375V10.2837H295.652V12.7954ZM135.16 21.8364H132.883V9.53076H135.16V21.8364ZM182.374 21.8364H180.096V9.53076H182.374V21.8364ZM205.881 21.8364H203.603V12.7954H205.881V21.8364ZM265.22 13.8003L267.096 12.728V15.189L265.22 16.2612V21.8364H262.944V17.5669L261.069 18.6382V16.1772L262.944 15.106V9.53076H265.22V13.8003ZM313.642 13.8003L315.517 12.728V15.189L313.642 16.2612V21.8364H311.366V17.5669L309.49 18.6382V16.1772L311.366 15.106V9.53076H313.642V13.8003ZM142.666 12.5269C143.76 12.5269 144.642 12.8566 145.311 13.5151C145.613 13.8165 145.836 14.179 145.981 14.603C146.126 15.0159 146.215 15.4403 146.249 15.8755C146.282 16.2996 146.299 16.8301 146.299 17.4663V21.8354H143.989V17.5669C143.989 16.4173 143.788 15.6243 143.386 15.189C143.074 14.843 142.627 14.6704 142.047 14.6704C141.6 14.6704 141.215 14.7876 140.891 15.022C140.545 15.2787 140.322 15.6639 140.221 16.1772C140.154 16.501 140.121 17.0761 140.121 17.9019V21.8354H137.828V12.7954H139.837V13.7329L139.954 13.5991C140.266 13.2198 140.668 12.9462 141.159 12.7788C141.65 12.6114 142.152 12.5269 142.666 12.5269ZM196.267 16.2437H197.339L199.515 12.7944H202.044L199.18 17.2983L202.26 21.8354H199.682L197.339 18.3862H196.267V21.8354H193.94L193.957 9.78076H196.267V16.2437ZM227.093 16.2437H228.165L230.341 12.7944H232.87L230.007 17.2983L233.088 21.8354H230.509L228.165 18.3862H227.093V21.8354H224.766L224.783 9.78076H227.093V16.2437ZM239.034 12.5601C239.458 12.5601 239.888 12.6446 240.323 12.812V14.9214C239.899 14.754 239.43 14.6704 238.917 14.6704C238.135 14.6704 237.544 14.8821 237.142 15.3062C236.752 15.7303 236.556 16.2998 236.556 17.0142V21.8354H234.262V12.7944H236.271V14.0337C236.528 13.5984 236.852 13.2642 237.243 13.0298C237.756 12.7173 238.353 12.5601 239.034 12.5601ZM246.806 17.5835C246.282 17.6839 245.523 17.8402 244.53 18.0522C244.139 18.1415 243.82 18.275 243.575 18.4536C243.341 18.621 243.223 18.8446 243.223 19.1235C243.223 19.4361 243.347 19.6931 243.592 19.894C243.838 20.0947 244.145 20.1948 244.513 20.1948C244.937 20.1948 245.322 20.1002 245.668 19.9106C246.014 19.7209 246.293 19.4693 246.506 19.1567C246.639 18.9449 246.723 18.7219 246.757 18.4878C246.79 18.2423 246.806 17.9406 246.806 17.5835ZM115.891 14.5698C115.099 14.5698 114.524 14.8378 114.167 15.3735C113.843 15.8534 113.681 16.5005 113.681 17.3149C113.681 18.1632 113.832 18.8109 114.133 19.2573C114.312 19.5364 114.546 19.7435 114.837 19.8774C115.138 20.0001 115.461 20.061 115.807 20.061C116.488 20.061 117.024 19.8493 117.415 19.4253C117.627 19.1909 117.783 18.8893 117.883 18.521C117.995 18.1415 118.05 17.7391 118.05 17.3149C118.05 16.891 117.995 16.4947 117.883 16.1265C117.783 15.7582 117.627 15.4511 117.415 15.2056C117.058 14.7816 116.55 14.5699 115.891 14.5698ZM163.138 14.5698C162.48 14.5699 161.972 14.7816 161.615 15.2056C161.403 15.4511 161.241 15.7582 161.13 16.1265C161.029 16.4947 160.979 16.891 160.979 17.3149C160.979 17.7391 161.029 18.1415 161.13 18.521C161.241 18.8893 161.403 19.1909 161.615 19.4253C162.006 19.8493 162.542 20.061 163.222 20.061C163.568 20.061 163.886 20.0001 164.176 19.8774C164.478 19.7435 164.718 19.5363 164.896 19.2573C165.198 18.8109 165.348 18.1632 165.348 17.3149C165.348 16.5004 165.187 15.8534 164.863 15.3735C164.506 14.8378 163.931 14.5698 163.138 14.5698ZM255.364 14.5698C254.571 14.5698 253.996 14.8378 253.639 15.3735C253.316 15.8534 253.154 16.5005 253.154 17.3149C253.154 18.1632 253.305 18.8109 253.606 19.2573C253.785 19.5364 254.019 19.7435 254.309 19.8774C254.61 20.0001 254.934 20.061 255.28 20.061C255.961 20.061 256.497 19.8493 256.887 19.4253C257.099 19.1909 257.256 18.8892 257.356 18.521C257.468 18.1415 257.524 17.7391 257.524 17.3149C257.524 16.891 257.468 16.4947 257.356 16.1265C257.256 15.7582 257.099 15.4511 256.887 15.2056C256.53 14.7816 256.022 14.5698 255.364 14.5698ZM126.451 14.6704C126.105 14.6705 125.787 14.7367 125.497 14.8706C125.207 14.9934 124.972 15.1778 124.794 15.4233C124.459 15.8586 124.292 16.4892 124.292 17.3149C124.292 18.1297 124.459 18.7556 124.794 19.1909C124.972 19.4364 125.207 19.6263 125.497 19.7603C125.798 19.8941 126.116 19.9604 126.451 19.9604C126.785 19.9604 127.098 19.894 127.388 19.7603C127.69 19.6263 127.93 19.4364 128.109 19.1909C128.455 18.7445 128.628 18.1186 128.628 17.3149C128.628 16.5004 128.455 15.8697 128.109 15.4233C127.931 15.1778 127.696 14.9934 127.406 14.8706C127.116 14.7367 126.797 14.6704 126.451 14.6704ZM152.538 14.6704C152.192 14.6704 151.874 14.7368 151.584 14.8706C151.294 14.9933 151.059 15.1779 150.881 15.4233C150.546 15.8586 150.378 16.4892 150.378 17.3149C150.378 18.1297 150.546 18.7556 150.881 19.1909C151.059 19.4363 151.294 19.6254 151.584 19.7593C151.885 19.8932 152.203 19.9604 152.538 19.9604C152.873 19.9604 153.185 19.8932 153.475 19.7593C153.776 19.6254 154.016 19.4363 154.195 19.1909C154.541 18.7445 154.715 18.1186 154.715 17.3149C154.714 16.5004 154.541 15.8697 154.195 15.4233C154.016 15.1779 153.782 14.9933 153.492 14.8706C153.202 14.7368 152.884 14.6704 152.538 14.6704ZM173.664 14.6704C173.318 14.6705 173 14.7367 172.71 14.8706C172.419 14.9934 172.185 15.1778 172.007 15.4233C171.672 15.8586 171.505 16.4892 171.505 17.3149C171.505 18.1297 171.672 18.7556 172.007 19.1909C172.185 19.4363 172.42 19.6254 172.71 19.7593C173.011 19.8932 173.329 19.9604 173.664 19.9604C173.999 19.9604 174.312 19.8932 174.602 19.7593C174.903 19.6254 175.143 19.4363 175.322 19.1909C175.668 18.7445 175.84 18.1186 175.84 17.3149C175.84 16.5004 175.668 15.8697 175.322 15.4233C175.143 15.1778 174.909 14.9934 174.619 14.8706C174.329 14.7367 174.01 14.6704 173.664 14.6704ZM303.845 14.6704C303.499 14.6704 303.18 14.7367 302.89 14.8706C302.6 14.9934 302.366 15.1778 302.187 15.4233C301.852 15.8586 301.685 16.4893 301.685 17.3149C301.685 18.1297 301.852 18.7556 302.187 19.1909C302.366 19.4364 302.6 19.6263 302.89 19.7603C303.192 19.8942 303.511 19.9604 303.845 19.9604C304.18 19.9604 304.493 19.8941 304.783 19.7603C305.084 19.6264 305.324 19.4364 305.503 19.1909C305.849 18.7445 306.021 18.1186 306.021 17.3149C306.021 16.5004 305.849 15.8697 305.503 15.4233C305.324 15.1778 305.09 14.9934 304.799 14.8706C304.509 14.7367 304.191 14.6705 303.845 14.6704ZM104.019 11.6733C103.506 11.6733 103.02 11.7796 102.562 11.9917C102.105 12.1926 101.737 12.4888 101.458 12.8794C100.911 13.5602 100.637 14.4976 100.637 15.6919C100.637 17.0089 100.911 18.0245 101.458 18.7388C101.748 19.1404 102.127 19.4422 102.595 19.6431C103.075 19.844 103.595 19.9438 104.153 19.9438C104.666 19.9438 105.146 19.8439 105.592 19.6431C106.05 19.431 106.424 19.1294 106.715 18.7388C107.25 18.0245 107.518 17.0479 107.518 15.8091C107.518 14.5592 107.25 13.5825 106.715 12.8794C106.413 12.4776 106.028 12.176 105.559 11.9751C105.091 11.7742 104.577 11.6734 104.019 11.6733ZM217.012 11.6733C216.499 11.6734 216.014 11.7797 215.556 11.9917C215.099 12.1926 214.73 12.4887 214.451 12.8794C213.904 13.5602 213.631 14.4979 213.631 15.6919C213.631 17.0087 213.904 18.0245 214.451 18.7388C214.741 19.1406 215.121 19.4422 215.59 19.6431C216.069 19.844 216.589 19.9438 217.147 19.9438C217.66 19.9438 218.14 19.8439 218.587 19.6431C219.044 19.431 219.418 19.1294 219.709 18.7388C220.244 18.0245 220.512 17.0478 220.512 15.8091C220.512 14.5592 220.244 13.5825 219.709 12.8794C219.407 12.4777 219.022 12.176 218.553 11.9751C218.085 11.7742 217.57 11.6733 217.012 11.6733ZM128.929 10.0991L124.224 11.7065L123.655 10.0659L128.377 8.44189L128.929 10.0991ZM306.323 10.0991L301.618 11.7065L301.049 10.0659L305.77 8.44189L306.323 10.0991ZM205.881 11.5396H203.603V9.53076H205.881V11.5396Z" fill="#FEF8F8"/>
<circle cx="26.8585" cy="26.8583" r="26.1085" transform="rotate(-90 26.8585 26.8583)" fill="black" fill-opacity="0.01" stroke="#FFFBFB" stroke-width="1.5"/>
<circle cx="26.8586" cy="26.8581" r="20.0594" transform="rotate(-90 26.8586 26.8581)" fill="black" fill-opacity="0.01" stroke="#FFFBFB" stroke-width="1.5"/>
<circle cx="26.8585" cy="26.8584" r="13.4009" transform="rotate(-90 26.8585 26.8584)" fill="black" fill-opacity="0.01" stroke="#FFFBFB" stroke-width="1.5"/>
<circle cx="57.6839" cy="26.8585" r="26.0805" transform="rotate(-90 57.6839 26.8585)" fill="black" fill-opacity="0.01" stroke="#FFFBFB" stroke-width="1.5"/>
</svg>
