<?xml version="1.0" encoding="UTF-8" standalone="no"?>
<!DOCTYPE svg PUBLIC "-//W3C//DTD SVG 1.1//EN" "http://www.w3.org/Graphics/SVG/1.1/DTD/svg11.dtd">
<svg width="100%" height="100%" viewBox="0 0 1610 1209" version="1.1" xmlns="http://www.w3.org/2000/svg" xmlns:xlink="http://www.w3.org/1999/xlink" xml:space="preserve" xmlns:serif="http://www.serif.com/" style="fill-rule:evenodd;clip-rule:evenodd;stroke-linejoin:round;stroke-miterlimit:2;">
    <g transform="matrix(1,0,0,1,-292.286667,-305.31359)">
        <g id="Warstwa-1" serif:id="Warstwa 1" transform="matrix(4.166667,0,0,4.166667,0,0)">
            <g transform="matrix(1,0,0,1,71.936,333.6146)">
                <path d="M0,-21.183C0,-21.493 0.278,-21.743 0.587,-21.743L1.053,-21.743C1.27,-21.743 1.425,-21.678 1.579,-21.524L14.216,-8.05L14.278,-8.05L14.278,-20.843C14.278,-21.153 14.527,-21.431 14.867,-21.431L17.717,-21.431C18.025,-21.431 18.305,-21.153 18.305,-20.843L18.305,0.003C18.305,0.311 18.025,0.56 17.717,0.56L17.283,0.56C17.066,0.56 16.911,0.497 16.756,0.343L4.058,-13.658L3.995,-13.658L3.995,-0.338C3.995,-0.029 3.748,0.25 3.407,0.25L0.587,0.25C0.278,0.25 0,-0.029 0,-0.338L0,-21.183Z" style="fill:white;fill-rule:nonzero;"/>
            </g>
            <g transform="matrix(1,0,0,1,103.9585,328.7235)">
                <path d="M0,-3.996C-0.309,-4.739 -1.238,-5.948 -3.097,-5.948C-5.42,-5.948 -6.628,-4.151 -6.628,-1.982C-6.628,0.186 -5.42,1.951 -3.189,1.951C-1.207,1.951 -0.309,0.805 0,-0.031L0,-3.996ZM3.934,4.46C3.934,4.831 3.624,5.141 3.253,5.141L1.858,5.141C1.518,5.141 1.301,4.862 1.178,4.46L0.806,3.344C0.806,3.344 -0.711,5.482 -3.748,5.482C-7.649,5.482 -10.53,2.074 -10.53,-2.014C-10.53,-6.102 -7.649,-9.478 -3.716,-9.478C-1.362,-9.478 0.217,-8.269 0.775,-7.589L1.271,-8.735C1.363,-9.045 1.642,-9.169 1.858,-9.169L3.253,-9.169C3.624,-9.169 3.934,-8.891 3.934,-8.488L3.934,4.46Z" style="fill:white;fill-rule:nonzero;"/>
            </g>
            <g transform="matrix(1,0,0,1,111.8545,332.8744)">
                <path d="M0,-12.639C0,-13.041 0.34,-13.32 0.681,-13.32L1.827,-13.32C2.167,-13.32 2.323,-13.164 2.446,-12.855L2.974,-11.46C3.469,-12.173 4.8,-13.629 7,-13.629C8.704,-13.629 10.097,-13.164 9.695,-12.235L8.765,-10.129C8.61,-9.789 8.27,-9.665 7.929,-9.821C7.589,-9.975 7.249,-10.099 6.598,-10.099C5.049,-10.099 4.12,-9.107 3.871,-8.611L3.871,0.309C3.871,0.836 3.531,0.99 3.067,0.99L0.681,0.99C0.34,0.99 0,0.68 0,0.309L0,-12.639Z" style="fill:white;fill-rule:nonzero;"/>
            </g>
            <g transform="matrix(1,0,0,1,129.9121,322.7748)">
                <path d="M0,7.9C2.076,7.9 3.748,6.103 3.748,3.905C3.748,1.736 2.076,0.001 0,0.001C-2.076,0.001 -3.718,1.736 -3.718,3.905C-3.718,6.103 -2.076,7.9 0,7.9M0,-3.53C4.058,-3.53 7.34,-0.123 7.34,3.905C7.34,7.993 4.058,11.43 0,11.43C-4.026,11.43 -7.311,7.993 -7.311,3.905C-7.311,-0.123 -4.026,-3.53 0,-3.53" style="fill:white;fill-rule:nonzero;"/>
            </g>
            <g transform="matrix(1,0,0,1,149.9819,322.807)">
                <path d="M0,0.775C0,0.775 -1.178,-0.032 -2.974,-0.032C-5.328,-0.032 -6.536,1.89 -6.536,3.903C-6.536,5.917 -5.39,7.868 -3.16,7.868C-1.301,7.868 -0.311,6.69 0,5.885L0,0.775ZM-3.438,-3.562C-2.014,-3.562 -0.651,-3.221 0,-2.974L0,-9.943C0,-10.283 0.34,-10.623 0.681,-10.623L3.189,-10.623C3.561,-10.623 3.871,-10.283 3.871,-9.943L3.871,10.377C3.871,10.748 3.561,11.057 3.189,11.057L2.044,11.057C1.702,11.057 1.485,10.779 1.362,10.377L0.991,9.26C0.991,9.26 -0.651,11.398 -3.686,11.398C-7.589,11.398 -10.532,8.239 -10.532,3.903C-10.532,-0.279 -7.713,-3.562 -3.438,-3.562" style="fill:white;fill-rule:nonzero;"/>
            </g>
            <g transform="matrix(1,0,0,1,164.2568,322.7748)">
                <path d="M0,7.9C2.076,7.9 3.748,6.103 3.748,3.905C3.748,1.736 2.076,0.001 0,0.001C-2.076,0.001 -3.717,1.736 -3.717,3.905C-3.717,6.103 -2.076,7.9 0,7.9M0,-3.53C4.058,-3.53 7.341,-0.123 7.341,3.905C7.341,7.993 4.058,11.43 0,11.43C-4.026,11.43 -7.31,7.993 -7.31,3.905C-7.31,-0.123 -4.026,-3.53 0,-3.53" style="fill:white;fill-rule:nonzero;"/>
            </g>
            <g transform="matrix(1,0,0,1,173.1758,333.0904)">
                <path d="M0,-12.73C-0.217,-13.164 0.092,-13.536 0.587,-13.536L3.004,-13.536C3.19,-13.536 3.561,-13.38 3.623,-13.102L5.792,-6.288L5.822,-6.288L9.57,-13.536C9.633,-13.69 9.787,-13.845 10.128,-13.845L10.407,-13.845C10.748,-13.845 10.903,-13.721 10.995,-13.536L14.712,-6.288L14.743,-6.288L16.88,-13.102C17.003,-13.504 17.313,-13.536 17.686,-13.536L19.853,-13.536C20.349,-13.536 20.659,-13.164 20.504,-12.73L16.105,0.712C16.044,0.929 15.797,1.115 15.455,1.115L15.331,1.115C15.021,1.115 14.867,0.959 14.743,0.774L10.252,-7.835L10.221,-7.835L5.73,0.774C5.637,0.959 5.42,1.115 5.173,1.115L4.986,1.115C4.646,1.115 4.429,0.929 4.367,0.712L0,-12.73Z" style="fill:white;fill-rule:nonzero;"/>
            </g>
            <g transform="matrix(1,0,0,1,195.102,340.3074)">
                <path d="M0,-19.824C-0.187,-20.319 0.062,-20.753 0.619,-20.753L3.593,-20.753C3.902,-20.753 4.119,-20.597 4.181,-20.35L6.751,-11.801L6.814,-11.801L10.066,-20.35C10.283,-20.721 10.531,-20.753 10.964,-20.753L13.597,-20.753C14.155,-20.753 14.433,-20.288 14.216,-19.824L5.792,0.495C5.698,0.712 5.451,0.929 5.172,0.929L2.199,0.929C1.642,0.929 1.363,0.464 1.578,-0.032L4.46,-7.279L0,-19.824Z" style="fill:white;fill-rule:nonzero;"/>
            </g>
            <g transform="matrix(1,0,0,1,222.354,333.2765)">
                <path d="M0,-20.505C0,-20.815 0.279,-21.093 0.587,-21.093L3.469,-21.093C3.778,-21.093 4.058,-20.815 4.058,-20.505L4.058,0C4.058,0.309 3.778,0.588 3.469,0.588L0.587,0.588C0.279,0.588 0,0.309 0,0L0,-20.505Z" style="fill:white;fill-rule:nonzero;"/>
            </g>
            <g transform="matrix(1,0,0,1,230.7168,332.8744)">
                <path d="M0,-12.639C0,-13.041 0.34,-13.32 0.681,-13.32L1.859,-13.32C2.199,-13.32 2.354,-13.164 2.446,-12.886L2.974,-11.554C3.501,-12.141 4.833,-13.629 7.589,-13.629C12.142,-13.629 13.319,-10.563 13.319,-7.094L13.319,0.309C13.319,0.68 12.979,0.99 12.637,0.99L10.128,0.99C9.757,0.99 9.448,0.68 9.448,0.309L9.448,-7.094C9.448,-8.952 8.704,-10.099 6.97,-10.099C5.111,-10.099 4.213,-8.86 3.871,-7.868L3.871,0.309C3.871,0.836 3.654,0.99 2.974,0.99L0.681,0.99C0.34,0.99 0,0.68 0,0.309L0,-12.639Z" style="fill:white;fill-rule:nonzero;"/>
            </g>
            <g transform="matrix(1,0,0,1,247.4101,320.5453)">
                <path d="M0,12.36C-0.186,12.235 -0.341,11.895 -0.186,11.584L0.744,9.727C0.897,9.386 1.239,9.261 1.58,9.478C2.23,9.882 3.252,10.408 4.738,10.408C5.823,10.408 6.318,10.006 6.318,9.386C6.318,8.735 5.513,8.147 3.624,7.404C0.867,6.35 -0.373,5.05 -0.373,2.881C-0.373,0.714 1.27,-1.3 4.77,-1.3C6.875,-1.3 8.238,-0.744 9.013,-0.246C9.321,0.001 9.508,0.373 9.321,0.745L8.517,2.385C8.3,2.727 7.929,2.789 7.618,2.664C6.937,2.354 5.947,1.952 4.77,1.952C3.809,1.952 3.407,2.417 3.407,2.881C3.407,3.532 4.119,3.872 5.452,4.431C8.207,5.546 10.189,6.536 10.189,9.386C10.189,11.648 8.269,13.66 4.676,13.66C2.292,13.66 0.806,12.917 0,12.36" style="fill:white;fill-rule:nonzero;"/>
            </g>
            <g transform="matrix(1,0,0,1,261.5918,326.0914)">
                <path d="M0,-3.068L-1.394,-3.068C-1.766,-3.068 -2.044,-3.409 -2.044,-3.749L-2.044,-5.856C-2.044,-6.258 -1.766,-6.537 -1.394,-6.537L0,-6.537L0,-10.502C0,-10.872 0.342,-11.182 0.681,-11.182L3.222,-11.182C3.593,-11.182 3.872,-10.872 3.872,-10.502L3.872,-6.537L7.216,-6.537C7.588,-6.537 7.898,-6.258 7.898,-5.856L7.898,-3.749C7.898,-3.409 7.588,-3.068 7.216,-3.068L3.872,-3.068L3.872,3.374C3.872,4.336 4.336,4.553 5.048,4.553C5.667,4.553 6.845,4.211 7.216,4.087C7.619,3.932 7.959,4.119 8.021,4.459L8.423,6.349C8.518,6.72 8.362,6.999 8.021,7.185C7.525,7.463 5.481,8.114 3.995,8.114C0.805,8.114 0,5.976 0,3.498L0,-3.068Z" style="fill:white;fill-rule:nonzero;"/>
            </g>
            <g transform="matrix(1,0,0,1,271.3779,340.3074)">
                <path d="M0,-19.824C-0.187,-20.319 0.062,-20.753 0.618,-20.753L3.592,-20.753C3.902,-20.753 4.119,-20.597 4.181,-20.35L6.75,-11.801L6.813,-11.801L10.065,-20.35C10.282,-20.721 10.529,-20.753 10.963,-20.753L13.597,-20.753C14.154,-20.753 14.433,-20.288 14.216,-19.824L5.791,0.495C5.697,0.712 5.45,0.929 5.172,0.929L2.198,0.929C1.642,0.929 1.362,0.464 1.578,-0.032L4.46,-7.279L0,-19.824Z" style="fill:white;fill-rule:nonzero;"/>
            </g>
            <g transform="matrix(1,0,0,1,289.122,326.0914)">
                <path d="M0,-3.068L-1.394,-3.068C-1.766,-3.068 -2.044,-3.409 -2.044,-3.749L-2.044,-5.856C-2.044,-6.258 -1.766,-6.537 -1.394,-6.537L0,-6.537L0,-10.502C0,-10.872 0.342,-11.182 0.682,-11.182L3.222,-11.182C3.593,-11.182 3.872,-10.872 3.872,-10.502L3.872,-6.537L7.217,-6.537C7.588,-6.537 7.898,-6.258 7.898,-5.856L7.898,-3.749C7.898,-3.409 7.588,-3.068 7.217,-3.068L3.872,-3.068L3.872,3.374C3.872,4.336 4.336,4.553 5.049,4.553C5.668,4.553 6.846,4.211 7.217,4.087C7.62,3.932 7.96,4.119 8.021,4.459L8.424,6.349C8.518,6.72 8.362,6.999 8.021,7.185C7.526,7.463 5.482,8.114 3.995,8.114C0.806,8.114 0,5.976 0,3.498L0,-3.068Z" style="fill:white;fill-rule:nonzero;"/>
            </g>
            <g transform="matrix(1,0,0,1,300.0849,333.5244)">
                <path d="M0,-13.289C0,-13.691 0.31,-13.97 0.682,-13.97L3.189,-13.97C3.562,-13.97 3.872,-13.691 3.872,-13.289L3.872,-5.7C3.872,-3.81 4.521,-2.85 6.286,-2.85C7.866,-2.85 8.611,-4.275 8.828,-5.513L8.828,-13.289C8.828,-13.846 9.014,-13.97 9.602,-13.97L12.017,-13.97C12.389,-13.97 12.698,-13.691 12.698,-13.289L12.698,-0.341C12.698,0.03 12.389,0.34 12.017,0.34L10.902,0.34C10.562,0.34 10.313,0.093 10.221,-0.186L9.818,-1.395C9.075,-0.619 7.588,0.681 5.389,0.681C0.96,0.681 0,-2.076 0,-5.7L0,-13.289Z" style="fill:white;fill-rule:nonzero;"/>
            </g>
            <g transform="matrix(1,0,0,1,317.706,326.0914)">
                <path d="M0,-3.068L-1.395,-3.068C-1.766,-3.068 -2.045,-3.409 -2.045,-3.749L-2.045,-5.856C-2.045,-6.258 -1.766,-6.537 -1.395,-6.537L0,-6.537L0,-10.502C0,-10.872 0.341,-11.182 0.682,-11.182L3.221,-11.182C3.593,-11.182 3.872,-10.872 3.872,-10.502L3.872,-6.537L7.217,-6.537C7.588,-6.537 7.897,-6.258 7.897,-5.856L7.897,-3.749C7.897,-3.409 7.588,-3.068 7.217,-3.068L3.872,-3.068L3.872,3.374C3.872,4.336 4.336,4.553 5.048,4.553C5.667,4.553 6.846,4.211 7.217,4.087C7.619,3.932 7.96,4.119 8.021,4.459L8.424,6.349C8.517,6.72 8.361,6.999 8.021,7.185C7.526,7.463 5.481,8.114 3.996,8.114C0.805,8.114 0,5.976 0,3.498L0,-3.068Z" style="fill:white;fill-rule:nonzero;"/>
            </g>
            <g transform="matrix(1,0,0,1,336.8125,333.1198)">
                <path d="M0,-20.193C-0.123,-20.627 0.125,-20.936 0.56,-20.936L3.408,-20.936C3.656,-20.936 3.903,-20.719 3.965,-20.503L7.187,-8.143L7.31,-8.143L12.236,-20.905C12.298,-21.091 12.453,-21.248 12.762,-21.248L13.319,-21.248C13.629,-21.248 13.784,-21.091 13.846,-20.905L18.803,-8.143L18.925,-8.143L22.084,-20.503C22.147,-20.719 22.395,-20.936 22.643,-20.936L25.491,-20.936C25.925,-20.936 26.174,-20.627 26.048,-20.193L20.195,0.621C20.134,0.869 19.885,1.055 19.638,1.055L19.143,1.055C18.863,1.055 18.679,0.9 18.615,0.713L13.072,-13.318L12.917,-13.318L7.434,0.713C7.343,0.9 7.217,1.055 6.908,1.055L6.412,1.055C6.164,1.055 5.917,0.869 5.855,0.621L0,-20.193Z" style="fill:white;fill-rule:nonzero;"/>
            </g>
            <g transform="matrix(1,0,0,1,370.5713,322.7748)">
                <path d="M0,7.9C2.076,7.9 3.748,6.103 3.748,3.905C3.748,1.736 2.076,0.001 0,0.001C-2.075,0.001 -3.715,1.736 -3.715,3.905C-3.715,6.103 -2.075,7.9 0,7.9M0,-3.53C4.059,-3.53 7.341,-0.123 7.341,3.905C7.341,7.993 4.059,11.43 0,11.43C-4.025,11.43 -7.31,7.993 -7.31,3.905C-7.31,-0.123 -4.025,-3.53 0,-3.53" style="fill:white;fill-rule:nonzero;"/>
            </g>
            <g transform="matrix(1,0,0,1,381.0097,333.1833)">
                <path d="M0,-20.319C0,-20.659 0.34,-21 0.681,-21L3.189,-21C3.53,-21 3.87,-20.659 3.87,-20.319L3.87,0C3.87,0.371 3.53,0.681 3.189,0.681L0.681,0.681C0.34,0.681 0,0.371 0,0L0,-20.319Z" style="fill:white;fill-rule:nonzero;"/>
            </g>
            <g transform="matrix(1,0,0,1,388.875,332.8744)">
                <path d="M0,-12.639C0,-13.041 0.341,-13.32 0.681,-13.32L1.859,-13.32C2.199,-13.32 2.354,-13.164 2.445,-12.886L2.974,-11.554C3.5,-12.141 4.832,-13.629 7.589,-13.629C12.143,-13.629 13.318,-10.563 13.318,-7.094L13.318,0.309C13.318,0.68 12.978,0.99 12.637,0.99L10.128,0.99C9.757,0.99 9.447,0.68 9.447,0.309L9.447,-7.094C9.447,-8.952 8.703,-10.099 6.97,-10.099C5.111,-10.099 4.214,-8.86 3.871,-7.868L3.871,0.309C3.871,0.836 3.654,0.99 2.974,0.99L0.681,0.99C0.341,0.99 0,0.68 0,0.309L0,-12.639Z" style="fill:white;fill-rule:nonzero;"/>
            </g>
            <g transform="matrix(1,0,0,1,412.4433,322.7748)">
                <path d="M0,7.9C2.076,7.9 3.748,6.103 3.748,3.905C3.748,1.736 2.076,0.001 0,0.001C-2.075,0.001 -3.716,1.736 -3.716,3.905C-3.716,6.103 -2.075,7.9 0,7.9M0,-3.53C4.059,-3.53 7.341,-0.123 7.341,3.905C7.341,7.993 4.059,11.43 0,11.43C-4.025,11.43 -7.31,7.993 -7.31,3.905C-7.31,-0.123 -4.025,-3.53 0,-3.53" style="fill:white;fill-rule:nonzero;"/>
            </g>
            <g transform="matrix(1,0,0,1,424.6142,329.3112)">
                <path d="M0,-11.986L-0.525,-13.1C-0.649,-13.348 -0.525,-13.566 -0.34,-13.69L4.71,-16.694C4.988,-16.88 5.358,-16.88 5.515,-16.601L6.413,-15.022C6.598,-14.619 6.475,-14.309 6.227,-14.186L0.807,-11.8C0.341,-11.615 0.155,-11.708 0,-11.986M-2.198,3.594C-2.384,3.469 -2.539,3.129 -2.384,2.818L-1.454,0.961C-1.3,0.62 -0.959,0.495 -0.618,0.712C0.032,1.117 1.054,1.642 2.54,1.642C3.625,1.642 4.12,1.24 4.12,0.62C4.12,-0.031 3.315,-0.619 1.426,-1.362C-1.33,-2.416 -2.57,-3.715 -2.57,-5.884C-2.57,-8.052 -0.929,-10.066 2.572,-10.066C4.678,-10.066 6.041,-9.509 6.814,-9.012C7.124,-8.765 7.312,-8.393 7.124,-8.021L6.319,-6.381C6.103,-6.039 5.731,-5.977 5.422,-6.102C4.739,-6.412 3.749,-6.814 2.572,-6.814C1.611,-6.814 1.209,-6.349 1.209,-5.884C1.209,-5.234 1.921,-4.894 3.253,-4.335C6.01,-3.22 7.992,-2.23 7.992,0.62C7.992,2.882 6.071,4.894 2.479,4.894C0.094,4.894 -1.393,4.151 -2.198,3.594" style="fill:white;fill-rule:nonzero;"/>
            </g>
            <g transform="matrix(1,0,0,1,442.3603,334.2051)">
                <path d="M0,-14.96C2.231,-14.96 3.965,-14 5.328,-12.544C5.638,-12.234 5.483,-11.832 5.174,-11.522L3.872,-10.097C3.563,-9.757 3.223,-9.911 2.942,-10.19C2.261,-10.84 1.426,-11.43 0.094,-11.43C-2.138,-11.43 -3.686,-9.694 -3.686,-7.495C-3.686,-5.265 -2.167,-3.53 0.062,-3.53C1.643,-3.53 2.479,-4.398 3.098,-5.11C3.314,-5.358 3.748,-5.42 3.996,-5.203L5.391,-4.026C5.73,-3.716 5.886,-3.376 5.638,-3.004C4.431,-1.114 2.51,0 -0.031,0C-4.211,0 -7.588,-3.19 -7.588,-7.495C-7.588,-11.708 -4.242,-14.96 0,-14.96" style="fill:white;fill-rule:nonzero;"/>
            </g>
            <g transform="matrix(1,0,0,1,450.8759,325.8124)">
                <path d="M0,-5.577C0,-5.979 0.341,-6.258 0.682,-6.258L3.19,-6.258C3.531,-6.258 3.871,-5.979 3.871,-5.577L3.871,7.371C3.871,7.742 3.531,8.052 3.19,8.052L0.682,8.052C0.341,8.052 0,7.742 0,7.371L0,-5.577ZM-0.558,-11.181C-0.558,-12.545 0.496,-13.629 1.889,-13.629C3.284,-13.629 4.366,-12.545 4.366,-11.181C4.366,-9.82 3.284,-8.705 1.889,-8.705C0.496,-8.705 -0.558,-9.82 -0.558,-11.181" style="fill:white;fill-rule:nonzero;"/>
            </g>
            <g transform="matrix(1,0,0,1,76.5098,359.0474)">
                <path d="M0,-12.687C1.778,-12.687 3.065,-12.088 4.263,-11.047C4.421,-10.908 4.421,-10.696 4.28,-10.554L3.506,-9.761C3.383,-9.603 3.223,-9.603 3.065,-9.761C2.236,-10.484 1.108,-10.942 0.017,-10.942C-2.502,-10.942 -4.406,-8.828 -4.406,-6.362C-4.406,-3.895 -2.485,-1.797 0.034,-1.797C1.321,-1.797 2.219,-2.308 3.065,-2.96C3.223,-3.084 3.383,-3.067 3.487,-2.978L4.297,-2.185C4.44,-2.061 4.404,-1.833 4.28,-1.709C3.083,-0.548 1.567,0 0,0C-3.524,0 -6.361,-2.803 -6.361,-6.327C-6.361,-9.85 -3.524,-12.687 0,-12.687" style="fill:white;fill-rule:nonzero;"/>
            </g>
            <g transform="matrix(1,0,0,1,88.1831,355.7164)">
                <path d="M0,-1.815C-0.036,-2.801 -0.81,-3.665 -2.008,-3.665C-3.295,-3.665 -4.069,-2.836 -4.192,-1.815L0,-1.815ZM-1.973,-5.162C0.141,-5.162 1.744,-3.594 1.744,-1.427C1.744,-1.286 1.727,-1.004 1.709,-0.864C1.692,-0.651 1.516,-0.51 1.339,-0.51L-4.282,-0.51C-4.263,0.581 -3.276,1.708 -1.85,1.708C-0.916,1.708 -0.352,1.374 0.141,1.023C0.318,0.899 0.476,0.845 0.617,1.057L1.092,1.797C1.234,1.973 1.304,2.132 1.058,2.343C0.476,2.854 -0.599,3.347 -1.955,3.347C-4.422,3.347 -6.025,1.411 -6.025,-0.916C-6.025,-3.207 -4.422,-5.162 -1.973,-5.162" style="fill:white;fill-rule:nonzero;"/>
            </g>
            <g transform="matrix(1,0,0,1,91.7734,358.3072)">
                <path d="M0,-7.189C0,-7.383 0.175,-7.578 0.386,-7.578L0.81,-7.578C0.985,-7.578 1.108,-7.488 1.145,-7.331L1.392,-6.626C1.567,-6.837 2.5,-7.752 4.122,-7.752C6.605,-7.752 7.275,-6.026 7.275,-3.912L7.275,0.175C7.275,0.387 7.081,0.563 6.887,0.563L5.902,0.563C5.689,0.563 5.514,0.387 5.514,0.175L5.514,-3.983C5.514,-5.303 4.968,-6.08 3.911,-6.08C2.624,-6.08 1.884,-5.181 1.76,-4.898L1.76,0.175C1.76,0.44 1.62,0.563 1.285,0.563L0.386,0.563C0.175,0.563 0,0.387 0,0.175L0,-7.189Z" style="fill:white;fill-rule:nonzero;"/>
            </g>
            <g transform="matrix(1,0,0,1,101.8642,354.9055)">
                <path d="M0,-2.678L-0.934,-2.678C-1.164,-2.678 -1.321,-2.871 -1.321,-3.066L-1.321,-3.787C-1.321,-4.016 -1.164,-4.176 -0.934,-4.176L0,-4.176L0,-6.448C0,-6.659 0.175,-6.836 0.388,-6.836L1.392,-6.836C1.603,-6.836 1.761,-6.659 1.761,-6.448L1.761,-4.176L3.911,-4.176C4.123,-4.176 4.299,-4.016 4.299,-3.787L4.299,-3.066C4.299,-2.871 4.123,-2.678 3.911,-2.678L1.761,-2.678L1.761,1.656C1.761,2.344 2.025,2.485 2.413,2.485C2.924,2.485 3.417,2.273 3.717,2.097C3.964,1.957 4.123,2.097 4.193,2.273L4.51,3.101C4.598,3.312 4.51,3.453 4.316,3.577C3.981,3.789 3.031,4.158 2.061,4.158C0.439,4.158 0,3.172 0,1.727L0,-2.678Z" style="fill:white;fill-rule:nonzero;"/>
            </g>
            <g transform="matrix(1,0,0,1,108.0093,358.3072)">
                <path d="M0,-7.189C0,-7.383 0.175,-7.578 0.386,-7.578L0.81,-7.578C0.968,-7.578 1.128,-7.454 1.162,-7.294L1.392,-6.554C1.532,-6.766 2.377,-7.752 3.858,-7.752C4.632,-7.752 5.602,-7.541 5.338,-6.996L4.916,-6.115C4.809,-5.884 4.598,-5.832 4.421,-5.921C4.298,-5.991 3.929,-6.08 3.682,-6.08C2.483,-6.08 1.831,-5.128 1.761,-4.987L1.761,0.175C1.761,0.528 1.532,0.563 1.198,0.563L0.386,0.563C0.175,0.563 0,0.387 0,0.175L0,-7.189Z" style="fill:white;fill-rule:nonzero;"/>
            </g>
            <g transform="matrix(1,0,0,1,114.7173,358.6742)">
                <path d="M0,-7.556C0,-7.75 0.194,-7.945 0.388,-7.945L1.375,-7.945C1.585,-7.945 1.762,-7.75 1.762,-7.556L1.762,-3.223C1.762,-1.882 2.309,-1.284 3.348,-1.284C4.529,-1.284 5.18,-2.253 5.25,-2.622L5.25,-7.556C5.25,-7.891 5.41,-7.945 5.708,-7.945L6.607,-7.945C6.819,-7.945 7.013,-7.75 7.013,-7.556L7.013,-0.192C7.013,0.02 6.819,0.196 6.607,0.196L6.185,0.196C5.973,0.196 5.885,0.055 5.815,-0.138L5.604,-0.721C5.427,-0.543 4.687,0.389 3.031,0.389C0.599,0.389 0,-1.213 0,-3.344L0,-7.556Z" style="fill:white;fill-rule:nonzero;"/>
            </g>
            <g transform="matrix(1,0,0,1,124.1919,358.3072)">
                <path d="M0,-7.189C0,-7.383 0.175,-7.578 0.387,-7.578L0.793,-7.578C0.985,-7.578 1.092,-7.488 1.145,-7.331L1.374,-6.626C1.55,-6.819 2.413,-7.752 3.963,-7.752C5.144,-7.752 5.849,-7.294 6.448,-6.467C6.677,-6.695 7.646,-7.752 9.196,-7.752C11.681,-7.752 12.297,-6.026 12.297,-3.912L12.297,0.175C12.297,0.387 12.14,0.563 11.91,0.563L10.923,0.563C10.677,0.563 10.535,0.387 10.535,0.175L10.535,-3.983C10.535,-5.286 10.042,-6.08 8.932,-6.08C7.699,-6.08 7.118,-5.252 6.977,-5.128C7.012,-4.952 7.048,-4.459 7.048,-4.035L7.048,0.175C7.048,0.387 6.871,0.563 6.677,0.563L5.672,0.563C5.444,0.563 5.285,0.387 5.285,0.175L5.285,-3.983C5.285,-5.303 4.81,-6.08 3.682,-6.08C2.466,-6.08 1.849,-5.181 1.761,-4.898L1.761,0.175C1.761,0.387 1.567,0.563 1.374,0.563L0.387,0.563C0.175,0.563 0,0.387 0,0.175L0,-7.189Z" style="fill:white;fill-rule:nonzero;"/>
            </g>
            <g transform="matrix(1,0,0,1,150.9067,352.8814)">
                <path d="M0,-0.355C1.146,-0.355 2.15,-1.323 2.15,-2.54C2.15,-3.684 1.146,-4.635 0,-4.635L-3.136,-4.635L-3.136,-0.355L0,-0.355ZM-4.985,-6.01C-4.985,-6.186 -4.845,-6.344 -4.651,-6.344L0.141,-6.344C2.255,-6.344 3.982,-4.671 3.982,-2.574C3.982,-0.954 2.908,0.387 1.375,1.002L3.788,5.477C3.912,5.707 3.788,5.989 3.489,5.989L2.168,5.989C1.974,5.989 1.868,5.902 1.797,5.761L-0.51,1.161L-3.17,1.161L-3.17,5.655C-3.17,5.831 -3.33,5.989 -3.506,5.989L-4.651,5.989C-4.845,5.989 -4.985,5.831 -4.985,5.655L-4.985,-6.01Z" style="fill:white;fill-rule:nonzero;"/>
            </g>
            <g transform="matrix(1,0,0,1,160.2236,352.2276)">
                <path d="M0,5.163C1.356,5.163 2.413,4.053 2.413,2.554C2.413,1.093 1.356,0 0,0C-1.375,0 -2.432,1.093 -2.432,2.554C-2.432,4.053 -1.375,5.163 0,5.163M0,-1.673C2.273,-1.673 4.14,0.265 4.14,2.554C4.14,4.88 2.273,6.836 0,6.836C-2.292,6.836 -4.158,4.88 -4.158,2.554C-4.158,0.265 -2.292,-1.673 0,-1.673" style="fill:white;fill-rule:nonzero;"/>
            </g>
            <g transform="matrix(1,0,0,1,165.5386,351.1174)">
                <path d="M0,7.365C0,7.207 0,7.154 0.141,6.907L3.577,1.288L3.577,1.252L0.564,1.252C0.371,1.252 0.194,1.057 0.194,0.863L0.194,0.001C0.194,-0.228 0.371,-0.388 0.564,-0.388L5.814,-0.388C6.043,-0.388 6.22,-0.228 6.22,-0.034C6.22,0.036 6.202,0.106 6.167,0.177L2.607,6.096L2.607,6.15L5.41,6.15C5.638,6.15 5.796,6.307 5.796,6.537L5.796,7.365C5.796,7.577 5.638,7.753 5.41,7.753L0.388,7.753C0.177,7.753 0,7.577 0,7.365" style="fill:white;fill-rule:nonzero;"/>
            </g>
            <g transform="matrix(1,0,0,1,172.7925,358.4295)">
                <path d="M0,-7.241C-0.122,-7.488 0,-7.7 0.283,-7.7L1.34,-7.7C1.481,-7.7 1.656,-7.61 1.692,-7.453L3.031,-2.784L3.067,-2.784L5.269,-7.68C5.322,-7.787 5.446,-7.875 5.604,-7.875L5.727,-7.875C5.921,-7.875 6.044,-7.787 6.079,-7.68L8.264,-2.765L8.3,-2.765L9.603,-7.453C9.709,-7.7 10.008,-7.7 10.221,-7.7L10.96,-7.7C11.242,-7.7 11.399,-7.488 11.276,-7.241L8.951,0.423C8.916,0.547 8.758,0.634 8.582,0.634L8.511,0.634C8.334,0.634 8.211,0.547 8.158,0.441L5.674,-5.092L5.639,-5.092L3.137,0.441C3.101,0.547 2.997,0.634 2.82,0.634L2.713,0.634C2.539,0.634 2.415,0.547 2.379,0.423L0,-7.241Z" style="fill:white;fill-rule:nonzero;"/>
            </g>
            <g transform="matrix(1,0,0,1,189.4004,352.2276)">
                <path d="M0,5.163C1.356,5.163 2.414,4.053 2.414,2.554C2.414,1.093 1.356,0 0,0C-1.375,0 -2.432,1.093 -2.432,2.554C-2.432,4.053 -1.375,5.163 0,5.163M0,-1.673C2.273,-1.673 4.14,0.265 4.14,2.554C4.14,4.88 2.273,6.836 0,6.836C-2.291,6.836 -4.158,4.88 -4.158,2.554C-4.158,0.265 -2.291,-1.673 0,-1.673" style="fill:white;fill-rule:nonzero;"/>
            </g>
            <g transform="matrix(1,0,0,1,195.208,362.0937)">
                <path d="M0,-14.288C0,-14.958 0.511,-15.487 1.164,-15.487C1.833,-15.487 2.362,-14.958 2.362,-14.288C2.362,-13.636 1.833,-13.107 1.164,-13.107C0.511,-13.107 0,-13.636 0,-14.288M2.044,-2.484C2.044,-0.475 1.111,0.688 0,1.11C-0.245,1.199 -0.492,1.129 -0.616,0.9L-0.987,0.213C-1.127,-0.035 -1.021,-0.316 -0.774,-0.439C-0.245,-0.704 0.283,-1.18 0.283,-2.272L0.283,-10.975C0.283,-11.204 0.458,-11.364 0.669,-11.364L1.656,-11.364C1.85,-11.364 2.044,-11.204 2.044,-10.975L2.044,-2.484Z" style="fill:white;fill-rule:nonzero;"/>
            </g>
            <g transform="matrix(1,0,0,1,199.6279,358.6742)">
                <path d="M0,-7.556C0,-7.75 0.194,-7.945 0.388,-7.945L1.375,-7.945C1.586,-7.945 1.763,-7.75 1.763,-7.556L1.763,-3.223C1.763,-1.882 2.308,-1.284 3.349,-1.284C4.529,-1.284 5.18,-2.253 5.25,-2.622L5.25,-7.556C5.25,-7.891 5.41,-7.945 5.708,-7.945L6.608,-7.945C6.819,-7.945 7.013,-7.75 7.013,-7.556L7.013,-0.192C7.013,0.02 6.819,0.196 6.608,0.196L6.186,0.196C5.973,0.196 5.885,0.055 5.815,-0.138L5.604,-0.721C5.427,-0.543 4.687,0.389 3.031,0.389C0.599,0.389 0,-1.213 0,-3.344L0,-7.556Z" style="fill:white;fill-rule:nonzero;"/>
            </g>
            <g transform="matrix(1,0,0,1,214.9663,348.3168)">
                <path d="M0,8.774L0.458,8.051C0.599,7.822 0.864,7.753 1.057,7.911C1.885,8.598 2.52,9.126 3.877,9.126C5.092,9.126 5.868,8.385 5.868,7.488C5.868,6.43 4.952,5.762 3.206,5.039C1.409,4.281 0,3.347 0,1.303C0,-0.071 1.057,-1.956 3.858,-1.956C5.621,-1.956 6.942,-1.04 7.118,-0.916C7.26,-0.829 7.4,-0.581 7.224,-0.317L6.783,0.351C6.642,0.582 6.414,0.687 6.167,0.529C5.48,0.087 4.811,-0.353 3.788,-0.353C2.309,-0.353 1.797,0.582 1.797,1.233C1.797,2.238 2.572,2.854 4.035,3.454C6.079,4.281 7.823,5.251 7.823,7.399C7.823,9.231 6.184,10.73 3.895,10.73C1.744,10.73 0.388,9.602 0.106,9.337C-0.053,9.197 -0.194,9.074 0,8.774" style="fill:white;fill-rule:nonzero;"/>
            </g>
            <g transform="matrix(1,0,0,1,228.2461,356.2266)">
                <path d="M0,1.164C1.32,1.164 2.377,0.036 2.377,-1.426C2.377,-2.871 1.462,-3.999 0.07,-3.999C-1.11,-3.999 -1.816,-3.101 -1.886,-2.854L-1.886,0.565C-1.886,0.565 -1.093,1.164 0,1.164M-1.85,6.448C-1.85,6.679 -2.009,6.836 -2.273,6.836L-3.261,6.836C-3.472,6.836 -3.647,6.661 -3.647,6.448L-3.647,-5.108C-3.647,-5.303 -3.472,-5.497 -3.261,-5.497L-2.82,-5.497C-2.643,-5.497 -2.538,-5.426 -2.468,-5.232L-2.255,-4.704C-2.114,-4.845 -1.198,-5.672 0.299,-5.672C2.537,-5.672 4.14,-3.751 4.14,-1.426C4.14,0.952 2.45,2.837 0.229,2.837C-0.829,2.837 -1.709,2.362 -1.85,2.272L-1.85,6.448Z" style="fill:white;fill-rule:nonzero;"/>
            </g>
            <g transform="matrix(1,0,0,1,238.0014,352.2276)">
                <path d="M0,5.163C1.355,5.163 2.413,4.053 2.413,2.554C2.413,1.093 1.355,0 0,0C-1.375,0 -2.433,1.093 -2.433,2.554C-2.433,4.053 -1.375,5.163 0,5.163M0,-1.673C2.272,-1.673 4.14,0.265 4.14,2.554C4.14,4.88 2.272,6.836 0,6.836C-2.292,6.836 -4.159,4.88 -4.159,2.554C-4.159,0.265 -2.292,-1.673 0,-1.673" style="fill:white;fill-rule:nonzero;"/>
            </g>
            <g transform="matrix(1,0,0,1,244.3369,352.0873)">
                <path d="M0,1.233L-0.034,1.251L-0.704,1.638C-0.844,1.727 -1.057,1.673 -1.145,1.515L-1.232,1.356C-1.321,1.215 -1.285,1.004 -1.127,0.897L-0.034,0.264L0,0.246L0,-5.163C0,-5.357 0.177,-5.55 0.388,-5.55L1.375,-5.55C1.569,-5.55 1.763,-5.357 1.763,-5.163L1.763,-0.776L1.816,-0.811L3.067,-1.533C3.242,-1.621 3.436,-1.551 3.524,-1.411L3.613,-1.234C3.701,-1.093 3.647,-0.899 3.489,-0.793L1.816,0.175L1.763,0.212L1.763,6.395C1.763,6.607 1.569,6.783 1.375,6.783L0.388,6.783C0.177,6.783 0,6.607 0,6.395L0,1.233Z" style="fill:white;fill-rule:nonzero;"/>
            </g>
            <g transform="matrix(1,0,0,1,254.6064,355.7164)">
                <path d="M0,-1.815C-0.037,-2.801 -0.811,-3.665 -2.008,-3.665C-3.295,-3.665 -4.07,-2.836 -4.193,-1.815L0,-1.815ZM-1.974,-5.162C0.141,-5.162 1.743,-3.594 1.743,-1.427C1.743,-1.286 1.726,-1.004 1.709,-0.864C1.691,-0.651 1.516,-0.51 1.338,-0.51L-4.282,-0.51C-4.263,0.581 -3.277,1.708 -1.85,1.708C-0.917,1.708 -0.353,1.374 0.141,1.023C0.316,0.899 0.475,0.845 0.615,1.057L1.091,1.797C1.233,1.973 1.304,2.132 1.057,2.343C0.475,2.854 -0.6,3.347 -1.955,3.347C-4.423,3.347 -6.026,1.411 -6.026,-0.916C-6.026,-3.207 -4.423,-5.162 -1.974,-5.162" style="fill:white;fill-rule:nonzero;"/>
            </g>
            <g transform="matrix(1,0,0,1,261.8593,359.0637)">
                <path d="M0,-8.509C1.268,-8.509 2.201,-8.033 2.959,-7.1C3.118,-6.905 3.065,-6.678 2.888,-6.518L2.255,-5.938C2.025,-5.726 1.867,-5.885 1.727,-6.026C1.355,-6.431 0.703,-6.836 0.053,-6.836C-1.339,-6.836 -2.415,-5.708 -2.415,-4.263C-2.415,-2.801 -1.357,-1.673 0,-1.673C1.056,-1.673 1.479,-2.272 1.921,-2.677C2.095,-2.854 2.289,-2.854 2.466,-2.713L3.012,-2.272C3.206,-2.097 3.293,-1.903 3.152,-1.692C2.482,-0.686 1.391,0 -0.018,0C-2.291,0 -4.176,-1.796 -4.176,-4.245C-4.176,-6.641 -2.256,-8.509 0,-8.509" style="fill:white;fill-rule:nonzero;"/>
            </g>
            <g transform="matrix(1,0,0,1,266.2226,351.1174)">
                <path d="M0,7.365C0,7.207 0,7.154 0.14,6.907L3.575,1.288L3.575,1.252L0.563,1.252C0.369,1.252 0.193,1.057 0.193,0.863L0.193,0.001C0.193,-0.228 0.369,-0.388 0.563,-0.388L5.814,-0.388C6.042,-0.388 6.22,-0.228 6.22,-0.034C6.22,0.036 6.201,0.106 6.166,0.177L2.606,6.096L2.606,6.15L5.409,6.15C5.637,6.15 5.795,6.307 5.795,6.537L5.795,7.365C5.795,7.577 5.637,7.753 5.409,7.753L0.387,7.753C0.176,7.753 0,7.577 0,7.365" style="fill:white;fill-rule:nonzero;"/>
            </g>
            <g transform="matrix(1,0,0,1,279.5371,355.7164)">
                <path d="M0,-1.815C-0.035,-2.801 -0.81,-3.665 -2.008,-3.665C-3.294,-3.665 -4.069,-2.836 -4.192,-1.815L0,-1.815ZM-1.974,-5.162C0.142,-5.162 1.744,-3.594 1.744,-1.427C1.744,-1.286 1.728,-1.004 1.71,-0.864C1.692,-0.651 1.516,-0.51 1.339,-0.51L-4.282,-0.51C-4.263,0.581 -3.276,1.708 -1.85,1.708C-0.916,1.708 -0.352,1.374 0.142,1.023C0.318,0.899 0.476,0.845 0.617,1.057L1.092,1.797C1.234,1.973 1.305,2.132 1.058,2.343C0.476,2.854 -0.599,3.347 -1.954,3.347C-4.423,3.347 -6.025,1.411 -6.025,-0.916C-6.025,-3.207 -4.423,-5.162 -1.974,-5.162" style="fill:white;fill-rule:nonzero;"/>
            </g>
            <g transform="matrix(1,0,0,1,285.3291,356.3144)">
                <path d="M0,-7.081L-0.247,-7.593C-0.316,-7.733 -0.247,-7.874 -0.141,-7.928L2.625,-9.53C2.731,-9.602 2.995,-9.637 3.083,-9.477L3.488,-8.703C3.577,-8.526 3.523,-8.351 3.383,-8.279L0.423,-7.011C0.176,-6.888 0.07,-6.94 0,-7.081M-2.202,-5.196C-2.202,-5.391 -2.026,-5.585 -1.815,-5.585L-1.392,-5.585C-1.217,-5.585 -1.093,-5.495 -1.058,-5.338L-0.811,-4.633C-0.635,-4.845 0.299,-5.76 1.921,-5.76C4.404,-5.76 5.073,-4.033 5.073,-1.919L5.073,2.168C5.073,2.38 4.88,2.556 4.687,2.556L3.701,2.556C3.488,2.556 3.313,2.38 3.313,2.168L3.313,-1.99C3.313,-3.31 2.767,-4.087 1.709,-4.087C0.423,-4.087 -0.316,-3.188 -0.44,-2.905L-0.44,2.168C-0.44,2.433 -0.581,2.556 -0.916,2.556L-1.815,2.556C-2.026,2.556 -2.202,2.38 -2.202,2.168L-2.202,-5.196Z" style="fill:white;fill-rule:nonzero;"/>
            </g>
            <g transform="matrix(1,0,0,1,292.4424,351.3824)">
                <path d="M0,6.853C-0.123,6.765 -0.229,6.608 -0.142,6.43L0.229,5.673C0.316,5.498 0.546,5.444 0.757,5.567C1.233,5.832 1.814,6.166 2.784,6.166C3.471,6.166 3.858,5.832 3.858,5.374C3.858,4.828 3.241,4.475 2.113,3.964C0.863,3.399 -0.089,2.731 -0.089,1.392C-0.089,0.371 0.634,-0.828 2.607,-0.828C3.735,-0.828 4.581,-0.493 4.986,-0.229C5.18,-0.088 5.268,0.159 5.161,0.371L4.88,0.934C4.756,1.181 4.511,1.164 4.351,1.093C3.788,0.845 3.241,0.687 2.607,0.687C1.901,0.687 1.567,1.041 1.567,1.409C1.567,1.938 2.148,2.254 2.959,2.607C4.457,3.242 5.585,3.788 5.585,5.303C5.585,6.571 4.492,7.681 2.678,7.681C1.392,7.681 0.457,7.17 0,6.853" style="fill:white;fill-rule:nonzero;"/>
            </g>
            <g transform="matrix(1,0,0,1,300.4365,354.9055)">
                <path d="M0,-2.678L-0.934,-2.678C-1.163,-2.678 -1.321,-2.871 -1.321,-3.066L-1.321,-3.787C-1.321,-4.016 -1.163,-4.176 -0.934,-4.176L0,-4.176L0,-6.448C0,-6.659 0.175,-6.836 0.388,-6.836L1.392,-6.836C1.604,-6.836 1.761,-6.659 1.761,-6.448L1.761,-4.176L3.911,-4.176C4.122,-4.176 4.299,-4.016 4.299,-3.787L4.299,-3.066C4.299,-2.871 4.122,-2.678 3.911,-2.678L1.761,-2.678L1.761,1.656C1.761,2.344 2.025,2.485 2.413,2.485C2.924,2.485 3.417,2.273 3.717,2.097C3.965,1.957 4.122,2.097 4.192,2.273L4.511,3.101C4.598,3.312 4.511,3.453 4.316,3.577C3.981,3.789 3.03,4.158 2.061,4.158C0.439,4.158 0,3.172 0,1.727L0,-2.678Z" style="fill:white;fill-rule:nonzero;"/>
            </g>
            <g transform="matrix(1,0,0,1,305.9101,358.4295)">
                <path d="M0,-7.241C-0.121,-7.488 0,-7.7 0.284,-7.7L1.341,-7.7C1.481,-7.7 1.656,-7.61 1.692,-7.453L3.031,-2.784L3.067,-2.784L5.27,-7.68C5.322,-7.787 5.446,-7.875 5.604,-7.875L5.728,-7.875C5.921,-7.875 6.045,-7.787 6.079,-7.68L8.265,-2.765L8.301,-2.765L9.604,-7.453C9.71,-7.7 10.009,-7.7 10.221,-7.7L10.961,-7.7C11.242,-7.7 11.4,-7.488 11.276,-7.241L8.951,0.423C8.917,0.547 8.759,0.634 8.581,0.634L8.512,0.634C8.335,0.634 8.212,0.547 8.158,0.441L5.674,-5.092L5.64,-5.092L3.138,0.441C3.102,0.547 2.997,0.634 2.82,0.634L2.714,0.634C2.539,0.634 2.415,0.547 2.38,0.423L0,-7.241Z" style="fill:white;fill-rule:nonzero;"/>
            </g>
            <g transform="matrix(1,0,0,1,324.4384,356.1918)">
                <path d="M0,-2.765C-0.071,-3.013 -0.774,-3.964 -1.956,-3.964C-3.348,-3.964 -4.299,-2.748 -4.299,-1.373C-4.299,0.001 -3.33,1.199 -2.026,1.199C-0.774,1.199 -0.089,0.283 0,0.052L0,-2.765ZM1.762,2.291C1.762,2.503 1.585,2.678 1.374,2.678L0.863,2.678C0.67,2.678 0.547,2.538 0.494,2.327L0.316,1.727C0.316,1.727 -0.652,2.872 -2.272,2.872C-4.422,2.872 -6.062,0.935 -6.062,-1.391C-6.062,-3.716 -4.422,-5.637 -2.184,-5.637C-0.67,-5.637 0.158,-4.81 0.299,-4.669L0.511,-5.179C0.563,-5.338 0.704,-5.462 0.899,-5.462L1.374,-5.462C1.585,-5.462 1.762,-5.268 1.762,-5.074L1.762,2.291Z" style="fill:white;fill-rule:nonzero;"/>
            </g>
            <g transform="matrix(1,0,0,1,340.9384,348.0689)">
                <path d="M0,9.269C2.52,9.269 4.581,7.171 4.581,4.652C4.581,2.151 2.52,0 0,0C-2.503,0 -4.563,2.151 -4.563,4.652C-4.563,7.171 -2.503,9.269 0,9.269M0,-1.709C3.523,-1.709 6.344,1.128 6.344,4.652C6.344,8.175 3.523,10.978 0,10.978C-3.524,10.978 -6.325,8.175 -6.325,4.652C-6.325,1.128 -3.524,-1.709 0,-1.709" style="fill:white;fill-rule:nonzero;"/>
            </g>
            <g transform="matrix(1,0,0,1,352.9463,348.2096)">
                <path d="M0,9.181C1.322,9.181 2.292,7.964 2.292,6.591C2.292,5.2 1.199,4.018 -0.141,4.018C-1.197,4.018 -2.008,4.458 -2.008,4.458L-2.008,8C-1.901,8.228 -1.231,9.181 0,9.181M-3.77,-1.285C-3.77,-1.479 -3.594,-1.673 -3.382,-1.673L-2.377,-1.673C-2.185,-1.673 -1.99,-1.479 -1.99,-1.285L-1.99,2.767C-1.814,2.714 -0.985,2.345 0.054,2.345C2.309,2.345 4.055,4.213 4.055,6.591C4.055,8.917 2.398,10.854 0.265,10.854C-1.355,10.854 -2.413,9.709 -2.413,9.709L-2.589,10.309C-2.642,10.52 -2.764,10.66 -2.959,10.66L-3.382,10.66C-3.594,10.66 -3.77,10.485 -3.77,10.273L-3.77,-1.285Z" style="fill:white;fill-rule:nonzero;"/>
            </g>
            <g transform="matrix(1,0,0,1,357.9453,362.5338)">
                <path d="M0,-11.275C-0.104,-11.557 0.036,-11.804 0.352,-11.804L1.516,-11.804C1.64,-11.804 1.814,-11.714 1.867,-11.574L3.754,-5.99L3.788,-5.99L6.079,-11.574C6.149,-11.767 6.308,-11.804 6.502,-11.804L7.595,-11.804C7.929,-11.804 8.07,-11.557 7.946,-11.275L2.978,0.284C2.907,0.406 2.802,0.529 2.644,0.529L1.516,0.529C1.216,0.529 1.023,0.265 1.164,-0.017L2.802,-3.945L0,-11.275Z" style="fill:white;fill-rule:nonzero;"/>
            </g>
            <g transform="matrix(1,0,0,1,366.8564,358.4295)">
                <path d="M0,-7.241C-0.123,-7.488 0,-7.7 0.282,-7.7L1.34,-7.7C1.48,-7.7 1.656,-7.61 1.691,-7.453L3.03,-2.784L3.065,-2.784L5.269,-7.68C5.322,-7.787 5.445,-7.875 5.604,-7.875L5.726,-7.875C5.921,-7.875 6.044,-7.787 6.078,-7.68L8.264,-2.765L8.299,-2.765L9.602,-7.453C9.708,-7.7 10.007,-7.7 10.22,-7.7L10.959,-7.7C11.24,-7.7 11.398,-7.488 11.275,-7.241L8.949,0.423C8.915,0.547 8.757,0.634 8.581,0.634L8.511,0.634C8.333,0.634 8.21,0.547 8.157,0.441L5.673,-5.092L5.639,-5.092L3.137,0.441C3.101,0.547 2.996,0.634 2.818,0.634L2.713,0.634C2.537,0.634 2.414,0.547 2.378,0.423L0,-7.241Z" style="fill:white;fill-rule:nonzero;"/>
            </g>
            <g transform="matrix(1,0,0,1,385.3847,356.1918)">
                <path d="M0,-2.765C-0.072,-3.013 -0.776,-3.964 -1.957,-3.964C-3.349,-3.964 -4.299,-2.748 -4.299,-1.373C-4.299,0.001 -3.332,1.199 -2.027,1.199C-0.776,1.199 -0.089,0.283 0,0.052L0,-2.765ZM1.761,2.291C1.761,2.503 1.584,2.678 1.373,2.678L0.863,2.678C0.669,2.678 0.546,2.538 0.492,2.327L0.315,1.727C0.315,1.727 -0.652,2.872 -2.274,2.872C-4.423,2.872 -6.062,0.935 -6.062,-1.391C-6.062,-3.716 -4.423,-5.637 -2.186,-5.637C-0.671,-5.637 0.158,-4.81 0.299,-4.669L0.51,-5.179C0.563,-5.338 0.704,-5.462 0.897,-5.462L1.373,-5.462C1.584,-5.462 1.761,-5.268 1.761,-5.074L1.761,2.291Z" style="fill:white;fill-rule:nonzero;"/>
            </g>
            <g transform="matrix(1,0,0,1,390.1533,354.9055)">
                <path d="M0,-2.678L-0.934,-2.678C-1.163,-2.678 -1.321,-2.871 -1.321,-3.066L-1.321,-3.787C-1.321,-4.016 -1.163,-4.176 -0.934,-4.176L0,-4.176L0,-6.448C0,-6.659 0.176,-6.836 0.388,-6.836L1.393,-6.836C1.604,-6.836 1.761,-6.659 1.761,-6.448L1.761,-4.176L3.912,-4.176C4.122,-4.176 4.3,-4.016 4.3,-3.787L4.3,-3.066C4.3,-2.871 4.122,-2.678 3.912,-2.678L1.761,-2.678L1.761,1.656C1.761,2.344 2.025,2.485 2.413,2.485C2.925,2.485 3.417,2.273 3.718,2.097C3.964,1.957 4.122,2.097 4.193,2.273L4.511,3.101C4.599,3.312 4.511,3.453 4.316,3.577C3.981,3.789 3.031,4.158 2.061,4.158C0.44,4.158 0,3.172 0,1.727L0,-2.678Z" style="fill:white;fill-rule:nonzero;"/>
            </g>
            <g transform="matrix(1,0,0,1,401.831,355.7164)">
                <path d="M0,-1.815C-0.037,-2.801 -0.811,-3.665 -2.01,-3.665C-3.296,-3.665 -4.069,-2.836 -4.193,-1.815L0,-1.815ZM-1.975,-5.162C0.141,-5.162 1.743,-3.594 1.743,-1.427C1.743,-1.286 1.726,-1.004 1.708,-0.864C1.691,-0.651 1.515,-0.51 1.338,-0.51L-4.282,-0.51C-4.264,0.581 -3.277,1.708 -1.852,1.708C-0.917,1.708 -0.354,1.374 0.141,1.023C0.316,0.899 0.475,0.845 0.615,1.057L1.091,1.797C1.233,1.973 1.303,2.132 1.056,2.343C0.475,2.854 -0.601,3.347 -1.955,3.347C-4.423,3.347 -6.026,1.411 -6.026,-0.916C-6.026,-3.207 -4.423,-5.162 -1.975,-5.162" style="fill:white;fill-rule:nonzero;"/>
            </g>
            <g transform="matrix(1,0,0,1,405.4716,358.4818)">
                <path d="M0,-11.557C0,-11.751 0.177,-11.945 0.388,-11.945L1.374,-11.945C1.568,-11.945 1.762,-11.751 1.762,-11.557L1.762,0.001C1.762,0.213 1.568,0.388 1.374,0.388L0.388,0.388C0.177,0.388 0,0.213 0,0.001L0,-11.557Z" style="fill:white;fill-rule:nonzero;"/>
            </g>
            <g transform="matrix(1,0,0,1,409.4179,351.3824)">
                <path d="M0,6.853C-0.124,6.765 -0.23,6.608 -0.143,6.43L0.228,5.673C0.316,5.498 0.546,5.444 0.757,5.567C1.231,5.832 1.814,6.166 2.783,6.166C3.471,6.166 3.857,5.832 3.857,5.374C3.857,4.828 3.24,4.475 2.113,3.964C0.863,3.399 -0.089,2.731 -0.089,1.392C-0.089,0.371 0.633,-0.828 2.606,-0.828C3.734,-0.828 4.581,-0.493 4.985,-0.229C5.18,-0.088 5.267,0.159 5.161,0.371L4.88,0.934C4.756,1.181 4.51,1.164 4.351,1.093C3.787,0.845 3.24,0.687 2.606,0.687C1.901,0.687 1.567,1.041 1.567,1.409C1.567,1.938 2.148,2.254 2.959,2.607C4.457,3.242 5.585,3.788 5.585,5.303C5.585,6.571 4.491,7.681 2.677,7.681C1.392,7.681 0.457,7.17 0,6.853" style="fill:white;fill-rule:nonzero;"/>
            </g>
            <g transform="matrix(1,0,0,1,416.8652,358.4818)">
                <path d="M0,-11.557C0,-11.751 0.176,-11.945 0.386,-11.945L1.374,-11.945C1.567,-11.945 1.762,-11.751 1.762,-11.557L1.762,-4.667L4.897,-7.505C5.04,-7.628 5.196,-7.752 5.408,-7.752L6.695,-7.752C7.048,-7.752 7.101,-7.364 6.907,-7.188L3.611,-4.086L7.064,-0.14C7.224,0.054 7.188,0.388 6.836,0.388L5.392,0.388C5.232,0.388 5.091,0.318 5.021,0.23L1.762,-3.559L1.762,0.001C1.762,0.213 1.567,0.388 1.374,0.388L0.386,0.388C0.176,0.388 0,0.213 0,0.001L0,-11.557Z" style="fill:white;fill-rule:nonzero;"/>
            </g>
            <g transform="matrix(1,0,0,1,425.6172,354.3582)">
                <path d="M0,-3.24C0,-3.434 0.176,-3.629 0.387,-3.629L1.374,-3.629C1.567,-3.629 1.762,-3.434 1.762,-3.24L1.762,4.124C1.762,4.336 1.567,4.512 1.374,4.512L0.387,4.512C0.176,4.512 0,4.336 0,4.124L0,-3.24ZM-0.282,-6.553C-0.282,-7.222 0.229,-7.752 0.881,-7.752C1.551,-7.752 2.079,-7.222 2.079,-6.553C2.079,-5.9 1.551,-5.372 0.881,-5.372C0.229,-5.372 -0.282,-5.9 -0.282,-6.553" style="fill:white;fill-rule:nonzero;"/>
            </g>
            <g transform="matrix(1,0,0,1,435.3759,355.7164)">
                <path d="M0,-1.815C-0.037,-2.801 -0.811,-3.665 -2.009,-3.665C-3.296,-3.665 -4.07,-2.836 -4.194,-1.815L0,-1.815ZM-1.975,-5.162C0.141,-5.162 1.743,-3.594 1.743,-1.427C1.743,-1.286 1.726,-1.004 1.709,-0.864C1.69,-0.651 1.516,-0.51 1.338,-0.51L-4.283,-0.51C-4.264,0.581 -3.277,1.708 -1.851,1.708C-0.917,1.708 -0.353,1.374 0.141,1.023C0.316,0.899 0.475,0.845 0.615,1.057L1.091,1.797C1.233,1.973 1.304,2.132 1.057,2.343C0.475,2.854 -0.6,3.347 -1.955,3.347C-4.423,3.347 -6.026,1.411 -6.026,-0.916C-6.026,-3.207 -4.423,-5.162 -1.975,-5.162" style="fill:white;fill-rule:nonzero;"/>
            </g>
            <g transform="matrix(1,0,0,1,442.6123,355.8926)">
                <path d="M0,1.498C1.074,1.498 1.885,0.847 1.885,0.847L1.885,-2.52C1.727,-2.818 1.021,-3.665 -0.07,-3.665C-1.463,-3.665 -2.379,-2.466 -2.379,-1.092C-2.379,0.3 -1.321,1.498 0,1.498M3.647,3.031C3.647,5.567 2.008,6.836 -0.123,6.836C-1.48,6.836 -2.59,6.166 -2.943,5.815C-3.084,5.726 -3.102,5.479 -3.03,5.356L-2.609,4.581C-2.503,4.369 -2.273,4.3 -2.062,4.458C-1.779,4.686 -1.094,5.215 -0.16,5.215C0.915,5.215 1.867,4.686 1.867,3.031L1.867,2.59C1.727,2.678 0.844,3.171 -0.213,3.171C-2.432,3.171 -4.142,1.286 -4.142,-1.092C-4.142,-3.417 -2.538,-5.338 -0.301,-5.338C1.215,-5.338 2.132,-4.511 2.272,-4.37L2.483,-4.88C2.537,-5.039 2.59,-5.163 2.784,-5.163L3.259,-5.163C3.471,-5.163 3.647,-4.969 3.647,-4.774L3.647,3.031Z" style="fill:white;fill-rule:nonzero;"/>
            </g>
            <g transform="matrix(1,0,0,1,452.3662,352.2276)">
                <path d="M0,5.163C1.356,5.163 2.414,4.053 2.414,2.554C2.414,1.093 1.356,0 0,0C-1.374,0 -2.431,1.093 -2.431,2.554C-2.431,4.053 -1.374,5.163 0,5.163M0,-1.673C2.273,-1.673 4.141,0.265 4.141,2.554C4.141,4.88 2.273,6.836 0,6.836C-2.29,6.836 -4.158,4.88 -4.158,2.554C-4.158,0.265 -2.29,-1.673 0,-1.673" style="fill:white;fill-rule:nonzero;"/>
            </g>
            <g transform="matrix(1,0,0,1,418.3916,270.1573)">
                <path d="M0,-190.481C-0.063,-194.307 -2.237,-196.985 -8.878,-196.879C-13.165,-196.81 -17.327,-196.459 -21.514,-196.104C-25.129,-195.802 -51.667,-194.895 -56.025,-194.705C-72.078,-194.007 -97.617,-191.54 -123.046,-188.386C-147.256,-185.386 -171.452,-181.752 -187.396,-178.417C-187.396,-178.417 -211.728,-173.352 -213.494,-173.014C-227.319,-170.35 -231.108,-165.439 -235.032,-160.217C-238.354,-155.796 -260.559,-121.189 -295.368,-15.231C-297.597,-8.442 -302.141,-1.735 -299.216,1.171C-293.853,6.504 -287.296,2.801 -286.558,-4.13C-286.558,-4.13 -284.402,-13.82 -283.821,-15.789C-281.263,-24.437 -255.951,-98.442 -235.856,-136.802C-234.223,-139.92 -232.776,-140.119 -233.581,-137.63C-235.856,-130.599 -232.961,-131.012 -233.996,-128.117C-235.236,-123.981 -230.894,-122.45 -229.446,-122.948C-183.944,-138.261 -135.883,-145.904 -88.415,-150.45C-78.688,-151.379 -38.772,-155.017 -36.901,-151.877C-36.18,-151.149 -36.258,-150.042 -36.258,-150.042C-36.439,-147.586 -36.686,-146.521 -38.188,-145.524C-38.404,-145.38 -38.543,-145.142 -38.528,-144.878C-38.425,-142.871 -36.461,-135.647 -38.579,-129.261C-39.405,-126.772 -44.001,-117.942 -45.656,-115.46C-47.309,-112.978 -55.828,-112.731 -61.271,-112.466C-62.433,-112.409 -76.611,-111.198 -83.154,-110.565C-83.154,-110.565 -111.011,-107.431 -122.638,-105.851C-126.214,-105.365 -147.193,-102.459 -154.389,-101.191C-158.2,-100.517 -186.365,-95.957 -196.724,-94.145C-207.36,-92.286 -218.03,-90.285 -228.279,-88.12C-230.64,-87.624 -247.834,-83.738 -250.067,-82.752C-253.959,-81.03 -256.933,-78.397 -255.283,-74.279C-254.795,-73.029 -253.502,-72.358 -252.427,-72.069C-250.501,-71.585 -243.536,-73.316 -237.799,-74.753C-229.279,-76.886 -183.947,-86.595 -157.899,-90.898C-131.875,-95.196 -106.129,-98.852 -86.032,-100.763L-47.582,-104.882C-43.006,-105.375 -34.453,-105.887 -33.147,-108.668C-32.078,-110.947 -30.442,-117.225 -30.1,-118.356C-28.493,-123.67 -12.113,-160.921 -9.881,-166.952C-7.503,-173.377 0.047,-187.564 0,-190.481M-249.149,-7.928C-249.252,-6.82 -249.279,-5.831 -249.219,-4.969C-249.161,-4.098 -248.978,-3.368 -248.644,-2.764C-248.322,-2.161 -247.851,-1.683 -247.228,-1.316C-246.604,-0.965 -245.771,-0.731 -244.706,-0.63C-244.137,-0.577 -243.594,-0.731 -243.024,-0.946C-242.454,-1.163 -241.292,-1.927 -240.262,-3.248C-239.457,-4.281 -238.762,-6.546 -238.568,-7.282C-238.386,-8.021 -238.202,-8.8 -238.025,-9.621C-237.848,-10.459 -236.779,-15.856 -236.282,-18.186C-235.768,-20.515 -235.218,-22.954 -234.6,-25.495C-233.997,-28.025 -233.351,-30.595 -232.672,-33.202C-232.062,-35.532 -231.149,-38.767 -230.433,-41.116C-230.416,-41.111 -230.412,-41.107 -230.386,-41.102L-229.935,-40.349C-226.87,-34.438 -223.829,-29.101 -220.846,-24.322C-217.846,-19.544 -214.876,-15.045 -211.961,-10.825C-210.889,-9.334 -210.037,-7.943 -209.405,-6.673C-208.772,-5.4 -208.159,-4.311 -207.574,-3.377C-206.986,-2.453 -206.354,-1.724 -205.657,-1.206C-204.961,-0.682 -204.035,-0.405 -202.868,-0.374C-202.295,-0.356 -200.195,-0.243 -198.74,-1.011C-198.081,-1.359 -197.501,-1.907 -197.023,-2.675C-196.554,-3.428 -196.302,-4.521 -196.26,-5.94C-196.242,-6.664 -196.139,-8.667 -196.118,-9.059C-196.104,-9.327 -195.907,-10.668 -195.869,-11.028C-195.508,-13.388 -195.074,-16.008 -194.575,-18.892C-194.061,-21.773 -193.456,-24.89 -192.751,-28.27C-192.043,-31.634 -191.23,-35.233 -190.287,-39.063C-189.357,-42.912 -186.604,-52.611 -186.399,-53.441C-186.178,-54.285 -185.218,-58.583 -185.158,-59.453C-185.104,-60.242 -185.157,-61.053 -185.202,-61.877C-185.249,-62.715 -185.395,-63.485 -185.665,-64.205C-185.924,-64.919 -186.337,-65.503 -186.884,-65.964C-187.427,-66.422 -188.191,-66.606 -189.159,-66.71C-189.44,-66.742 -190.653,-66.765 -191.563,-66.527C-191.926,-66.433 -193.324,-65.948 -194.11,-65.01C-194.645,-64.371 -195.336,-63.124 -195.502,-62.641C-195.667,-62.158 -196.055,-60.833 -196.055,-59.717C-196.055,-58.032 -196.206,-56.491 -196.343,-55.074C-196.492,-53.655 -196.684,-52.225 -196.935,-50.758C-197.185,-49.304 -198.604,-42.434 -199.043,-40.217C-199.173,-39.647 -200.826,-31.354 -201.164,-29.759C-201.484,-28.18 -203.988,-17.252 -204.33,-15.985C-204.389,-15.76 -204.684,-15.703 -204.826,-15.89C-206.21,-17.725 -207.584,-19.69 -208.979,-21.759C-210.478,-24.003 -211.93,-26.274 -213.329,-28.568C-214.74,-30.879 -216.067,-33.16 -217.328,-35.423C-218.575,-37.688 -219.697,-39.821 -220.701,-41.844C-221.687,-43.861 -222.526,-45.694 -223.205,-47.359C-223.898,-49.022 -224.374,-50.414 -224.646,-51.538C-224.934,-52.743 -225.604,-55.719 -226.518,-57.328C-226.928,-58.046 -228.04,-59.66 -230.533,-59.629C-231.788,-59.613 -234.261,-59.365 -235.388,-57.495C-235.786,-56.834 -236.133,-56.207 -236.305,-55.528C-236.456,-54.93 -244.627,-23.958 -244.627,-23.958C-244.912,-23.174 -247.084,-15.749 -247.381,-14.839C-247.69,-13.918 -247.972,-13.02 -248.223,-12.148C-248.459,-11.265 -248.673,-10.459 -248.825,-9.718C-248.993,-8.992 -249.106,-8.386 -249.149,-7.928M-171.198,-10.154C-171.321,-7.987 -171.289,-5.409 -171.055,-4.398C-170.833,-3.401 -170.419,-2.509 -169.815,-1.732C-169.209,-0.962 -168.322,-0.521 -167.12,-0.4C-165.291,-0.4 -163.776,-1.28 -163.077,-1.773C-162.229,-2.341 -161.601,-2.948 -161.198,-3.589C-160.784,-4.233 -160.522,-4.892 -160.5,-5.571C-160.475,-6.334 -160.73,-7.101 -160.831,-7.474C-161.383,-9.552 -161.033,-10.353 -160.893,-11.235C-160.753,-12.136 -157.298,-30.479 -156.56,-34.298C-155.823,-38.099 -155.081,-41.672 -154.348,-44.974C-154.261,-45.421 -154.049,-46.066 -153.729,-46.917C-153.402,-47.782 -151.792,-51.473 -151.736,-51.627C-151.27,-52.902 -147.673,-60.499 -149.434,-63.271C-151.09,-65.878 -155.512,-65.747 -156.962,-64.902C-157.456,-64.615 -157.907,-64.222 -158.308,-63.745C-158.709,-63.27 -159.087,-62.769 -159.364,-62.196C-159.704,-61.497 -159.902,-60.758 -159.902,-60.758C-160.164,-59.784 -161.131,-56.034 -161.25,-55.513C-161.347,-55.098 -163.953,-44.616 -164.326,-43.148C-164.684,-41.693 -165.032,-40.3 -165.364,-38.981C-165.68,-37.661 -166.662,-33.731 -166.766,-33.27C-167.455,-30.316 -168.095,-27.505 -168.693,-24.858C-169.289,-22.229 -169.786,-19.91 -170.158,-17.94C-170.377,-16.714 -171.118,-11.575 -171.198,-10.154M-133.577,-62.976C-133.827,-62.459 -134.014,-61.706 -134.028,-61.226C-134.046,-60.567 -133.969,-59.707 -133.802,-58.65C-133.65,-57.597 -133.378,-56.306 -133.016,-54.778L-133.015,-54.822C-132.69,-53.398 -132.43,-52.225 -132.204,-51.298C-131.988,-50.389 -131.854,-49.803 -131.805,-49.539C-129.858,-37.975 -127.948,-28.208 -126.061,-20.235C-125.484,-17.739 -124.938,-15.332 -124.442,-13.014C-123.948,-10.695 -123.366,-8.62 -122.674,-6.809C-121.985,-4.995 -121.129,-3.545 -120.118,-2.432C-119.104,-1.339 -117.377,-0.773 -115.762,-0.725C-114.524,-0.688 -112.876,-2.332 -110.863,-5.654L-110.866,-5.612C-108.987,-8.605 -106.958,-12.131 -104.787,-16.207C-104.009,-17.632 -103.173,-19.238 -102.261,-21.005C-101.364,-22.774 -100.455,-24.553 -99.555,-26.362C-98.643,-28.174 -97.786,-29.941 -96.961,-31.667C-96.243,-33.169 -95.612,-34.528 -95.06,-35.747C-94.969,-35.945 -94.688,-35.928 -94.614,-35.724L-85.967,-11.587C-85.567,-10.44 -85.092,-9.39 -84.547,-8.424C-84.002,-7.474 -83.399,-6.641 -82.765,-5.936C-82.11,-5.246 -81.418,-4.688 -80.675,-4.284C-79.933,-3.871 -79.159,-3.657 -78.353,-3.635C-77.963,-3.623 -77.529,-3.685 -77.009,-3.828C-76.505,-3.974 -76.025,-4.165 -75.559,-4.413C-75.078,-4.645 -74.667,-4.925 -74.311,-5.221C-73.94,-5.532 -73.713,-5.822 -73.593,-6.104C-73.451,-6.437 -73.07,-7.087 -72.703,-8.106L-52.452,-63.717C-52.098,-64.696 -52.261,-65.637 -52.242,-66.351C-52.213,-67.489 -52.512,-68.617 -53.041,-69.784C-53.717,-71.272 -54.984,-72.06 -56.934,-72.118C-57.464,-72.133 -57.97,-72.016 -58.477,-71.741C-58.988,-71.465 -59.46,-71.139 -59.868,-70.76C-60.299,-70.368 -60.639,-69.971 -60.89,-69.55C-61.145,-69.129 -61.271,-68.767 -61.322,-68.485C-63.646,-55.659 -75.56,-25.951 -78.318,-16.135C-78.383,-15.908 -78.696,-15.902 -78.775,-16.124C-79.063,-16.926 -81.977,-24.868 -83.391,-28.643C-83.574,-29.101 -84.8,-32.71 -85.187,-33.872C-85.573,-35.021 -87.269,-39.817 -87.549,-40.898C-87.875,-42.16 -87.922,-42.6 -88.141,-43.58C-88.281,-44.205 -88.51,-45.239 -88.832,-46.368C-89.371,-48.255 -90.35,-49.603 -91.161,-50.545C-91.982,-51.505 -92.939,-51.99 -93.734,-51.94C-95.405,-51.834 -96.076,-51.37 -96.486,-51.106C-96.912,-50.855 -97.75,-50.364 -98.291,-49.216C-99.542,-46.564 -100.611,-43.048 -101.416,-41.114C-102.233,-39.186 -107.082,-29.327 -108.019,-27.532C-108.974,-25.734 -113.574,-17.573 -114.891,-15.373C-115.001,-15.19 -115.283,-15.22 -115.337,-15.426C-115.506,-16.064 -115.676,-16.81 -115.836,-17.658C-116.058,-18.758 -117.207,-25.193 -117.581,-27.346C-117.954,-29.486 -118.418,-31.98 -118.967,-34.824C-119.568,-37.83 -121.35,-47.303 -121.665,-49.078C-121.993,-50.85 -122.931,-55.792 -123.121,-56.511C-123.689,-58.7 -124.487,-60.677 -125.496,-62.47C-126.068,-63.496 -126.662,-64.254 -127.273,-64.755C-127.889,-65.254 -128.491,-65.521 -129.119,-65.538C-129.717,-65.557 -130.41,-65.601 -130.947,-65.327C-131.483,-65.064 -132.003,-64.828 -132.418,-64.418C-132.82,-64.005 -133.326,-63.491 -133.577,-62.976" style="fill:white;fill-rule:nonzero;"/>
            </g>
        </g>
    </g>
</svg>
