<?xml version="1.0" encoding="UTF-8" standalone="no"?>
<!DOCTYPE svg PUBLIC "-//W3C//DTD SVG 1.1//EN" "http://www.w3.org/Graphics/SVG/1.1/DTD/svg11.dtd">
<svg width="100%" height="100%" viewBox="0 0 1399 1627" version="1.1" xmlns="http://www.w3.org/2000/svg" xmlns:xlink="http://www.w3.org/1999/xlink" xml:space="preserve" xmlns:serif="http://www.serif.com/" style="fill-rule:evenodd;clip-rule:evenodd;stroke-linejoin:round;stroke-miterlimit:2;">
    <g transform="matrix(1,0,0,1,-541.059167,-940.502917)">
        <g transform="matrix(4.166667,0,0,4.166667,0,0)">
            <g transform="matrix(1,0,0,1,288.6738,331.3472)">
                <path d="M0,82.286L0.098,82.007L32.641,-17.651L-22.867,-17.651L-19.631,-1.073L8.199,-1.073L8.099,-0.785L-25.618,99.937L34.452,99.937L30.511,82.286L0,82.286Z" style="fill:white;fill-rule:nonzero;"/>
            </g>
        </g>
        <g transform="matrix(4.166667,0,0,4.166667,0,0)">
            <g transform="matrix(1,0,0,1,244.1704,369.8843)">
                <path d="M0,4.409C-0.104,4.409 -8.882,4.427 -8.882,4.427L-9.094,4.427L-9.094,-12.833L-8.882,-12.833C-8.882,-12.833 -0.297,-12.85 0,-12.85C4.498,-12.85 8.463,-8.896 8.463,-4.401C8.463,0.123 4.498,4.409 0,4.409M1.429,-26.366L-27.171,-26.366L-25.138,-12.861L-25.138,30.775L-9.094,30.775L-9.094,17.073L-8.882,17.073C-8.882,17.073 0.481,17.086 1.429,17.086C13.153,17.086 23,6.938 23,-4.779C23,-16.512 13.153,-26.366 1.429,-26.366" style="fill:white;fill-rule:nonzero;"/>
            </g>
        </g>
        <g transform="matrix(4.166667,0,0,4.166667,0,0)">
            <g transform="matrix(1,0,0,1,357.5273,366.9619)">
                <path d="M0,10.473C0,15.808 -4.358,19.827 -9.33,19.827C-14.302,19.827 -18.658,15.808 -18.658,10.473C-18.658,10.02 -18.641,-21.68 -18.638,-24.792L-34.835,-22.167L-34.835,9.71C-34.835,24.039 -23.287,35.265 -9.33,35.265C4.626,35.265 16.177,24.039 16.177,9.71L16.177,-24.792L-0.037,-22.167C-0.035,-19.553 0,10.04 0,10.473" style="fill:white;fill-rule:nonzero;"/>
            </g>
        </g>
        <g transform="matrix(4.166667,0,0,4.166667,0,0)">
            <g transform="matrix(1,0,0,1,295.6855,269.1377)">
                <path d="M0,205.723C-56.625,205.634 -102.775,159.491 -102.875,102.87C-102.775,46.252 -56.625,0.105 -0.002,0.005L0,0.005C56.596,0.105 102.737,46.252 102.858,102.87C102.737,159.491 56.596,205.634 0,205.723M-0.002,-43.417C-80.669,-43.4 -146.295,22.232 -146.295,102.883C-146.295,183.527 -80.669,249.14 -0.002,249.14C80.64,249.14 146.253,183.527 146.263,102.883C146.253,22.232 80.64,-43.4 -0.002,-43.417" style="fill:white;fill-rule:nonzero;"/>
            </g>
        </g>
        <g transform="matrix(4.166667,0,0,4.166667,0,0)">
            <g transform="matrix(1,0,0,1,139.2842,607.3504)">
                <path d="M0,-31.479L0,-19.607L19.063,-19.607L19.063,-11.194L0,-11.194L0,8.412L-9.43,8.412L-9.43,-39.891L22.388,-39.891L22.388,-31.479L0,-31.479Z" style="fill:white;fill-rule:nonzero;"/>
            </g>
        </g>
        <g transform="matrix(4.166667,0,0,4.166667,0,0)">
            <g transform="matrix(1,0,0,1,186.9033,567.4593)">
                <path d="M0,48.71C-9.905,48.71 -17.774,41.993 -17.774,31.75L-17.774,0L-8.344,0L-8.344,31.41C-8.344,36.974 -5.088,40.298 0,40.298C5.088,40.298 8.412,36.974 8.412,31.41L8.412,0L17.774,0L17.774,31.75C17.774,41.993 9.905,48.71 0,48.71" style="fill:white;fill-rule:nonzero;"/>
            </g>
        </g>
        <g transform="matrix(4.166667,0,0,4.166667,0,0)">
            <g transform="matrix(1,0,0,1,243.749,567.4591)">
                <path d="M0,48.303L-19.131,18.657L-19.131,48.303L-28.561,48.303L-28.561,0L-20.149,0L-1.018,29.579L-1.018,0L8.412,0L8.412,48.303L0,48.303Z" style="fill:white;fill-rule:nonzero;"/>
            </g>
        </g>
        <g transform="matrix(4.166667,0,0,4.166667,0,0)">
            <g transform="matrix(1,0,0,1,287.0254,604.3648)">
                <path d="M0,-25.508C-1.628,-27.476 -3.799,-28.493 -7.055,-28.493L-14.179,-28.493L-14.179,2.985L-7.055,2.985C-3.799,2.985 -1.628,1.968 0,-0C1.764,-2.171 2.035,-5.631 2.035,-12.957C2.035,-20.284 1.764,-23.337 0,-25.508M6.581,6.784C3.392,9.972 -1.153,11.397 -6.173,11.397L-23.608,11.397L-23.608,-36.905L-6.173,-36.905C-1.153,-36.905 3.392,-35.481 6.581,-32.292C12.008,-26.864 11.465,-20.216 11.465,-12.957C11.465,-5.698 12.008,1.357 6.581,6.784" style="fill:white;fill-rule:nonzero;"/>
            </g>
        </g>
        <g transform="matrix(4.166667,0,0,4.166667,0,0)">
            <g transform="matrix(1,0,0,1,324.333,601.5154)">
                <path d="M0,-19.809L-6.105,-2.239L5.902,-2.239L0,-19.809ZM11.262,14.247L8.412,5.699L-8.752,5.699L-11.669,14.247L-21.506,14.247L-3.935,-34.056L3.46,-34.056L21.099,14.247L11.262,14.247Z" style="fill:white;fill-rule:nonzero;"/>
            </g>
        </g>
        <g transform="matrix(4.166667,0,0,4.166667,0,0)">
            <g transform="matrix(1,0,0,1,367.541,567.0523)">
                <path d="M0,49.117C-5.155,49.117 -9.497,47.353 -13.025,43.825C-15.128,41.722 -16.417,39.28 -16.96,36.566C-17.502,33.852 -17.773,29.85 -17.773,24.558C-17.773,19.267 -17.502,15.264 -16.96,12.551C-16.417,9.769 -15.128,7.395 -13.025,5.292C-9.497,1.764 -5.155,0 0,0C9.295,0 16.146,5.428 17.774,15.264L8.209,15.264C7.191,11.126 4.613,8.413 0.068,8.413C-2.51,8.413 -4.545,9.226 -5.97,10.923C-7.937,13.025 -8.344,15.196 -8.344,24.558C-8.344,33.921 -7.937,36.092 -5.97,38.194C-4.545,39.89 -2.51,40.705 0.068,40.705C4.613,40.705 7.191,37.991 8.209,33.852L17.774,33.852C16.146,43.689 9.227,49.117 0,49.117" style="fill:white;fill-rule:nonzero;"/>
            </g>
        </g>
        <g transform="matrix(4.166667,0,0,4.166667,0,0)">
            <g transform="matrix(1,0,0,1,400.4385,567.4593)">
                <path d="M0,48.71C-5.224,48.71 -8.819,47.353 -12.415,43.758L-6.173,37.584C-4.613,39.145 -3.12,40.298 0,40.298C4.613,40.298 7.599,37.584 7.599,32.021L7.599,0L17.028,0L17.028,32.428C17.028,43.079 8.955,48.71 0,48.71" style="fill:white;fill-rule:nonzero;"/>
            </g>
        </g>
        <g transform="matrix(4.166667,0,0,4.166667,0,0)">
            <g transform="matrix(1,0,0,1,444.3271,601.5154)">
                <path d="M0,-19.809L-6.105,-2.239L5.902,-2.239L0,-19.809ZM11.262,14.247L8.412,5.699L-8.752,5.699L-11.669,14.247L-21.506,14.247L-3.935,-34.056L3.46,-34.056L21.099,14.247L11.262,14.247Z" style="fill:white;fill-rule:nonzero;"/>
            </g>
        </g>
    </g>
</svg>
