<svg xmlns:inkscape="http://www.inkscape.org/namespaces/inkscape" xmlns:sodipodi="http://sodipodi.sourceforge.net/DTD/sodipodi-0.dtd" xmlns="http://www.w3.org/2000/svg" xmlns:svg="http://www.w3.org/2000/svg" version="1.1" id="svg1" sodipodi:docname="upload_tde6fqq5nqgdtklo76jspziezg.pdf" viewBox="22.67 22.68 364.88 98.4">
  <defs id="defs1">
    <clipPath clipPathUnits="userSpaceOnUse" id="clipPath3">
      <path d="M 0,107.787 H 307.672 V 0 H 0 Z" transform="matrix(1,0,0,-0.99997828,-91.693105,65.266682)" id="path3"/>
    </clipPath>
    <clipPath clipPathUnits="userSpaceOnUse" id="clipPath5">
      <path d="M 17.008,16.98 H 85.039 V 90.779 H 17.008 Z" transform="translate(-53.361301,-84.615102)" id="path5"/>
    </clipPath>
    <clipPath clipPathUnits="userSpaceOnUse" id="clipPath7">
      <path d="M 0,107.787 H 307.672 V 0 H 0 Z" transform="translate(-50.526601,-80.998102)" id="path7"/>
    </clipPath>
    <clipPath clipPathUnits="userSpaceOnUse" id="clipPath9">
      <path d="M 0,107.787 H 307.672 V 0 H 0 Z" transform="translate(-48.360101,-83.181702)" id="path9"/>
    </clipPath>
    <clipPath clipPathUnits="userSpaceOnUse" id="clipPath11">
      <path d="M 0,107.787 H 307.672 V 0 H 0 Z" transform="matrix(1,0,0,-1,-91.544702,39.790501)" id="path11"/>
    </clipPath>
  </defs>
  <sodipodi:namedview id="namedview1" pagecolor="#ffffff" bordercolor="#000000" borderopacity="0.25" inkscape:showpageshadow="2" inkscape:pageopacity="0.0" inkscape:pagecheckerboard="0" inkscape:deskcolor="#d1d1d1">
    <inkscape:page x="0" y="0" inkscape:label="1" id="page1" width="410.22934" height="143.716" margin="22.6392 20.927999 22.676666 22.669733" bleed="0"/>
  </sodipodi:namedview>
  <g id="g1" inkscape:groupmode="layer" inkscape:label="1">
    <g id="group-MC0">
      <g id="group-MC1"/>
    </g>
    <g id="group-MC2">
      <path id="path2" d="M 19.254166,-16.47655 V -3.4530499e-4 H 17.297134 V -12.117269 c 0,-0.15527 0.0029,-0.322259 0.01172,-0.503896 0.01465,-0.187496 0.0293,-0.377921 0.04687,-0.574206 l -5.660156,10.3122759 c -0.172852,0.3456956 -0.442383,0.5156138 -0.808594,0.5156138 h -0.316406 c -0.360352,0 -0.6298829,-0.1699182 -0.8085939,-0.5156138 L 3.9963531,-13.242245 c 0.038086,0.407218 0.058594,0.78221 0.058594,1.124976 V -3.4530499e-4 H 2.1096344 V -16.47655 h 1.640625 c 0.1933594,0 0.3457031,0.02051 0.4570312,0.05859 0.1083985,0.03223 0.2138672,0.137692 0.3164063,0.316399 l 5.6953121,10.1482171 c 0.08496,0.1816367 0.169922,0.3720622 0.257813,0.5742063 0.09375,0.1962848 0.178711,0.3984288 0.257812,0.6093617 0.07617,-0.2109329 0.155274,-0.4160066 0.234375,-0.6210802 0.08496,-0.2021441 0.178711,-0.3925696 0.28125,-0.5742063 l 5.589844,-10.1364986 c 0.09375,-0.178707 0.19336,-0.284173 0.304688,-0.316399 0.108398,-0.03808 0.263672,-0.05859 0.46875,-0.05859 z m 5.71289,4.82802 V -3.4530499e-4 H 22.916275 V -11.64853 Z m 0.433594,-3.65617 c 0,0.196285 -0.04102,0.380851 -0.117187,0.550769 -0.0791,0.172848 -0.1875,0.328118 -0.328125,0.46874 -0.134766,0.134763 -0.29004,0.240229 -0.46875,0.316399 -0.181641,0.07031 -0.369141,0.105467 -0.5625,0.105467 -0.205079,0 -0.392579,-0.03516 -0.5625,-0.105467 -0.172852,-0.07617 -0.325196,-0.181636 -0.457032,-0.316399 -0.125976,-0.140622 -0.228515,-0.295892 -0.304687,-0.46874 -0.0791,-0.169918 -0.117188,-0.354484 -0.117188,-0.550769 0,-0.202144 0.03809,-0.39257 0.117188,-0.574206 0.07617,-0.178707 0.178711,-0.333977 0.304687,-0.46874 0.131836,-0.131833 0.28418,-0.2373 0.457032,-0.3164 0.169921,-0.07617 0.357421,-0.117184 0.5625,-0.117184 0.193359,0 0.380859,0.04101 0.5625,0.117184 0.17871,0.0791 0.333984,0.184567 0.46875,0.3164 0.140625,0.134763 0.249023,0.290033 0.328125,0.46874 0.07617,0.181636 0.117187,0.372062 0.117187,0.574206 z m 4.851563,5.3436337 c 0.257812,-0.2812437 0.527343,-0.5331917 0.808593,-0.7617017 0.28125,-0.23437 0.580078,-0.433585 0.902344,-0.597644 0.319336,-0.164059 0.65625,-0.287103 1.007813,-0.374992 0.357421,-0.09375 0.74414,-0.140622 1.160156,-0.140622 0.638672,0 1.201172,0.105467 1.6875,0.3164 0.483398,0.210933 0.890625,0.512684 1.21875,0.902324 0.328125,0.383781 0.574219,0.8495909 0.738281,1.3945009 0.169922,0.5478397 0.257813,1.1484126 0.257813,1.8046483 v 7.41780749501 h -2.0625 V -7.4181528 c 0,-0.8818168 -0.205079,-1.5644191 -0.609375,-2.0507367 -0.398438,-0.4921768 -1.007813,-0.7382655 -1.828125,-0.7382655 -0.609375,0 -1.177735,0.149411 -1.699219,0.4453032 -0.524414,0.2900327 -1.007813,0.6855319 -1.453125,1.183568 v 8.57793849501 h -2.0625 V -11.64853 h 1.230469 c 0.295898,0 0.480468,0.140622 0.550781,0.421866 z M 43.321548,-11.64853 V -3.4530499e-4 H 41.270767 V -11.64853 Z m 0.433594,-3.65617 c 0,0.196285 -0.04102,0.380851 -0.117187,0.550769 -0.0791,0.172848 -0.1875,0.328118 -0.328125,0.46874 -0.134766,0.134763 -0.290039,0.240229 -0.46875,0.316399 -0.181641,0.07031 -0.369141,0.105467 -0.5625,0.105467 -0.205078,0 -0.392578,-0.03516 -0.5625,-0.105467 -0.172852,-0.07617 -0.325196,-0.181636 -0.457032,-0.316399 -0.125976,-0.140622 -0.228515,-0.295892 -0.304687,-0.46874 -0.0791,-0.169918 -0.117188,-0.354484 -0.117188,-0.550769 0,-0.202144 0.03809,-0.39257 0.117188,-0.574206 0.07617,-0.178707 0.178711,-0.333977 0.304687,-0.46874 0.131836,-0.131833 0.28418,-0.2373 0.457032,-0.3164 0.169922,-0.07617 0.357422,-0.117184 0.5625,-0.117184 0.193359,0 0.380859,0.04101 0.5625,0.117184 0.178711,0.0791 0.333984,0.184567 0.46875,0.3164 0.140625,0.134763 0.249023,0.290033 0.328125,0.46874 0.07617,0.181636 0.117187,0.372062 0.117187,0.574206 z m 9.703125,5.5780036 c -0.08789,0.164059 -0.228515,0.2460884 -0.421875,0.2460884 -0.117187,0 -0.251953,-0.038085 -0.398437,-0.1171849 -0.140625,-0.084959 -0.316407,-0.1787071 -0.527344,-0.2812439 -0.210938,-0.1083961 -0.462891,-0.2050732 -0.75,-0.2929622 -0.290039,-0.08496 -0.632813,-0.128904 -1.03125,-0.128904 -0.351563,0 -0.665039,0.04395 -0.9375,0.128904 -0.275391,0.08789 -0.509766,0.2080031 -0.703125,0.3632732 -0.196289,0.1494108 -0.348633,0.3251882 -0.457031,0.5273323 -0.102539,0.2050736 -0.152344,0.427725 -0.152344,0.6679542 0,0.2988216 0.08496,0.5478396 0.257812,0.7499837 0.169922,0.1962848 0.398438,0.3691326 0.679688,0.5156138 0.287109,0.1406219 0.612305,0.2695254 0.972656,0.3867103 0.357422,0.1113257 0.726563,0.2285107 1.101563,0.3515549 0.380859,0.1259738 0.752929,0.2665957 1.113281,0.4218658 0.366211,0.1581997 0.691406,0.3486252 0.972656,0.5742063 0.28125,0.2285106 0.506836,0.5097545 0.679688,0.8437316 0.169922,0.3369068 0.257812,0.7382652 0.257812,1.207005 0,0.5331916 -0.09961,1.028298 -0.292969,1.4882489 -0.1875,0.4540917 -0.46875,0.8495909 -0.84375,1.18356806 -0.375,0.33690673 -0.83789,0.6035025 -1.382812,0.79685767 -0.539063,0.1845663 -1.166016,0.28124389 -1.875,0.28124389 -0.820313,0 -1.558594,-0.1347627 -2.214844,-0.39842884 -0.65625,-0.26366614 -1.21582,-0.6035025 -1.675781,-1.01950908 l 0.480469,-0.7851392 c 0.06152,-0.099607 0.131836,-0.1757774 0.210937,-0.2226514 0.08496,-0.052733 0.19336,-0.082029 0.328125,-0.082029 0.140625,0 0.28418,0.055663 0.433594,0.164059 0.155273,0.1025368 0.342773,0.2197218 0.5625,0.3515548 0.216797,0.1347627 0.483398,0.2548773 0.796875,0.3632734 0.310547,0.1025368 0.703125,0.1523404 1.171875,0.1523404 0.398437,0 0.744141,-0.049804 1.042969,-0.1523404 0.304687,-0.099607 0.553711,-0.2402292 0.75,-0.4218658 0.202148,-0.1787071 0.351562,-0.3808511 0.445312,-0.6093618 0.09961,-0.225581 0.152344,-0.4716694 0.152344,-0.7382652 0,-0.319329 -0.09082,-0.5859248 -0.269531,-0.7968577 -0.172852,-0.2109329 -0.398438,-0.3896399 -0.679688,-0.5390508 -0.28125,-0.1464812 -0.606445,-0.2753846 -0.972656,-0.3867103 -0.369141,-0.117185 -0.744141,-0.2343699 -1.125,-0.3515549 -0.375,-0.1230442 -0.74707,-0.2636661 -1.113281,-0.4218658 -0.360352,-0.1552701 -0.685547,-0.3515548 -0.972657,-0.5859248 -0.28125,-0.2402291 -0.509765,-0.5390507 -0.679687,-0.8906056 -0.172852,-0.3515548 -0.257813,-0.7734207 -0.257813,-1.2655975 0,-0.4453028 0.08789,-0.8700982 0.269532,-1.277316 0.1875,-0.4130761 0.457031,-0.7763511 0.808593,-1.0898201 0.357422,-0.310541 0.791016,-0.556628 1.300782,-0.738265 0.515625,-0.187496 1.104492,-0.281244 1.769531,-0.281244 0.764648,0 1.453125,0.123045 2.0625,0.363274 0.609375,0.243159 1.136719,0.574206 1.582031,0.996072 z m 6.758789,9.91384702 c -0.922851,0 -1.634765,-0.2578069 -2.132812,-0.77342069 C 57.592056,-1.1018839 57.345963,-1.8401491 57.345963,-2.8010657 v -7.1365636 h -1.394532 c -0.125976,0 -0.231445,-0.035156 -0.316406,-0.1054667 -0.08789,-0.07617 -0.128906,-0.190425 -0.128906,-0.339836 v -0.820295 l 1.910156,-0.246088 0.46875,-3.597578 c 0.02344,-0.117185 0.07324,-0.210933 0.152344,-0.281244 0.08496,-0.07031 0.193359,-0.105467 0.328125,-0.105467 h 1.03125 v 4.007726 h 3.375 v 1.4882487 h -3.375 v 6.9959417 c 0,0.4921768 0.117187,0.8554501 0.351562,1.08982 0.240235,0.23437 0.550782,0.3515549 0.925782,0.3515549 0.210937,0 0.392578,-0.026367 0.550781,-0.082029 0.164062,-0.052733 0.298828,-0.1171849 0.410156,-0.1874959 0.117188,-0.070311 0.213867,-0.1318331 0.292969,-0.1874959 0.08496,-0.061522 0.158203,-0.093748 0.222656,-0.093748 0.09961,0 0.193359,0.067381 0.28125,0.1992144 l 0.597656,0.97263515 c -0.351562,0.33690674 -0.779297,0.59764326 -1.277343,0.78513918 -0.500977,0.1845663 -1.013672,0.28124389 -1.535157,0.28124339 z M 72.624283,-7.1017534 c 0,-0.4687398 -0.06738,-0.9023242 -0.199219,-1.300753 -0.134766,-0.3984288 -0.328125,-0.7382652 -0.585937,-1.0195091 -0.257813,-0.2871031 -0.571289,-0.5097545 -0.9375,-0.6679545 -0.369141,-0.15527 -0.785157,-0.23437 -1.253907,-0.23437 -0.984375,0 -1.763672,0.287104 -2.332031,0.8554505 -0.571289,0.5712767 -0.925781,1.3593455 -1.066406,2.3671361 z m 1.652344,5.4725373 c -0.251954,0.3046808 -0.550782,0.5712766 -0.902344,0.79685763 -0.351563,0.22851066 -0.732422,0.41600658 -1.136719,0.56248777 -0.407226,0.14062195 -0.826172,0.24901803 -1.253906,0.31639938 -0.421875,0.07617022 -0.84375,0.11718495 -1.265625,0.11718495 -0.814453,0 -1.558594,-0.13769232 -2.238281,-0.41014734 -0.673829,-0.27245501 -1.259766,-0.67088385 -1.757813,-1.19528649 -0.492187,-0.5214731 -0.878906,-1.1718495 -1.160156,-1.9452702 -0.275391,-0.77928 -0.410156,-1.6698856 -0.410156,-2.6718169 0,-0.8115058 0.123046,-1.5702784 0.375,-2.2733881 0.249023,-0.708969 0.609375,-1.32419 1.078125,-1.8398036 0.46875,-0.515614 1.037109,-0.919902 1.710937,-1.218724 0.679688,-0.295892 1.441406,-0.445303 2.285156,-0.445303 0.694336,0 1.338868,0.117185 1.933594,0.351555 0.591797,0.23437 1.104492,0.574207 1.535156,1.019509 0.436524,0.439444 0.776368,0.9814244 1.019532,1.6288713 0.249023,0.6503765 0.375,1.3886417 0.375,2.2147956 0,0.3222586 -0.03516,0.5361211 -0.105469,0.6445172 -0.07031,0.1025369 -0.199219,0.1523405 -0.386719,0.1523405 H 66.17897 c 0.02344,0.7441244 0.123047,1.3886416 0.304688,1.9335517 0.178711,0.5390508 0.427734,0.9931424 0.75,1.3593454 0.328125,0.3603438 0.714844,0.6298691 1.160156,0.8085762 0.445313,0.1816367 0.94043,0.2695254 1.488281,0.2695254 0.515625,0 0.955078,-0.058593 1.324219,-0.1757774 0.375,-0.117185 0.694336,-0.2402292 0.960938,-0.3749919 0.272461,-0.1406219 0.498046,-0.2695254 0.679687,-0.3867103 0.178711,-0.1230442 0.333984,-0.187496 0.46875,-0.187496 0.164063,0 0.292969,0.067381 0.386719,0.1992145 z m 4.631836,-7.6873329 c 0.36621,-0.796858 0.820312,-1.417938 1.359375,-1.863241 0.539062,-0.451162 1.195312,-0.679672 1.96875,-0.679672 0.240234,0 0.474609,0.0293 0.703125,0.08203 0.225585,0.05566 0.427734,0.140622 0.609375,0.257807 l -0.152344,1.5234043 c -0.04687,0.1962847 -0.161133,0.2929623 -0.339844,0.2929623 -0.111328,0 -0.269531,-0.023437 -0.480469,-0.070311 -0.205078,-0.046874 -0.439453,-0.070311 -0.703125,-0.070311 -0.36914,0 -0.697265,0.055663 -0.984375,0.1640589 -0.28125,0.1025369 -0.536133,0.2578069 -0.761718,0.4687398 -0.228516,0.2109329 -0.430665,0.4745991 -0.609375,0.7851392 -0.181641,0.3134698 -0.345704,0.6679542 -0.492188,1.0663831 v 7.35921499501 h -2.0625 V -11.64853 h 1.183594 c 0.216797,0 0.36914,0.04394 0.457031,0.128904 0.08496,0.0791 0.140625,0.222651 0.164063,0.433584 z m 13.142578,-0.4101474 c -0.08789,0.164059 -0.228516,0.2460884 -0.421875,0.2460884 -0.117188,0 -0.251953,-0.038085 -0.398438,-0.1171849 -0.140625,-0.084959 -0.316406,-0.1787071 -0.527344,-0.2812439 -0.210937,-0.1083961 -0.46289,-0.2050732 -0.75,-0.2929622 -0.290039,-0.08496 -0.632812,-0.128904 -1.03125,-0.128904 -0.351562,0 -0.665039,0.04395 -0.9375,0.128904 -0.27539,0.08789 -0.509765,0.2080031 -0.703125,0.3632732 -0.196289,0.1494108 -0.348632,0.3251882 -0.457031,0.5273323 -0.102539,0.2050736 -0.152344,0.427725 -0.152344,0.6679542 0,0.2988216 0.08496,0.5478396 0.257813,0.7499837 0.169922,0.1962848 0.398437,0.3691326 0.679687,0.5156138 0.28711,0.1406219 0.612305,0.2695254 0.972657,0.3867103 0.357422,0.1113257 0.726562,0.2285107 1.101562,0.3515549 0.38086,0.1259738 0.75293,0.2665957 1.113281,0.4218658 0.366211,0.1581997 0.691407,0.3486252 0.972657,0.5742063 0.28125,0.2285106 0.506836,0.5097545 0.679687,0.8437316 0.169922,0.3369068 0.257813,0.7382652 0.257813,1.207005 0,0.5331916 -0.09961,1.028298 -0.292969,1.4882489 -0.1875,0.4540917 -0.46875,0.8495909 -0.84375,1.18356806 -0.375,0.33690673 -0.837891,0.6035025 -1.382813,0.79685767 -0.539062,0.1845663 -1.166015,0.28124389 -1.875,0.28124389 -0.820312,0 -1.558593,-0.1347627 -2.214843,-0.39842884 -0.65625,-0.26366614 -1.215821,-0.6035025 -1.675782,-1.01950908 l 0.480469,-0.7851392 c 0.06152,-0.099607 0.131836,-0.1757774 0.210938,-0.2226514 0.08496,-0.052733 0.193359,-0.082029 0.328125,-0.082029 0.140625,0 0.284179,0.055663 0.433593,0.164059 0.155274,0.1025368 0.342774,0.2197218 0.5625,0.3515548 0.216797,0.1347627 0.483399,0.2548773 0.796875,0.3632734 0.310547,0.1025368 0.703125,0.1523404 1.171875,0.1523404 0.398438,0 0.744141,-0.049804 1.042969,-0.1523404 0.304688,-0.099607 0.553711,-0.2402292 0.75,-0.4218658 0.202149,-0.1787071 0.351563,-0.3808511 0.445313,-0.6093618 0.09961,-0.225581 0.152343,-0.4716694 0.152343,-0.7382652 0,-0.319329 -0.09082,-0.5859248 -0.269531,-0.7968577 -0.172851,-0.2109329 -0.398437,-0.3896399 -0.679687,-0.5390508 -0.28125,-0.1464812 -0.606446,-0.2753846 -0.972657,-0.3867103 -0.36914,-0.117185 -0.74414,-0.2343699 -1.125,-0.3515549 -0.375,-0.1230442 -0.74707,-0.2636661 -1.113281,-0.4218658 -0.360351,-0.1552701 -0.685547,-0.3515548 -0.972656,-0.5859248 -0.28125,-0.2402291 -0.509766,-0.5390507 -0.679688,-0.8906056 -0.172851,-0.3515548 -0.257812,-0.7734207 -0.257812,-1.2655975 0,-0.4453028 0.08789,-0.8700982 0.269531,-1.277316 0.1875,-0.4130761 0.457031,-0.7763511 0.808594,-1.0898201 0.357422,-0.310541 0.791016,-0.556628 1.300781,-0.738265 0.515625,-0.187496 1.104492,-0.281244 1.769531,-0.281244 0.764649,0 1.453125,0.123045 2.0625,0.363274 0.609375,0.243159 1.136719,0.574206 1.582032,0.996072 z m 6.758789,9.91384702 c -0.922852,0 -1.634766,-0.2578069 -2.132813,-0.77342069 C 96.18483,-1.1018839 95.938736,-1.8401491 95.938736,-2.8010657 v -7.1365636 h -1.394531 c -0.125977,0 -0.231446,-0.035156 -0.316407,-0.1054667 -0.08789,-0.07617 -0.128906,-0.190425 -0.128906,-0.339836 v -0.820295 l 1.910156,-0.246088 0.46875,-3.597578 c 0.02344,-0.117185 0.07324,-0.210933 0.152344,-0.281244 0.08496,-0.07031 0.19336,-0.105467 0.328125,-0.105467 h 1.03125 v 4.007726 h 3.375003 v 1.4882487 h -3.375003 v 6.9959417 c 0,0.4921768 0.117188,0.8554501 0.351563,1.08982 0.240234,0.23437 0.550781,0.3515549 0.925781,0.3515549 0.210937,0 0.392578,-0.026367 0.550781,-0.082029 0.164063,-0.052733 0.298828,-0.1171849 0.410158,-0.1874959 0.11719,-0.070311 0.21387,-0.1318331 0.29297,-0.1874959 0.085,-0.061522 0.1582,-0.093748 0.22265,-0.093748 0.0996,0 0.19336,0.067381 0.28125,0.1992144 l 0.59766,0.97263515 c -0.35156,0.33690674 -0.7793,0.59764326 -1.27734,0.78513918 -0.500981,0.1845663 -1.013676,0.28124389 -1.53516,0.28124339 z M 119.53737,-11.64853 115.76393,-3.4530499e-4 h -1.6289 c -0.19629,0 -0.33399,-0.12890344501 -0.41016,-0.38671034501 l -2.57813,-7.90998425 c -0.0644,-0.1699182 -0.11425,-0.3456956 -0.15234,-0.5273323 -0.041,-0.1787071 -0.0791,-0.3574141 -0.11719,-0.5390508 -0.0322,0.1816367 -0.0674,0.3603437 -0.10547,0.5390508 -0.041,0.1816367 -0.0908,0.3603437 -0.15234,0.5390508 l -2.625,7.89826575 c -0.0703,0.2578069 -0.22266,0.38671034501 -0.45703,0.38671034501 h -1.54688 L 102.21706,-11.64853 h 1.61718 c 0.15528,0 0.28711,0.04394 0.39844,0.128904 0.11719,0.0791 0.19336,0.175777 0.23438,0.292962 l 2.22656,7.4998372 c 0.13183,0.5566285 0.2373,1.0751719 0.31641,1.5585599 0.0703,-0.249018 0.14062,-0.5038953 0.21093,-0.7617022 0.0703,-0.2636662 0.14649,-0.5302619 0.23438,-0.7968577 l 2.46094,-7.5467112 c 0.0381,-0.117185 0.10546,-0.210933 0.19921,-0.281244 0.0937,-0.07617 0.21094,-0.117185 0.35157,-0.117185 h 0.90234 c 0.14648,0 0.27246,0.04101 0.375,0.117185 0.0996,0.07031 0.16992,0.164059 0.21094,0.281244 l 2.40234,7.5467112 c 0.085,0.2665958 0.1582,0.5331915 0.22266,0.7968577 0.0703,0.2578069 0.13476,0.5126842 0.19922,0.7617022 0.0381,-0.249018 0.085,-0.5038953 0.14062,-0.7617022 0.0615,-0.2578069 0.12891,-0.5214731 0.19922,-0.7968577 l 2.27344,-7.4998372 c 0.0381,-0.123044 0.1084,-0.225581 0.21094,-0.304681 0.10839,-0.07617 0.2373,-0.117185 0.38671,-0.117185 z m 6.73828,-0.187496 c 0.84961,0 1.61719,0.146482 2.29688,0.433585 0.68554,0.281244 1.27148,0.685532 1.75781,1.207005 0.4834,0.5156136 0.85547,1.1454827 1.11328,1.8866776 0.25781,0.7441244 0.38672,1.5673487 0.38672,2.4726025 0,0.9228315 -0.12891,1.7548446 -0.38672,2.4960395 -0.25781,0.7353355 -0.62988,1.3652046 -1.11328,1.8866777 -0.48633,0.51561378 -1.07227,0.91404261 -1.75781,1.1952865 -0.67969,0.27831426 -1.44727,0.42186583 -2.29688,0.42186583 -0.85254,0 -1.62305,-0.14355157 -2.30859,-0.42186583 -0.68848,-0.28124389 -1.27442,-0.67967272 -1.75782,-1.1952865 -0.48632,-0.5214731 -0.85546,-1.1513422 -1.11328,-1.8866777 -0.25781,-0.7411949 -0.38672,-1.573208 -0.38672,-2.4960395 0,-0.9052538 0.12891,-1.7284781 0.38672,-2.4726025 0.25782,-0.7411949 0.62696,-1.371064 1.11328,-1.8866776 0.4834,-0.521473 1.06934,-0.925761 1.75782,-1.207005 0.68554,-0.287103 1.45605,-0.433585 2.30859,-0.433585 z m 0,10.3943058 c 1.1543,0 2.01563,-0.3808511 2.57813,-1.1484126 0.56835,-0.7734206 0.85546,-1.8515222 0.85546,-3.2343046 0,-1.3827825 -0.28711,-2.460884 -0.85546,-3.2343047 -0.5625,-0.77928 -1.42383,-1.1718499 -2.57813,-1.1718499 -0.58008,0 -1.08691,0.102537 -1.52344,0.3046812 -0.43066,0.1962848 -0.79101,0.4863176 -1.07812,0.8671687 -0.29004,0.3749918 -0.50391,0.8378724 -0.64453,1.3827824 -0.14063,0.5478397 -0.21094,1.1659903 -0.21094,1.8515223 0,1.3827824 0.28418,2.460884 0.85547,3.2343046 0.56836,0.7675615 1.43554,1.1484126 2.60156,1.1484126 z m 0,0" style="fill:#231f20;fill-opacity:1;fill-rule:nonzero;stroke:none" aria-label="Ministerstwo" transform="matrix(1.3333333,0,0,1.3333623,122.25747,56.691867)" clip-path="url(#clipPath3)"/>
      <path id="path4" d="M 0,0 C -0.197,-0.057 -0.451,-0.011 -0.638,0.097 -0.991,0.311 -0.606,1.331 0.085,1.756 0.569,0.986 0.44,0.13 0,0 m 4.549,-58.667 c 0.581,0 1.09,0.079 1.53,0.239 -0.015,-0.198 -0.151,-0.608 -0.47,-0.968 -0.211,-0.242 -0.565,-0.527 -1.06,-0.527 -1.013,0 -2.245,1.025 -3.37,2.36 0.811,-0.514 2.143,-1.104 3.37,-1.104 m -13.778,-1.256 c -0.494,0 -0.848,0.285 -1.06,0.527 -0.321,0.36 -0.454,0.77 -0.471,0.968 0.439,-0.16 0.95,-0.239 1.531,-0.239 1.225,0 2.559,0.593 3.371,1.104 -1.126,-1.335 -2.36,-2.36 -3.371,-2.36 m 5.183,60.02 C -4.23,-0.011 -4.484,-0.057 -4.68,0 -5.121,0.13 -5.25,0.986 -4.771,1.756 -4.076,1.331 -3.69,0.311 -4.046,0.097 m 29.568,-27.159 c 0.678,-0.098 1.353,-0.153 2.027,-0.153 1.45,0 2.639,0.245 3.266,0.474 l 0.401,0.146 -0.159,0.396 c -0.497,1.216 -1.874,2.494 -4.023,3.744 0.794,0.131 1.463,0.316 2.016,0.555 1.079,0.468 1.723,1.161 1.918,2.058 0.044,0.208 0.06,0.749 0.06,0.749 0,0 -0.454,-0.198 -0.643,-0.289 -0.413,-0.201 -1.851,-0.414 -4.649,-0.414 -0.239,0 -0.481,0.003 -0.724,0.006 1.221,0.246 2.235,0.538 3.096,0.892 1.406,0.58 2.28,1.276 3.126,1.947 0.123,0.1 0.444,0.394 0.444,0.394 0,0 -0.37,0.223 -0.51,0.295 -0.959,0.502 -2.158,1.009 -3.982,1.388 0.486,0.289 0.899,0.566 1.255,0.848 0.702,0.553 1.605,1.434 1.358,2.705 -0.03,0.156 -0.185,0.572 -0.185,0.572 0,0 -0.329,-0.224 -0.461,-0.316 -0.44,-0.314 -1.665,-0.932 -4.801,-2.136 1.61,1.014 3.624,2.566 4.429,4.312 0.048,0.11 0.187,0.454 0.187,0.454 0,0 -0.86,0.266 -1.789,0.266 -0.598,0 -1.296,-0.067 -2.095,-0.199 0.145,0.166 0.275,0.323 0.391,0.475 0.81,1.077 0.987,2.025 0.555,2.988 -0.075,0.165 -0.381,0.493 -0.381,0.493 0,0 -0.231,-0.282 -0.335,-0.43 -0.343,-0.497 -1.096,-1.123 -2.201,-1.903 0.916,1.082 1.499,2.246 1.761,3.72 0.021,0.112 0.067,0.45 0.067,0.45 0,0 -0.403,0.056 -0.773,0.056 -1.273,0 -2.803,-0.404 -4.285,-1.115 0.959,1.012 1.865,2.466 2.201,3.605 0.043,0.144 0.122,0.535 0.122,0.535 0,0 -0.359,0.008 -0.55,-0.008 C 19.362,0.303 16.949,-0.456 14.493,-1.777 12.35,-2.924 10.63,-4.252 9.566,-5.16 c -2.96,-2.523 -4.547,-5.865 -4.04,-8.518 0.209,-1.077 0.843,-2.464 2.607,-3.452 l 0.036,-0.276 c 0.098,-0.823 -0.033,-1.651 -0.343,-2.113 -0.654,-0.98 -1.939,-1.156 -3.275,-1.179 l -0.085,0.185 c -0.915,2.032 -1.509,4.365 -1.603,5.527 l -0.007,0.078 c 0.133,0.062 0.253,0.139 0.361,0.231 l 0.216,0.181 -0.096,0.268 c -0.334,0.958 -0.113,2.453 0.1,3.896 0.275,1.853 0.558,3.761 -0.201,5.017 0.3,0.176 0.547,0.422 0.708,0.717 0.296,0.548 0.262,1.175 -0.096,1.726 L 3.625,-2.524 3.281,-2.75 C 3.245,-2.772 3.208,-2.795 3.172,-2.817 3.193,-2.754 3.204,-2.7 3.212,-2.652 3.301,-2.15 3.049,-1.609 2.6,-1.341 L 2.392,-1.217 2.177,-1.341 c -0.162,-0.1 -0.365,-0.174 -0.606,-0.229 0.451,1.072 1.16,2.122 1.808,3.074 0.424,0.623 0.824,1.211 1.129,1.768 l 0.419,0.757 c 0,0 -0.779,-0.244 -1.536,-0.244 C 2.773,3.744 2.077,3.698 1.729,3.231 1.699,3.193 1.676,3.149 1.656,3.109 1.513,3.179 1.35,3.219 1.18,3.219 0.912,3.219 0.651,3.12 0.429,2.936 c -0.111,0.53 -0.712,0.918 -1.407,0.918 -0.018,0.638 -0.477,1.192 -0.787,1.562 -0.093,0.113 -0.576,0.748 -0.576,0.748 0,0 -0.48,-0.635 -0.575,-0.748 -0.309,-0.37 -0.769,-0.924 -0.787,-1.562 -0.697,0 -1.296,-0.388 -1.407,-0.917 -0.222,0.183 -0.483,0.282 -0.752,0.282 -0.169,0 -0.331,-0.04 -0.477,-0.11 -0.02,0.04 -0.041,0.084 -0.07,0.122 -0.346,0.467 -1.044,0.513 -1.66,0.554 -0.762,0 -1.539,0.244 -1.539,0.244 l 0.417,-0.757 c 0.307,-0.557 0.708,-1.145 1.129,-1.768 0.713,-1.05 1.503,-2.209 1.935,-3.393 -0.207,-0.206 -0.29,-0.451 -0.309,-0.682 h -0.331 c -1.542,0 -2.109,-0.814 -2.309,-1.296 -0.413,-0.995 -0.037,-2.234 0.414,-2.684 l 0.343,-0.346 0.283,0.396 c 0.209,0.294 0.524,0.352 0.748,0.352 0.32,0 0.661,-0.12 0.913,-0.323 l 0.148,-0.118 0.185,0.036 c 0.184,0.036 0.363,0.052 0.545,0.052 0.474,0 0.921,-0.129 1.26,-0.36 -0.108,0.03 -0.228,0.051 -0.355,0.063 -0.139,0.014 -0.279,0.022 -0.412,0.022 -1.015,0 -1.763,-0.376 -2.423,-0.705 -0.148,-0.075 -0.286,-0.144 -0.42,-0.207 -0.107,-0.049 -0.235,-0.071 -0.389,-0.071 -0.433,0 -0.871,0.198 -0.877,0.202 L -9.55,-7.352 -9.683,-7.82 c -0.111,-0.385 -0.046,-0.764 0.177,-1.062 0.265,-0.351 0.739,-0.554 1.296,-0.554 0.214,0 0.437,0.03 0.667,0.085 0.441,0.108 0.782,0.273 1.081,0.43 0.005,-0.191 0.052,-0.329 0.059,-0.356 l 0.157,-0.414 0.399,0.183 c 0.007,0.002 0.626,0.276 1.182,0.276 0.058,0 0.114,-0.001 0.166,-0.009 0.086,-0.009 0.173,-0.025 0.269,-0.04 l 0.057,-0.051 c 0.392,-0.346 0.554,-0.762 0.501,-1.269 -0.135,-1.296 -1.66,-2.835 -2.662,-3.406 l -0.384,-0.216 0.245,-0.369 c 0.093,-0.14 0.207,-0.265 0.335,-0.375 -1.443,-1.399 -1.927,-2.742 -2.314,-3.825 -0.224,-0.617 -0.417,-1.148 -0.735,-1.601 l -0.211,-0.304 c -1.273,0.04 -2.484,0.238 -3.109,1.178 -0.308,0.462 -0.443,1.29 -0.341,2.113 l 0.033,0.276 c 1.765,0.988 2.4,2.375 2.606,3.452 0.507,2.653 -1.078,5.995 -4.037,8.518 -1.064,0.908 -2.785,2.236 -4.928,3.383 -2.457,1.321 -4.868,2.08 -7.163,2.275 -0.189,0.016 -0.551,0.008 -0.551,0.008 0,0 0.08,-0.391 0.121,-0.535 0.338,-1.139 1.244,-2.593 2.203,-3.605 -1.482,0.711 -3.012,1.115 -4.287,1.115 -0.369,0 -0.773,-0.056 -0.773,-0.056 0,0 0.048,-0.338 0.067,-0.45 0.263,-1.474 0.849,-2.638 1.763,-3.72 -1.106,0.78 -1.859,1.406 -2.202,1.903 -0.104,0.148 -0.335,0.43 -0.335,0.43 0,0 -0.305,-0.328 -0.38,-0.493 -0.43,-0.963 -0.257,-1.911 0.556,-2.988 0.114,-0.152 0.245,-0.309 0.39,-0.475 -0.801,0.132 -1.496,0.199 -2.094,0.199 -0.93,0 -1.794,-0.266 -1.794,-0.266 0,0 0.141,-0.344 0.193,-0.454 0.802,-1.746 2.817,-3.298 4.423,-4.312 -3.133,1.204 -4.359,1.822 -4.801,2.136 -0.13,0.092 -0.457,0.316 -0.457,0.316 0,0 -0.155,-0.416 -0.187,-0.572 -0.248,-1.271 0.658,-2.152 1.36,-2.705 0.354,-0.282 0.767,-0.559 1.255,-0.848 -1.825,-0.379 -3.027,-0.886 -3.982,-1.388 -0.141,-0.072 -0.51,-0.295 -0.51,-0.295 0,0 0.32,-0.294 0.444,-0.394 0.845,-0.671 1.719,-1.367 3.126,-1.947 0.861,-0.354 1.876,-0.646 3.099,-0.892 -0.245,-0.003 -0.49,-0.006 -0.729,-0.006 -2.796,0 -4.234,0.213 -4.646,0.414 -0.19,0.091 -0.644,0.289 -0.644,0.289 0,0 0.016,-0.541 0.062,-0.749 0.194,-0.897 0.837,-1.59 1.915,-2.058 0.555,-0.239 1.223,-0.424 2.017,-0.555 -2.146,-1.25 -3.529,-2.528 -4.023,-3.744 l -0.161,-0.396 0.401,-0.146 c 0.628,-0.229 1.817,-0.474 3.268,-0.474 0.674,0 1.351,0.055 2.025,0.153 -2.194,-1.506 -3.965,-2.365 -5.002,-2.407 l -1.077,-0.042 0.833,-0.685 c 0.783,-0.65 1.738,-0.977 2.837,-0.977 1.124,0 2.416,0.335 3.907,1.009 -0.741,-0.999 -1.389,-2.047 -1.932,-3.153 -1.201,-2.436 -1.628,-4.559 -1.775,-5.911 l -0.065,-0.605 0.584,0.163 c 3.091,0.851 5.401,2.057 8.112,5.481 -1.803,-3.49 -3.968,-7.624 -5.169,-8.217 l -1.189,-0.584 1.311,-0.197 c 0.359,-0.05 0.682,-0.075 0.988,-0.075 1.161,0 2.115,0.388 3,1.225 0.945,0.892 1.848,2.316 2.84,4.485 0.051,0.115 0.119,0.279 0.199,0.48 -0.072,-0.336 -0.136,-0.676 -0.199,-1.016 -0.626,-3.415 -0.643,-5.877 -0.051,-7.513 l 0.192,-0.538 0.45,0.359 c 1.724,1.36 3.033,3.047 4.002,5.141 -0.117,-0.577 -0.22,-1.058 -0.299,-1.378 l -0.197,-0.803 0.76,0.328 c 1.135,0.488 2.679,2.072 3.786,6.756 0.172,-0.375 0.345,-0.675 0.501,-0.888 l 0.254,-0.351 0.339,0.277 c 0.504,0.407 1.121,1.284 1.609,2.294 0.353,0.724 0.776,1.798 1.028,3.13 0.146,-0.021 0.299,-0.033 0.453,-0.033 1.113,0 2.045,0.417 2.674,1.157 0.136,-0.485 0.247,-0.88 0.293,-1.042 -0.131,0.007 -0.256,0.012 -0.379,0.012 -2.58,0 -3.14,-1.619 -3.511,-2.69 -0.751,-2.173 -2.738,-4.233 -3.368,-4.651 -0.165,-0.11 -0.564,-0.384 -0.564,-0.384 0,0 0.144,-0.226 0.572,-0.332 -0.512,-0.855 -1.878,-1.928 -1.878,-1.928 0,0 0.264,-0.211 0.743,-0.285 -1.163,-0.976 -2.094,-1.331 -2.094,-1.331 0,0 0.309,-0.301 0.865,-0.486 -0.713,-0.71 -1.718,-1.331 -1.718,-1.331 0,0 0.313,-0.261 0.56,-0.376 0.751,-0.338 1.501,-0.533 2.359,-0.571 -0.457,-0.463 -0.877,-0.883 -1.178,-1.143 l -0.453,-0.383 c 0,0 0.125,-0.152 0.352,-0.198 -0.21,-0.214 -0.838,-0.774 -1.191,-1.058 l -0.456,-0.371 c 0,0 0.129,-0.125 0.319,-0.193 -0.312,-0.392 -1.026,-0.937 -1.266,-1.117 l -0.52,-0.386 c 0,0 0.163,-0.133 0.334,-0.178 -0.263,-0.257 -0.9,-0.768 -1.235,-0.956 -0.128,-0.068 -0.505,-0.28 -0.505,-0.28 0,0 0.161,-0.228 0.406,-0.368 -0.088,-0.056 -0.157,-0.163 -0.477,-0.166 -0.406,-0.005 -1.047,0.166 -1.822,0.427 -0.586,0.194 -1.422,0.321 -2.123,0.323 -0.217,0.554 -0.819,1.22 -1.75,1.22 -0.536,0 -1.019,-0.21 -1.362,-0.589 -0.239,-0.259 -0.395,-0.58 -0.459,-0.928 -0.339,0.087 -0.593,-0.122 -0.711,-0.345 -0.072,-0.132 -0.099,-0.286 -0.078,-0.43 H -28.8 c -0.395,-0.326 -0.614,-0.768 -0.609,-1.242 0.005,-0.567 0.316,-1.128 0.853,-1.547 l 0.435,-0.336 0.202,0.516 c 0.14,0.364 0.472,0.752 0.838,1.053 0.191,-0.033 0.379,-0.051 0.562,-0.051 0.767,0 1.26,0.282 1.545,0.526 0.738,-0.331 1.097,-0.595 1.766,-0.684 -0.364,-0.153 -0.625,-0.2 -0.746,-0.242 -0.309,-0.095 -0.603,-0.195 -0.947,-0.421 -0.336,0.272 -0.735,0.419 -1.161,0.419 -0.35,0 -0.702,-0.102 -0.991,-0.287 -0.718,-0.456 -1.04,-1.332 -0.786,-2.134 0.005,-0.022 0.014,-0.043 0.022,-0.063 -0.1,-0.089 -0.169,-0.206 -0.196,-0.351 -0.051,-0.244 0.031,-0.584 0.391,-0.831 -0.095,-0.555 0.04,-0.984 0.332,-1.325 0.339,-0.397 0.893,-0.628 1.515,-0.628 0.261,0 0.737,0.046 0.737,0.046 l -0.196,0.519 c -0.136,0.364 -0.146,0.775 -0.091,1.223 0.571,0.264 1.012,0.806 1.149,1.395 0.944,0.115 1.674,0.511 2.518,1.266 0,0 -0.383,-0.584 -0.573,-0.905 -0.055,-0.091 -0.113,-0.182 -0.172,-0.284 -0.05,0.004 -0.096,0.004 -0.145,0.004 -0.757,0 -1.365,-0.38 -1.666,-1.045 -0.299,-0.66 -0.221,-1.443 0.191,-1.911 0.034,-0.041 0.071,-0.079 0.111,-0.114 -0.084,-0.107 -0.133,-0.244 -0.13,-0.397 0.002,-0.267 0.168,-0.567 0.524,-0.692 0.067,-0.899 0.75,-1.502 1.704,-1.502 0.557,0 1.237,0.267 1.237,0.267 l -0.306,0.465 c -0.22,0.326 -0.335,0.704 -0.37,1.236 0.682,0.526 0.882,1.451 0.605,2.341 0.631,0.61 0.984,1.332 1.3,1.973 0.035,0.074 0.068,0.14 0.101,0.203 0.633,-0.152 1.273,-0.183 1.707,-0.183 0.176,0 0.337,0.003 0.475,0.013 0.139,-0.473 0.419,-0.846 0.827,-1.096 -0.019,-0.465 -0.07,-0.917 -0.248,-1.238 l -0.252,-0.45 c 0,0 0.666,-0.214 1.064,-0.214 0.525,0 0.994,0.182 1.316,0.505 0.281,0.286 0.432,0.713 0.439,1.151 0.445,0.127 0.594,0.48 0.587,0.755 -0.006,0.171 -0.068,0.328 -0.167,0.445 0.339,0.445 0.364,1.136 0.103,1.706 -0.297,0.648 -0.968,1.07 -1.727,1.095 -0.392,0.013 -0.735,-0.14 -1.014,-0.267 -0.213,-0.091 -0.395,-0.175 -0.569,-0.175 -0.032,0 -0.064,0 -0.092,0.01 -0.075,0.268 -0.117,0.656 0.218,1.028 0.571,0.628 3.049,2.732 5.04,4.425 0.414,0.352 0.79,0.672 1.125,0.958 0.434,-0.747 1.073,-1.234 1.927,-1.442 0.228,-0.06 0.584,-0.089 0.584,-0.089 0,0 -0.191,1.026 -0.132,1.746 0.288,-0.147 0.588,-0.224 0.588,-0.224 0,0 0.034,0.4 0.052,0.534 0.202,2.013 0.641,4.162 2.3,6.325 -0.198,-2.372 -0.694,-4.362 -1.443,-5.743 l -0.505,-0.93 1.002,0.342 c 0.438,0.153 0.818,0.38 1.15,0.685 -0.35,-1.879 -1.208,-3.621 -2.32,-3.621 -0.281,0 -0.585,0.112 -0.9,0.333 l -0.454,0.316 -0.173,-0.524 c -0.335,-0.997 -0.08,-1.66 0.194,-2.039 0.376,-0.519 1.026,-0.831 1.741,-0.831 0.567,0 1.072,0.126 1.514,0.323 -1.006,-1.247 -2.639,-2.378 -3.939,-2.378 -0.321,0 -0.454,0.115 -0.526,0.204 -0.232,0.282 -0.248,0.857 -0.166,1.273 l 0.107,0.545 -0.555,-0.056 c -0.474,-0.051 -1.023,-0.362 -1.469,-0.832 -0.498,-0.534 -0.776,-1.177 -0.776,-1.812 0,-0.84 0.256,-1.556 0.742,-2.08 0.105,-0.115 0.222,-0.219 0.35,-0.315 -0.967,-0.532 -1.519,-1.417 -1.519,-2.454 0,-0.956 0.45,-1.83 1.264,-2.469 0.718,-0.557 1.643,-0.877 2.548,-0.877 1.407,0 2.654,0.407 3.707,1.2 0.618,0.471 1.107,1.028 1.486,1.538 0.048,-2.298 0.485,-4.197 1.329,-5.834 l 0.366,-0.713 0.367,0.713 c 0.845,1.637 1.281,3.536 1.329,5.834 0.379,-0.51 0.869,-1.067 1.486,-1.538 1.053,-0.793 2.301,-1.2 3.708,-1.2 0.901,0 1.83,0.32 2.545,0.877 0.816,0.639 1.266,1.513 1.266,2.469 0,1.037 -0.551,1.922 -1.518,2.454 0.127,0.096 0.243,0.2 0.349,0.315 0.485,0.524 0.743,1.24 0.743,2.08 0,0.635 -0.279,1.278 -0.779,1.812 -0.443,0.47 -0.993,0.781 -1.47,0.832 -0.136,0.012 -0.554,0.056 -0.554,0.056 l 0.109,-0.545 c 0.083,-0.416 0.066,-0.991 -0.166,-1.273 -0.071,-0.089 -0.208,-0.204 -0.525,-0.204 -1.3,0 -2.934,1.131 -3.94,2.378 0.443,-0.197 0.946,-0.323 1.514,-0.323 0.714,0 1.366,0.312 1.74,0.831 0.273,0.379 0.527,1.042 0.196,2.039 l -0.174,0.524 -0.451,-0.316 c -0.317,-0.221 -0.622,-0.333 -0.903,-0.333 -1.114,0 -1.97,1.742 -2.32,3.621 0.332,-0.305 0.712,-0.532 1.151,-0.685 l 1,-0.342 -0.502,0.93 c -0.75,1.381 -1.246,3.371 -1.449,5.743 1.663,-2.163 2.101,-4.312 2.305,-6.325 0.013,-0.134 0.053,-0.534 0.053,-0.534 0,0 0.299,0.077 0.587,0.224 0.058,-0.72 -0.133,-1.746 -0.133,-1.746 0,0 0.353,0.029 0.581,0.089 0.857,0.208 1.495,0.695 1.931,1.442 0.333,-0.286 0.71,-0.606 1.125,-0.958 1.991,-1.693 4.468,-3.797 5.039,-4.425 0.334,-0.372 0.293,-0.76 0.219,-1.028 -0.031,-0.01 -0.064,-0.01 -0.092,-0.01 -0.177,0 -0.359,0.084 -0.572,0.175 -0.276,0.127 -0.621,0.28 -1.01,0.267 -0.761,-0.025 -1.434,-0.447 -1.728,-1.095 -0.262,-0.57 -0.237,-1.261 0.103,-1.706 -0.101,-0.117 -0.161,-0.274 -0.169,-0.445 -0.008,-0.275 0.143,-0.628 0.587,-0.755 0.008,-0.438 0.16,-0.865 0.441,-1.151 0.322,-0.323 0.787,-0.505 1.316,-0.505 0.397,0 1.061,0.214 1.061,0.214 l -0.251,0.45 c -0.177,0.321 -0.228,0.773 -0.248,1.238 0.409,0.25 0.689,0.623 0.826,1.096 0.138,-0.01 0.3,-0.013 0.478,-0.013 0.431,0 1.074,0.031 1.704,0.183 0.033,-0.063 0.068,-0.129 0.103,-0.203 0.316,-0.641 0.668,-1.363 1.302,-1.973 -0.279,-0.89 -0.077,-1.815 0.603,-2.341 -0.036,-0.532 -0.152,-0.91 -0.37,-1.236 l -0.305,-0.465 c 0,0 0.68,-0.267 1.237,-0.267 0.951,0 1.633,0.603 1.703,1.502 0.355,0.125 0.522,0.425 0.525,0.692 0.001,0.153 -0.046,0.29 -0.132,0.397 0.039,0.035 0.077,0.073 0.112,0.114 0.411,0.468 0.487,1.251 0.191,1.911 -0.299,0.665 -0.908,1.045 -1.668,1.045 -0.046,0 -0.096,0 -0.143,-0.004 -0.06,0.102 -0.115,0.193 -0.17,0.284 -0.191,0.321 -0.574,0.905 -0.574,0.905 0.843,-0.755 1.572,-1.151 2.517,-1.266 0.134,-0.589 0.575,-1.131 1.147,-1.395 0.055,-0.448 0.047,-0.859 -0.09,-1.223 l -0.196,-0.519 c 0,0 0.476,-0.046 0.737,-0.046 0.623,0 1.176,0.231 1.517,0.628 0.291,0.341 0.424,0.77 0.332,1.325 0.36,0.247 0.442,0.587 0.392,0.831 -0.028,0.145 -0.099,0.262 -0.2,0.351 0.01,0.02 0.017,0.041 0.024,0.063 0.254,0.802 -0.069,1.678 -0.787,2.134 -0.288,0.185 -0.64,0.287 -0.988,0.287 -0.425,0 -0.827,-0.147 -1.162,-0.419 -0.344,0.226 -0.64,0.326 -0.946,0.421 -0.126,0.042 -0.384,0.089 -0.747,0.242 0.668,0.089 1.026,0.353 1.764,0.684 0.283,-0.244 0.779,-0.526 1.545,-0.526 0.181,0 0.371,0.018 0.563,0.051 0.365,-0.301 0.696,-0.689 0.838,-1.053 l 0.2,-0.516 0.437,0.336 c 0.537,0.419 0.845,0.98 0.854,1.547 0.004,0.474 -0.213,0.916 -0.611,1.242 h -0.003 c 0.02,0.144 -0.006,0.298 -0.076,0.43 -0.123,0.223 -0.375,0.432 -0.712,0.345 -0.067,0.348 -0.222,0.669 -0.46,0.928 -0.343,0.379 -0.829,0.589 -1.362,0.589 -0.93,0 -1.531,-0.666 -1.748,-1.22 -0.706,-0.002 -1.539,-0.129 -2.125,-0.323 -0.774,-0.261 -1.416,-0.432 -1.823,-0.427 -0.319,0.003 -0.388,0.11 -0.476,0.166 0.246,0.14 0.407,0.368 0.407,0.368 0,0 -0.38,0.212 -0.507,0.28 -0.334,0.188 -0.972,0.699 -1.235,0.956 0.171,0.045 0.336,0.178 0.336,0.178 l -0.521,0.386 c -0.24,0.18 -0.953,0.725 -1.265,1.117 0.186,0.068 0.319,0.193 0.319,0.193 l -0.46,0.371 c -0.353,0.284 -0.976,0.844 -1.186,1.058 0.224,0.046 0.35,0.198 0.35,0.198 l -0.452,0.383 c -0.305,0.26 -0.722,0.68 -1.181,1.143 0.857,0.038 1.611,0.233 2.362,0.571 0.244,0.115 0.561,0.376 0.561,0.376 0,0 -1.006,0.621 -1.718,1.331 0.554,0.185 0.862,0.486 0.862,0.486 0,0 -0.928,0.355 -2.091,1.331 0.475,0.074 0.741,0.285 0.741,0.285 0,0 -1.367,1.073 -1.879,1.928 0.429,0.106 0.572,0.332 0.572,0.332 0,0 -0.398,0.274 -0.566,0.384 -0.627,0.418 -2.614,2.478 -3.365,4.651 -0.372,1.071 -0.932,2.69 -3.51,2.69 -0.126,0 -0.252,-0.005 -0.381,-0.012 0.044,0.162 0.155,0.56 0.294,1.045 0.627,-0.743 1.559,-1.16 2.676,-1.16 0.153,0 0.304,0.012 0.452,0.033 0.248,-1.332 0.675,-2.406 1.027,-3.13 0.487,-1.01 1.106,-1.887 1.61,-2.294 l 0.336,-0.277 0.256,0.351 c 0.156,0.213 0.331,0.513 0.501,0.888 1.107,-4.684 2.65,-6.268 3.787,-6.756 l 0.76,-0.328 -0.197,0.803 c -0.079,0.32 -0.182,0.801 -0.3,1.378 0.967,-2.094 2.28,-3.781 3.999,-5.141 l 0.449,-0.359 0.197,0.538 c 0.591,1.636 0.573,4.098 -0.05,7.513 -0.065,0.34 -0.132,0.68 -0.202,1.016 0.081,-0.201 0.149,-0.365 0.202,-0.48 0.991,-2.169 1.893,-3.593 2.836,-4.485 0.887,-0.837 1.843,-1.225 3.003,-1.225 0.305,0 0.626,0.025 0.987,0.075 l 1.312,0.197 -1.189,0.584 c -1.203,0.593 -3.369,4.727 -5.169,8.217 2.709,-3.424 5.02,-4.63 8.109,-5.481 l 0.585,-0.163 -0.065,0.605 c -0.145,1.352 -0.57,3.475 -1.773,5.911 -0.544,1.106 -1.189,2.154 -1.933,3.153 1.489,-0.674 2.781,-1.009 3.904,-1.009 1.102,0 2.056,0.327 2.84,0.977 l 0.834,0.685 -1.08,0.042 c -1.034,0.042 -2.809,0.901 -5.002,2.407" style="fill:#231f20;fill-opacity:1;fill-rule:nonzero;stroke:none" transform="matrix(1.3333333,0,0,-1.3333333,71.1484,30.895867)" clip-path="url(#clipPath5)"/>
      <path id="path6" d="M 0,0 C 0.216,0 0.39,0.174 0.392,0.386 0.147,0.381 -0.116,0.345 -0.38,0.299 -0.339,0.127 -0.184,0 0,0 m -1.638,0.012 c 0.151,-0.77 0.825,-1.35 1.638,-1.35 0.904,0 1.637,0.714 1.673,1.611 C 1.482,0.303 1.307,0.329 1.145,0.345 1.12,-0.265 0.618,-0.753 0,-0.753 c -0.543,0 -1,0.382 -1.119,0.891 C -1.191,0.118 -1.261,0.103 -1.33,0.085 -1.439,0.059 -1.542,0.035 -1.638,0.012 m 6.926,-11.414 c -0.117,-0.025 -0.235,-0.034 -0.353,-0.034 -0.586,0 -1.14,0.267 -1.223,0.703 0.197,-0.168 0.649,-0.328 1.116,-0.328 0.338,0 0.689,0.085 0.957,0.315 -0.802,2.293 1.198,6.757 -0.073,8.841 0,0 -0.032,-0.002 -0.085,-0.002 -0.166,0 -0.544,0.031 -0.77,0.314 h 0.021 c 1.309,0 2.103,1.123 1.46,2.116 -0.372,-0.24 -0.839,-0.43 -1.271,-0.43 -0.182,0 -0.353,0.031 -0.51,0.108 1.4,0.264 1.265,1.365 0.669,1.721 C 4.741,1.631 4.081,1.537 3.327,1.537 1.992,1.537 0.363,1.83 -1.119,1.83 -1.46,1.83 -1.796,1.814 -2.117,1.775 -2.869,1.685 -3.193,1.398 -3.193,0.934 c 0,-0.381 0.486,-0.635 0.788,-0.635 0.519,0 1.847,0.505 2.898,0.505 0.985,0 2.825,-0.429 3.401,-0.561 C 3.76,0.164 3.485,0.035 3.103,0.035 2.973,0.035 2.835,0.049 2.686,0.085 2.473,0.129 2.271,0.167 2.085,0.201 2.013,-0.886 1.107,-1.751 0,-1.751 c -1.009,0 -1.853,0.723 -2.043,1.677 -0.135,-0.024 -0.256,-0.038 -0.362,-0.038 -0.048,0 -0.097,0.003 -0.143,0.01 0.072,-0.555 0.238,-0.98 0.465,-1.21 0.351,-0.353 0.867,-0.593 1.368,-0.825 0.927,-0.431 1.976,-0.918 1.976,-2.222 0,-0.952 -0.491,-1.477 -1.386,-1.477 -0.195,0 -0.401,0.024 -0.604,0.054 1.164,-1.684 -1.186,-4.181 -2.567,-4.964 0.303,-0.457 0.832,-0.643 1.41,-0.643 0.688,0 1.45,0.263 1.984,0.656 -0.19,-0.6 -1.045,-1.088 -1.958,-1.088 -0.363,0 -0.733,0.077 -1.079,0.255 -2.247,-2.138 -2.104,-4.064 -3.076,-5.448 h 0.201 c 1.212,0 3.656,0.081 3.656,2.987 0,-2.608 2.651,-4.38 2.651,-4.38 0,0 2.654,1.772 2.654,4.38 0,-2.826 2.704,-3.044 3.54,-3.044 0.15,0 0.239,0.005 0.239,0.005 -0.88,1.952 -1.532,4.345 -1.638,5.664 m -8.793,6.63 c -0.369,-0.195 -0.754,-0.427 -1.303,-0.561 -0.2,-0.049 -0.391,-0.073 -0.567,-0.073 -0.788,0 -1.253,0.473 -1.077,1.09 0,0 0.512,-0.241 1.051,-0.241 0.192,0 0.387,0.031 0.562,0.111 0.75,0.347 1.54,0.874 2.67,0.874 0.119,0 0.241,-0.005 0.371,-0.017 0.479,-0.047 0.745,-0.237 0.893,-0.425 -0.258,0.037 -0.553,0.066 -0.841,0.066 -0.261,0 -0.478,-0.023 -0.666,-0.071 -0.534,-0.132 -0.899,-0.381 -1.086,-0.739 -0.003,-0.003 -0.003,-0.007 -0.007,-0.014 m 24.646,3.399 C 20.486,-1.904 19.6,-2.622 18.733,-3.326 17.88,-4.021 17.189,-4.582 16.655,-5.015 c -0.107,-0.468 -0.25,-0.909 -0.4,-1.303 0.992,0.842 2.578,1.901 4.371,2.005 l 0.06,0.004 c 2.274,1.705 4.567,3.407 5.295,3.928 -0.549,-0.535 -2.762,-2.401 -4.936,-4.204 l 0.01,-0.078 c 0.109,-0.734 0.069,-1.454 -0.076,-2.13 1.852,1.425 3.747,2.954 4.233,3.467 1.112,1.158 1.758,2.382 2.094,4.003 -0.1,0.005 -0.199,0.008 -0.303,0.008 -1.543,0 -3.29,-0.6 -4.749,-1.406 -0.35,-0.191 -0.726,-0.415 -1.113,-0.652 m 8.262,-9.762 c 1.996,1.128 3.071,2.109 2.826,3.352 -0.988,-0.703 -4.453,-2.037 -6.84,-2.919 1.594,-0.084 2.909,-0.236 4.014,-0.433 m -8.56,3.812 c -0.275,-0.919 -0.728,-1.738 -1.221,-2.386 0.022,0.005 0.044,0.012 0.059,0.016 3.191,1.295 7.962,3.147 10.251,3.937 -1.57,-0.78 -5.547,-2.431 -8.356,-3.581 0.287,0.032 0.559,0.049 0.82,0.049 0.973,0 1.821,-0.237 2.82,-0.79 l 0.143,-0.078 c 1.429,0.745 4.756,2.804 5.887,5.068 -0.296,0.065 -0.683,0.124 -1.233,0.124 -0.964,0 -2.438,-0.181 -4.84,-0.813 -1.487,-0.393 -3.051,-0.999 -4.33,-1.546 m 1.461,1.034 c 0.886,0.337 1.843,0.665 2.762,0.907 0.792,0.211 1.515,0.379 2.174,0.509 1.36,1.393 1.709,2.388 1.248,3.415 -0.575,-0.833 -2.135,-1.946 -4.511,-3.487 -0.498,-0.411 -1.073,-0.872 -1.673,-1.344 M 11.144,-27.53 c -0.229,0.469 -0.437,0.988 -0.625,1.577 0.043,-2.579 0.071,-5.895 0.071,-5.895 0,0 -0.28,3.292 -0.499,5.813 -0.135,-0.225 -0.296,-0.436 -0.479,-0.629 -0.412,-0.433 -0.9,-0.74 -1.425,-0.899 0.491,-2.68 1.801,-4.645 2.491,-5.203 0.394,0.549 1.068,1.935 1.256,3.932 -0.292,0.383 -0.557,0.82 -0.79,1.304 m -0.673,14.834 c -0.093,0.178 -0.178,0.404 -0.228,0.592 -0.394,1.593 -0.12,3.532 0.744,5.153 1.045,1.962 2.87,3.537 5.281,4.555 l 0.095,0.041 c 2.722,2.46 4.877,3.81 6.603,4.977 -1.837,-1.488 -3.864,-3.017 -6.153,-5.138 l 0.025,-0.215 c 0.057,-0.543 0.027,-1.106 -0.058,-1.652 1.783,1.446 4.331,3.527 4.981,4.039 1.064,0.835 2.348,2.643 2.763,4.049 C 19.438,3.282 14.894,0.044 12.665,-1.857 8.786,-5.168 7.144,-10.143 10.471,-12.696 m 16.482,-10.465 c -0.791,0.202 -2.321,0.719 -3.223,1.03 L 23.331,-22.2 c -0.135,-0.023 -0.271,-0.039 -0.41,-0.056 0.56,-0.602 0.995,-1.068 1.063,-1.135 0.841,-0.759 1.608,-1.57 2.306,-2.424 1.798,-0.912 3.267,-1.329 4.474,-1.329 1.042,0 1.888,0.312 2.577,0.88 -1.651,0.065 -4.392,1.87 -5.955,3 -0.144,0.032 -0.288,0.068 -0.433,0.103 m 1.328,4.709 c -0.676,0.343 -1.918,0.823 -3.102,1.259 -0.809,-0.312 -1.899,-0.553 -2.988,-0.553 -0.203,0 -0.401,0.01 -0.592,0.027 3.342,-1.382 8.484,-3.52 10.863,-4.627 -2.369,0.909 -7.546,2.897 -10.892,4.183 1.033,-1.012 1.773,-2.231 2.088,-3.507 0.848,-0.296 2.563,-0.881 3.395,-1.091 1.228,-0.314 2.356,-0.426 3.331,-0.426 1.488,0 2.606,0.261 3.127,0.448 -0.534,1.311 -2.28,2.808 -5.23,4.287 m -4.577,-5.243 c -0.056,0.056 -0.6,0.64 -1.305,1.399 -0.098,-0.001 -0.191,-0.004 -0.289,-0.004 -1.062,0 -2.143,0.222 -3.206,0.661 3.033,-3.753 8.283,-10.232 10.291,-12.835 -2.388,2.743 -7.252,8.53 -10.66,12.619 0.313,-0.552 0.559,-1.104 0.737,-1.664 0.302,-0.951 0.404,-1.921 0.302,-2.894 3.99,-6.485 6.622,-8.153 10.583,-9.244 -0.365,3.383 -2.107,8.033 -6.453,11.962 m -8.288,-1.662 c 1.2,-4.711 3.057,-11.747 3.983,-15.177 -1.034,3.189 -3.153,10.423 -4.485,15.002 0.039,-0.375 0.059,-0.728 0.059,-1.065 0.006,-1.447 -0.32,-2.602 -0.992,-3.53 l -0.053,-0.076 c 0.923,-3.716 1.682,-8.313 5.891,-11.636 1.234,3.412 -0.64,10.27 -1.81,14.351 -0.942,0.447 -1.825,1.18 -2.593,2.131 m 5.729,-4.579 c -0.18,0.345 -0.484,0.938 -0.823,1.59 -0.273,0.41 -0.554,0.845 -0.84,1.302 -0.031,-0.159 -0.068,-0.318 -0.108,-0.479 l -0.106,-0.405 -0.407,0.113 c -0.122,0.037 -0.244,0.078 -0.369,0.122 0.208,-0.71 0.424,-1.487 0.641,-2.306 0.585,-1.661 1.165,-3.252 1.4,-3.764 1.974,-4.321 3.521,-5.471 5.464,-5.471 0.298,0 0.606,0.028 0.928,0.076 -1.422,0.697 -3.721,5.23 -5.78,9.222 m -7.37,-1.385 c -0.084,0.355 -0.165,0.694 -0.248,1.026 l -0.101,0.064 c -0.414,0.27 -0.787,0.584 -1.129,0.957 -0.106,-0.84 -0.295,-1.575 -0.512,-2.177 1.128,-5.209 2.746,-6.644 3.677,-7.043 -0.172,0.689 -0.452,2.108 -0.745,3.667 -0.393,1.207 -0.676,2.401 -0.942,3.506 m -3.701,6.292 C 9.617,-25.447 9,-25.695 8.347,-25.695 c -0.375,0 -0.741,0.077 -1.092,0.233 -0.498,-0.515 -1.292,-0.747 -1.933,-0.747 -0.151,0 -0.292,0.011 -0.427,0.036 0.491,-0.629 1.272,-1.104 2.435,-1.104 1.322,0 2.43,1.053 2.744,2.248 m 9.15,15.479 c 0.991,1.251 1.685,3.062 1.424,4.828 -1.787,-0.105 -3.489,-1.28 -4.594,-2.332 0.574,-0.273 1.072,-0.768 1.32,-1.474 l 2.445,2.856 c -0.304,-0.402 -1.365,-1.975 -2.147,-3.145 0.595,-0.072 1.14,-0.332 1.552,-0.733 M 7.144,-24.939 c 0.399,-0.24 0.812,-0.347 1.203,-0.347 0.895,0 1.681,0.556 1.983,1.332 0.428,-0.345 0.922,-0.504 1.404,-0.504 1.005,0 1.96,0.703 2.157,1.929 0.367,-0.231 0.755,-0.333 1.129,-0.333 1.315,0 2.488,1.265 2.124,2.759 0.082,-0.007 0.16,-0.008 0.242,-0.008 1.962,0 2.854,1.984 1.857,3.436 1.721,0.581 1.968,3.212 -0.04,4.081 0.993,1.67 -0.184,3.388 -1.867,3.388 -0.073,0 -0.151,-0.002 -0.229,-0.01 -0.147,1.351 -1.241,2.006 -2.164,2.006 h -0.011 c -1.105,-0.005 -2.184,-0.862 -2.184,-2.197 -1.526,-0.004 -2.158,-1.359 -2.158,-2.171 0,-0.893 0.732,-1.941 1.976,-2.155 0.214,0.511 0.556,1.038 1.217,1.34 -0.32,1.024 0.188,1.864 0.539,2.446 0.075,0.122 0.488,0.896 0.488,0.896 0,0 0.561,-0.668 0.661,-0.774 0.465,-0.494 1.14,-1.216 1.037,-2.283 1.048,-0.232 1.522,-1.094 1.851,-1.691 0.069,-0.127 0.529,-0.868 0.529,-0.868 0,0 -0.861,-0.154 -1,-0.187 -0.342,-0.081 -0.732,-0.171 -1.148,-0.171 -0.137,0 -0.268,0.01 -0.395,0.028 0.152,-1.472 -0.237,-2.81 -1.153,-3.994 -2.013,-2.595 -6.156,-3.815 -9.532,-3.909 -0.056,-0.321 -0.13,-0.597 -0.187,-0.789 -0.137,-0.452 -0.375,-1.279 -0.597,-2.06 0.136,-0.033 0.29,-0.048 0.446,-0.048 0.687,0 1.483,0.306 1.822,0.858 M 25.145,-11.1 c -0.464,-0.794 -1.187,-1.492 -2.116,-2.039 -0.147,-0.083 -0.297,-0.162 -0.45,-0.239 3.755,0.113 7.773,0.179 9.781,0.253 -1.626,-0.146 -6.346,-0.43 -9.522,-0.622 0.523,-0.147 1.046,-0.372 1.558,-0.674 0.732,-0.436 1.416,-1.019 1.883,-1.603 4.524,0.676 5.908,1.722 7.532,3.015 -1.588,0.831 -3.861,1.678 -8.666,1.909 M 6.497,-20.332 C 6.439,-20.524 6.375,-20.71 6.315,-20.892 6.131,-21.44 5.96,-21.959 5.861,-22.437 l -0.01,-0.045 c 4.749,0.195 10.689,2.644 10.066,7.595 -0.185,0.069 -0.361,0.16 -0.525,0.278 -0.146,-0.16 -0.301,-0.282 -0.461,-0.382 0.223,-3.858 -4.113,-5.285 -8.434,-5.341 m 0.472,2.834 c 0.068,-0.791 -0.108,-1.624 -0.344,-2.422 3.338,0.064 5.919,0.925 7.118,2.389 0.537,0.656 0.796,1.441 0.781,2.341 -0.483,-0.181 -0.95,-0.181 -1.218,-0.181 -0.104,0 -1.321,-0.022 -1.321,-0.022 0,0 0.297,0.822 0.337,0.962 0.03,0.092 0.061,0.194 0.094,0.295 -0.594,0.07 -1.004,0.394 -1.004,0.394 0.1,-0.799 0,-1.779 -0.409,-2.39 -0.837,-1.26 -2.523,-1.364 -4.034,-1.366 m 7.962,10.7 h 0.012 c 0.205,0 0.42,-0.029 0.627,-0.08 0.451,0.953 1.021,2.609 0.858,4.1 -4.198,-1.771 -5.899,-4.971 -5.957,-7.638 0.335,0.663 0.957,1.26 1.892,1.394 0.04,0.307 0.135,0.592 0.264,0.844 0.488,1.189 1.134,2.061 2.959,4.176 -0.997,-1.406 -1.517,-2.249 -1.906,-3.121 0.386,0.209 0.822,0.323 1.251,0.325 m -2.344,-8.158 c 0.056,10e-4 0.11,0.003 0.167,0.003 0.171,0 0.359,-0.005 0.552,-0.005 0.692,0 1.494,0.092 2.023,0.943 0.449,-0.461 0.936,-0.599 1.411,-0.599 0.538,0 1.06,0.183 1.471,0.249 -0.418,0.655 -0.806,1.858 -2.187,1.906 0.379,1.326 -0.642,2.069 -1.136,2.666 -0.36,-0.685 -1.208,-1.626 -0.557,-2.846 -1.342,-0.33 -1.475,-1.59 -1.744,-2.317 m 13.381,-1.341 c -0.744,0.945 -2.516,2.334 -4.502,2.334 -0.173,0 -0.345,-0.009 -0.522,-0.033 0.066,-0.248 0.097,-0.514 0.088,-0.786 -0.008,-0.184 -0.036,-0.361 -0.079,-0.534 1.665,-0.355 3.938,-0.873 3.938,-0.873 0,0 -2.491,0.303 -4.06,0.493 -0.205,-0.493 -0.558,-0.9 -1.01,-1.165 v -0.002 c 0.745,-0.34 1.569,-0.47 2.37,-0.47 1.693,0 3.282,0.591 3.777,1.036 m 3.312,-2.211 c 2.87,0.367 3.888,1.305 4.118,2.372 -0.635,-0.308 -2.537,-0.454 -4.828,-0.454 -0.722,0 -1.485,0.016 -2.261,0.044 l -0.064,-0.06 c -0.13,-0.116 -0.31,-0.235 -0.527,-0.347 1.278,-0.477 2.212,-0.86 2.748,-1.13 0.284,-0.142 0.553,-0.283 0.814,-0.425 m -6.015,-3.288 c -0.375,1.558 -1.506,3.21 -3.258,4.367 0.125,-0.581 0.049,-1.194 -0.232,-1.729 -0.017,-0.029 -0.033,-0.055 -0.048,-0.084 1.175,-0.861 2.833,-2.104 2.833,-2.104 0,0 -1.787,1.052 -3.061,1.773 -0.445,-0.547 -1.108,-0.884 -1.871,-0.941 1.048,-0.671 2.657,-1.374 4.482,-1.374 0.378,0 0.762,0.029 1.155,0.092 m -2.458,8.194 c 1.78,0.463 3.518,1.533 4.208,3.164 -0.928,0.513 -1.699,0.738 -2.619,0.738 -0.757,0 -1.614,-0.152 -2.734,-0.422 0.309,-0.556 0.391,-1.182 0.252,-1.801 1.599,0.456 3.896,1.132 3.896,1.132 0,0 -2.335,-1.005 -4.049,-1.631 0.472,-0.294 0.833,-0.702 1.046,-1.18 m -1.831,-13.816 c 0.615,2.362 -0.076,4.443 -1.4,6.284 -0.075,-0.406 -0.248,-0.794 -0.51,-1.126 -0.12,-0.157 -0.259,-0.295 -0.411,-0.418 l 1.899,-3.966 c 0,0 -1.373,2.217 -2.278,3.704 -0.383,-0.214 -0.817,-0.333 -1.256,-0.333 -0.165,0 -0.33,0.016 -0.489,0.049 1.077,-2.127 2.683,-3.69 4.445,-4.194 m -8.412,2.827 c 0.364,-0.184 0.76,-0.279 1.17,-0.279 0.177,0 0.349,0.019 0.515,0.052 0.469,-1.729 1.199,-4.202 1.199,-4.202 0,0 -0.439,2.535 -0.754,4.335 0.619,0.249 1.12,0.741 1.4,1.387 0.652,-2.661 0.725,-4.973 -0.446,-6.587 -1.622,1.047 -2.485,2.877 -3.084,5.294 m -0.97,-16.853 c 0.46,-0.744 1.012,-1.646 1.145,-1.881 -0.187,0.188 -0.909,0.995 -1.502,1.658 -0.037,-0.473 -0.108,-0.908 -0.216,-1.304 0.584,-0.62 1.274,-0.817 2.003,-0.882 0.297,0.582 0.188,1.462 0.065,2.031 -0.493,0.082 -0.994,0.208 -1.495,0.378 m 2.851,-0.086 c -1.146,0 -2.377,0.28 -3.593,0.814 0.044,-2.224 -0.604,-4.018 -2.315,-4.449 0,0 0.141,1.019 0.036,1.48 0.813,0.671 1.567,2.169 0.687,4.349 0.361,-2.35 -0.273,-3.759 -1.3,-4.217 -0.187,1.873 -0.591,4.428 -2.763,7.002 -0.034,0.564 -0.05,1.148 -0.05,1.749 0,2.387 0.548,5.418 0.986,6.797 0.214,0.021 0.416,0.03 0.608,0.03 2.238,0 2.734,-1.29 3.123,-2.411 0.764,-2.217 2.785,-4.368 3.527,-4.861 -0.257,-0.059 -0.522,-0.09 -0.791,-0.09 -1.314,0 -2.702,0.672 -3.299,1.839 -1.456,0.041 -2.237,0.534 -3.168,1.449 0.784,-1.353 1.808,-1.747 2.962,-1.879 0.596,-1.108 1.966,-1.818 3.473,-1.818 0.204,0 0.41,0.013 0.615,0.039 0.423,-0.74 1.158,-1.361 1.582,-1.696 -0.331,-0.089 -0.755,-0.153 -1.222,-0.153 -1.208,0 -2.731,0.419 -3.869,1.927 h -0.02 c -1.596,0 -2.744,0.936 -3.521,1.549 0.662,-1.017 1.908,-2.012 3.471,-2.069 0.803,-1.12 2.259,-1.821 3.828,-1.821 0.265,0 0.537,0.015 0.807,0.058 0.551,-0.587 1.417,-1.118 1.745,-1.284 -0.426,-0.213 -1.157,-0.361 -1.981,-0.361 -1.551,0 -3.424,0.519 -4.177,2.062 -0.09,-0.007 -0.179,-0.007 -0.267,-0.007 -1.567,0 -2.576,0.824 -3.426,1.487 0.774,-1.2 1.996,-2.003 3.463,-2.003 h 0.027 c 0.854,-1.432 2.701,-1.976 4.288,-1.976 0.592,0 1.151,0.076 1.606,0.209 0.583,-0.542 0.903,-0.88 1.434,-1.2 -0.742,-0.366 -1.594,-0.545 -2.506,-0.545 M 9.322,-54.687 c 0.073,-0.569 -0.642,-2.028 -1.939,-2.028 -2.103,0 -4.516,3.503 -5.205,4.56 -0.036,-0.465 -0.093,-0.917 -0.167,-1.355 0.62,-1.105 2.578,-4.347 5.372,-4.347 1.284,0 2.548,0.699 2.238,2.092 0.578,-1.202 -0.432,-2.499 -2.238,-2.499 -2.014,0 -4.148,1.566 -5.327,3.804 0.079,-0.804 0.129,-1.572 0.137,-2.296 0.93,-1.406 2.415,-3.041 5.19,-3.041 1.582,0 3.4,1.131 3.4,2.934 0,0.867 -0.448,1.688 -1.461,2.176 m -10.388,0.227 c -1.181,-2.238 -3.314,-3.804 -5.328,-3.804 -1.808,0 -2.819,1.297 -2.24,2.499 -0.312,-1.393 0.954,-2.092 2.24,-2.092 2.793,0 4.752,3.242 5.371,4.347 -0.073,0.438 -0.127,0.89 -0.168,1.355 -0.687,-1.057 -3.102,-4.56 -5.203,-4.56 -1.299,0 -2.013,1.459 -1.941,2.028 -1.012,-0.488 -1.46,-1.309 -1.46,-2.176 0,-1.803 1.818,-2.934 3.401,-2.934 2.772,0 4.26,1.635 5.189,3.041 0.011,0.724 0.056,1.492 0.139,2.296 m 1.922,-2.759 -0.213,-0.389 c -0.057,-1.36 -0.114,-2.799 -0.15,-3.834 -0.034,1.035 -0.09,2.474 -0.147,3.837 l -0.212,0.386 c -0.304,0.55 -0.597,1.315 -0.838,2.215 -0.261,-3.079 0.008,-5.807 1.197,-8.116 1.189,2.309 1.46,5.037 1.199,8.116 -0.24,-0.9 -0.537,-1.665 -0.836,-2.215 m 7.621,7.44 c 0.11,-0.545 0.173,-1.97 -1.094,-1.97 -1.712,0 -3.865,1.698 -4.803,3.31 -0.24,0.192 -0.456,0.401 -0.638,0.606 0.114,-0.536 0.189,-1.08 0.236,-1.618 0.515,-0.91 1.454,-1.933 2.45,-2.576 0.967,-0.623 1.941,-0.987 2.755,-0.987 0.563,0 1.061,0.173 1.344,0.509 0.322,0.377 0.434,0.954 0.325,1.699 0.279,-0.83 0.255,-1.481 -0.063,-1.928 -0.288,-0.406 -0.898,-0.623 -1.606,-0.623 -1.793,0 -3.776,1.152 -5.154,3.068 0.011,-0.429 0.01,-0.848 -0.013,-1.262 0.552,-0.682 1.233,-1.465 1.625,-1.775 0.583,-0.461 2.154,-1.31 3.542,-1.31 2.282,0 2.973,1.323 2.973,2.622 0,1.175 -1.15,2.158 -1.879,2.235 m -9.719,-0.51 c -1.379,-1.916 -3.357,-3.068 -5.152,-3.068 -0.71,0 -1.319,0.217 -1.608,0.623 -0.316,0.447 -0.341,1.098 -0.063,1.928 -0.108,-0.745 0.003,-1.322 0.327,-1.699 0.284,-0.336 0.779,-0.509 1.344,-0.509 0.814,0 1.788,0.364 2.755,0.987 0.992,0.643 1.935,1.666 2.448,2.576 0.05,0.538 0.125,1.082 0.238,1.618 -0.182,-0.205 -0.396,-0.414 -0.639,-0.606 -0.935,-1.612 -3.09,-3.31 -4.802,-3.31 -1.269,0 -1.204,1.425 -1.096,1.97 -0.729,-0.077 -1.878,-1.06 -1.878,-2.235 0,-1.299 0.692,-2.622 2.974,-2.622 1.387,0 2.958,0.849 3.538,1.31 0.393,0.31 1.078,1.093 1.626,1.775 -0.019,0.414 -0.022,0.833 -0.012,1.262 m 2.064,2.042 -0.141,-0.177 c -0.06,-2.238 -0.153,-5.711 -0.188,-6.847 -0.033,1.136 -0.126,4.609 -0.188,6.847 l -0.138,0.177 c -0.215,0.282 -0.399,0.618 -0.554,1 -1.03,-3.761 -0.109,-7.976 0.88,-9.77 0.99,1.794 1.912,6.009 0.883,9.77 -0.155,-0.382 -0.338,-0.718 -0.554,-1 m 5.682,1.707 c -0.402,-0.281 -0.783,-0.408 -1.138,-0.408 -1.483,0 -2.512,2.21 -2.817,4.536 -0.003,0.026 -0.006,0.051 -0.009,0.076 -0.105,0.154 -0.204,0.313 -0.3,0.491 -0.036,-0.877 -0.098,-1.797 -0.216,-2.687 0.312,-1.274 1.505,-3.206 2.934,-3.206 0.308,0 0.937,0.097 1.268,0.488 -0.128,-0.546 -0.865,-0.738 -1.268,-0.738 -1.811,0 -2.788,1.931 -3.06,2.652 -0.077,-0.424 -0.168,-0.834 -0.28,-1.212 0.184,-0.559 1.334,-2.32 3.34,-2.32 1.034,0 2.057,0.794 1.546,2.328 m -10.473,-1.448 c -0.402,0 -1.144,0.192 -1.268,0.738 0.33,-0.391 0.957,-0.488 1.268,-0.488 1.428,0 2.623,1.932 2.933,3.206 -0.118,0.89 -0.18,1.81 -0.214,2.687 -0.096,-0.178 -0.198,-0.337 -0.303,-0.491 -0.001,-0.025 -0.006,-0.05 -0.006,-0.076 -0.305,-2.326 -1.337,-4.536 -2.819,-4.536 -0.354,0 -0.735,0.127 -1.136,0.408 -0.511,-1.534 0.51,-2.328 1.545,-2.328 2.006,0 3.156,1.761 3.341,2.32 -0.113,0.381 -0.208,0.788 -0.283,1.212 -0.268,-0.721 -1.246,-2.652 -3.058,-2.652 m 5.285,9.004 C 1.173,-39.315 1.011,-39.61 0.824,-39.862 l -0.08,-0.107 c -0.101,-2.893 -0.251,-6.905 -0.251,-6.912 0,0.007 -0.147,4.019 -0.248,6.912 l -0.082,0.107 c -0.185,0.252 -0.347,0.547 -0.492,0.878 -0.16,-0.796 -0.342,-1.463 -0.547,-2.014 0.008,-0.137 0.014,-0.264 0.018,-0.381 0.078,-2.325 0.318,-5.277 1.351,-6.615 1.037,1.338 1.272,4.29 1.352,6.615 0.005,0.117 0.012,0.244 0.019,0.381 -0.205,0.551 -0.386,1.218 -0.548,2.014 m 1.419,4.182 c 0,2.339 0.532,5.39 0.99,6.87 -0.118,0.019 -0.288,0.054 -0.49,0.11 -0.221,-0.769 -0.588,-1.501 -0.969,-2.127 0,-0.05 0.004,-0.101 0.004,-0.152 0.033,-0.643 0.231,-5.202 -0.674,-8.126 0.539,-3.15 1.332,-4.498 2.735,-4.981 -1.139,2.095 -1.596,5.292 -1.596,8.406 m -4.016,4.701 c 10e-4,0.051 10e-4,0.099 0.004,0.15 -0.384,0.625 -0.75,1.36 -0.973,2.129 -0.199,-0.056 -0.368,-0.091 -0.485,-0.107 0.455,-1.478 0.989,-4.534 0.989,-6.873 0,-3.114 -0.459,-6.311 -1.596,-8.406 1.401,0.483 2.194,1.831 2.734,4.981 -0.905,2.926 -0.707,7.483 -0.673,8.126 m 3.158,-0.448 c 0.103,-2.704 -0.063,-7.299 -1.384,-9.063 -1.319,1.762 -1.487,6.353 -1.382,9.061 0.544,-0.793 1.036,-1.317 1.081,-1.368 l 0.113,-0.114 c 0.074,-2.116 0.161,-4.399 0.188,-5.116 0.03,0.717 0.114,3 0.191,5.116 l 0.111,0.114 c 0.044,0.051 0.534,0.58 1.082,1.37 m 0.028,3.328 c -0.485,0.318 -1.019,0.811 -1.413,1.554 -0.393,-0.743 -0.927,-1.236 -1.411,-1.554 -0.325,-0.214 -0.648,-0.366 -0.937,-0.473 0.595,-2.076 2.348,-3.943 2.348,-3.943 0,0 1.755,1.867 2.351,3.943 -0.292,0.107 -0.614,0.259 -0.938,0.473 m 1.705,5.113 c -0.836,-1.784 -2.399,-3.003 -2.796,-3.291 0.992,-1.974 3.127,-2.145 3.127,-2.145 0,0 0.822,2.946 1.138,3.975 0.083,0.267 0.147,0.55 0.194,0.838 -0.235,0.059 -0.892,0.25 -1.663,0.623 m -6.232,0 c -0.77,-0.373 -1.432,-0.564 -1.666,-0.623 0.046,-0.288 0.114,-0.571 0.198,-0.838 0.312,-1.029 1.136,-3.975 1.136,-3.975 0,0 2.136,0.171 3.123,2.145 -0.396,0.291 -1.955,1.507 -2.791,3.291 m 5.465,0.415 c -1.183,0.728 -1.978,1.639 -2.351,2.686 -0.371,-1.047 -1.164,-1.958 -2.348,-2.686 -0.133,-0.081 -0.265,-0.155 -0.398,-0.227 0.905,-1.937 2.746,-3.203 2.746,-3.203 0,0 1.844,1.266 2.747,3.203 -0.129,0.072 -0.263,0.146 -0.396,0.227 m 1.57,4.719 c -0.539,0.28 -0.952,0.667 -1.233,1.151 -0.662,-1.555 -1.989,-2.594 -2.363,-2.858 0.827,-2.792 4.64,-3.671 4.64,-3.671 0.317,1.491 1.266,3.297 1.098,4.869 -0.512,0.014 -1.367,0.103 -2.142,0.509 m -4.246,-1.707 c -0.826,-2.792 -4.637,-3.671 -4.637,-3.671 -0.322,1.507 -1.35,3.339 -1.104,4.93 0.56,0.003 1.458,0.057 2.227,0.444 0.516,0.258 0.909,0.631 1.178,1.101 0.666,-1.52 1.967,-2.537 2.336,-2.804 m -21.432,17.96 c -1.46,0.806 -3.208,1.406 -4.751,1.406 -0.102,0 -0.203,-0.003 -0.303,-0.008 0.339,-1.621 0.983,-2.845 2.092,-4.003 0.491,-0.513 2.384,-2.042 4.236,-3.467 -0.143,0.676 -0.185,1.396 -0.077,2.13 l 0.011,0.078 c -2.174,1.803 -4.387,3.669 -4.936,4.204 0.728,-0.521 3.023,-2.223 5.293,-3.928 l 0.064,-0.004 c 1.791,-0.104 3.376,-1.163 4.367,-2.005 -0.148,0.394 -0.29,0.835 -0.398,1.303 -0.534,0.433 -1.221,0.994 -2.078,1.689 -0.869,0.704 -1.753,1.422 -2.406,1.953 -0.389,0.237 -0.768,0.461 -1.114,0.652 m -3.137,-9.981 c -2.387,0.882 -5.85,2.216 -6.84,2.919 -0.243,-1.243 0.83,-2.224 2.827,-3.352 1.105,0.197 2.42,0.349 4.013,0.433 m 0.219,4.925 c -2.404,0.632 -3.878,0.813 -4.841,0.813 -0.552,0 -0.937,-0.059 -1.235,-0.124 1.133,-2.264 4.456,-4.323 5.889,-5.068 l 0.142,0.078 c 1.001,0.553 1.845,0.79 2.82,0.79 0.261,0 0.534,-0.017 0.82,-0.049 -2.813,1.15 -6.786,2.801 -8.356,3.581 2.291,-0.79 7.061,-2.642 10.251,-3.937 0.017,-0.004 0.035,-0.011 0.056,-0.016 -0.489,0.648 -0.942,1.467 -1.217,2.386 -1.281,0.547 -2.846,1.153 -4.329,1.546 m 1.192,0.832 c -2.373,1.541 -3.933,2.654 -4.509,3.487 -0.464,-1.027 -0.114,-2.022 1.248,-3.415 0.659,-0.13 1.384,-0.298 2.174,-0.509 0.919,-0.242 1.875,-0.57 2.764,-0.907 -0.603,0.472 -1.177,0.933 -1.677,1.344 m 12.046,-23.889 c 0.187,-1.997 0.859,-3.383 1.256,-3.932 0.686,0.558 2,2.523 2.491,5.203 -0.524,0.159 -1.014,0.466 -1.426,0.899 -0.184,0.193 -0.344,0.404 -0.48,0.629 -0.216,-2.521 -0.499,-5.813 -0.499,-5.813 0,0 0.031,3.316 0.072,5.895 -0.191,-0.589 -0.395,-1.108 -0.622,-1.577 -0.239,-0.484 -0.502,-0.921 -0.792,-1.304 m -0.735,26.977 c -2.226,1.901 -6.769,5.139 -11.855,5.562 0.413,-1.406 1.695,-3.214 2.759,-4.049 0.652,-0.512 3.202,-2.593 4.984,-4.039 -0.084,0.546 -0.117,1.109 -0.057,1.652 l 0.024,0.215 c -2.288,2.121 -4.314,3.65 -6.151,5.138 1.724,-1.167 3.881,-2.517 6.601,-4.977 l 0.095,-0.041 c 2.412,-1.018 4.24,-2.593 5.282,-4.555 0.861,-1.621 1.135,-3.56 0.74,-5.153 -0.045,-0.188 -0.132,-0.414 -0.225,-0.592 3.328,2.553 1.686,7.528 -2.197,10.839 m -14.719,-21.407 c -1.565,-1.13 -4.3,-2.935 -5.956,-3 0.691,-0.568 1.537,-0.88 2.576,-0.88 1.209,0 2.681,0.417 4.477,1.329 0.695,0.854 1.465,1.665 2.307,2.424 0.066,0.067 0.502,0.533 1.061,1.135 -0.139,0.017 -0.273,0.033 -0.41,0.056 l -0.399,0.069 c -0.903,-0.311 -2.43,-0.828 -3.221,-1.03 -0.145,-0.035 -0.291,-0.071 -0.435,-0.103 m -6.121,0.525 c 0.519,-0.187 1.637,-0.448 3.125,-0.448 0.972,0 2.105,0.112 3.33,0.426 0.833,0.21 2.545,0.795 3.397,1.091 0.311,1.276 1.054,2.495 2.086,3.507 -3.345,-1.286 -8.522,-3.274 -10.89,-4.183 2.375,1.107 7.521,3.245 10.862,4.627 -0.192,-0.017 -0.389,-0.027 -0.592,-0.027 -1.091,0 -2.183,0.241 -2.992,0.553 -1.181,-0.436 -2.419,-0.916 -3.099,-1.259 -2.952,-1.479 -4.695,-2.976 -5.227,-4.287 m 3.351,-12.918 c 3.96,1.091 6.594,2.759 10.581,9.244 -0.101,0.973 -10e-4,1.943 0.305,2.894 0.177,0.56 0.424,1.112 0.738,1.664 -3.41,-4.089 -8.277,-9.876 -10.662,-12.619 2.005,2.603 7.256,9.082 10.291,12.835 -1.064,-0.439 -2.142,-0.661 -3.206,-0.661 -0.096,0 -0.192,0.003 -0.289,0.004 -0.704,-0.759 -1.249,-1.343 -1.307,-1.399 -4.343,-3.929 -6.086,-8.579 -6.451,-11.962 m 12.149,8.169 c -1.172,-4.081 -3.048,-10.939 -1.81,-14.351 4.207,3.323 4.969,7.92 5.891,11.636 l -0.055,0.076 c -0.671,0.928 -0.998,2.083 -0.991,3.53 0,0.337 0.022,0.69 0.059,1.065 -1.331,-4.579 -3.448,-11.813 -4.485,-15.002 0.926,3.43 2.779,10.466 3.983,15.177 -0.767,-0.951 -1.651,-1.684 -2.592,-2.131 m -8.915,-11.67 c 0.319,-0.048 0.626,-0.076 0.928,-0.076 1.939,0 3.488,1.15 5.461,5.471 0.235,0.512 0.818,2.103 1.401,3.764 0.218,0.819 0.433,1.596 0.637,2.306 -0.121,-0.044 -0.243,-0.085 -0.366,-0.122 l -0.405,-0.113 -0.106,0.405 c -0.041,0.161 -0.076,0.32 -0.108,0.479 -0.287,-0.457 -0.567,-0.892 -0.845,-1.302 -0.336,-0.652 -0.638,-1.245 -0.819,-1.59 -2.06,-3.992 -4.359,-8.525 -5.778,-9.222 m 12.208,4.331 c -0.297,-1.559 -0.578,-2.978 -0.748,-3.667 0.932,0.399 2.549,1.834 3.678,7.043 -0.217,0.602 -0.402,1.337 -0.514,2.177 -0.339,-0.373 -0.713,-0.687 -1.126,-0.957 l -0.103,-0.064 c -0.08,-0.332 -0.163,-0.671 -0.248,-1.026 -0.264,-1.105 -0.549,-2.299 -0.939,-3.506 m 7.387,7.55 c 1.161,0 1.944,0.475 2.431,1.104 -0.132,-0.025 -0.276,-0.036 -0.423,-0.036 -0.643,0 -1.436,0.232 -1.934,0.747 -0.353,-0.156 -0.719,-0.233 -1.092,-0.233 -0.653,0 -1.269,0.248 -1.731,0.666 0.318,-1.195 1.425,-2.248 2.749,-2.248 m -10.345,18.46 c -0.78,1.17 -1.841,2.743 -2.145,3.145 l 2.446,-2.856 c 0.244,0.706 0.744,1.201 1.318,1.474 -1.107,1.052 -2.808,2.227 -4.594,2.332 -0.265,-1.766 0.435,-3.577 1.425,-4.828 0.409,0.401 0.956,0.661 1.55,0.733 m 12.353,-16.98 c 0.157,0 0.305,0.015 0.445,0.048 -0.222,0.781 -0.459,1.608 -0.597,2.06 -0.058,0.192 -0.13,0.468 -0.187,0.789 -3.376,0.094 -7.518,1.314 -9.532,3.909 -0.916,1.184 -1.304,2.522 -1.155,3.994 -0.125,-0.018 -0.256,-0.028 -0.391,-0.028 -0.424,0 -0.808,0.09 -1.15,0.171 -0.141,0.033 -1.002,0.187 -1.002,0.187 0,0 0.461,0.741 0.53,0.868 0.328,0.597 0.803,1.459 1.851,1.691 -0.102,1.067 0.572,1.789 1.037,2.283 0.099,0.106 0.663,0.774 0.663,0.774 0,0 0.412,-0.774 0.487,-0.896 0.35,-0.582 0.862,-1.422 0.538,-2.446 0.662,-0.302 1.003,-0.829 1.217,-1.34 1.243,0.214 1.975,1.262 1.975,2.155 0,0.812 -0.633,2.167 -2.158,2.171 0,1.335 -1.076,2.192 -2.182,2.197 h -0.008 c -0.926,0 -2.02,-0.655 -2.172,-2.006 -0.074,0.008 -0.151,0.01 -0.226,0.01 -1.681,0 -2.858,-1.718 -1.868,-3.388 -2.004,-0.869 -1.757,-3.5 -0.039,-4.081 -0.995,-1.452 -0.104,-3.436 1.859,-3.436 0.081,0 0.157,0.001 0.241,0.008 -0.363,-1.494 0.809,-2.759 2.124,-2.759 0.375,0 0.762,0.102 1.13,0.333 0.196,-1.226 1.151,-1.929 2.156,-1.929 0.483,0 0.977,0.159 1.403,0.504 0.302,-0.776 1.09,-1.332 1.985,-1.332 0.392,0 0.802,0.107 1.203,0.347 0.336,-0.552 1.134,-0.858 1.823,-0.858 m -28.492,12.788 c 1.626,-1.293 3.009,-2.339 7.533,-3.015 0.463,0.584 1.148,1.167 1.883,1.603 0.512,0.302 1.034,0.527 1.558,0.674 -3.177,0.192 -7.898,0.476 -9.522,0.622 2.009,-0.074 6.026,-0.14 9.782,-0.253 -0.155,0.077 -0.305,0.156 -0.45,0.239 -0.932,0.547 -1.653,1.245 -2.117,2.039 -4.807,-0.231 -7.078,-1.078 -8.667,-1.909 m 18.883,-1.982 c -0.159,0.1 -0.318,0.222 -0.465,0.382 -0.162,-0.118 -0.339,-0.209 -0.523,-0.278 -0.622,-4.951 5.317,-7.4 10.069,-7.595 l -0.011,0.045 c -0.102,0.478 -0.273,0.997 -0.455,1.545 -0.061,0.182 -0.123,0.368 -0.183,0.56 -4.32,0.056 -8.658,1.483 -8.432,5.341 m 3.927,-1.141 c -0.408,0.611 -0.507,1.591 -0.408,2.39 0,0 -0.412,-0.324 -1.006,-0.394 0.033,-0.101 0.065,-0.203 0.091,-0.295 0.044,-0.14 0.339,-0.962 0.339,-0.962 0,0 -1.216,0.022 -1.319,0.022 -0.272,0 -0.735,0 -1.219,0.181 -0.015,-0.9 0.246,-1.685 0.784,-2.341 1.194,-1.464 3.776,-2.325 7.116,-2.389 -0.236,0.798 -0.413,1.631 -0.345,2.422 -1.511,0.002 -3.196,0.106 -4.033,1.366 m -2.678,9.009 c -0.387,0.872 -0.909,1.715 -1.907,3.121 1.827,-2.115 2.47,-2.987 2.959,-4.176 0.131,-0.252 0.222,-0.537 0.266,-0.844 0.935,-0.134 1.557,-0.731 1.891,-1.394 -0.057,2.667 -1.759,5.867 -5.955,7.638 -0.165,-1.491 0.404,-3.147 0.855,-4.1 0.209,0.051 0.423,0.08 0.632,0.08 h 0.008 c 0.43,-0.002 0.865,-0.116 1.251,-0.325 m -0.652,-5.516 c 0.652,1.22 -0.196,2.161 -0.555,2.846 -0.493,-0.597 -1.518,-1.34 -1.135,-2.666 -1.38,-0.048 -1.774,-1.251 -2.188,-1.906 0.412,-0.066 0.928,-0.249 1.473,-0.249 0.472,0 0.961,0.138 1.408,0.599 0.53,-0.851 1.328,-0.943 2.024,-0.943 0.194,0 0.38,0.005 0.552,0.005 0.058,0 0.112,-0.002 0.166,-0.003 -0.27,0.727 -0.401,1.987 -1.745,2.317 m -7.858,-4.694 c 0.801,0 1.623,0.13 2.368,0.47 v 0.002 c -0.452,0.265 -0.802,0.672 -1.007,1.165 -1.574,-0.19 -4.061,-0.493 -4.061,-0.493 0,0 2.27,0.518 3.934,0.873 -0.039,0.173 -0.067,0.35 -0.076,0.534 -0.01,0.272 0.02,0.538 0.087,0.786 -0.177,0.024 -0.349,0.033 -0.523,0.033 -1.985,0 -3.758,-1.389 -4.502,-2.334 0.496,-0.445 2.086,-1.036 3.78,-1.036 m -6.276,-0.75 c 0.537,0.27 1.468,0.653 2.75,1.13 -0.22,0.112 -0.401,0.231 -0.53,0.347 l -0.066,0.06 c -0.773,-0.028 -1.535,-0.044 -2.26,-0.044 -2.287,0 -4.191,0.146 -4.825,0.454 0.227,-1.067 1.248,-2.005 4.116,-2.372 0.26,0.142 0.531,0.283 0.815,0.425 m 6.356,-3.805 c 1.824,0 3.435,0.703 4.484,1.374 -0.766,0.057 -1.428,0.394 -1.873,0.941 -1.274,-0.721 -3.06,-1.773 -3.06,-1.773 0,0 1.657,1.243 2.832,2.104 -0.015,0.029 -0.033,0.055 -0.046,0.084 -0.284,0.535 -0.36,1.148 -0.236,1.729 -1.749,-1.157 -2.88,-2.809 -3.256,-4.367 0.394,-0.063 0.777,-0.092 1.155,-0.092 m 2.349,9.466 c -1.715,0.626 -4.049,1.631 -4.049,1.631 0,0 2.296,-0.676 3.896,-1.132 -0.141,0.619 -0.057,1.245 0.254,1.801 -1.125,0.27 -1.981,0.422 -2.736,0.422 -0.92,0 -1.692,-0.225 -2.621,-0.738 0.691,-1.631 2.429,-2.701 4.21,-3.164 0.215,0.478 0.575,0.886 1.046,1.18 m 5.23,-10.802 c -0.161,-0.033 -0.324,-0.049 -0.489,-0.049 -0.44,0 -0.873,0.119 -1.258,0.333 -0.902,-1.487 -2.275,-3.704 -2.275,-3.704 l 1.898,3.966 c -0.153,0.123 -0.289,0.261 -0.41,0.418 -0.263,0.332 -0.435,0.72 -0.513,1.126 -1.322,-1.841 -2.014,-3.922 -1.396,-6.284 1.763,0.504 3.368,2.067 4.443,4.194 m 0.882,-6.661 c -1.169,1.614 -1.096,3.926 -0.444,6.587 0.28,-0.646 0.777,-1.138 1.398,-1.387 -0.312,-1.8 -0.756,-4.335 -0.756,-4.335 0,0 0.731,2.473 1.2,4.202 0.168,-0.033 0.34,-0.052 0.517,-0.052 0.409,0 0.806,0.095 1.171,0.279 -0.597,-2.417 -1.462,-4.247 -3.086,-5.294 m 2.559,-11.937 c -0.118,-0.569 -0.23,-1.449 0.066,-2.031 0.731,0.065 1.422,0.262 2.004,0.882 -0.108,0.396 -0.18,0.831 -0.217,1.304 -0.59,-0.663 -1.314,-1.47 -1.503,-1.658 0.132,0.235 0.686,1.137 1.146,1.881 -0.501,-0.17 -1.001,-0.296 -1.496,-0.378 m -3.861,0.837 c 0.533,0.32 0.852,0.658 1.433,1.2 0.457,-0.133 1.015,-0.209 1.607,-0.209 1.589,0 3.431,0.544 4.289,1.976 h 0.025 c 1.467,0 2.69,0.803 3.464,2.003 -0.849,-0.663 -1.859,-1.487 -3.426,-1.487 -0.088,0 -0.176,0 -0.266,0.007 -0.755,-1.543 -2.626,-2.062 -4.177,-2.062 -0.824,0 -1.556,0.148 -1.983,0.361 0.33,0.166 1.196,0.697 1.748,1.284 0.269,-0.043 0.537,-0.058 0.803,-0.058 1.571,0 3.025,0.701 3.83,1.821 1.565,0.057 2.809,1.052 3.471,2.069 -0.775,-0.613 -1.92,-1.549 -3.521,-1.549 H -6.69 c -1.132,-1.508 -2.657,-1.927 -3.863,-1.927 -0.471,0 -0.892,0.064 -1.225,0.153 0.424,0.335 1.159,0.956 1.583,1.696 0.206,-0.026 0.41,-0.039 0.613,-0.039 1.51,0 2.878,0.71 3.475,1.818 1.158,0.132 2.176,0.526 2.962,1.879 -0.927,-0.915 -1.714,-1.408 -3.167,-1.449 -0.6,-1.167 -1.986,-1.839 -3.297,-1.839 -0.272,0 -0.539,0.031 -0.794,0.09 0.743,0.493 2.764,2.644 3.529,4.861 0.387,1.121 0.882,2.411 3.122,2.411 0.19,0 0.393,-0.009 0.607,-0.03 0.439,-1.379 0.987,-4.41 0.987,-6.797 0,-0.601 -0.018,-1.185 -0.052,-1.749 -2.17,-2.574 -2.573,-5.129 -2.763,-7.002 -1.024,0.458 -1.66,1.867 -1.299,4.217 -0.881,-2.18 -0.126,-3.678 0.687,-4.349 -0.103,-0.461 0.034,-1.48 0.034,-1.48 -1.71,0.431 -2.356,2.225 -2.311,4.449 -1.216,-0.534 -2.452,-0.814 -3.595,-0.814 -0.911,0 -1.762,0.179 -2.506,0.545" style="fill:#ffffff;fill-opacity:1;fill-rule:nonzero;stroke:none" transform="matrix(1.3333333,0,0,-1.3333333,67.3688,35.718533)" clip-path="url(#clipPath7)"/>
      <path id="path8" d="m 0,0 c 0.321,0.039 0.663,0.059 1.048,0.059 0.778,0 1.589,-0.081 2.373,-0.154 0.742,-0.071 1.441,-0.14 2.072,-0.14 0.221,0 0.421,0.011 0.608,0.028 C 6.819,1.672 8.345,3.438 9.149,4.905 8.626,4.738 7.418,4.902 7.062,4.416 6.903,4.204 7.068,3.721 6.768,3.721 H 6.765 C 6.784,3.994 6.516,4.241 6.181,4.241 5.982,4.241 5.755,4.15 5.557,3.919 5.122,3.41 6.116,2.429 5.584,1.443 5.608,1.442 5.631,1.442 5.651,1.442 6.264,1.442 6.344,2.223 6.344,2.635 6.756,1.651 6.108,0.994 5.085,0.994 4.919,0.994 4.745,1.01 4.563,1.048 3.504,1.252 3.027,1.704 3.027,2.676 3.071,2.971 3.053,3.183 3.39,3.394 3.286,3.158 3.269,2.872 3.269,2.6 3.269,2.16 3.504,1.799 3.884,1.664 3.808,2.958 5.135,3.289 5.036,4.236 4.996,4.599 4.565,4.877 4.043,4.877 3.86,4.877 3.668,4.842 3.476,4.763 3.969,5.643 2.923,6.492 2.66,6.921 2.398,6.492 1.351,5.643 1.846,4.763 1.653,4.842 1.463,4.877 1.277,4.877 0.757,4.877 0.325,4.599 0.286,4.236 0.187,3.289 1.514,2.958 1.437,1.664 1.817,1.799 2.052,2.16 2.052,2.6 2.052,2.872 2.033,3.158 1.933,3.394 2.266,3.183 2.251,2.971 2.294,2.676 2.294,1.715 1.814,1.252 0.759,1.048 0.578,1.01 0.402,0.994 0.239,0.994 c -1.025,0 -1.673,0.657 -1.261,1.641 0,-0.412 0.077,-1.193 0.692,-1.193 0.021,0 0.044,0 0.066,0.001 -0.532,0.986 0.467,1.967 0.026,2.476 -0.198,0.231 -0.423,0.322 -0.623,0.322 -0.333,0 -0.602,-0.247 -0.582,-0.52 h -0.003 c -0.296,0 -0.135,0.483 -0.294,0.695 -0.358,0.486 -1.565,0.322 -2.09,0.489 0.808,-1.47 2.332,-3.234 3.051,-5.117 C -0.577,-0.113 -0.325,-0.04 0,0 m 16.151,-56.187 c -0.29,-0.099 -0.646,-0.141 -0.972,-0.141 -0.197,0 -0.381,0.014 -0.529,0.042 -0.01,-0.8 0.598,-1.235 1.345,-1.235 0.144,0 0.298,0.015 0.452,0.046 -0.236,0.427 -0.277,0.811 -0.296,1.288 m 5.81,-3.302 c -0.056,-0.481 -0.147,-0.862 -0.413,-1.266 0.198,-0.061 0.396,-0.086 0.587,-0.086 0.684,0 1.245,0.384 1.294,1.131 -0.12,-0.03 -0.252,-0.043 -0.386,-0.043 -0.378,0 -0.788,0.106 -1.082,0.264 m 5.58,2.486 c -0.247,-0.128 -0.571,-0.185 -0.884,-0.185 -0.213,0 -0.42,0.025 -0.595,0.071 0.051,-0.476 0.05,-0.871 -0.122,-1.322 0.051,-0.005 0.103,-0.008 0.154,-0.008 0.887,0 1.588,0.55 1.447,1.444 m 1.318,5.451 c -0.166,-0.436 -0.626,-0.869 -1.027,-1.072 0.358,-0.318 0.617,-0.615 0.792,-1.068 0.757,0.592 0.978,1.535 0.235,2.14 m -11.294,0.234 c -0.771,0.908 -2.771,2.998 -4.608,4.892 -0.6,0.074 -1.287,0.257 -1.898,0.821 -0.042,-0.108 -0.082,-0.221 -0.13,-0.323 2.141,-1.827 5.565,-4.698 6.276,-5.481 0.325,-0.364 0.394,-0.74 0.373,-1.047 0.102,0.109 0.168,0.229 0.197,0.335 0.048,0.176 -0.048,0.615 -0.21,0.803 m 11.097,0.006 c -0.281,-0.422 -0.622,-0.929 -1.226,-1.051 -0.213,-0.043 -0.414,-0.063 -0.598,-0.063 -0.737,0 -1.219,0.313 -1.459,0.615 -0.958,-0.485 -1.302,-0.861 -2.405,-0.93 -0.406,0.142 -0.616,0.234 -1.256,0.361 0.479,-0.326 1.329,-0.819 2.025,-1.109 0.574,-0.241 0.953,-0.246 1.516,-0.709 0.326,0.389 0.738,0.547 1.125,0.547 0.281,0 0.549,-0.084 0.768,-0.222 0.532,-0.34 0.817,-1.012 0.614,-1.662 -0.126,-0.407 -0.677,-0.641 -1.271,-0.641 -0.098,0 -0.197,0.005 -0.296,0.021 0.185,-0.12 0.391,-0.171 0.602,-0.171 0.349,0 0.704,0.139 0.946,0.341 0.232,-0.008 0.327,-0.427 -0.172,-0.654 -0.274,-0.122 -0.624,-0.214 -0.991,-0.214 -0.207,0 -0.42,0.032 -0.625,0.1 -0.634,0.211 -1.097,0.864 -1.097,1.459 -0.975,0.064 -1.597,0.288 -2.533,1.121 -0.255,0.23 -0.601,0.509 -0.902,0.675 -0.31,0.36 -0.871,0.711 -1.195,0.856 1.373,-1.393 1.473,-2.07 2.276,-3.394 0.127,0.018 0.246,0.03 0.358,0.03 1.433,0 1.731,-1.632 1.168,-2.273 -0.304,-0.348 -0.692,-0.435 -1.02,-0.435 -0.207,0 -0.391,0.037 -0.517,0.061 0.166,-0.239 0.438,-0.302 0.711,-0.302 0.233,0 0.465,0.046 0.641,0.074 0.144,-0.026 0.197,-0.447 -0.279,-0.518 -0.078,-0.013 -0.206,-0.027 -0.365,-0.027 -0.385,0 -0.95,0.085 -1.426,0.499 -0.708,0.61 -0.569,1.521 -0.33,2.098 -1.45,1.334 -1.523,2.689 -2.212,3.229 0.151,-0.293 0.202,-0.537 0.232,-0.763 -0.577,-0.147 -1.133,-0.18 -1.608,-0.18 -0.404,0 -0.704,0.033 -0.806,0.053 -0.07,-0.616 -0.368,-1.03 -0.832,-1.264 -0.242,-0.122 -0.653,-0.224 -1.126,-0.224 -0.228,0 -0.466,0.026 -0.707,0.082 -0.456,0.104 -0.356,0.562 -0.172,0.592 0.091,-0.071 0.426,-0.206 0.805,-0.206 0.143,0 0.297,0.021 0.443,0.071 -0.548,0 -1.047,0.242 -1.366,0.666 -0.362,0.476 -0.145,1.986 1.298,2.078 0.025,0.002 0.051,0.005 0.074,0.005 0.593,0 1.016,-0.443 1.556,-0.443 0.104,0 0.211,0.015 0.326,0.054 0.436,0.152 0.72,0.492 0.817,0.852 0.085,0.315 -0.048,0.889 -0.295,1.176 -0.744,0.883 -2.618,2.845 -4.395,4.676 0.415,0.704 0.344,1.655 0.217,2.309 0.225,-0.029 0.448,-0.044 0.669,-0.054 0.577,-0.585 1.105,-1.124 1.487,-1.449 -0.225,-0.125 -0.483,-0.176 -0.758,-0.176 -0.296,0 -0.614,0.061 -0.921,0.146 0.333,-0.311 0.763,-0.418 1.165,-0.418 0.158,0 0.312,0.016 0.456,0.044 0.242,-0.311 1.037,-0.984 1.354,-1.241 -0.24,-0.147 -0.53,-0.196 -0.816,-0.196 -0.348,0 -0.696,0.074 -0.962,0.145 0.311,-0.315 0.708,-0.407 1.105,-0.407 0.227,0 0.451,0.031 0.662,0.066 0.409,-0.523 1.034,-1.003 1.429,-1.299 -0.227,-0.122 -0.509,-0.17 -0.783,-0.17 -0.414,0 -0.823,0.107 -1.055,0.198 0.282,-0.346 0.686,-0.492 1.178,-0.492 0.203,0 0.423,0.027 0.653,0.075 0.437,-0.416 1.055,-0.926 1.475,-1.159 -0.23,-0.163 -0.554,-0.23 -0.902,-0.23 -0.382,0 -0.79,0.081 -1.119,0.194 0.413,-0.348 0.86,-0.508 1.301,-0.508 0.199,0 0.396,0.033 0.594,0.091 0.048,-0.058 0.196,-0.198 0.35,-0.294 0.137,-0.087 0.329,-0.12 0.55,-0.12 0.768,0 1.857,0.414 1.983,0.458 0.544,0.173 1.315,0.295 2.014,0.295 0.092,0 0.184,-0.003 0.274,-0.008 0,0.298 0.435,1.22 1.425,1.22 0.898,0 1.444,-0.713 1.444,-1.466 0,-0.423 -0.228,-0.677 -0.785,-0.86 0.667,0.005 0.98,0.336 1.161,0.773 0.043,0.041 0.091,0.058 0.136,0.058 0.178,0 0.337,-0.254 0.2,-0.462 M -1.38,-1.547 h -0.386 c -2.687,0 -2.214,-2.674 -1.604,-3.281 0.262,0.37 0.668,0.523 1.083,0.523 0.419,0 0.85,-0.155 1.169,-0.411 0.211,0.043 0.421,0.061 0.622,0.061 1.392,0 2.423,-0.935 2.282,-2.038 -0.264,0.039 -0.838,0.151 -1.366,0.151 -0.203,0 -0.399,-0.017 -0.566,-0.061 -1.17,-0.291 -0.869,-1.096 -0.869,-1.096 0,0 0.694,0.312 1.351,0.312 0.073,0 0.143,-0.003 0.214,-0.013 0.479,-0.057 1.032,-0.208 1.492,-0.208 0.552,0 0.974,0.215 0.974,1.066 0,1.658 -2.142,1.668 -3.224,2.757 -0.413,0.414 -0.557,1.129 -0.606,1.639 -0.255,0.133 -0.469,0.345 -0.566,0.599 m -9.45,-54.64 c -0.019,-0.477 -0.061,-0.861 -0.293,-1.288 0.152,-0.031 0.304,-0.046 0.451,-0.046 0.746,0 1.354,0.435 1.343,1.235 -0.147,-0.028 -0.332,-0.042 -0.528,-0.042 -0.324,0 -0.682,0.042 -0.973,0.141 m -5.81,-3.302 c -0.292,-0.158 -0.703,-0.264 -1.082,-0.264 -0.135,0 -0.265,0.013 -0.385,0.043 0.047,-0.747 0.611,-1.131 1.294,-1.131 0.189,0 0.386,0.025 0.586,0.086 -0.266,0.404 -0.358,0.785 -0.413,1.266 m -5.58,2.486 c -0.143,-0.894 0.559,-1.444 1.447,-1.444 0.051,0 0.104,0.003 0.155,0.008 -0.172,0.451 -0.174,0.846 -0.124,1.322 -0.174,-0.046 -0.382,-0.071 -0.593,-0.071 -0.315,0 -0.637,0.057 -0.885,0.185 m -1.318,5.451 c -0.743,-0.605 -0.523,-1.548 0.234,-2.14 0.178,0.453 0.438,0.75 0.792,1.068 -0.4,0.203 -0.861,0.636 -1.026,1.072 m 11.086,-0.569 c 0.028,-0.106 0.093,-0.226 0.197,-0.335 -0.024,0.307 0.044,0.683 0.37,1.047 0.713,0.783 4.138,3.654 6.276,5.481 -0.046,0.102 -0.087,0.215 -0.127,0.323 -0.612,-0.564 -1.301,-0.747 -1.899,-0.821 -1.839,-1.894 -3.839,-3.984 -4.607,-4.892 -0.163,-0.188 -0.26,-0.627 -0.21,-0.803 m -10.69,1.271 c 0.047,0 0.096,-0.017 0.136,-0.058 0.182,-0.437 0.494,-0.768 1.162,-0.773 -0.556,0.183 -0.785,0.437 -0.785,0.86 0,0.753 0.545,1.466 1.445,1.466 0.989,0 1.425,-0.922 1.425,-1.22 0.088,0.005 0.181,0.008 0.272,0.008 0.7,0 1.471,-0.122 2.015,-0.295 0.129,-0.044 1.216,-0.458 1.983,-0.458 0.219,0 0.413,0.033 0.549,0.12 0.156,0.096 0.304,0.236 0.355,0.294 0.194,-0.058 0.393,-0.091 0.588,-0.091 0.443,0 0.891,0.16 1.304,0.508 -0.331,-0.113 -0.74,-0.194 -1.121,-0.194 -0.348,0 -0.674,0.067 -0.9,0.23 0.418,0.233 1.038,0.743 1.475,1.159 0.23,-0.048 0.447,-0.075 0.65,-0.075 0.495,0 0.9,0.146 1.182,0.492 -0.234,-0.091 -0.642,-0.198 -1.056,-0.198 -0.275,0 -0.554,0.048 -0.783,0.17 0.394,0.296 1.02,0.776 1.427,1.299 0.212,-0.035 0.438,-0.066 0.664,-0.066 0.397,0 0.794,0.092 1.105,0.407 -0.266,-0.071 -0.613,-0.145 -0.963,-0.145 -0.286,0 -0.574,0.049 -0.816,0.196 0.318,0.257 1.109,0.93 1.356,1.241 0.142,-0.028 0.294,-0.044 0.452,-0.044 0.405,0 0.836,0.107 1.167,0.418 -0.309,-0.085 -0.623,-0.146 -0.921,-0.146 -0.275,0 -0.533,0.051 -0.758,0.176 0.382,0.325 0.91,0.864 1.488,1.449 0.22,0.01 0.446,0.025 0.669,0.054 -0.126,-0.654 -0.202,-1.605 0.217,-2.309 -1.776,-1.831 -3.648,-3.793 -4.399,-4.676 -0.243,-0.287 -0.378,-0.861 -0.292,-1.176 0.097,-0.36 0.382,-0.7 0.817,-0.852 0.115,-0.039 0.226,-0.054 0.328,-0.054 0.539,0 0.96,0.443 1.554,0.443 0.022,0 0.048,-0.003 0.074,-0.005 1.443,-0.092 1.663,-1.602 1.299,-2.078 -0.322,-0.424 -0.819,-0.666 -1.369,-0.666 0.148,-0.05 0.301,-0.071 0.445,-0.071 0.377,0 0.714,0.135 0.806,0.206 0.182,-0.03 0.283,-0.488 -0.172,-0.592 -0.24,-0.056 -0.483,-0.082 -0.708,-0.082 -0.47,0 -0.886,0.102 -1.125,0.224 -0.467,0.234 -0.763,0.648 -0.832,1.264 -0.1,-0.02 -0.407,-0.053 -0.806,-0.053 -0.476,0 -1.031,0.033 -1.609,0.18 0.029,0.226 0.082,0.47 0.232,0.763 -0.688,-0.54 -0.759,-1.895 -2.212,-3.229 0.24,-0.577 0.377,-1.488 -0.33,-2.098 -0.476,-0.414 -1.039,-0.499 -1.426,-0.499 -0.158,0 -0.286,0.014 -0.367,0.027 -0.476,0.071 -0.421,0.492 -0.276,0.518 0.175,-0.028 0.408,-0.074 0.639,-0.074 0.276,0 0.546,0.063 0.711,0.302 -0.124,-0.024 -0.308,-0.061 -0.516,-0.061 -0.329,0 -0.716,0.087 -1.021,0.435 -0.561,0.641 -0.263,2.273 1.168,2.273 0.113,0 0.233,-0.012 0.36,-0.03 0.804,1.324 0.904,2.001 2.276,3.394 -0.323,-0.145 -0.887,-0.496 -1.196,-0.856 -0.302,-0.166 -0.647,-0.445 -0.902,-0.675 -0.938,-0.833 -1.56,-1.057 -2.536,-1.121 0,-0.595 -0.46,-1.248 -1.093,-1.459 -0.207,-0.068 -0.419,-0.1 -0.629,-0.1 -0.362,0 -0.715,0.092 -0.99,0.214 -0.495,0.227 -0.402,0.646 -0.171,0.654 0.243,-0.202 0.597,-0.341 0.947,-0.341 0.21,0 0.42,0.051 0.601,0.171 -0.099,-0.016 -0.196,-0.021 -0.296,-0.021 -0.591,0 -1.14,0.234 -1.271,0.641 -0.206,0.65 0.083,1.322 0.613,1.662 0.221,0.138 0.488,0.222 0.773,0.222 0.384,0 0.795,-0.158 1.122,-0.547 0.561,0.463 0.943,0.468 1.517,0.709 0.697,0.29 1.546,0.783 2.025,1.109 -0.641,-0.127 -0.851,-0.219 -1.258,-0.361 -1.101,0.069 -1.448,0.445 -2.404,0.93 -0.238,-0.302 -0.725,-0.615 -1.46,-0.615 -0.183,0 -0.383,0.02 -0.598,0.063 -0.605,0.122 -0.946,0.629 -1.223,1.051 -0.14,0.208 0.022,0.462 0.197,0.462" style="fill:#fbc707;fill-opacity:1;fill-rule:nonzero;stroke:none" transform="matrix(1.3333333,0,0,-1.3333333,64.480133,32.807067)" clip-path="url(#clipPath9)"/>
      <path id="path10" d="m 12.268777,-1.8177891 -0.01172,1.81640629 H 2.1086203 V -16.477945 H 12.257058 v 1.816406 H 4.3351828 v 5.4726562 h 6.4218752 v 1.7460937 H 4.3351828 v 5.625 z m 9.74121,-7.0664062 c -0.383789,-0.5068359 -0.796875,-0.8613281 -1.242187,-1.0664063 -0.445313,-0.2109374 -0.943359,-0.3164064 -1.488281,-0.3164064 -1.086914,0 -1.921875,0.3925783 -2.507813,1.1718752 -0.580078,0.7734375 -0.867187,1.875 -0.867187,3.3046875 0,0.7587891 0.06152,1.4121094 0.1875,1.9570312 0.131836,0.5390625 0.322265,0.984375 0.574218,1.3359375 0.257813,0.3457032 0.56836,0.5976563 0.9375,0.7617188 0.366211,0.1582031 0.785157,0.234375 1.253907,0.234375 0.679687,0 1.268554,-0.1523438 1.769531,-0.4570313 0.498047,-0.3046875 0.960937,-0.7382812 1.382812,-1.3007812 z m 2.050782,-8.0624997 v 16.94531219 h -1.21875 c -0.290039,0 -0.47461,-0.140625 -0.550782,-0.421875 l -0.1875,-1.41796879 c -0.500976,0.6035157 -1.072265,1.0869141 -1.710937,1.45312504 -0.632813,0.36914062 -1.368164,0.55078125 -2.203125,0.55078125 -0.665039,0 -1.271484,-0.13183594 -1.816406,-0.38671875 -0.539063,-0.2578125 -1.004883,-0.63574219 -1.394532,-1.13671874 -0.383789,-0.4980469 -0.679687,-1.1191406 -0.890625,-1.8632813 -0.205078,-0.7412109 -0.304687,-1.5966796 -0.304687,-2.5664062 0,-0.8583984 0.111328,-1.6552734 0.339844,-2.390625 0.234375,-0.7412109 0.565429,-1.3828125 0.996093,-1.9218747 0.427735,-0.544922 0.955079,-0.975586 1.582032,-1.289063 0.624023,-0.310547 1.327148,-0.46875 2.109375,-0.46875 0.717773,0 1.330078,0.123047 1.839843,0.363281 0.506836,0.243165 0.960938,0.580079 1.359375,1.007813 v -6.457031 z m 12.823242,5.296875 v 11.64843719 h -1.21875 c -0.290039,0 -0.474609,-0.140625 -0.550781,-0.421875 L 34.950417,-1.6771641 c -0.509765,0.5566407 -1.078125,1.00488285 -1.710937,1.34765629 -0.626953,0.34277344 -1.344727,0.515625 -2.15625,0.515625 -0.632813,0 -1.195313,-0.10839844 -1.6875,-0.31640625 C 28.909402,-0.34122656 28.505105,-0.637125 28.17698,-1.0209141 27.848855,-1.4017734 27.602761,-1.8675937 27.438698,-2.4154453 27.274636,-2.9603672 27.192605,-3.5638828 27.192605,-4.2201328 V -11.64982 h 2.039062 v 7.4296872 c 0,0.8847656 0.199219,1.5673828 0.597656,2.0507812 0.404297,0.4775391 1.022461,0.7148438 1.851563,0.7148438 0.609375,0 1.174805,-0.140625 1.699219,-0.421875 0.521484,-0.2871094 1.007812,-0.6855469 1.453125,-1.1953125 V -11.64982 Z m 5.285156,-5.296875 v 9.9726559 h 0.527344 c 0.155273,0 0.28418,-0.017578 0.386719,-0.058594 0.09961,-0.046875 0.210937,-0.1318359 0.328125,-0.2578125 l 3.679687,-3.9492184 c 0.108399,-0.131836 0.222656,-0.234375 0.339844,-0.304688 0.117187,-0.07031 0.275391,-0.105468 0.480469,-0.105468 h 1.851562 l -4.289062,4.5585931 c -0.210938,0.2666016 -0.433594,0.46875 -0.667969,0.609375 0.140625,0.09375 0.263672,0.2050782 0.375,0.328125 0.108398,0.1171875 0.213867,0.2519532 0.316406,0.3984375 l 4.546875,5.75390629 h -1.828125 c -0.172851,0 -0.325195,-0.02636719 -0.457031,-0.08203125 -0.125977,-0.06152344 -0.231445,-0.16699219 -0.316406,-0.31640625 L 43.610573,-5.1810703 c -0.117187,-0.1552734 -0.231445,-0.2578125 -0.339843,-0.3046875 -0.111328,-0.052734 -0.28125,-0.082031 -0.515625,-0.082031 h -0.585938 v 5.56640629 h -2.0625 V -16.946695 Z m 15.9375,11.6953122 c -0.9375,0.032227 -1.740234,0.1113281 -2.402344,0.234375 -0.665039,0.1171875 -1.207031,0.2753906 -1.628906,0.46875 -0.416015,0.1875 -0.714844,0.4160156 -0.902344,0.6796875 -0.1875,0.2578125 -0.28125,0.5478516 -0.28125,0.8671875 0,0.3046875 0.04687,0.5712891 0.140625,0.796875 0.09961,0.2197266 0.237305,0.3984375 0.410157,0.5390625 0.169922,0.140625 0.375,0.2460937 0.609375,0.3164062 0.234375,0.064453 0.486328,0.09375 0.761718,0.09375 0.357422,0 0.685547,-0.035156 0.984375,-0.1054687 0.295899,-0.076172 0.577149,-0.1816406 0.84375,-0.3164063 0.263672,-0.140625 0.518555,-0.3046875 0.761719,-0.4921875 0.240235,-0.1933593 0.47461,-0.4130859 0.703125,-0.65625 z m -6.609375,-4.7578122 c 0.638672,-0.615235 1.330078,-1.078125 2.074219,-1.382813 0.75,-0.310547 1.576172,-0.46875 2.484375,-0.46875 0.647461,0 1.224609,0.111328 1.734375,0.328125 0.506836,0.210938 0.931641,0.509766 1.277344,0.890625 0.342773,0.383789 0.600586,0.8496096 0.773437,1.3945314 0.178711,0.5478516 0.269531,1.1455079 0.269531,1.7929688 v 7.45312499 h -0.914062 c -0.196289,0 -0.348633,-0.02929688 -0.457031,-0.09375 -0.111328,-0.0703125 -0.19336,-0.19921875 -0.246094,-0.38671875 L 58.259011,-1.5834141 c -0.304688,0.28125 -0.606445,0.5332032 -0.902344,0.75000004 -0.290039,0.21972656 -0.594726,0.40429687 -0.914062,0.55078125 -0.322266,0.14941406 -0.665039,0.26367187 -1.03125,0.33984375 -0.369141,0.08496094 -0.770508,0.12890625 -1.207032,0.12890625 -0.454101,0 -0.878906,-0.0644531 -1.277343,-0.1875 -0.398438,-0.13183594 -0.747071,-0.32226563 -1.042969,-0.57421875 -0.298828,-0.24902344 -0.533203,-0.56835934 -0.703125,-0.96093754 -0.172852,-0.3896484 -0.257813,-0.8466796 -0.257813,-1.3710937 0,-0.4599609 0.123047,-0.9023438 0.375,-1.3242188 0.257813,-0.4277343 0.667969,-0.8085937 1.230469,-1.1367187 0.56836,-0.3339844 1.306641,-0.609375 2.214844,-0.8203125 0.914062,-0.2109375 2.033203,-0.328125 3.363281,-0.3515625 v -0.9140625 c 0,-0.9052734 -0.196289,-1.5878906 -0.585937,-2.0507813 -0.392578,-0.46875 -0.960938,-0.7031249 -1.710938,-0.7031249 -0.509765,0 -0.93457,0.06738 -1.277344,0.199219 -0.336914,0.1259763 -0.629882,0.2666013 -0.878906,0.4218747 -0.251953,0.1582031 -0.46582,0.2988281 -0.644531,0.421875 -0.181641,0.1259766 -0.360352,0.1875 -0.539063,0.1875 -0.134765,0 -0.251953,-0.035156 -0.351562,-0.1054688 -0.102539,-0.070312 -0.1875,-0.1582031 -0.257813,-0.2695312 z m 19.833985,0.4218747 c -0.05567,0.087891 -0.114258,0.1523437 -0.175782,0.1992187 -0.06445,0.046875 -0.149414,0.070312 -0.257812,0.070312 -0.117188,0 -0.246094,-0.046875 -0.386719,-0.140625 -0.134766,-0.099609 -0.301758,-0.2050781 -0.503906,-0.3164062 -0.205078,-0.1171875 -0.454102,-0.2226563 -0.75,-0.3164062 -0.298828,-0.09961 -0.66211,-0.152343 -1.089844,-0.152343 -0.571289,0 -1.075195,0.102539 -1.511719,0.3046867 -0.439453,0.2050781 -0.805664,0.5009766 -1.101562,0.890625 -0.298828,0.3837891 -0.521485,0.8496094 -0.667969,1.3945312 -0.149414,0.5390625 -0.222656,1.1455079 -0.222656,1.8164063 0,0.7119141 0.07617,1.3417969 0.234375,1.8867187 0.164062,0.5478516 0.392578,1.0078125 0.691406,1.3828125 0.295898,0.3691407 0.650391,0.6503907 1.066406,0.84375 0.421875,0.1962891 0.893555,0.2929688 1.417969,0.2929688 0.492188,0 0.896484,-0.058594 1.21875,-0.1757813 0.328125,-0.1171875 0.597656,-0.2460937 0.808594,-0.3867187 0.210937,-0.1464844 0.386719,-0.28125 0.527344,-0.3984375 0.140625,-0.1230469 0.28125,-0.1875 0.421875,-0.1875 0.164062,0 0.292968,0.067383 0.386718,0.1992187 l 0.574219,0.75 c -0.251953,0.3134766 -0.539062,0.5830079 -0.867187,0.80859379 -0.322266,0.21972656 -0.667969,0.40429687 -1.042969,0.55078125 -0.369141,0.14941406 -0.75586,0.26074219 -1.160156,0.328125 -0.407227,0.0703125 -0.820313,0.10546875 -1.242188,0.10546875 -0.726562,0 -1.40332,-0.13476563 -2.027344,-0.3984375 -0.626953,-0.27246094 -1.168945,-0.66210938 -1.628906,-1.17187499 -0.462891,-0.515625 -0.826172,-1.1425781 -1.089844,-1.8867188 -0.257812,-0.7412109 -0.386718,-1.5878906 -0.386718,-2.5429687 0,-0.8671875 0.120117,-1.6669922 0.363281,-2.4023438 0.240234,-0.7324218 0.591797,-1.3652343 1.054687,-1.8984374 0.46875,-0.530273 1.042969,-0.943359 1.722657,-1.242187 0.679687,-0.304688 1.458984,-0.457031 2.34375,-0.457031 0.820312,0 1.541015,0.134765 2.167968,0.398437 0.624024,0.266602 1.174805,0.641602 1.652344,1.125 z M 76.36155,-11.64982 V 0.86580469 c 0,0.45996091 -0.06445,0.89355471 -0.1875,1.30078121 -0.117188,0.4042969 -0.313477,0.7558594 -0.585938,1.0546875 -0.266601,0.2958985 -0.609375,0.5302735 -1.03125,0.703125 -0.416015,0.1699219 -0.914062,0.2578125 -1.5,0.2578125 -0.243164,0 -0.46582,-0.020508 -0.667968,-0.058594 -0.210938,-0.041016 -0.421875,-0.09375 -0.632813,-0.1640625 l 0.08203,-1.1132813 c 0.01758,-0.064453 0.04395,-0.1142578 0.08203,-0.1523437 0.03223,-0.032227 0.0791,-0.052734 0.140625,-0.058594 0.06445,-0.00879 0.140625,-0.011719 0.234375,-0.011719 0.09375,0.00586 0.216797,0.011719 0.363281,0.011719 0.591797,0 1.013672,-0.140625 1.265625,-0.421875 0.257812,-0.28125 0.386719,-0.7324218 0.386719,-1.34765621 V -11.64982 Z m 0.421875,-3.65625 c 0,0.196289 -0.04102,0.380859 -0.117188,0.550781 -0.0791,0.172852 -0.1875,0.328125 -0.328125,0.46875 -0.134765,0.134766 -0.290039,0.240234 -0.46875,0.316406 -0.172851,0.07031 -0.357421,0.105469 -0.550781,0.105469 -0.205078,0 -0.392578,-0.03516 -0.5625,-0.105469 -0.172851,-0.07617 -0.325195,-0.18164 -0.457031,-0.316406 -0.125977,-0.140625 -0.228516,-0.295898 -0.304688,-0.46875 -0.0791,-0.169922 -0.117187,-0.354492 -0.117187,-0.550781 0,-0.202149 0.03809,-0.392578 0.117187,-0.574219 0.07617,-0.178711 0.178711,-0.333984 0.304688,-0.46875 0.131836,-0.131836 0.28418,-0.237305 0.457031,-0.316406 0.169922,-0.07617 0.357422,-0.117188 0.5625,-0.117188 0.19336,0 0.37793,0.04102 0.550781,0.117188 0.178711,0.0791 0.333985,0.18457 0.46875,0.316406 0.140625,0.134766 0.249024,0.290039 0.328125,0.46875 0.07617,0.181641 0.117188,0.37207 0.117188,0.574219 z m 5.097656,3.65625 V -0.00138281 H 79.8303 V -11.64982 Z m 0.433594,-3.65625 c 0,0.196289 -0.04102,0.380859 -0.117188,0.550781 -0.0791,0.172852 -0.1875,0.328125 -0.328125,0.46875 -0.134765,0.134766 -0.290039,0.240234 -0.46875,0.316406 -0.18164,0.07031 -0.36914,0.105469 -0.5625,0.105469 -0.205078,0 -0.392578,-0.03516 -0.5625,-0.105469 -0.172851,-0.07617 -0.325195,-0.18164 -0.457031,-0.316406 -0.125976,-0.140625 -0.228515,-0.295898 -0.304687,-0.46875 -0.0791,-0.169922 -0.117188,-0.354492 -0.117188,-0.550781 0,-0.202149 0.03809,-0.392578 0.117188,-0.574219 0.07617,-0.178711 0.178711,-0.333984 0.304687,-0.46875 0.131836,-0.131836 0.28418,-0.237305 0.457031,-0.316406 0.169922,-0.07617 0.357422,-0.117188 0.5625,-0.117188 0.19336,0 0.38086,0.04102 0.5625,0.117188 0.178711,0.0791 0.333985,0.18457 0.46875,0.316406 0.140625,0.134766 0.249024,0.290039 0.328125,0.46875 0.07617,0.181641 0.117188,0.37207 0.117188,0.574219 z m 22.646485,-1.171875 v 16.47656219 h -1.11328 c -0.18164,0 -0.32813,-0.02929688 -0.44531,-0.09375 -0.11719,-0.06152344 -0.23438,-0.1640625 -0.35157,-0.3046875 L 93.523659,-12.821695 c 0.01465,0.1875 0.02344,0.375 0.02344,0.5625 0.0059,0.18164 0.01172,0.351562 0.01172,0.515625 V -0.00138281 H 91.613503 V -16.477945 h 1.148438 c 0.09961,0 0.18164,0.0059 0.246093,0.01172 0.07031,0.0088 0.131836,0.0293 0.1875,0.05859 0.05273,0.02344 0.108399,0.06445 0.164063,0.117188 0.05273,0.04687 0.111328,0.111328 0.175781,0.1875 l 9.527342,12.4101559 c -0.0176,-0.2021484 -0.0322,-0.3984375 -0.0469,-0.5859375 -0.009,-0.1875 -0.0117,-0.3632812 -0.0117,-0.5273437 V -16.477945 Z m 9.69141,11.2265622 c -0.9375,0.032227 -1.74024,0.1113281 -2.40235,0.234375 -0.66504,0.1171875 -1.20703,0.2753906 -1.6289,0.46875 -0.41602,0.1875 -0.71485,0.4160156 -0.90235,0.6796875 -0.1875,0.2578125 -0.28125,0.5478516 -0.28125,0.8671875 0,0.3046875 0.0469,0.5712891 0.14063,0.796875 0.0996,0.2197266 0.2373,0.3984375 0.41015,0.5390625 0.16992,0.140625 0.375,0.2460937 0.60938,0.3164062 0.23437,0.064453 0.48633,0.09375 0.76172,0.09375 0.35742,0 0.68554,-0.035156 0.98437,-0.1054687 0.2959,-0.076172 0.57715,-0.1816406 0.84375,-0.3164063 0.26367,-0.140625 0.51856,-0.3046875 0.76172,-0.4921875 0.24023,-0.1933593 0.47461,-0.4130859 0.70313,-0.65625 z m -6.60938,-4.7578122 c 0.63867,-0.615235 1.33008,-1.078125 2.07422,-1.382813 0.75,-0.310547 1.57617,-0.46875 2.48437,-0.46875 0.64747,0 1.22461,0.111328 1.73438,0.328125 0.50684,0.210938 0.93164,0.509766 1.27734,0.890625 0.34278,0.383789 0.60059,0.8496096 0.77344,1.3945314 0.17871,0.5478516 0.26953,1.1455079 0.26953,1.7929688 v 7.45312499 h -0.91406 c -0.19629,0 -0.34863,-0.02929688 -0.45703,-0.09375 -0.11133,-0.0703125 -0.19336,-0.19921875 -0.2461,-0.38671875 l -0.23437,-1.10156254 c -0.30469,0.28125 -0.60645,0.5332032 -0.90234,0.75000004 -0.29004,0.21972656 -0.59473,0.40429687 -0.91407,0.55078125 -0.32226,0.14941406 -0.66504,0.26367187 -1.03125,0.33984375 -0.36914,0.08496094 -0.7705,0.12890625 -1.20703,0.12890625 -0.4541,0 -0.8789,-0.0644531 -1.27734,-0.1875 -0.39844,-0.13183594 -0.74707,-0.32226563 -1.04297,-0.57421875 -0.29883,-0.24902344 -0.5332,-0.56835934 -0.70313,-0.96093754 -0.17285,-0.3896484 -0.25781,-0.8466796 -0.25781,-1.3710937 0,-0.4599609 0.12305,-0.9023438 0.375,-1.3242188 0.25781,-0.4277343 0.66797,-0.8085937 1.23047,-1.1367187 0.56836,-0.3339844 1.30664,-0.609375 2.21484,-0.8203125 0.91407,-0.2109375 2.03321,-0.328125 3.36329,-0.3515625 v -0.9140625 c 0,-0.9052734 -0.19629,-1.5878906 -0.58594,-2.0507813 -0.39258,-0.46875 -0.96094,-0.7031249 -1.71094,-0.7031249 -0.50977,0 -0.93457,0.06738 -1.27734,0.199219 -0.33692,0.1259763 -0.62989,0.2666013 -0.87891,0.4218747 -0.25195,0.1582031 -0.46582,0.2988281 -0.64453,0.421875 -0.18164,0.1259766 -0.36035,0.1875 -0.53906,0.1875 -0.13477,0 -0.25196,-0.035156 -0.35157,-0.1054688 -0.10253,-0.070312 -0.1875,-0.1582031 -0.25781,-0.2695312 z m 13.66699,0.6914059 c 0.36621,-0.7968749 0.82032,-1.4179689 1.35938,-1.8632809 0.53906,-0.451172 1.19531,-0.679688 1.96875,-0.679688 0.24023,0 0.47461,0.0293 0.70312,0.08203 0.22559,0.05566 0.42774,0.140625 0.60938,0.257813 l -0.15235,1.5234374 c -0.0469,0.1962891 -0.16113,0.2929688 -0.33984,0.2929688 -0.11133,0 -0.26953,-0.023437 -0.48047,-0.070312 -0.20508,-0.046875 -0.43945,-0.070312 -0.70312,-0.070312 -0.36914,0 -0.69727,0.055664 -0.98438,0.1640625 -0.28125,0.1025391 -0.53613,0.2578125 -0.76172,0.46875 -0.22851,0.2109375 -0.43066,0.4746094 -0.60937,0.7851562 -0.18164,0.3134766 -0.34571,0.6679688 -0.49219,1.0664063 v 7.35937499 h -2.0625 V -11.64982 h 1.18359 c 0.2168,0 0.36914,0.04395 0.45704,0.128906 0.085,0.0791 0.14062,0.222656 0.16406,0.433594 z m 10.86914,-2.5195309 c 0.84961,0 1.61719,0.146484 2.29688,0.433593 0.68555,0.28125 1.27148,0.685547 1.75781,1.207032 0.4834,0.5156247 0.85547,1.1455075 1.11328,1.8867184 0.25781,0.7441407 0.38672,1.5673829 0.38672,2.4726563 0,0.9228516 -0.12891,1.7548828 -0.38672,2.4960937 -0.25781,0.7353516 -0.62988,1.3652344 -1.11328,1.8867188 -0.48633,0.51562499 -1.07226,0.91406249 -1.75781,1.19531249 -0.67969,0.27832031 -1.44727,0.421875 -2.29688,0.421875 -0.85254,0 -1.62304,-0.14355469 -2.30859,-0.421875 -0.68848,-0.28125 -1.27441,-0.6796875 -1.75781,-1.19531249 -0.48633,-0.5214844 -0.85547,-1.1513672 -1.11328,-1.8867188 -0.25782,-0.7412109 -0.38672,-1.5732421 -0.38672,-2.4960937 0,-0.9052734 0.1289,-1.7285156 0.38672,-2.4726563 0.25781,-0.7412109 0.62695,-1.3710937 1.11328,-1.8867184 0.4834,-0.521485 1.06933,-0.925782 1.75781,-1.207032 0.68555,-0.287109 1.45605,-0.433593 2.30859,-0.433593 z m 0,10.3945309 c 1.1543,0 2.01563,-0.3808593 2.57813,-1.1484375 0.56836,-0.7734375 0.85547,-1.8515625 0.85547,-3.234375 0,-1.3828125 -0.28711,-2.4609375 -0.85547,-3.234375 -0.5625,-0.7792968 -1.42383,-1.1718754 -2.57813,-1.1718754 -0.58007,0 -1.08691,0.10254 -1.52343,0.3046879 -0.43067,0.1962891 -0.79102,0.4863282 -1.07813,0.8671875 -0.29004,0.375 -0.50391,0.8378907 -0.64453,1.3828125 -0.14063,0.5478516 -0.21094,1.1660157 -0.21094,1.8515625 0,1.3828125 0.28418,2.4609375 0.85547,3.234375 0.56836,0.7675782 1.43555,1.1484375 2.60156,1.1484375 z m 15.72364,-7.4414062 c -0.38379,-0.5068359 -0.79688,-0.8613281 -1.24219,-1.0664063 -0.44531,-0.2109374 -0.94336,-0.3164064 -1.48828,-0.3164064 -1.08692,0 -1.92188,0.3925783 -2.50782,1.1718752 -0.58007,0.7734375 -0.86718,1.875 -0.86718,3.3046875 0,0.7587891 0.0615,1.4121094 0.1875,1.9570312 0.13183,0.5390625 0.32226,0.984375 0.57422,1.3359375 0.25781,0.3457032 0.56836,0.5976563 0.9375,0.7617188 0.36621,0.1582031 0.78515,0.234375 1.2539,0.234375 0.67969,0 1.26856,-0.1523438 1.76953,-0.4570313 0.49805,-0.3046875 0.96094,-0.7382812 1.38282,-1.3007812 z m 2.05078,-8.0624997 v 16.94531219 h -1.21875 c -0.29004,0 -0.47461,-0.140625 -0.55078,-0.421875 l -0.1875,-1.41796879 c -0.50098,0.6035157 -1.07227,1.0869141 -1.71094,1.45312504 -0.63281,0.36914062 -1.36817,0.55078125 -2.20313,0.55078125 -0.66504,0 -1.27148,-0.13183594 -1.8164,-0.38671875 -0.53907,-0.2578125 -1.00489,-0.63574219 -1.39453,-1.13671874 -0.38379,-0.4980469 -0.67969,-1.1191406 -0.89063,-1.8632813 -0.20508,-0.7412109 -0.30469,-1.5966796 -0.30469,-2.5664062 0,-0.8583984 0.11133,-1.6552734 0.33985,-2.390625 0.23437,-0.7412109 0.56543,-1.3828125 0.99609,-1.9218747 0.42774,-0.544922 0.95508,-0.975586 1.58203,-1.289063 0.62403,-0.310547 1.32715,-0.46875 2.10938,-0.46875 0.71777,0 1.33008,0.123047 1.83984,0.363281 0.50684,0.243165 0.96094,0.580079 1.35938,1.007813 v -6.457031 z m 8.14746,5.109375 c 0.84961,0 1.61719,0.146484 2.29687,0.433593 0.68555,0.28125 1.27149,0.685547 1.75782,1.207032 0.48339,0.5156247 0.85546,1.1455075 1.11328,1.8867184 0.25781,0.7441407 0.38672,1.5673829 0.38672,2.4726563 0,0.9228516 -0.12891,1.7548828 -0.38672,2.4960937 -0.25782,0.7353516 -0.62989,1.3652344 -1.11328,1.8867188 -0.48633,0.51562499 -1.07227,0.91406249 -1.75782,1.19531249 -0.67968,0.27832031 -1.44726,0.421875 -2.29687,0.421875 -0.85254,0 -1.62305,-0.14355469 -2.3086,-0.421875 -0.68847,-0.28125 -1.27441,-0.6796875 -1.75781,-1.19531249 -0.48633,-0.5214844 -0.85547,-1.1513672 -1.11328,-1.8867188 -0.25781,-0.7412109 -0.38672,-1.5732421 -0.38672,-2.4960937 0,-0.9052734 0.12891,-1.7285156 0.38672,-2.4726563 0.25781,-0.7412109 0.62695,-1.3710937 1.11328,-1.8867184 0.4834,-0.521485 1.06934,-0.925782 1.75781,-1.207032 0.68555,-0.287109 1.45606,-0.433593 2.3086,-0.433593 z m 0,10.3945309 c 1.1543,0 2.01562,-0.3808593 2.57812,-1.1484375 0.56836,-0.7734375 0.85547,-1.8515625 0.85547,-3.234375 0,-1.3828125 -0.28711,-2.4609375 -0.85547,-3.234375 -0.5625,-0.7792968 -1.42382,-1.1718754 -2.57812,-1.1718754 -0.58008,0 -1.08692,0.10254 -1.52344,0.3046879 -0.43066,0.1962891 -0.79101,0.4863282 -1.07812,0.8671875 -0.29004,0.375 -0.50391,0.8378907 -0.64454,1.3828125 -0.14062,0.5478516 -0.21093,1.1660157 -0.21093,1.8515625 0,1.3828125 0.28418,2.4609375 0.85547,3.234375 0.56836,0.7675782 1.43554,1.1484375 2.60156,1.1484375 z m 24.03515,-10.2070309 -3.77343,11.64843719 h -1.62891 c -0.19629,0 -0.33398,-0.12890625 -0.41016,-0.38671875 l -2.57812,-7.91015624 c -0.0644,-0.1699219 -0.11426,-0.3457031 -0.15234,-0.5273438 -0.041,-0.1787109 -0.0791,-0.3574218 -0.11719,-0.5390625 -0.0322,0.1816407 -0.0674,0.3603516 -0.10547,0.5390625 -0.041,0.1816407 -0.0908,0.3603516 -0.15234,0.5390625 l -2.625,7.89843754 c -0.0703,0.2578125 -0.22266,0.38671875 -0.45704,0.38671875 h -1.54687 L 165.21604,-11.64982 h 1.61719 c 0.15527,0 0.28711,0.04395 0.39844,0.128906 0.11718,0.0791 0.19336,0.175781 0.23437,0.292969 l 2.22656,7.4999997 c 0.13184,0.5566406 0.23731,1.0751953 0.31641,1.5585937 0.0703,-0.2490234 0.14063,-0.5039062 0.21094,-0.7617187 0.0703,-0.2636719 0.14648,-0.5302734 0.23437,-0.796875 l 2.46094,-7.5468747 c 0.0381,-0.117188 0.10547,-0.210938 0.19922,-0.28125 0.0937,-0.07617 0.21094,-0.117188 0.35156,-0.117188 h 0.90235 c 0.14648,0 0.27246,0.04102 0.375,0.117188 0.0996,0.07031 0.16992,0.164062 0.21093,0.28125 l 2.40235,7.5468747 c 0.085,0.2666016 0.1582,0.5332031 0.22265,0.796875 0.0703,0.2578125 0.13477,0.5126953 0.19922,0.7617187 0.0381,-0.2490234 0.085,-0.5039062 0.14063,-0.7617187 0.0615,-0.2578125 0.1289,-0.5214844 0.19922,-0.796875 l 2.27343,-7.4999997 c 0.0381,-0.123047 0.1084,-0.225586 0.21094,-0.304688 0.1084,-0.07617 0.23731,-0.117187 0.38672,-0.117187 z m 9.63282,4.5468747 c 0,-0.46875 -0.0674,-0.9023438 -0.19922,-1.3007813 -0.13477,-0.3984375 -0.32813,-0.7382812 -0.58594,-1.0195312 -0.25781,-0.2871094 -0.57129,-0.5097656 -0.9375,-0.6679692 -0.36914,-0.155273 -0.78516,-0.234375 -1.25391,-0.234375 -0.98437,0 -1.76367,0.28711 -2.33203,0.8554692 -0.57129,0.5712891 -0.92578,1.359375 -1.0664,2.3671875 z m 1.65234,5.4726562 c -0.25195,0.3046875 -0.55078,0.5712891 -0.90234,0.79687504 -0.35157,0.22851562 -0.73242,0.41601562 -1.13672,0.5625 -0.40723,0.140625 -0.82617,0.24902344 -1.25391,0.31640625 -0.42187,0.07617187 -0.84375,0.1171875 -1.26562,0.1171875 -0.81446,0 -1.5586,-0.13769531 -2.23828,-0.41015625 -0.67383,-0.27246094 -1.25977,-0.67089844 -1.75782,-1.19531254 -0.49218,-0.5214843 -0.8789,-1.171875 -1.16015,-1.9453125 -0.27539,-0.7792968 -0.41016,-1.6699218 -0.41016,-2.671875 0,-0.8115234 0.12305,-1.5703125 0.375,-2.2734375 0.24902,-0.7089843 0.60938,-1.3242187 1.07813,-1.8398439 0.46875,-0.515625 1.03711,-0.919922 1.71093,-1.21875 0.67969,-0.295898 1.44141,-0.445312 2.28516,-0.445312 0.69434,0 1.33887,0.117187 1.93359,0.351562 0.5918,0.234375 1.1045,0.574219 1.53516,1.019531 0.43652,0.439454 0.77637,0.9814458 1.01953,1.6289067 0.24902,0.6503906 0.375,1.3886719 0.375,2.2148437 0,0.3222657 -0.0352,0.5361329 -0.10547,0.6445313 -0.0703,0.1025391 -0.19922,0.1523437 -0.38672,0.1523437 h -7.79297 c 0.0234,0.7441407 0.12305,1.3886719 0.30469,1.9335938 0.17871,0.5390625 0.42774,0.9931641 0.75,1.359375 0.32813,0.3603516 0.71485,0.6298828 1.16016,0.8085937 0.44531,0.1816407 0.94043,0.2695313 1.48828,0.2695313 0.51562,0 0.95508,-0.058594 1.32422,-0.1757813 0.375,-0.1171875 0.69433,-0.2402343 0.96094,-0.375 0.27246,-0.140625 0.49804,-0.2695312 0.67968,-0.3867187 0.17871,-0.1230469 0.33399,-0.1875 0.46875,-0.1875 0.16407,0 0.29297,0.067383 0.38672,0.1992187 z M 198.676,-11.64982 V 0.86580469 c 0,0.45996091 -0.0644,0.89355471 -0.1875,1.30078121 -0.11718,0.4042969 -0.31347,0.7558594 -0.58593,1.0546875 -0.26661,0.2958985 -0.60938,0.5302735 -1.03125,0.703125 -0.41602,0.1699219 -0.91407,0.2578125 -1.5,0.2578125 -0.24317,0 -0.46582,-0.020508 -0.66797,-0.058594 -0.21094,-0.041016 -0.42188,-0.09375 -0.63282,-0.1640625 l 0.082,-1.1132813 c 0.0176,-0.064453 0.0439,-0.1142578 0.082,-0.1523437 0.0322,-0.032227 0.0791,-0.052734 0.14062,-0.058594 0.0644,-0.00879 0.14063,-0.011719 0.23438,-0.011719 0.0937,0.00586 0.21679,0.011719 0.36328,0.011719 0.59179,0 1.01367,-0.140625 1.26562,-0.421875 0.25782,-0.28125 0.38672,-0.7324218 0.38672,-1.34765621 V -11.64982 Z m 0.42188,-3.65625 c 0,0.196289 -0.041,0.380859 -0.11719,0.550781 -0.0791,0.172852 -0.1875,0.328125 -0.32812,0.46875 -0.13477,0.134766 -0.29004,0.240234 -0.46875,0.316406 -0.17286,0.07031 -0.35743,0.105469 -0.55079,0.105469 -0.20507,0 -0.39257,-0.03516 -0.5625,-0.105469 -0.17285,-0.07617 -0.32519,-0.18164 -0.45703,-0.316406 -0.12597,-0.140625 -0.22851,-0.295898 -0.30468,-0.46875 -0.0791,-0.169922 -0.11719,-0.354492 -0.11719,-0.550781 0,-0.202149 0.0381,-0.392578 0.11719,-0.574219 0.0762,-0.178711 0.17871,-0.333984 0.30468,-0.46875 0.13184,-0.131836 0.28418,-0.237305 0.45703,-0.316406 0.16993,-0.07617 0.35743,-0.117188 0.5625,-0.117188 0.19336,0 0.37793,0.04102 0.55079,0.117188 0.17871,0.0791 0.33398,0.18457 0.46875,0.316406 0.14062,0.134766 0.24902,0.290039 0.32812,0.46875 0.0762,0.181641 0.11719,0.37207 0.11719,0.574219 z m 0,0" style="fill:#231f20;fill-opacity:1;fill-rule:nonzero;stroke:none" aria-label="Edukacji Narodowej" transform="matrix(1.3333333,0,0,1.3333333,122.0596,90.662)" clip-path="url(#clipPath11)"/>
    </g>
    <g id="group-MC3">
      <g id="group-MC4"/>
    </g>
    <g id="group-MC5">
      <path id="path12" d="M 290.665,16.979 H 93.543 v 4.11 h 197.122 z" style="fill:#ed1c24;fill-opacity:1;fill-rule:nonzero;stroke:none" transform="matrix(1.3333333,0,0,-1.3333333,0,143.716)"/>
      <path id="path13" d="M 290.664,21.09 H 93.542 v 4.11 h 197.122 z" style="fill:#ffffff;fill-opacity:1;fill-rule:nonzero;stroke:none" transform="matrix(1.3333333,0,0,-1.3333333,0,143.716)"/>
      <path id="path14" d="m 93.542,25.2 h 197.122 v 0.284 H 93.542 Z" style="fill:#231f20;fill-opacity:1;fill-rule:nonzero;stroke:none" transform="matrix(1.3333333,0,0,-1.3333333,0,143.716)"/>
    </g>
  </g>
</svg>